<?xml version="1.0" encoding="UTF-8"?> <svg xmlns="http://www.w3.org/2000/svg" width="564" height="245" viewBox="0 0 564 245" fill="none"><g opacity="0.03"><path d="M429.956 22.542C429.956 29.393 427.525 36.9071 422.663 45.0841C418.022 53.2611 412.055 60.8856 404.762 67.9576C397.69 75.0296 389.955 80.9966 381.557 85.8586C373.159 90.4996 365.314 92.8201 358.021 92.8201C352.938 92.8201 348.849 92.2676 345.755 91.1626C342.882 89.8366 340.672 88.0686 339.125 85.8586C326.749 93.1516 313.378 99.6711 299.013 105.417C284.648 111.163 271.167 115.031 258.57 117.02C251.056 126.965 243.211 136.91 235.034 146.855C227.078 156.579 218.459 165.971 209.177 175.032C199.895 184.093 189.95 192.602 179.342 200.558C168.734 208.514 157.242 215.586 144.866 221.774C162.325 224.647 179.894 227.52 197.574 230.393C215.254 233.045 234.371 234.371 254.924 234.371C264.427 234.371 273.046 233.708 280.781 232.382C288.737 231.056 295.809 229.509 301.997 227.741C308.185 225.752 313.489 223.763 317.909 221.774C322.329 219.564 325.754 217.685 328.185 216.138C329.29 215.475 330.064 215.144 330.506 215.144C331.169 215.144 331.5 215.586 331.5 216.47C331.5 218.238 330.727 219.674 329.18 220.779C326.086 223.431 321.334 226.083 314.925 228.735C308.516 231.387 301.113 233.708 292.715 235.697C284.538 237.686 275.698 239.343 266.195 240.669C256.692 241.995 247.189 242.658 237.686 242.658C218.238 242.658 200.116 241.001 183.32 237.686C166.524 234.371 149.617 230.945 132.6 227.409C119.561 232.713 105.528 237.023 90.4996 240.338C75.6926 243.653 59.4491 245.089 41.7691 244.647C38.4541 244.647 34.8075 244.426 30.8295 243.984C27.0725 243.542 23.5365 242.769 20.2215 241.664C17.1275 240.78 14.4755 239.454 12.2655 237.686C10.0555 235.697 8.95051 233.266 8.95051 230.393C9.83451 223.763 14.807 219.232 23.868 216.801C33.15 214.37 44.9736 213.155 59.3386 213.155C73.0406 213.155 86.0796 213.928 98.4556 215.475C110.832 216.801 122.987 218.348 134.921 220.116C145.971 214.37 156.468 207.74 166.413 200.226C176.358 192.491 185.751 184.204 194.591 175.364C203.652 166.524 212.271 157.242 220.448 147.518C228.625 137.794 236.691 127.959 244.647 118.014C236.691 118.014 230.172 116.467 225.089 113.373C220.227 110.058 217.796 104.533 217.796 96.7981C208.514 100.776 198.569 104.423 187.961 107.738C189.95 113.042 191.497 118.456 192.602 123.981C193.707 129.506 194.259 135.031 194.259 140.556V143.871C194.259 145.639 193.707 146.523 192.602 146.523C191.497 146.523 190.944 145.75 190.944 144.203C190.944 137.352 190.171 131.385 188.624 126.302C187.298 121.219 185.419 115.583 182.988 109.395C165.308 114.92 146.965 119.451 127.959 122.987C108.953 126.302 90.9416 127.959 73.9246 127.959C63.5376 127.959 53.8136 127.186 44.7526 125.639C35.6915 123.871 27.846 121.219 21.216 117.683C14.586 114.147 9.39251 109.506 5.63551 103.76C1.8785 97.7926 0 90.7206 0 82.5436C0 76.5766 1.6575 70.7201 4.97251 64.9741C8.28751 59.0071 13.039 53.7031 19.227 49.0621C25.636 44.4211 33.371 40.6641 42.4321 37.7911C51.7141 34.9181 62.1011 33.4815 73.5931 33.4815C86.6321 33.4815 99.0081 35.3601 110.721 39.1171C122.655 42.6531 133.484 47.6256 143.208 54.0346C152.932 60.4436 161.441 67.9576 168.734 76.5766C176.248 85.1956 182.104 94.3671 186.303 104.091C197.795 100.334 208.403 96.4666 218.127 92.4886C218.79 88.2896 220.337 84.0906 222.768 79.8916C225.199 75.6926 228.072 71.9356 231.387 68.6206C234.923 65.0846 238.901 62.3221 243.321 60.3331C247.741 58.1231 252.272 57.0181 256.913 57.0181C263.764 57.0181 267.189 58.5651 267.189 61.6591C267.189 66.0791 263.322 71.1621 255.587 76.9081C248.073 82.4331 238.017 88.0686 225.42 93.8146C225.42 100.887 227.52 105.97 231.719 109.064C235.918 111.937 241.332 113.484 247.962 113.705C259.233 99.3396 270.394 85.3061 281.444 71.6041C292.494 57.9021 303.875 45.7471 315.588 35.139C327.522 24.531 340.009 16.0225 353.048 9.61353C366.087 3.20451 380.231 0 395.48 0C408.077 0 416.917 2.21001 422 6.63002C427.304 10.829 429.956 16.133 429.956 22.542ZM369.623 51.3826C369.623 49.3936 367.745 48.3991 363.988 48.3991C361.557 48.3991 359.125 49.1726 356.694 50.7196C354.263 52.2666 352.053 54.2556 350.064 56.6866C348.296 59.1176 346.749 61.8801 345.423 64.9741C344.318 67.8471 343.766 70.7201 343.766 73.5931C343.766 75.3611 343.876 76.5766 344.097 77.2396C351.611 72.1566 357.689 67.4051 362.33 62.9851C367.192 58.3441 369.623 54.4766 369.623 51.3826ZM420.011 25.5255C420.011 19.3375 417.912 14.2545 413.713 10.2765C409.514 6.29851 402.331 4.30951 392.165 4.30951C378.242 4.30951 365.424 7.40351 353.711 13.5915C341.998 19.5585 330.948 27.625 320.561 37.7911C310.174 47.7361 300.118 59.2281 290.394 72.2671C280.891 85.3061 271.278 98.7871 261.554 112.71C267.3 111.826 273.377 110.39 279.786 108.401C286.416 106.191 293.046 103.76 299.676 101.108C306.306 98.2346 312.826 95.1406 319.235 91.8256C325.644 88.5106 331.611 85.1956 337.136 81.8806C336.694 80.7756 336.473 79.1181 336.473 76.9081C336.473 73.1511 337.357 69.2836 339.125 65.3056C341.114 61.3276 343.545 57.6811 346.418 54.3661C349.512 51.0511 352.937 48.2886 356.694 46.0786C360.451 43.8686 364.208 42.7636 367.965 42.7636C374.374 42.7636 377.579 44.6421 377.579 48.3991C377.579 52.8191 374.595 58.0126 368.628 63.9796C362.882 69.7256 355.368 75.5821 346.086 81.5491C347.412 83.3171 349.18 84.7536 351.39 85.8586C353.821 86.7426 356.915 87.1846 360.672 87.1846C367.523 87.1846 374.485 85.1956 381.557 81.2176C388.629 77.0186 394.928 71.8251 400.453 65.6371C406.199 59.4491 410.84 52.8191 414.376 45.7471C418.133 38.4541 420.011 31.7135 420.011 25.5255ZM261.554 63.9796C261.554 62.4326 259.786 61.6591 256.25 61.6591C252.272 61.6591 248.515 62.5431 244.979 64.3111C241.443 65.8581 238.238 67.9576 235.365 70.6096C232.713 73.2616 230.503 76.2451 228.735 79.5601C226.967 82.8751 225.862 86.1901 225.42 89.5051C236.47 84.6431 245.2 80.0021 251.609 75.5821C258.239 70.9411 261.554 67.0736 261.554 63.9796ZM181.331 105.749C177.795 96.0246 172.049 87.0741 164.093 78.8971C156.358 70.4991 147.297 63.3166 136.91 57.3496C126.744 51.3826 115.804 46.7416 104.091 43.4266C92.3781 40.1116 80.7756 38.4541 69.2836 38.4541C59.3386 38.4541 50.7196 39.5591 43.4266 41.7691C36.1335 43.7581 30.056 46.5206 25.194 50.0566C20.332 53.5926 16.6855 57.6811 14.2545 62.3221C11.8235 66.9631 10.608 71.7146 10.608 76.5766C10.608 85.1956 12.376 92.4886 15.912 98.4556C19.669 104.202 24.6415 108.953 30.8295 112.71C37.2386 116.246 44.6421 118.898 53.0401 120.666C61.6591 122.213 70.9411 122.987 80.8861 122.987C96.5771 122.987 113.152 121.44 130.611 118.346C148.291 115.031 165.198 110.832 181.331 105.749ZM123.65 225.42C112.158 222.989 100.334 221 88.1791 219.453C76.2451 217.685 63.6481 216.912 50.3881 217.133C49.0621 217.133 46.6311 217.354 43.0951 217.796C39.7801 218.017 36.244 218.569 32.487 219.453C28.73 220.337 25.415 221.442 22.542 222.768C19.669 224.094 18.2325 225.752 18.2325 227.741C18.2325 230.835 19.5585 233.266 22.2105 235.034C25.0835 236.581 28.288 237.796 31.824 238.68C35.581 239.343 39.4486 239.675 43.4266 239.675C47.4046 239.896 50.7196 240.006 53.3716 240.006C66.6316 240.006 79.0076 238.791 90.4996 236.36C101.992 233.708 113.042 230.061 123.65 225.42Z" fill="#342619"></path><path d="M442.755 191.939C442.755 192.381 442.534 192.823 442.092 193.265C440.766 194.37 438.667 195.696 435.794 197.243C432.921 198.569 429.716 199.895 426.18 201.221C422.865 202.547 419.219 203.652 415.241 204.536C411.484 205.42 407.727 205.972 403.97 206.193C402.202 210.613 399.771 214.923 396.677 219.122C393.583 223.321 389.936 227.078 385.737 230.393C381.759 233.487 377.339 236.028 372.477 238.017C367.836 240.006 362.974 241.001 357.891 241.001C350.819 241.001 345.736 239.675 342.642 237.023C339.769 234.15 338.332 230.614 338.332 226.415C338.332 221.995 339.548 217.354 341.979 212.492C344.631 207.409 348.056 202.768 352.255 198.569C356.454 194.149 361.095 190.502 366.178 187.629C371.262 184.535 376.234 182.988 381.096 182.988C383.306 178.789 387.174 176.69 392.699 176.69C396.014 176.69 399.108 178.016 401.981 180.668C405.075 183.099 406.622 187.187 406.622 192.933C406.622 196.248 406.18 199.232 405.296 201.884C409.053 201.884 412.92 201.331 416.898 200.226C420.876 199.121 424.633 197.906 428.169 196.58C431.705 195.254 434.578 194.038 436.788 192.933C439.219 191.607 440.656 190.723 441.098 190.281C441.54 190.281 441.982 190.502 442.424 190.944C442.645 191.165 442.755 191.497 442.755 191.939ZM399.329 195.917C399.329 191.055 398.334 187.629 396.345 185.64C394.577 183.43 392.809 182.325 391.041 182.325C389.052 182.325 388.058 183.209 388.058 184.977C388.058 190.06 389.052 193.817 391.041 196.248C393.03 198.679 395.682 200.337 398.997 201.221C399.218 200.116 399.329 198.348 399.329 195.917ZM397.671 206.193C393.03 205.751 389.052 204.204 385.737 201.552C382.643 198.679 380.875 194.259 380.433 188.292C376.455 188.513 372.588 189.839 368.831 192.27C365.074 194.701 361.758 197.685 358.885 201.221C356.233 204.536 354.023 208.293 352.255 212.492C350.487 216.47 349.603 220.227 349.603 223.763C349.603 227.299 350.598 230.282 352.587 232.713C354.576 234.923 357.891 236.028 362.532 236.028C365.184 236.028 368.167 235.255 371.482 233.708C375.018 232.161 378.444 230.061 381.759 227.409C385.295 224.757 388.5 221.663 391.373 218.127C394.246 214.37 396.345 210.392 397.671 206.193Z" fill="#342619"></path><path d="M516.157 192.602C516.157 193.265 515.494 194.48 514.168 196.248C512.842 198.016 510.853 199.895 508.201 201.884C505.549 203.873 502.123 205.641 497.924 207.188C493.725 208.735 488.753 209.508 483.007 209.508C481.459 209.508 479.802 209.287 478.034 208.845C475.161 213.044 471.846 217.133 468.089 221.111C464.553 224.868 460.575 228.293 456.155 231.387C451.735 234.481 447.094 237.023 442.232 239.012C437.37 240.78 432.287 241.664 426.983 241.664C421.9 241.664 419.358 239.122 419.358 234.039C419.358 229.84 420.795 225.199 423.668 220.116C426.541 215.033 429.745 209.95 433.281 204.867C436.817 199.784 440.022 194.812 442.895 189.95C445.768 185.088 447.204 180.889 447.204 177.353C447.204 176.248 447.425 175.253 447.867 174.369C448.309 173.264 449.083 172.712 450.188 172.712C450.63 172.712 451.293 172.933 452.177 173.375C453.282 174.038 453.834 175.695 453.834 178.347C453.834 181.22 452.508 184.977 449.856 189.618C447.204 194.038 444.221 198.79 440.906 203.873C437.812 208.735 434.939 213.486 432.287 218.127C429.635 222.768 428.309 226.746 428.309 230.061C428.309 233.376 429.856 235.034 432.95 235.034C436.707 235.034 440.353 234.26 443.889 232.713C447.646 231.166 451.293 229.067 454.829 226.415C458.365 223.763 461.68 220.779 464.774 217.464C467.868 213.928 470.52 210.392 472.73 206.856C469.636 205.088 467.315 202.768 465.768 199.895C464.442 197.022 463.779 194.149 463.779 191.276C463.779 186.856 465.105 182.878 467.757 179.342C470.63 175.585 474.387 173.706 479.028 173.706C484.995 173.706 487.979 176.911 487.979 183.32C487.979 188.845 485.879 195.475 481.68 203.21C483.448 203.652 485.106 203.873 486.653 203.873C491.957 203.873 496.156 203.21 499.25 201.884C502.565 200.558 505.107 199.232 506.875 197.906C508.864 196.359 510.3 194.922 511.184 193.596C512.068 192.27 512.842 191.607 513.505 191.607C513.947 191.607 514.499 191.718 515.162 191.939C515.825 191.939 516.157 192.16 516.157 192.602ZM481.68 185.972C481.68 181.773 479.691 179.673 475.713 179.673C474.387 179.673 473.282 180.447 472.398 181.994C471.514 183.541 471.072 185.53 471.072 187.961C471.072 189.95 471.514 192.16 472.398 194.591C473.282 196.801 474.719 198.79 476.708 200.558C478.255 197.906 479.47 195.364 480.354 192.933C481.238 190.281 481.68 187.961 481.68 185.972Z" fill="#342619"></path><path d="M563.255 219.122C563.255 220.227 562.04 221.995 559.609 224.426C557.178 226.857 553.863 229.288 549.664 231.719C545.686 234.15 540.934 236.36 535.409 238.349C530.105 240.117 524.58 241.001 518.834 241.001C510.657 241.001 504.801 239.454 501.265 236.36C497.95 233.045 496.292 229.067 496.292 224.426C496.292 220.006 497.508 215.475 499.939 210.834C502.37 205.972 505.574 201.442 509.552 197.243C513.751 193.044 518.392 189.618 523.475 186.966C528.779 184.314 534.194 182.988 539.719 182.988C543.034 182.988 545.796 183.762 548.006 185.309C550.216 186.856 551.321 189.508 551.321 193.265C551.321 197.464 549.885 201.331 547.012 204.867C544.139 208.403 540.492 211.608 536.072 214.481C531.652 217.354 526.79 219.895 521.486 222.105C516.403 224.315 511.541 226.194 506.9 227.741C508.668 232.824 513.53 235.365 521.486 235.365C527.232 235.365 533.31 234.15 539.719 231.719C546.349 229.288 553.089 224.978 559.94 218.79C560.603 217.906 561.267 217.464 561.93 217.464C562.814 217.464 563.255 218.017 563.255 219.122ZM543.034 195.917C543.034 193.486 542.26 191.718 540.713 190.613C539.387 189.287 537.619 188.624 535.409 188.624C531.873 188.624 528.337 189.729 524.801 191.939C521.265 194.149 518.061 196.911 515.188 200.226C512.315 203.541 509.994 207.188 508.226 211.166C506.679 214.923 505.906 218.569 505.906 222.105V224.426C510.547 222.658 515.077 220.779 519.497 218.79C523.917 216.58 527.785 214.26 531.1 211.829C534.636 209.398 537.509 206.856 539.719 204.204C541.929 201.552 543.034 198.79 543.034 195.917Z" fill="#342619"></path></g></svg> 