<?xml version="1.0" encoding="UTF-8"?> <svg xmlns="http://www.w3.org/2000/svg" width="61" height="20" viewBox="0 0 61 20" fill="none"><path d="M3.675 6.225C4.65 2.4 6.8 0 9.875 0C12.325 0 14.025 1.55 14.025 3.725C14.025 6.7 10.875 9.525 5.775 13.575L3.75 15.175V15.225H11.125L12.275 13.775H12.4L9.675 19.425H9.55L9.775 18.1H0V18.075L1.8 16.525C7.525 11.625 10.85 8.675 10.85 5.15C10.85 3.075 9.7 2.05 7.95 2.05C5.85 2.05 4.65 3.5 3.85 6.225H3.675Z" fill="#342619"></path><path d="M12.452 15.85C12.452 15.1 13.002 14.45 13.902 14.1C14.402 16.575 15.402 18.125 17.127 18.125C19.127 18.125 20.627 16.05 20.627 13.45C20.627 10.825 19.127 9.425 17.077 9.425H16.827V9.275C19.977 8.425 22.077 6.85 22.077 4.575C22.077 3.025 21.102 2.05 19.552 2.05C18.002 2.05 16.802 2.975 15.927 5.65H15.752C16.752 1.975 18.877 0 21.527 0C23.652 0 25.177 1.275 25.177 3.2C25.177 5.45 23.177 7.05 20.002 8.25V8.3C21.852 8.675 23.952 9.825 23.952 12.425C23.952 15.6 20.827 18.4 16.852 18.4C14.302 18.4 12.452 17.25 12.452 15.85Z" fill="#342619"></path><path d="M28.6928 10.7C27.5928 10.7 26.7928 9.925 26.7928 8.8C26.7928 7.6 27.6678 6.7 28.8428 6.7C29.9678 6.7 30.7428 7.5 30.7428 8.6C30.7428 9.8 29.8678 10.7 28.6928 10.7ZM24.6178 16.35C24.6178 15.15 25.4928 14.25 26.6678 14.25C27.7928 14.25 28.5678 15.05 28.5678 16.15C28.5678 17.35 27.6928 18.25 26.5178 18.25C25.4178 18.25 24.6178 17.475 24.6178 16.35Z" fill="#342619"></path><path d="M36.5271 18.4C33.8521 18.4 31.7771 16.55 31.7771 12.525C31.7771 6.85 35.7771 0 41.1271 0C43.7521 0 45.7271 1.825 45.7271 5.825C45.7271 11.325 41.9021 18.4 36.5271 18.4ZM34.6521 14.925C34.6521 17.3 35.4271 18.1 36.5271 18.1C39.9521 18.1 42.8521 7.775 42.8521 3.4C42.8521 1.1 42.1521 0.274999 41.1021 0.274999C37.6022 0.274999 34.6521 10.45 34.6521 14.925Z" fill="#342619"></path><path d="M51.1023 18.4C48.4273 18.4 46.3523 16.55 46.3523 12.525C46.3523 6.85 50.3523 0 55.7023 0C58.3273 0 60.3023 1.825 60.3023 5.825C60.3023 11.325 56.4773 18.4 51.1023 18.4ZM49.2273 14.925C49.2273 17.3 50.0023 18.1 51.1023 18.1C54.5273 18.1 57.4273 7.775 57.4273 3.4C57.4273 1.1 56.7273 0.274999 55.6773 0.274999C52.1773 0.274999 49.2273 10.45 49.2273 14.925Z" fill="#342619"></path></svg> 