<?xml version="1.0" encoding="UTF-8"?> <svg xmlns="http://www.w3.org/2000/svg" width="50" height="50" viewBox="0 0 50 50" fill="none"><path d="M24.6127 0.354126C38.0056 0.354126 48.8627 11.2112 48.8627 24.6041C48.8627 37.997 38.0056 48.8541 24.6127 48.8541C11.2198 48.8541 0.362732 37.997 0.362732 24.6041C0.362732 11.2112 11.2198 0.354126 24.6127 0.354126Z" stroke="#342619" stroke-width="0.5"></path><path d="M19.0165 37.5277C19.5365 37.7692 19.8874 38.0977 20.0694 38.513C20.2453 38.9255 20.2294 39.3554 20.0216 39.8029C19.8137 40.2503 19.5043 40.5366 19.0934 40.6618C18.6763 40.7841 18.226 40.733 17.7423 40.5083L16.1007 39.7458L15.8437 40.299C15.6752 40.6618 15.6474 40.9907 15.7603 41.2857C15.8672 41.5779 16.108 41.8111 16.4829 41.9852C16.8215 42.1425 17.1391 42.1945 17.4359 42.1412C17.7265 42.0851 17.9518 41.9325 18.1117 41.6833L18.7102 41.9613C18.4592 42.3593 18.1085 42.608 17.658 42.7075C17.1986 42.8102 16.7241 42.7478 16.2343 42.5203C15.6962 42.2704 15.3371 41.9198 15.1571 41.4686C14.9771 41.0175 15.005 40.5379 15.2409 40.0301L16.8249 36.62L17.4144 36.8938L16.9552 37.8824L17.055 37.9287L16.8431 38.0288C17.0173 37.6539 17.3028 37.419 17.6997 37.324C18.0939 37.2351 18.5328 37.303 19.0165 37.5277ZM18.6306 37.9549C18.2134 37.7611 17.8287 37.7111 17.4765 37.8047C17.1182 37.8956 16.8618 38.1073 16.7073 38.4398L16.324 39.2651L17.9655 40.0276C18.2678 40.1681 18.552 40.1971 18.8181 40.1149C19.0781 40.0299 19.2727 39.8483 19.4019 39.5702C19.548 39.2558 19.5527 38.9529 19.416 38.6615C19.2733 38.3674 19.0115 38.1318 18.6306 37.9549ZM15.2721 35.4445L11.1534 39.0895L10.716 38.5953L11.4574 37.9392L11.3182 37.7819L11.7759 37.7107C11.4315 38.0155 11.0713 38.1518 10.6955 38.1194C10.3102 38.0864 9.96072 37.8927 9.64703 37.5383C9.28473 37.1289 9.12514 36.687 9.16824 36.2127C9.20636 35.7427 9.44758 35.3111 9.89189 34.9179L12.6477 32.479L13.0851 32.9733L10.3892 35.3591C10.0497 35.6596 9.86495 35.9789 9.83487 36.3171C9.7998 36.6597 9.91482 36.9808 10.1799 37.2803C10.4538 37.5899 10.7677 37.7483 11.1214 37.7557C11.4752 37.7632 11.8243 37.6144 12.1688 37.3096L14.8347 34.9502L15.2721 35.4445ZM11.252 29.073C11.4194 29.5934 11.3827 30.0674 11.1421 30.4949C10.8951 30.9245 10.4796 31.2332 9.89574 31.421L8.30593 31.9322C7.72205 32.12 7.20455 32.1114 6.75344 31.9063C6.30233 31.7012 5.99309 31.3385 5.82573 30.8181C5.68081 30.3675 5.6914 29.9649 5.8575 29.6103C6.01521 29.2515 6.30033 29.0057 6.71285 28.8731L6.3389 29.2454L6.28073 29.0646L5.20805 29.42L3.742 29.8915L3.53994 29.2632L10.4894 27.0283L10.6915 27.6566L9.86324 27.9229L9.93672 28.1514L9.39744 28.0097C9.81631 27.875 10.1944 27.9075 10.5317 28.1071C10.867 28.3004 11.1071 28.6224 11.252 29.073ZM10.6543 29.0761C10.5237 28.67 10.2989 28.3956 9.97992 28.2531C9.66096 28.1105 9.28571 28.1087 8.85414 28.2475L7.30241 28.7465C6.8645 28.8873 6.5575 29.1086 6.38143 29.4103C6.20535 29.7121 6.18262 30.066 6.31325 30.4722C6.44183 30.872 6.66662 31.1464 6.98761 31.2953C7.30022 31.4398 7.67865 31.4407 8.12291 31.2978L9.67464 30.7988C10.1125 30.6579 10.4195 30.4367 10.5956 30.1349C10.7633 29.8289 10.7829 29.476 10.6543 29.0761ZM10.315 24.8893L4.84514 24.3143L4.91309 23.6679L5.89767 23.7714L5.91335 23.6222L6.49387 23.9346C5.96416 23.8722 5.56441 23.6894 5.29463 23.3862C5.02555 23.0764 4.91679 22.6761 4.96837 22.1855C5.0297 21.6021 5.25715 21.1601 5.65072 20.8596C6.04429 20.5591 6.54938 20.4412 7.16598 20.5061L7.47428 20.5385L7.40215 21.2247L7.12368 21.1954C6.65957 21.1466 6.28603 21.2247 6.00307 21.4295C5.7201 21.6344 5.55631 21.949 5.51171 22.3733C5.4678 22.791 5.56259 23.1328 5.79607 23.3987C6.03025 23.6579 6.3794 23.8119 6.84351 23.8607L10.384 24.2329L10.315 24.8893ZM12.3924 17.6078C12.1839 17.9723 11.9311 18.2463 11.6342 18.4298C11.3372 18.6132 11.0143 18.7011 10.6653 18.6935C10.3197 18.6801 9.9675 18.5708 9.60872 18.3655L8.20255 17.5611C7.84377 17.3559 7.5739 17.1093 7.39295 16.8215C7.20952 16.5246 7.12161 16.2016 7.12921 15.8527C7.13103 15.5004 7.23622 15.142 7.44477 14.7774C7.65001 14.4187 7.90234 14.1521 8.20176 13.9778C8.4987 13.7943 8.81999 13.7093 9.16563 13.7227C9.50879 13.727 9.85976 13.8318 10.2185 14.037L11.0518 14.5137L9.35859 17.4736L9.93148 17.8013C10.3308 18.0297 10.7028 18.1043 11.0477 18.0251C11.3925 17.9459 11.6759 17.7124 11.8977 17.3247C12.0764 17.0122 12.1555 16.7196 12.135 16.4467C12.112 16.1647 11.9959 15.9178 11.7868 15.706L12.1145 15.1331C12.465 15.4335 12.6666 15.8061 12.7193 16.251C12.7695 16.6868 12.6606 17.139 12.3924 17.6078ZM10.3385 14.8545L9.89578 14.6012C9.4965 14.3728 9.12443 14.2982 8.77957 14.3774C8.43224 14.4475 8.14934 14.6736 7.93085 15.0555C7.70906 15.4432 7.65142 15.8058 7.75793 16.1432C7.86444 16.4806 8.12023 16.7652 8.5253 16.9969L8.89855 17.2104L10.3137 14.7366L10.3385 14.8545ZM16.3731 15.3061L15.7248 13.0824L11.0222 10.1904L11.6073 9.75387L14.7423 11.7319C14.886 11.8243 15.0338 11.922 15.1855 12.025C15.3373 12.1281 15.4564 12.2097 15.5429 12.2699C15.5098 12.1699 15.4628 12.0344 15.4019 11.8636C15.3424 11.6834 15.2862 11.5133 15.2333 11.3532L14.1722 7.84043L14.7413 7.41588L16.9262 14.8935L16.3731 15.3061ZM32.4078 12.8579C32.1224 12.6612 31.9039 12.4378 31.7524 12.1877C31.6064 11.9414 31.528 11.685 31.5173 11.4185C31.5104 11.1466 31.5746 10.8831 31.7098 10.6281L32.2532 11.0026C32.1517 11.2322 32.1406 11.4715 32.22 11.7205C32.3049 11.9733 32.4791 12.1905 32.7426 12.3721L33.212 12.6955C33.5139 12.9036 33.7917 12.9938 34.0455 12.9663C34.3085 12.937 34.5214 12.8044 34.684 12.5683C34.8354 12.3487 34.8916 12.1203 34.8527 11.883C34.8176 11.6402 34.6906 11.4191 34.4717 11.2198L33.7772 10.5711C33.407 10.227 33.1849 9.87967 33.1108 9.52903C33.0404 9.1729 33.1282 8.81642 33.3741 8.4596C33.6389 8.07533 33.9759 7.86229 34.3852 7.8205C34.8038 7.77699 35.2464 7.916 35.713 8.23753L36.0424 8.4645C36.4651 8.75576 36.7355 9.09185 36.8535 9.47275C36.9771 9.85744 36.9435 10.2351 36.7529 10.6057L36.2095 10.2312C36.3051 10.0219 36.3104 9.80282 36.2251 9.57406C36.1436 9.33981 35.9712 9.1319 35.7077 8.95033L35.3783 8.72336C35.0818 8.5191 34.804 8.42884 34.5447 8.4526C34.2948 8.47465 34.0884 8.60371 33.9258 8.83976C33.782 9.04836 33.7344 9.25844 33.783 9.47C33.8353 9.67607 33.978 9.89184 34.2113 10.1173L34.8951 10.7464C35.2597 11.0867 35.4707 11.4385 35.528 11.8018C35.5945 12.1635 35.503 12.5254 35.2533 12.8877C34.9772 13.2885 34.6288 13.518 34.2081 13.5762C33.7929 13.6383 33.3493 13.5067 32.8772 13.1813L32.4078 12.8579ZM36.5935 17.1915C36.3755 16.8403 36.2536 16.4922 36.2278 16.1473C36.2111 15.8045 36.2891 15.4815 36.4618 15.1781C36.6344 14.8748 36.8992 14.6123 37.256 14.3908L38.6153 13.5469C38.9722 13.3254 39.322 13.2063 39.6648 13.1897C40.0132 13.1695 40.3373 13.243 40.6372 13.4099C40.9405 13.5826 41.2012 13.8445 41.4192 14.1956C41.6372 14.5468 41.7545 14.8938 41.7712 15.2366C41.7913 15.585 41.7151 15.9109 41.5424 16.2143C41.3755 16.5141 41.1164 16.773 40.7652 16.991L39.3974 17.8402C39.0405 18.0617 38.6879 18.1825 38.3394 18.2027C37.991 18.2228 37.6651 18.1466 37.3618 17.9739C37.0676 17.8035 36.8115 17.5426 36.5935 17.1915ZM37.0863 16.8856C37.3148 17.2537 37.6 17.4729 37.9418 17.5432C38.2836 17.6135 38.6528 17.5256 39.0493 17.2794L40.4086 16.4356C40.8051 16.1894 41.0477 15.8976 41.1363 15.5601C41.2249 15.2225 41.155 14.8697 40.9264 14.5016C40.7014 14.1391 40.4162 13.9198 40.0709 13.8439C39.7291 13.7736 39.3599 13.8615 38.9634 14.1077L37.6041 14.9516C37.2076 15.1977 36.9651 15.4895 36.8764 15.827C36.7878 16.1646 36.8577 16.5174 37.0863 16.8856ZM38.5533 21.947L42.8597 21.3331L42.6255 19.6897L43.2096 19.6064L43.4438 21.2498L44.4833 21.1016C44.8859 21.0442 45.2201 21.1211 45.4859 21.3324C45.7518 21.5437 45.9157 21.8671 45.9778 22.3027L46.198 23.8471L45.604 23.9318L45.3838 22.3874C45.3499 22.1498 45.2614 21.9772 45.1181 21.8697C44.9814 21.7612 44.8009 21.723 44.5765 21.755L43.537 21.9032L43.8616 24.1802L43.2775 24.2634L42.9529 21.9865L38.6464 22.6004L38.5533 21.947ZM38.8228 26.4168L39.4011 26.5768L38.8705 28.4947L43.0148 29.6413L43.4788 27.9643L44.0571 28.1242L43.4171 30.4374L38.6945 29.1308L38.1959 30.9331L37.6176 30.7731L38.8228 26.4168ZM44.5192 30.3168C44.5707 30.1305 44.6598 29.9961 44.7864 29.9135C44.9194 29.8327 45.0727 29.8163 45.2462 29.8643C45.4196 29.9123 45.5427 30.0051 45.6153 30.1428C45.6878 30.2805 45.6984 30.4425 45.6468 30.6288C45.5953 30.8151 45.503 30.9487 45.37 31.0295C45.2369 31.1103 45.0837 31.1267 44.9102 31.0787C44.7367 31.0307 44.6137 30.9379 44.5411 30.8002C44.4749 30.6643 44.4676 30.5032 44.5192 30.3168ZM35.7444 33.24C36.1071 32.796 36.5121 32.5372 36.9595 32.4636C37.4027 32.3951 37.8154 32.517 38.1975 32.829C38.5796 33.1411 38.7804 33.5117 38.8001 33.9408C38.8155 34.3752 38.6545 34.7989 38.3172 35.212L37.1723 36.6139L37.6447 36.9997C37.9546 37.2528 38.2664 37.3611 38.5801 37.3246C38.8897 37.2934 39.1752 37.1177 39.4366 36.7976C39.6728 36.5084 39.8017 36.2135 39.8235 35.9128C39.8411 35.6173 39.7489 35.3612 39.547 35.1447L39.9645 34.6335C40.288 34.9752 40.4422 35.3766 40.4271 35.8377C40.413 36.3081 40.2352 36.7525 39.8936 37.1708C39.5183 37.6303 39.0898 37.8915 38.6081 37.9543C38.1265 38.0172 37.6688 37.8715 37.235 37.5173L34.3228 35.139L34.7339 34.6355L35.5782 35.325L35.6477 35.2398L35.6923 35.4698C35.3721 35.2084 35.2152 34.8736 35.2213 34.4655C35.2327 34.0616 35.4071 33.6531 35.7444 33.24ZM36.0629 33.7196C35.7719 34.0759 35.6282 34.4363 35.6318 34.8007C35.6312 35.1704 35.7729 35.4711 36.0569 35.7031L36.7618 36.2787L37.9067 34.8767C38.1175 34.6186 38.216 34.3504 38.2021 34.0723C38.1841 33.7993 38.0563 33.5658 37.8187 33.3718C37.5502 33.1526 37.2579 33.0731 36.9418 33.1334C36.6215 33.1989 36.3285 33.3943 36.0629 33.7196ZM30.9954 37.1563C31.2092 37.0474 31.4103 37.0236 31.5986 37.0848C31.7809 37.1491 31.925 37.2852 32.0309 37.4931C32.1398 37.707 32.1666 37.9065 32.1113 38.0918C32.0501 38.2801 31.9125 38.4287 31.6986 38.5375C31.4848 38.6464 31.2867 38.6688 31.1043 38.6045C30.916 38.5433 30.7674 38.4057 30.6585 38.1918C30.5527 37.9839 30.5304 37.7858 30.5916 37.5975C30.6469 37.4123 30.7815 37.2652 30.9954 37.1563Z" fill="#342619"></path></svg> 