<?xml version="1.0" encoding="UTF-8"?> <svg xmlns="http://www.w3.org/2000/svg" width="102" height="19" viewBox="0 0 102 19" fill="none"><path d="M11.6304 3.72217L2.84811 18.1374L2.80813 18.1388L0.816963 4.09978L0.00348995 3.72795L0 3.62801L4.27739 3.47864L4.28088 3.57858L2.87571 4.02789L4.3852 15.162L7.44943 10.072C10.7609 4.61305 10.4346 3.86399 8.72027 3.48358L8.43835 3.43339L8.43486 3.33346L12.6323 3.18688L12.6358 3.28682L11.6304 3.72217Z" fill="#342619"></path><path d="M10.2796 10.1132C11.2109 8.69984 12.2936 7.04104 13.333 7.00475C14.0526 6.97962 14.658 7.69893 14.0931 9.85996L12.9268 14.2834C12.5043 15.9391 12.796 16.2691 13.1358 16.2573C13.5156 16.244 13.9151 15.6497 14.599 14.6052L14.7789 14.5989C13.8491 16.0522 12.7849 17.6704 11.8055 17.7046C11.1059 17.729 10.4384 16.9518 11.1086 14.3669L12.2893 9.78287C12.5893 8.63169 12.3383 8.32026 12.0585 8.33004C11.5988 8.34609 11.1428 9.04243 10.4595 10.1069L10.2796 10.1132ZM13.2734 4.72544C13.249 4.02587 13.7519 3.52801 14.4315 3.50428C15.1111 3.48055 15.5876 3.9442 15.6106 4.6038C15.635 5.30337 15.1321 5.80123 14.4125 5.82636C13.7729 5.84869 13.2971 5.40503 13.2734 4.72544Z" fill="#342619"></path><path d="M15.6307 14.229L18.3155 3.42868L17.1443 3.12938L17.1408 3.02944L20.5017 1.85142L20.5217 1.85073L17.4682 14.1248C17.0451 15.7605 17.3175 16.1112 17.6573 16.0994C18.057 16.0854 18.4365 15.4918 19.1405 14.4466L19.3204 14.4403C18.3905 15.8937 17.3263 17.5118 16.3469 17.546C15.6474 17.5704 14.9998 16.7925 15.6307 14.229Z" fill="#342619"></path><path d="M20.1397 14.0715L22.8244 3.27123L21.6533 2.97192L21.6498 2.87198L25.0107 1.69397L25.0307 1.69327L21.9772 13.9673C21.554 15.6031 21.8264 15.9538 22.1662 15.9419C22.566 15.928 22.9455 15.3344 23.6494 14.2891L23.8293 14.2829C22.8995 15.7362 21.8353 17.3543 20.8559 17.3885C20.1563 17.413 19.5088 16.6351 20.1397 14.0715Z" fill="#342619"></path><path d="M27.0508 15.6513C27.7903 15.6254 28.4659 14.3411 30.036 11.1644L31.719 7.78356C31.0799 7.24554 30.5228 6.76469 29.8632 6.78772C28.0842 6.84984 25.8948 10.6286 26.0092 13.9066C26.0553 15.2258 26.5911 15.6673 27.0508 15.6513ZM24.1671 14.4512C24.0415 10.8534 27.8918 6.49634 30.5102 6.40491C31.3697 6.37489 32.0632 6.75092 33.1635 7.31286L33.7896 6.33041L33.8895 6.32692L32.0828 13.6144C31.6603 15.2702 31.952 15.6002 32.2718 15.589C32.6516 15.5758 33.0511 14.9815 33.755 13.9363L33.9349 13.93C33.005 15.3833 31.9209 17.0021 30.9615 17.0356C30.2619 17.0601 29.5944 16.2829 30.2446 13.6986L31.3537 9.35727L31.1738 9.36355L30.2394 11.2573C28.4834 14.8408 27.5436 17.155 26.1844 17.2025C25.245 17.2353 24.2293 16.2301 24.1671 14.4512Z" fill="#342619"></path><path d="M37.0505 16.5829L37.047 16.4829L38.3522 16.0371L43.0298 2.70573L41.8138 2.2679L41.8103 2.16796L45.0283 2.05558L46.5132 13.6308L46.5332 13.6301L53.763 1.75056L56.7012 1.64796L56.7047 1.7479L55.1996 2.2007L53.2631 15.5164L54.3364 15.8792L54.3399 15.9791L49.8826 16.1347L49.8792 16.0348L51.3643 15.5827L53.2294 3.09L53.2094 3.0907L45.0438 16.824L44.9838 16.8261L43.2167 2.89932L43.1967 2.90002L41.197 8.67333C38.9769 15.0147 39.3867 15.8609 41.2623 16.2757L41.5243 16.3266L41.5277 16.4265L37.0505 16.5829Z" fill="#342619"></path><path d="M55.7597 8.525C56.691 7.11164 57.7737 5.45284 58.8131 5.41655C59.5327 5.39142 60.1381 6.11073 59.5732 8.27176L58.4069 12.6952C57.9844 14.3509 58.2761 14.6809 58.6159 14.6691C58.9956 14.6558 59.3951 14.0615 60.0791 13.017L60.259 13.0107C59.3292 14.4641 58.265 16.0822 57.2856 16.1164C56.586 16.1408 55.9185 15.3636 56.5887 12.7787L57.7694 8.19467C58.0694 7.04349 57.8184 6.73206 57.5386 6.74184C57.0788 6.75789 56.6229 7.45423 55.9396 8.51872L55.7597 8.525ZM58.7535 3.13724C58.7291 2.43767 59.232 1.93981 59.9116 1.91608C60.5912 1.89235 61.0677 2.356 61.0907 3.0156C61.1151 3.71517 60.6122 4.21303 59.8926 4.23816C59.253 4.26049 58.7772 3.81683 58.7535 3.13724Z" fill="#342619"></path><path d="M60.6911 12.6554C60.562 8.95767 63.6144 5.24888 66.3727 5.15256C67.4321 5.11557 67.9306 5.63849 67.9543 6.31807C67.9746 6.89772 67.6102 7.35071 67.3166 7.54107C66.9392 6.4736 66.2909 5.67573 65.4514 5.70505C63.7525 5.76438 62.3718 8.63431 62.4765 11.6325C62.5491 13.7112 63.4379 14.5207 64.5972 14.4802C65.5366 14.4474 66.3523 13.7385 67.2447 11.7862L67.4046 11.7806C66.3112 14.2803 65.0051 15.8468 63.3461 15.9047C61.867 15.9564 60.7658 14.7941 60.6911 12.6554Z" fill="#342619"></path><path d="M67.8373 15.5078L71.3133 1.57796L70.1222 1.27935L70.1187 1.17941L73.4996 0.000697981L73.5196 0L70.1647 13.3852L70.3246 13.3797L71.4194 10.9199C73.0878 7.11941 74.1903 4.87957 75.5295 4.8328C76.5089 4.7986 77.4281 5.90719 77.5021 8.0259C77.6592 12.5232 74.8614 15.5026 72.8027 15.5745C72.1031 15.5989 71.8121 15.2889 71.7968 14.8492C71.7821 14.4294 72.0315 14.1205 72.1079 14.0178C72.556 14.2423 73.3439 14.4549 74.0235 14.4312C75.2828 14.3872 76.0957 13.5984 75.9952 10.7201C75.8947 7.84189 75.3427 6.36025 74.5831 6.38677C73.8436 6.4126 73.088 7.69975 71.6042 11.0536L69.6762 15.4435L67.8373 15.5078Z" fill="#342619"></path><path d="M78.239 12.0426C78.1099 8.34489 81.2023 4.6347 84.1005 4.53349C85.0999 4.49859 85.5571 4.98293 85.578 5.58257C85.6213 6.82181 83.8106 8.26589 80.1098 9.45576C80.0473 9.95825 80.0062 10.5 80.0244 11.0197C80.097 13.0984 80.9858 13.9079 82.185 13.866C83.1644 13.8318 83.9802 13.1229 84.8726 11.1706L85.0325 11.165C83.9191 13.6654 82.6329 15.2312 80.934 15.2906C79.4149 15.3436 78.3137 14.1813 78.239 12.0426ZM80.1621 9.2338C83.0111 8.2938 84.105 6.95481 84.0666 5.85548C84.0457 5.25585 83.6761 4.98858 83.1364 5.00743C81.8572 5.0521 80.563 6.95843 80.1621 9.2338Z" fill="#342619"></path><path d="M86.0303 11.5904L87.7174 4.88748L86.6181 4.92587L86.6097 4.68602L88.0088 4.63716C88.7709 4.11024 89.6211 3.24004 90.0852 2.20321L90.1851 2.19972L89.5879 4.58202L91.7665 4.50594L91.7749 4.74579L89.5363 4.82396L87.8327 11.6276C87.4467 13.182 87.8432 13.6484 88.3629 13.6303C88.8426 13.6135 89.2877 13.1777 90.066 11.9698L90.2459 11.9635C89.3153 13.3969 88.1919 15.0371 86.9926 15.079C86.1132 15.1097 85.3622 14.2354 86.0303 11.5904Z" fill="#342619"></path><path d="M91.4176 11.4023L93.1047 4.69935L92.0054 4.73774L91.997 4.49789L93.3962 4.44903C94.1582 3.92211 95.0084 3.05191 95.4725 2.01508L95.5724 2.01159L94.9752 4.39389L97.1539 4.31781L97.1623 4.55766L94.9236 4.63583L93.22 11.4394C92.834 12.9939 93.2306 13.4603 93.7502 13.4421C94.23 13.4254 94.675 12.9896 95.4533 11.7817L95.6332 11.7754C94.7027 13.2088 93.5792 14.849 92.38 14.8909C91.5005 14.9216 90.7495 14.0472 91.4176 11.4023Z" fill="#342619"></path><path d="M96.3014 7.10926C97.2326 5.6959 98.3154 4.0371 99.3548 4.0008C100.074 3.97567 100.68 4.69498 100.115 6.85601L98.9486 11.2794C98.5261 12.9352 98.8178 13.2652 99.1576 13.2533C99.5373 13.2401 99.9368 12.6458 100.621 11.6012L100.801 11.595C99.8709 13.0483 98.8067 14.6664 97.8273 14.7006C97.1277 14.7251 96.4602 13.9479 97.1304 11.3629L98.3111 6.77892C98.6111 5.62775 98.3601 5.31632 98.0803 5.32609C97.6205 5.34214 97.1646 6.03848 96.4813 7.10298L96.3014 7.10926ZM99.2952 1.72149C99.2708 1.02192 99.7737 0.524064 100.453 0.500332C101.133 0.476601 101.609 0.940254 101.632 1.59985C101.657 2.29943 101.154 2.79728 100.434 2.82241C99.7947 2.84474 99.3189 2.40108 99.2952 1.72149Z" fill="#342619"></path></svg> 