<?xml version="1.0" encoding="UTF-8"?> <svg xmlns="http://www.w3.org/2000/svg" width="189" height="74" viewBox="0 0 189 74" fill="none"><path d="M188.29 68.3134C188.616 68.3419 188.762 68.5605 188.726 68.9687C188.691 69.3772 188.185 69.9926 187.209 70.8134C186.232 71.6342 185.01 72.4335 183.544 73.2118C183.045 73.45 182.532 73.6759 182.006 73.8925L178.507 73.6044C179.179 73.4574 179.963 73.2098 180.858 72.8554C182.563 72.18 184.781 70.8083 187.511 68.7402C187.785 68.4346 188.045 68.2922 188.29 68.3134ZM172.391 53.7255C173.045 53.7822 173.346 54.0961 173.297 54.6679C173.254 55.158 172.923 55.6642 172.301 56.1865C171.229 57.1636 169.975 58.3311 168.541 59.6884C167.106 61.0458 165.712 62.407 164.359 63.7714C163.013 65.0541 161.875 66.3134 160.945 67.5497C160.022 68.7044 159.528 69.6494 159.465 70.3847C159.387 71.2834 160.002 71.79 161.309 71.9033C162.453 72.0022 163.884 71.6316 165.603 70.7929C167.329 69.8724 168.977 68.904 170.547 67.8876C172.383 66.6474 174.315 65.2511 176.342 63.6982C178.097 62.4509 179.643 61.2263 180.982 60.0253C182.321 58.8246 183.311 57.8405 183.954 57.0732C184.767 56.2382 185.582 55.8559 186.399 55.9267C187.053 55.9833 187.355 56.2973 187.305 56.8691C187.27 57.2776 187.03 57.6688 186.587 58.0419C186.231 58.3404 185.784 58.7537 185.244 59.2831C184.97 59.5887 184.345 60.1527 183.369 60.9736C182.474 61.8013 181.491 62.7037 180.419 63.6806C179.435 64.5831 178.536 65.4521 177.723 66.287C176.91 67.1218 176.411 67.6546 176.226 67.8857C176.027 68.28 175.733 68.831 175.342 69.538C174.952 70.245 174.728 70.9254 174.672 71.579C174.6 72.4055 174.879 72.9978 175.506 73.3583L171.729 73.0478C171.728 72.8924 171.732 72.7299 171.747 72.5605C171.789 72.0704 171.914 71.5872 172.12 71.1113C172.326 70.6354 172.528 70.1999 172.726 69.8056C173.014 69.3368 173.257 68.9049 173.456 68.5107C173.477 68.2656 173.443 68.1802 173.354 68.2548C171.607 69.4203 169.915 70.4256 168.278 71.2714C167.419 71.7274 166.533 72.1518 165.623 72.5468L155.798 71.7392C155.789 71.5999 155.791 71.4543 155.804 71.3027C155.859 70.6694 156.087 69.9495 156.484 69.1415C155.75 69.653 154.918 70.157 153.987 70.6513C153.403 70.9301 152.8 71.1931 152.178 71.4423L148.456 71.1367C149.229 71.0187 150.178 70.74 151.301 70.2949C153.006 69.6194 155.224 68.2477 157.955 66.1796C158.228 65.8741 158.488 65.7316 158.733 65.7529C158.747 65.754 158.759 65.7579 158.772 65.7597C159.161 65.2634 159.569 64.7631 159.996 64.2577C161.178 62.9609 162.398 61.708 163.655 60.4999C165.001 59.2172 166.207 58.1278 167.272 57.2324C168.344 56.2554 169.232 55.5093 169.935 54.9941C170.726 54.4049 171.078 54.1469 170.99 54.2206C171.434 53.8477 171.901 53.6831 172.391 53.7255ZM105.524 50.4013C108.156 49.477 110.901 49.139 113.76 49.3867C115.068 49.4999 116.116 49.7557 116.905 50.1533C117.782 50.4762 118.49 50.8662 119.026 51.3242C119.644 51.7892 120.17 52.3704 120.603 53.0663C120.685 53.0734 120.814 53.0017 120.992 52.8525C121.169 52.7032 121.747 52.2182 122.723 51.3974C122.901 51.2482 123.167 51.0248 123.522 50.7265C123.966 50.3535 124.392 50.1844 124.8 50.2197C125.127 50.248 125.362 50.392 125.505 50.6513C125.728 50.9175 125.829 51.1729 125.808 51.4179C125.794 51.5812 125.691 51.8193 125.5 52.1318C125.404 52.2881 125.311 52.4038 125.222 52.4784C124.86 52.8587 124.136 53.6192 123.049 54.7597C121.97 55.8185 120.839 56.9962 119.657 58.2929C118.482 59.5081 117.354 60.6452 116.274 61.704C115.277 62.7697 114.685 63.4182 114.501 63.6493C114.316 63.8803 114.069 64.3533 113.76 65.0673C113.459 65.6996 113.284 66.3021 113.234 66.874C113.156 67.7724 113.689 68.271 114.833 68.37C115.731 68.4478 117.033 68.149 118.738 67.4736C119.986 66.9791 121.508 66.1098 123.305 64.8691C123.341 64.6068 123.386 64.3346 123.444 64.0536C123.998 63.3609 124.572 62.9172 125.165 62.7216C125.765 62.4444 126.303 62.4084 126.779 62.6142C127.255 62.82 127.591 63.2195 127.787 63.8124C127.982 64.4056 127.915 65.1824 127.585 66.1415C127.574 67.2106 127.837 67.9745 128.374 68.4325C128.992 68.8977 129.628 69.1582 130.282 69.2148C131.426 69.3138 132.857 68.9442 134.576 68.1054C136.302 67.1849 137.95 66.2164 139.519 65.2001C140.393 64.6173 141.489 63.8475 142.806 62.8915C144.213 61.861 145.578 60.8266 146.902 59.789C148.227 58.7514 149.467 57.7483 150.621 56.7783C151.775 55.8082 152.584 55.0136 153.049 54.3954C153.863 53.5605 154.678 53.1782 155.495 53.249C155.822 53.2773 156.263 53.3984 156.821 53.6113C157.467 53.7496 157.777 53.9818 157.749 54.3085C157.671 55.2072 156.983 56.0118 155.687 56.7226C155.257 56.9323 154.596 57.4515 153.701 58.2792C152.806 59.1071 151.863 60.0138 150.873 60.998C149.971 61.9076 149.113 62.7792 148.299 63.6142C147.486 64.4492 146.943 65.0196 146.67 65.3251C146.389 65.7124 146.054 66.2598 145.664 66.9667C145.355 67.6808 145.172 68.3649 145.115 69.0185C145.031 69.9838 145.425 70.6293 146.295 70.9589L142.174 70.62C142.167 70.425 142.171 70.2183 142.19 69.9999C142.233 69.5097 142.357 69.0258 142.563 68.5497C142.769 68.0741 142.971 67.6391 143.17 67.245C143.553 66.6202 143.796 66.1883 143.899 65.9501C143.906 65.8684 144.228 65.4843 144.863 64.7988C145.499 64.113 146.179 63.3892 146.903 62.6288C147.634 61.7868 148.274 61.0603 148.821 60.4492C149.437 59.8571 149.751 59.5555 149.763 59.5439C148.883 60.2084 147.599 61.2494 145.913 62.6669C144.315 64.0101 142.508 65.3761 140.495 66.7656C138.606 67.9965 136.62 69.0705 134.54 69.9931L124.102 69.1357C123.801 68.6828 123.563 68.1409 123.392 67.5068C123.329 67.273 123.283 67.0249 123.255 66.7626C122.693 67.1218 122.084 67.4794 121.424 67.83C120.743 68.1546 120.037 68.4576 119.307 68.7421L109.62 67.9462C109.602 67.7087 109.603 67.4529 109.627 67.1786C109.683 66.525 109.589 66.1872 109.343 66.1659C109.18 66.1519 109.054 66.1822 108.965 66.2568C107.979 66.7768 106.941 67.2353 105.854 67.6367L101.348 67.2665C102.54 67.1454 103.803 66.8235 105.134 66.2958C107.187 65.4036 109.091 64.3332 110.845 63.0859C112.688 61.7639 114.29 60.3796 115.65 58.9335C117.01 57.4875 117.855 56.2852 118.185 55.3261C118.27 54.3457 117.687 53.4719 116.436 52.705C115.274 51.8637 113.958 51.3793 112.488 51.2519C110.445 51.0749 108.483 51.3989 106.6 52.2236C104.718 53.0482 103.022 54.0947 101.513 55.3632C100.004 56.6318 98.7707 58.048 97.8122 59.6113C96.8607 61.0928 96.3314 62.4463 96.2253 63.6718C96.1404 64.6521 96.3142 65.4905 96.7477 66.1865C97.0404 66.5346 97.4568 66.8025 97.9958 66.9911L92.4108 66.5322C92.059 65.7392 91.9235 64.8693 92.0055 63.9228C92.0174 63.7863 92.0338 63.649 92.0534 63.5107C91.2061 64.0905 90.2368 64.6811 89.1442 65.2802C88.599 65.5792 88.0392 65.8597 87.4665 66.1259L84.3883 65.873C84.9934 65.6709 85.6811 65.3971 86.4489 65.0468C88.2287 64.2347 90.3163 62.9436 92.7155 61.1786C93.022 60.4432 93.4237 59.6845 93.9216 58.9033C95.1464 57.1162 96.7288 55.484 98.6676 54.0058C100.695 52.4529 102.981 51.2511 105.524 50.4013ZM41.2702 44.2177C43.3158 43.4073 45.3596 43.0906 47.402 43.2675C48.6274 43.3737 49.6238 43.7479 50.3913 44.3906C51.1587 45.0332 51.4822 46.0487 51.362 47.4374C51.2275 48.9897 50.5725 50.3736 49.3971 51.5888C48.2218 52.8039 46.7715 53.8724 45.0456 54.7929C43.3196 55.7134 41.4404 56.4973 39.4089 57.1445C37.4591 57.7986 35.6017 58.3374 33.8366 58.7607C34.3275 60.6961 36.0433 61.791 38.9841 62.0458C41.1082 62.2299 43.3943 61.9756 45.8415 61.2822C47.0883 60.9438 48.359 60.436 49.655 59.7617C50.8514 58.4343 52.5171 56.644 54.652 54.3906C56.6476 52.2587 58.1958 50.5402 59.2966 49.2363C60.4789 47.9394 61.3912 46.907 62.0339 46.1396C62.7582 45.3792 63.2952 44.8905 63.6432 44.6738C64.0799 44.3826 64.5025 44.2546 64.9108 44.29C65.6461 44.3537 65.9787 44.7943 65.9079 45.6113C65.8371 46.4281 65.491 47.0978 64.8698 47.62L64.9811 47.7538C65.5884 47.3949 66.6929 46.9959 68.2946 46.5585C69.9035 46.0394 71.4028 45.8405 72.7917 45.9609C73.6904 46.0387 74.4085 46.3065 74.945 46.7646C75.4883 47.141 75.7174 47.8196 75.6325 48.7997C75.5617 49.6167 75.3452 50.2155 74.9831 50.5956C78.0728 49.1348 80.5855 48.1587 82.5212 47.6679C84.5456 47.1025 86.1707 46.8733 87.3962 46.9794C88.9485 47.1139 89.9861 47.4918 90.5085 48.1132C91.0306 48.7346 91.335 49.5014 91.4206 50.414C91.3073 51.7212 90.7 53.027 89.5993 54.331C88.5057 55.5532 87.2895 56.7648 85.9508 57.9658C84.6122 59.1667 83.3997 60.338 82.3132 61.4784C81.2266 62.6189 80.6367 63.7201 80.5446 64.7822C80.5177 65.0924 80.5655 65.3543 80.6842 65.5693L76.9274 65.2607C76.9306 65.2037 76.9331 65.1455 76.9382 65.0868C77.0444 63.8615 77.6444 62.6381 78.738 61.4159C79.8315 60.1938 81.0064 58.9784 82.2633 57.7704C83.5203 56.5624 84.6888 55.4288 85.7682 54.37C86.8547 53.2296 87.441 52.1687 87.526 51.1884C87.5827 50.5348 87.2537 50.0529 86.5397 49.7441C85.8257 49.4353 85.2233 49.2602 84.7331 49.2177C83.0921 49.1578 81.119 49.604 78.8141 50.5566C76.5979 51.4346 74.5857 52.3306 72.778 53.2441C69.6818 56.6798 67.1699 59.5492 65.2419 61.8515C64.4314 62.8193 63.7324 63.5779 63.1471 64.1288L60.4938 63.9101H60.4948C60.5231 63.5833 60.6736 63.2664 60.9469 62.9609C61.2204 62.6553 61.4912 62.3908 61.7575 62.1669C64.3139 59.2607 66.2752 57.0433 67.6423 55.5156C69.091 53.9948 70.1373 52.8504 70.78 52.0829C71.5038 51.3231 71.917 50.824 72.0202 50.5859C72.2118 50.2733 72.3293 49.8718 72.3717 49.3818C72.4496 48.4831 71.9573 47.9875 70.8952 47.8954C68.7712 47.7115 66.7612 48.1136 64.8649 49.1015C62.9685 50.0895 61.1253 51.4116 59.3356 53.0673C57.8181 54.478 56.2834 56.0838 54.7321 57.8847C54.6004 58.0837 54.4083 58.3091 54.155 58.5615C52.867 60.1152 51.558 61.6168 50.2292 63.0673L47.1139 62.8115C47.1696 62.7316 47.2289 62.6481 47.2926 62.5615C47.098 62.6348 46.9 62.7064 46.6989 62.7773L31.2712 61.5097C30.2986 60.2399 29.882 58.8017 30.0212 57.1952C30.1627 55.5612 30.757 53.9249 31.8044 52.287C32.8588 50.5676 34.1886 48.9951 35.7936 47.5702C37.4804 46.1525 39.3062 45.0353 41.2702 44.2177ZM30.2653 1.40814C31.9238 0.317119 33.7746 -0.13991 35.8171 0.0370421C37.2058 0.157378 38.4402 0.634441 39.5202 1.46868C40.6003 2.30308 41.4959 3.36869 42.2067 4.66497C42.9992 5.96823 43.5663 7.49878 43.9079 9.25677C44.2565 10.9332 44.35 12.7117 44.1872 14.5908C43.9394 17.4502 43.2988 20.5639 42.2663 23.9316C41.2408 27.2175 39.9191 30.6015 38.3005 34.0829C38.7762 34.2886 39.2183 34.4089 39.6266 34.4443C40.1168 34.4867 40.6485 34.5334 41.2204 34.5829C43.0992 34.7457 44.8358 34.6485 46.4303 34.2929C48.025 33.9372 49.4637 33.4858 50.7458 32.9384C52.035 32.3093 53.1613 31.6662 54.1237 31.0087C55.0932 30.2696 55.8476 29.6348 56.3874 29.1054C56.565 28.9561 56.8762 28.6952 57.32 28.3222C57.8525 27.8747 58.3227 27.6687 58.7311 27.704C59.0579 27.7323 59.2003 27.9912 59.1579 28.4814C59.1083 29.0532 58.7283 29.6374 58.0182 30.2343C55.5254 32.4054 52.6697 34.0105 49.4518 35.0488C46.3159 36.094 42.9507 36.4607 39.3561 36.1493C39.0294 36.121 38.7023 36.0927 38.3757 36.0644C38.049 36.0361 37.7255 35.9673 37.4059 35.8574C35.6239 39.3247 33.5621 42.6859 31.2223 45.9404C28.8898 49.1129 26.2996 51.9338 23.4518 54.4033C20.6926 56.7982 17.7305 58.6815 14.5661 60.0536C14.5085 60.0779 14.4499 60.0993 14.3923 60.123L7.32683 59.5429C9.81654 59.6921 12.2897 59.1697 14.7467 57.9706C17.3251 56.7124 19.7823 54.9495 22.1188 52.6825C24.5441 50.341 26.8348 47.6591 28.9899 44.6357C31.1521 41.5305 33.0358 38.3181 34.6403 34.9999C32.7291 34.2582 30.9686 33.2002 29.3591 31.8261C27.8312 30.459 26.5214 28.9465 25.4303 27.288C24.3465 25.548 23.5148 23.7476 22.9352 21.8867C22.3628 19.944 22.1546 18.0736 22.3102 16.2763C22.4447 14.7241 22.8416 12.9884 23.5016 11.0702C24.1687 9.07032 25.067 7.25465 26.196 5.62396C27.332 3.91158 28.6886 2.5062 30.2653 1.40814ZM11.9606 41.6786C14.3472 40.7331 17.0108 40.3878 19.9518 40.6425C21.259 40.7558 22.304 41.0519 23.0856 41.5312C23.9558 41.9358 24.6595 42.3671 25.196 42.8251C25.807 43.3719 26.3262 44.0338 26.7526 44.8115C26.6677 45.7919 26.2161 46.2475 25.3991 46.1767C24.909 46.1342 24.57 45.7751 24.3815 45.1005C23.3974 44.1099 22.4255 43.4491 21.4665 43.1191C20.5073 42.789 19.578 42.5856 18.6794 42.5077C16.6369 42.3308 14.674 42.6538 12.7917 43.4784C10.9982 44.2285 9.38807 45.2419 7.96061 46.5175C6.61486 47.8002 5.50347 49.2266 4.62663 50.7968C3.75685 52.2854 3.26527 53.6839 3.15202 54.9911C3.04594 56.2165 3.28411 57.2661 3.86686 58.1396C4.49657 58.8887 5.44159 59.3396 6.70183 59.4921L0.578778 58.9882C0.0990142 57.9172 -0.0832311 56.7006 0.0348331 55.3378C0.17642 53.7039 0.737691 51.983 1.71745 50.1747C2.69721 48.3665 4.03346 46.7123 5.72722 45.2128C7.50278 43.7204 9.581 42.5426 11.9606 41.6786ZM45.6286 45.2128C44.3215 45.0996 42.9791 45.3949 41.6012 46.0986C40.2233 46.8023 38.9502 47.721 37.7819 48.8544C36.6136 49.9879 35.6381 51.2617 34.8571 52.6757C34.165 54.0149 33.7623 55.3384 33.6491 56.6454L33.5749 57.5029C35.3472 56.9979 37.0822 56.4482 38.78 55.8544C40.4847 55.179 41.9893 54.4458 43.2926 53.6533C44.6775 52.8679 45.8205 52.0198 46.7223 51.1103C47.6243 50.2007 48.1215 49.2144 48.2135 48.1523C48.2913 47.2541 48.0621 46.5761 47.526 46.1181C47.0783 45.5854 46.4456 45.2836 45.6286 45.2128ZM108.952 24.7695C110.383 24.3996 111.895 24.5313 113.487 25.163C115.48 25.9119 116.77 27.1758 117.356 28.955C117.943 30.7344 117.95 32.5459 117.379 34.3896C116.903 36.0769 116.064 37.6914 114.86 39.2333C113.738 40.7823 112.311 42.0583 110.578 43.0605C108.845 44.0627 106.854 44.7135 104.605 45.0126C102.446 45.237 100.05 44.8652 97.4176 43.8964C95.1052 43.0376 93.1637 42.1697 91.5934 41.2929C90.0302 40.3343 88.5002 39.4609 87.0046 38.6728C86.5356 38.3852 85.8284 37.9943 84.8835 37.5009C83.9385 37.0075 82.8676 36.5442 81.6706 36.1113C80.4805 35.5966 79.2389 35.2014 77.946 34.9247C76.66 34.5664 75.4342 34.4604 74.2692 34.6064C73.2888 34.5215 72.2835 34.722 71.2536 35.2089C70.3125 35.6212 69.4055 36.1193 68.5319 36.7021C67.6583 37.2849 66.8662 37.8746 66.1559 38.4716C65.4528 38.9869 64.9268 39.3525 64.5788 39.5693C64.3413 39.4665 64.2263 39.3745 64.2331 39.2929L64.1735 38.5468C64.1877 38.3834 64.7246 37.8947 65.7829 37.081C66.9298 36.1928 68.3181 35.3666 69.9479 34.6025C71.6669 33.7636 73.5286 33.1835 75.5319 32.8632C77.6238 32.4684 79.622 32.6824 81.526 33.5058C82.3217 33.8217 83.4671 34.3741 84.9626 35.162C86.4582 35.9501 88.0286 36.8273 89.6735 37.7929C91.4071 38.6839 93.141 39.5748 94.8747 40.4658C96.6083 41.3567 98.1521 42.0668 99.5055 42.5956C101.498 43.3445 103.374 43.5475 105.132 43.206C106.972 42.8715 108.592 42.23 109.991 41.2812C111.472 40.3394 112.681 39.2097 113.619 37.8915C114.563 36.4918 115.218 35.1078 115.584 33.7402C116.127 32.2234 116.165 30.8276 115.699 29.5527C115.322 28.2031 114.334 27.2531 112.736 26.7031C111.457 26.263 110.231 26.157 109.059 26.3847C107.887 26.6124 106.816 27.0958 105.846 27.8349C104.884 28.4923 104.071 29.3274 103.407 30.3398C102.75 31.2704 102.301 32.1781 102.06 33.0624C101.84 33.7019 101.78 34.397 101.88 35.1464C102.061 35.9027 102.472 36.3913 103.111 36.6113C103.587 36.817 104.085 36.7774 104.603 36.4931C105.203 36.216 105.663 36.1321 105.983 36.2421C106.139 36.338 106.162 36.5458 106.052 36.8652C106.031 37.1103 106.013 37.315 105.999 37.4784C105.984 37.6419 105.551 37.8928 104.699 38.2304C103.928 38.5749 103.03 38.4964 102.004 37.996C101.119 37.7548 100.549 37.2115 100.293 36.3661C100.118 35.528 100.206 34.5068 100.557 33.3027C100.901 32.1802 101.454 31.0349 102.214 29.8661C102.98 28.6156 103.938 27.5455 105.085 26.6572C106.232 25.7689 107.521 25.1393 108.952 24.7695ZM34.6344 2.28021C32.919 2.13168 31.4397 2.57947 30.1969 3.62396C29.0429 4.59394 28.0756 5.78634 27.2946 7.20013C26.6024 8.53938 26.0731 9.89312 25.7077 11.2607C25.3423 12.6283 25.1315 13.6393 25.0749 14.2929C24.9262 16.0085 25.0601 17.7898 25.4762 19.6367C25.8924 21.4834 26.5194 23.2665 27.3581 24.9853C28.2786 26.7112 29.4178 28.292 30.7751 29.7265C32.2212 31.0865 33.8522 32.2161 35.6676 33.1142C37.1087 29.7819 38.2937 26.5505 39.2233 23.4208C40.2347 20.2982 40.8616 17.348 41.1022 14.5702C41.3995 11.1388 41.0265 8.30745 39.985 6.07708C39.0323 3.77244 37.2486 2.50669 34.6344 2.28021Z" fill="#261D15"></path></svg> 