<?xml version="1.0" encoding="UTF-8"?> <svg xmlns="http://www.w3.org/2000/svg" width="206" height="114" viewBox="0 0 206 114" fill="none"><path d="M73.905 0.762564C73.905 0.974387 73.8415 1.20739 73.7144 1.46158C73.6297 1.6734 73.4602 1.88522 73.206 2.09705C72.9519 2.30887 72.4011 3.05025 71.5538 4.32119C70.7065 5.59213 69.6474 7.22317 68.3765 9.2143C67.1479 11.2054 65.7499 13.4719 64.1824 16.0138C62.6149 18.5133 61.005 21.0976 59.3528 23.7665C57.7006 26.4355 56.0484 29.0833 54.3961 31.7099C52.7439 34.3365 51.1764 36.7725 49.6937 39.0178C50.8375 38.8907 51.9178 38.6789 52.9346 38.3823C53.9937 38.0434 54.9257 37.7257 55.7306 37.4291C56.5356 37.0902 57.1922 36.8148 57.7006 36.603C58.2513 36.3488 58.6114 36.2217 58.7809 36.2217C59.0351 36.2217 59.1622 36.3276 59.1622 36.5395C59.1622 36.7089 59.0774 36.8996 58.908 37.1114C58.7809 37.2809 58.5267 37.4079 58.1454 37.4927C57.3829 37.8316 56.5144 38.1493 55.54 38.4459C54.6927 38.7001 53.7183 38.9754 52.6168 39.272C51.5577 39.5262 50.3927 39.7168 49.1218 39.8439C48.3592 40.9878 47.639 42.0469 46.9612 43.0213C46.3257 43.9956 45.7114 44.8641 45.1183 45.6267C44.4405 46.5163 43.9321 47.1306 43.5932 47.4695C43.2966 47.8085 43.0424 47.9779 42.8306 47.9779C42.407 47.9779 42.1951 47.7661 42.1951 47.3424C42.1951 47.0459 42.3434 46.6646 42.64 46.1986C42.9365 45.7326 43.2119 45.3301 43.4661 44.9912C43.5508 44.9065 43.7203 44.6523 43.9745 44.2286C44.271 43.7626 44.6523 43.2119 45.1183 42.5764C45.2454 42.1951 45.3725 41.7927 45.4996 41.369C45.6267 40.903 45.775 40.4158 45.9444 39.9075C44.038 39.8227 42.3646 39.6321 40.9242 39.3355C39.4838 38.9966 38.2341 38.5518 37.1749 38.001C34.9296 39.9498 32.7902 41.6232 30.7567 43.0213C28.7656 44.4193 26.7956 45.5631 24.8468 46.4528C22.9404 47.3848 21.034 48.0415 19.1276 48.4227C17.2212 48.8464 15.2089 49.0582 13.0907 49.0582C10.803 49.0582 8.83302 48.8252 7.1808 48.3592C5.52858 47.9355 4.17291 47.3424 3.1138 46.5799C2.05468 45.8173 1.27094 44.9277 0.762563 43.9109C0.254188 42.8942 0 41.8139 0 40.67C0 39.1449 0.444828 37.5986 1.33449 36.0311C2.22414 34.4212 3.49508 32.9808 5.1473 31.7099C6.79952 30.439 8.79066 29.401 11.1207 28.5961C13.4508 27.7488 16.0774 27.3252 19.0005 27.3252C21.2882 27.3252 23.0675 27.537 24.3385 27.9606C25.6518 28.3419 26.6262 28.8291 27.2616 29.4222C27.8971 29.973 28.2784 30.5661 28.4055 31.2015C28.5326 31.7946 28.5961 32.303 28.5961 32.7267C28.5961 34.2941 28.0242 35.6498 26.8803 36.7937C25.7789 37.8951 24.4656 38.7848 22.9404 39.4626C21.4153 40.1405 19.8478 40.6488 18.238 40.9878C16.6705 41.2843 15.3995 41.4326 14.4251 41.4326C13.9168 41.4326 13.366 41.4114 12.7729 41.369C12.2222 41.2843 11.6926 41.1572 11.1843 40.9878C10.6759 40.7759 10.2522 40.5006 9.91332 40.1616C9.61676 39.7804 9.46849 39.3144 9.46849 38.7636C9.46849 38.1705 9.65913 37.6833 10.0404 37.302C10.4217 36.8784 10.8453 36.5183 11.3113 36.2217C11.8197 35.8828 12.4128 35.5863 13.0907 35.3321C13.3025 35.3321 13.5143 35.3956 13.7261 35.5227C13.938 35.6074 14.0439 35.7557 14.0439 35.9675C14.0439 36.2641 13.9168 36.4759 13.6626 36.603C13.4084 36.6877 13.1118 36.7937 12.7729 36.9208C12.4764 37.0055 12.1798 37.1538 11.8833 37.3656C11.6291 37.5774 11.502 37.9375 11.502 38.4459C11.502 38.8695 11.6079 39.2084 11.8197 39.4626C12.0315 39.7168 12.2857 39.9075 12.5823 40.0345C12.8788 40.1616 13.1966 40.2464 13.5355 40.2887C13.9168 40.2887 14.2345 40.2887 14.4887 40.2887C16.4798 40.2887 18.2168 40.0981 19.6995 39.7168C21.1823 39.2932 22.4109 38.7424 23.3853 38.0646C24.3596 37.3868 25.101 36.6242 25.6094 35.7769C26.1178 34.9296 26.372 34.0611 26.372 33.1715C26.372 32.6207 26.2449 32.07 25.9907 31.5193C25.7365 30.9685 25.3128 30.4813 24.7197 30.0577C24.1266 29.634 23.3429 29.2951 22.3685 29.0409C21.3941 28.7867 20.1867 28.6597 18.7463 28.6597C16.0774 28.6597 13.6626 29.0198 11.502 29.74C9.34139 30.4178 7.49853 31.3074 5.97341 32.4089C4.49065 33.5104 3.32562 34.739 2.47833 36.0946C1.6734 37.4503 1.27094 38.806 1.27094 40.1616C1.27094 41.1784 1.50394 42.1528 1.96995 43.0848C2.47833 43.9745 3.26207 44.7794 4.32119 45.4996C5.3803 46.1774 6.71479 46.707 8.32465 47.0883C9.9345 47.5119 11.8621 47.7237 14.1074 47.7237C17.7931 47.7237 21.3729 46.8976 24.8468 45.2454C28.3631 43.5508 32.1547 40.9666 36.2217 37.4927C34.7813 36.603 33.7222 35.5651 33.0444 34.3789C32.4089 33.1927 32.0912 31.9853 32.0912 30.7567C32.0912 29.867 32.2395 28.9986 32.536 28.1513C32.8749 27.2616 33.3409 26.4567 33.934 25.7365C32.4089 25.2705 31.0321 24.5715 29.8035 23.6395C28.5749 22.6651 27.5158 21.5636 26.6262 20.335C25.7789 19.1064 25.101 17.8143 24.5927 16.4587C24.1266 15.103 23.8936 13.7685 23.8936 12.4552C23.8936 11.3537 24.0631 10.337 24.402 9.40494C24.7833 8.43056 25.3552 7.58326 26.1178 6.86307C26.8803 6.1005 27.8547 5.5074 29.0409 5.08376C30.2695 4.66011 31.7099 4.44828 33.3621 4.44828C35.3956 4.44828 37.3868 4.93548 39.3355 5.90986C41.2843 6.88425 43.0213 8.2611 44.5464 10.0404C46.0715 11.7774 47.3001 13.8744 48.2321 16.3316C49.2065 18.7463 49.7149 21.4153 49.7572 24.3385C51.7907 22.2202 53.909 19.9961 56.1119 17.666C58.3149 15.2936 60.6873 12.7306 63.2292 9.97686C65.7287 7.3079 68.3341 4.51183 71.0454 1.58867C71.3844 1.24976 71.7233 0.91084 72.0622 0.571922C72.4435 0.190641 72.8036 0 73.1425 0C73.3543 0 73.5238 0.105911 73.6509 0.317734C73.8203 0.487193 73.905 0.63547 73.905 0.762564ZM68.6942 6.16405C68.6942 6.07932 68.6518 6.03696 68.5671 6.03696H68.44C64.7119 9.97687 61.3228 13.5779 58.2725 16.8399C55.2223 20.0596 52.3627 23.0463 49.6937 25.8C49.6513 26.7321 49.5242 27.77 49.3124 28.9138C49.1429 30.0577 48.9311 31.2227 48.6769 32.4089C48.4227 33.5528 48.1474 34.7178 47.8508 35.904C47.5966 37.0478 47.3424 38.107 47.0883 39.0813H47.5331C48.3804 37.8528 49.1429 36.7301 49.8208 35.7134C50.541 34.6966 51.007 34.0188 51.2188 33.6799C51.3035 33.5528 51.7907 32.7902 52.6804 31.3922C53.57 29.9518 54.6503 28.236 55.9213 26.2449C57.2346 24.2114 58.6326 22.0296 60.1154 19.6995C61.6405 17.3695 63.0173 15.2089 64.2459 13.2178C65.5169 11.2266 66.576 9.5744 67.4233 8.2611C68.2706 6.90543 68.6942 6.20642 68.6942 6.16405ZM48.3592 25.8C48.3592 24.7833 48.2533 23.5759 48.0415 22.1779C47.8296 20.7798 47.4907 19.3394 47.0247 17.8567C46.5587 16.3316 45.9444 14.8488 45.1819 13.4084C44.4193 11.968 43.4449 10.6759 42.2587 9.53204C41.1148 8.34583 39.738 7.41381 38.1281 6.73597C36.5183 6.01578 34.6542 5.65568 32.536 5.65568C31.604 5.65568 30.6932 5.78277 29.8035 6.03696C28.9562 6.24878 28.1936 6.67243 27.5158 7.30789C26.8803 7.901 26.372 8.70593 25.9907 9.72268C25.6094 10.7394 25.4188 12.0104 25.4188 13.5355C25.4188 14.5946 25.6306 15.7173 26.0542 16.9035C26.4779 18.0897 27.071 19.2335 27.8335 20.335C28.6385 21.3941 29.6129 22.3473 30.7567 23.1946C31.9429 23.9995 33.2774 24.5715 34.7602 24.9104C35.6074 24.1478 36.5818 23.5335 37.6833 23.0675C38.8272 22.5592 40.1193 22.305 41.5597 22.305C42.2799 22.305 42.8094 22.4321 43.1483 22.6862C43.4873 22.8981 43.6567 23.1523 43.6567 23.4488C43.6567 23.6606 43.5296 23.936 43.2754 24.2749C43.0636 24.6138 42.7035 24.9316 42.1951 25.2281C41.7291 25.5247 41.136 25.7789 40.4158 25.9907C39.6956 26.2025 38.8272 26.3084 37.8104 26.3084C36.836 26.3084 35.8193 26.2025 34.7602 25.9907C33.8705 27.0498 33.4257 28.3207 33.4257 29.8035C33.4257 30.9473 33.7434 32.1124 34.3789 33.2986C35.0143 34.4424 36.0099 35.4804 37.3656 36.4124C40.67 33.4892 44.3346 29.9518 48.3592 25.8ZM41.4961 23.8936C41.4961 23.5547 41.2631 23.3853 40.7971 23.3853C38.6365 23.3853 36.9208 23.9572 35.6498 25.101C35.9887 25.1434 36.3065 25.1858 36.603 25.2281C36.9419 25.2281 37.2808 25.2281 37.6198 25.2281C37.7892 25.2281 38.0858 25.2281 38.5094 25.2281C38.9331 25.1858 39.3567 25.1222 39.7804 25.0375C40.2464 24.9104 40.6488 24.7621 40.9878 24.5927C41.3267 24.4232 41.4961 24.1902 41.4961 23.8936ZM48.2956 27.2616C46.4316 29.168 44.6735 30.9262 43.0213 32.536C41.369 34.1459 39.7804 35.6286 38.2552 36.9843C39.2296 37.535 40.3735 38.0011 41.6868 38.3823C43.0001 38.7212 44.4828 38.9331 46.1351 39.0178C46.6011 37.2385 47.0459 35.3109 47.4695 33.235C47.9355 31.1592 48.2109 29.168 48.2956 27.2616ZM46.8341 39.9075C46.8341 40.0345 46.8129 40.1193 46.7705 40.1616C46.8553 40.0769 46.9188 39.9922 46.9612 39.9075H46.8341Z" fill="#342619"></path><path d="M70.9238 35.5227C70.9238 35.6922 70.7967 35.904 70.5425 36.1582C70.4578 36.2429 70.1824 36.5607 69.7164 37.1114C69.2504 37.6621 68.7208 38.2552 68.1277 38.8907C67.577 39.5262 67.0686 40.1193 66.6026 40.67C66.1366 41.1784 65.8612 41.4749 65.7765 41.5597C65.3529 42.0257 64.9716 42.4917 64.6327 42.9577C64.2937 43.4237 64.1243 43.8897 64.1243 44.3557C64.1243 44.8218 64.4208 45.0548 65.0139 45.0548C65.4799 45.0548 66.1366 44.8429 66.9839 44.4193C67.8312 43.9956 68.9115 43.1907 70.2248 42.0045C70.3519 41.835 70.479 41.7503 70.6061 41.7503C70.7755 41.7503 70.8603 41.8562 70.8603 42.0681C70.8603 42.2799 70.6272 42.6188 70.1612 43.0848C69.6952 43.5508 69.1021 44.0168 68.3819 44.4828C67.6617 44.9065 66.878 45.2878 66.0307 45.6267C65.2258 45.9656 64.442 46.1351 63.6795 46.1351C62.7474 46.1351 62.2814 45.6479 62.2814 44.6735C62.2814 43.9956 62.5568 43.339 63.1075 42.7035C63.6583 42.0257 64.1666 41.4114 64.6327 40.8607C65.0987 40.3099 65.5859 39.7168 66.0942 39.0813C66.6026 38.4459 67.0898 37.8528 67.5558 37.302C68.0218 36.7513 68.4243 36.2853 68.7632 35.904C69.1021 35.5227 69.3139 35.3109 69.3987 35.2685C69.6529 35.0143 69.9282 34.8873 70.2248 34.8873C70.3942 34.8873 70.5425 34.9508 70.6696 35.0779C70.8391 35.205 70.9238 35.3533 70.9238 35.5227ZM57.4519 41.2419L61.2647 36.4759C61.4765 36.2641 61.646 36.0735 61.773 35.904C61.9425 35.7345 62.112 35.5651 62.2814 35.3956C62.5356 35.0991 62.7898 34.8449 63.044 34.6331C63.2982 34.4212 63.4676 34.3153 63.5524 34.3153C64.0607 34.3153 64.3149 34.5272 64.3149 34.9508C64.2302 35.1203 64.1031 35.2897 63.9336 35.4592C63.8065 35.5863 63.6583 35.7345 63.4888 35.904C63.277 36.1158 63.0016 36.4336 62.6627 36.8572C62.3238 37.2385 61.9001 37.768 61.3918 38.4459C60.5445 39.5474 59.9302 40.2887 59.5489 40.67C59.1676 41.0089 58.8499 41.4114 58.5957 41.8774C58.3415 42.174 58.0661 42.4917 57.7696 42.8306C57.5154 43.1272 57.3459 43.339 57.2612 43.4661C57.1341 43.5932 56.9435 43.805 56.6893 44.1016C56.4351 44.3981 56.1809 44.6947 55.9267 44.9912C55.6725 45.2878 55.4395 45.5631 55.2277 45.8173C54.9735 46.0291 54.8253 46.1351 54.7829 46.1351C54.3169 46.1351 54.0839 45.9232 54.0839 45.4996C54.0839 45.4149 54.1898 45.2454 54.4016 44.9912C54.5711 44.737 54.7829 44.4617 55.0371 44.1651C55.2489 43.8685 55.4607 43.6144 55.6725 43.4025C55.8844 43.1484 56.0326 42.9789 56.1174 42.8942L57.4519 41.2419ZM60.6292 37.874C60.6292 38.2552 60.6927 38.6577 60.8198 39.0813C60.9893 39.4626 61.2647 39.7804 61.646 40.0345C61.7307 40.0769 61.9849 40.1616 62.4085 40.2887C62.8745 40.4158 63.2134 40.4794 63.4253 40.4794C64.442 40.4794 65.2046 40.3099 65.713 39.971C66.2637 39.6321 66.6662 39.2508 66.9203 38.8272C67.2169 38.4035 67.4075 38.0222 67.4923 37.6833C67.6194 37.3444 67.7465 37.1749 67.8736 37.1749C67.9583 37.1749 68.0642 37.1961 68.1913 37.2385C68.3184 37.2385 68.3819 37.2809 68.3819 37.3656C68.3819 37.4927 68.2972 37.768 68.1277 38.1917C68.0006 38.6153 67.7465 39.0602 67.3652 39.5262C66.9839 39.9922 66.4332 40.4158 65.713 40.7971C65.0351 41.136 64.1455 41.3055 63.044 41.3055C62.4085 41.3055 62.0696 41.2843 62.0272 41.2419L61.074 41.0513C60.4386 40.7971 59.9937 40.4582 59.7395 40.0345C59.4854 39.5685 59.3583 39.0813 59.3583 38.573L60.6292 37.874Z" fill="#342619"></path><path d="M100.627 27.0074C100.627 27.304 100.458 27.6217 100.119 27.9606C98.9324 29.1892 97.5344 30.1424 95.9245 30.8202C94.3571 31.4981 92.6413 31.837 90.7772 31.837C90.6078 31.837 90.4383 31.837 90.2689 31.837C90.0994 31.837 89.93 31.8158 89.7605 31.7735C88.9979 33.6375 88.0871 35.4592 87.028 37.2385C85.9689 38.9754 84.7615 40.5429 83.4058 41.941C82.0925 43.2966 80.6521 44.3981 79.0846 45.2454C77.5595 46.0503 75.9285 46.4528 74.1915 46.4528C73.2171 46.4528 72.4969 46.1774 72.0309 45.6267C71.6073 45.0336 71.3954 44.3134 71.3954 43.4661C71.3954 42.6188 71.6073 41.708 72.0309 40.7336C72.4546 39.7592 73.0688 38.8483 73.8738 38.001C74.7211 37.1538 75.7378 36.4547 76.924 35.904C78.1102 35.3109 79.4659 35.0143 80.991 35.0143C81.6689 35.0143 82.2196 35.1203 82.6432 35.3321C83.1093 35.5015 83.4905 35.6922 83.7871 35.904C84.126 36.1582 84.4226 36.4759 84.6767 36.8572C84.6767 37.3656 84.4649 37.6198 84.0413 37.6198C83.7871 37.6198 83.5964 37.4503 83.4694 37.1114C82.9186 36.6454 82.3891 36.3488 81.8807 36.2217C81.3723 36.0946 80.8851 36.0311 80.4191 36.0311C79.36 36.0311 78.3644 36.2853 77.4324 36.7937C76.5427 37.2597 75.759 37.8528 75.0812 38.573C74.4457 39.2932 73.9373 40.0769 73.556 40.9242C73.1748 41.7291 72.9841 42.4705 72.9841 43.1483C72.9841 43.7838 73.1536 44.3134 73.4925 44.737C73.8738 45.1183 74.4245 45.3089 75.1447 45.3089C76.5004 45.3089 77.8137 44.9277 79.0846 44.1651C80.3556 43.4025 81.5418 42.3858 82.6432 41.1148C83.7871 39.8015 84.8462 38.3188 85.8206 36.6666C86.795 34.972 87.6211 33.235 88.2989 31.4557C87.2822 31.1592 86.329 30.6932 85.4393 30.0577C84.592 29.4222 83.8506 28.702 83.2152 27.8971C82.5797 27.0498 82.0713 26.1601 81.69 25.2281C81.3088 24.2537 81.1181 23.3005 81.1181 22.3685C81.1181 21.5636 81.2452 20.6527 81.4994 19.636C81.7536 18.5769 82.1349 17.6025 82.6432 16.7128C83.1516 15.7808 83.7871 14.9971 84.5497 14.3616C85.3546 13.7261 86.2866 13.4084 87.3457 13.4084C88.0659 13.4084 88.7226 13.599 89.3157 13.9803C89.9088 14.3616 90.4171 14.87 90.8408 15.5054C91.3068 16.1409 91.6669 16.9035 91.9211 17.7931C92.1753 18.6404 92.3024 19.5513 92.3024 20.5257C92.3024 22.0084 92.1117 23.6394 91.7304 25.4188C91.3492 27.1557 90.8196 28.9562 90.1418 30.8202C90.396 30.905 90.629 30.9473 90.8408 30.9473C91.095 30.9473 91.3703 30.9473 91.6669 30.9473C92.6413 30.9473 93.5309 30.8203 94.3359 30.5661C95.1408 30.3119 95.861 30.0153 96.4965 29.6764C97.1319 29.2951 97.6827 28.9138 98.1487 28.5326C98.6147 28.1089 98.9748 27.7488 99.229 27.4523C99.3137 27.3675 99.462 27.2193 99.6738 27.0074C99.928 26.7532 100.161 26.6262 100.373 26.6262C100.542 26.6262 100.627 26.7532 100.627 27.0074ZM90.7137 20.6527C90.7137 18.8734 90.396 17.433 89.7605 16.3316C89.1674 15.1877 88.193 14.6158 86.8373 14.6158C85.9477 14.6158 85.2063 14.9123 84.6132 15.5054C84.0625 16.0562 83.6176 16.7128 83.2787 17.4754C82.9822 18.1956 82.7703 18.9158 82.6432 19.636C82.5161 20.3562 82.4526 20.8858 82.4526 21.2247C82.4526 22.1143 82.6009 23.0252 82.8974 23.9572C83.194 24.8892 83.5964 25.7789 84.1048 26.6262C84.6556 27.4734 85.3122 28.236 86.0748 28.9138C86.8797 29.5493 87.7694 30.0577 88.7437 30.439C89.3368 28.6597 89.8029 26.9439 90.1418 25.2917C90.5231 23.6395 90.7137 22.0931 90.7137 20.6527Z" fill="#342619"></path><path d="M100.637 42.0681C100.637 42.2799 100.404 42.6188 99.9384 43.0848C99.4724 43.5508 98.8793 44.0168 98.1591 44.4828C97.4389 44.9065 96.6552 45.2878 95.8079 45.6267C95.0029 45.9656 94.2192 46.1351 93.4566 46.1351C92.5246 46.1351 92.0586 45.6479 92.0586 44.6735C92.0586 44.0804 92.3552 43.4661 92.9483 42.8306C93.5414 42.1528 94.1768 41.4749 94.8547 40.7971C95.5749 40.1193 96.2315 39.4626 96.8246 38.8272C97.4177 38.1917 97.7143 37.6198 97.7143 37.1114C97.7143 36.4336 97.2483 36.0946 96.3163 36.0946C95.8079 36.0523 95.2995 36.1158 94.7911 36.2853C94.3251 36.4124 93.8803 36.5818 93.4566 36.7937C92.9906 37.0055 92.5458 37.2385 92.1222 37.4927C91.5714 38.1281 90.8724 38.9543 90.0251 39.971C89.2202 40.9878 88.2882 42.1528 87.229 43.4661C86.2123 44.737 85.1108 46.0927 83.9246 47.5331C82.696 49.0158 81.4251 50.4774 80.1118 51.9178C81.0862 52.3838 81.7852 52.9769 82.2088 53.6971C82.5901 54.4173 82.7808 55.2011 82.7808 56.0484V56.1755C83.2891 56.0484 83.8187 55.9425 84.3694 55.8577C84.9202 55.773 85.4921 55.7306 86.0852 55.7306C87.3561 55.7306 88.4153 55.9636 89.2626 56.4297C90.1098 56.938 90.5335 57.5523 90.5335 58.2725C90.5335 58.3996 90.4911 58.5479 90.4064 58.7173C90.2793 58.9715 90.1098 59.0986 89.898 59.0986C89.6015 59.0986 89.3473 58.8656 89.1355 58.3996C89.0507 58.1454 88.733 57.743 88.1823 57.1922C87.6315 56.6838 86.763 56.4297 85.5768 56.4297C84.5177 56.4297 83.5857 56.5567 82.7808 56.8109C82.696 57.4888 82.4842 58.1454 82.1453 58.7809C81.8064 59.4587 81.3827 60.0518 80.8744 60.5602C80.3236 61.0686 79.7093 61.471 79.0315 61.7676C78.3113 62.0641 77.5699 62.2124 76.8074 62.2124C76.1719 62.2124 75.8541 61.9582 75.8541 61.4499C75.8541 61.1533 76.0024 60.772 76.299 60.306C76.5532 59.8824 76.9344 59.4164 77.4428 58.908C77.9512 58.442 78.5655 57.9971 79.2857 57.5735C80.0059 57.1499 80.8108 56.7686 81.7005 56.4297C81.7005 55.7095 81.531 54.9893 81.1921 54.2691C80.8532 53.5912 80.2813 53.0405 79.4763 52.6168C78.0783 54.142 76.6379 55.6035 75.1551 57.0016C73.6724 58.442 72.232 59.6917 70.8339 60.7508C69.3936 61.8523 68.0167 62.7208 66.7034 63.3563C65.3477 64.0341 64.098 64.373 62.9541 64.373C62.1492 64.373 61.5137 64.2883 61.0477 64.1188C60.5393 63.9494 60.1581 63.7375 59.9039 63.4834C59.6497 63.2715 59.4802 63.0173 59.3955 62.7208C59.3108 62.4666 59.2684 62.2124 59.2684 61.9582C59.2684 60.5178 59.8403 59.141 60.9842 57.8277C62.0857 56.5144 63.4837 55.3494 65.1783 54.3326C66.8305 53.3582 68.631 52.5745 70.5798 51.9814C72.4862 51.3883 74.2231 51.0917 75.7906 51.0917C76.9768 51.0917 78.0147 51.2188 78.9044 51.473C80.5566 49.6089 82.2512 47.639 83.9882 45.5631C85.6827 43.4873 87.3773 41.4114 89.0719 39.3355C90.7665 37.2173 92.4187 35.1414 94.0286 33.1079C95.6384 31.0321 97.1635 29.0833 98.6039 27.2616C98.8581 26.9227 99.1759 26.7532 99.5571 26.7532C99.9384 26.7532 100.129 26.9439 100.129 27.3252C100.129 27.537 100.023 27.7912 99.8113 28.0877C99.6419 28.2572 99.2182 28.7444 98.5404 29.5493C97.8626 30.3542 97.1424 31.2227 96.3798 32.1547C95.6172 33.0444 94.9182 33.8705 94.2828 34.6331C93.6896 35.3956 93.3931 35.8405 93.3931 35.9675C93.9015 35.7557 94.3463 35.5863 94.7276 35.4592C95.1089 35.3321 95.5325 35.2262 95.9985 35.1414C96.4645 35.0143 96.9094 34.9508 97.333 34.9508C97.8837 34.9508 98.3498 35.0779 98.731 35.3321C99.1123 35.5863 99.303 36.0311 99.303 36.6666C99.303 37.3868 99.0064 38.1281 98.4133 38.8907C97.8626 39.6109 97.2483 40.3099 96.5704 40.9878C95.935 41.6656 95.3207 42.3011 94.7276 42.8942C94.1768 43.4873 93.9015 43.9745 93.9015 44.3557C93.9015 44.8218 94.198 45.0548 94.7911 45.0548C95.2571 45.0548 95.9138 44.8429 96.7611 44.4193C97.6084 43.9956 98.6887 43.1907 100.002 42.0045C100.129 41.835 100.256 41.7503 100.383 41.7503C100.553 41.7503 100.637 41.8562 100.637 42.0681ZM81.7005 57.1287C80.4295 57.637 79.4551 58.2513 78.7773 58.9715C78.0571 59.7341 77.697 60.3272 77.697 60.7508C77.697 61.005 77.8241 61.1321 78.0783 61.1321C79.0103 61.1321 79.8152 60.7297 80.4931 59.9247C81.1709 59.1198 81.5734 58.1878 81.7005 57.1287ZM78.2689 52.1085C77.6335 51.939 76.8285 51.8543 75.8541 51.8543C74.1596 51.8543 72.4438 52.1296 70.7068 52.6804C68.9275 53.2311 67.3177 53.9513 65.8773 54.841C64.4369 55.7306 63.2719 56.7474 62.3822 57.8912C61.4502 59.0351 60.9842 60.2213 60.9842 61.4499C60.9842 62.0006 61.1536 62.4666 61.4925 62.8479C61.7891 63.2715 62.3822 63.4834 63.2719 63.4834C64.1615 63.4834 65.1783 63.1868 66.3221 62.5937C67.4236 62.043 68.6098 61.2592 69.8807 60.2425C71.1517 59.2257 72.5074 58.0183 73.9477 56.6203C75.3458 55.2646 76.7862 53.7607 78.2689 52.1085Z" fill="#342619"></path><path d="M112.532 42.0681C112.532 42.2799 112.299 42.6188 111.833 43.0848C111.367 43.5508 110.731 44.0168 109.926 44.4828C109.164 44.9488 108.253 45.3725 107.194 45.7538C106.177 46.0927 105.118 46.2621 104.016 46.2621C102.449 46.2621 101.326 45.9656 100.648 45.3725C100.013 44.737 99.6952 43.9745 99.6952 43.0848C99.6952 42.2375 99.9282 41.369 100.394 40.4794C100.86 39.5474 101.474 38.6789 102.237 37.874C103.042 37.069 103.932 36.4124 104.906 35.904C105.923 35.3956 106.961 35.1414 108.02 35.1414C108.655 35.1414 109.185 35.2897 109.608 35.5863C110.032 35.8828 110.244 36.3912 110.244 37.1114C110.244 37.9163 109.969 38.6577 109.418 39.3355C108.867 40.0134 108.168 40.6277 107.321 41.1784C106.474 41.7291 105.541 42.2163 104.525 42.64C103.55 43.0636 102.618 43.4237 101.729 43.7203C102.068 44.6947 103 45.1819 104.525 45.1819C105.626 45.1819 106.791 44.9488 108.02 44.4828C109.291 44.0168 110.583 43.1907 111.896 42.0045C112.023 41.835 112.15 41.7503 112.277 41.7503C112.447 41.7503 112.532 41.8562 112.532 42.0681ZM108.655 37.6198C108.655 37.1538 108.507 36.8148 108.21 36.603C107.956 36.3488 107.617 36.2217 107.194 36.2217C106.516 36.2217 105.838 36.4336 105.16 36.8572C104.482 37.2809 103.868 37.8104 103.317 38.4459C102.767 39.0813 102.322 39.7804 101.983 40.5429C101.686 41.2631 101.538 41.9621 101.538 42.64V43.0848C102.428 42.7459 103.296 42.3858 104.143 42.0045C104.991 41.5809 105.732 41.136 106.368 40.67C107.045 40.204 107.596 39.7168 108.02 39.2084C108.443 38.7001 108.655 38.1705 108.655 37.6198Z" fill="#342619"></path><path d="M126.609 42.0681C126.609 42.2799 126.376 42.6188 125.91 43.0848C125.444 43.5508 124.851 44.0168 124.13 44.4828C123.41 44.9065 122.626 45.2878 121.779 45.6267C120.974 45.9656 120.191 46.1351 119.428 46.1351C118.496 46.1351 118.03 45.6479 118.03 44.6735C118.03 44.4193 118.072 44.1651 118.157 43.9109C118.242 43.6567 118.326 43.4237 118.411 43.2119C118.538 42.9577 118.644 42.7247 118.729 42.5129C118.729 42.3858 118.708 42.3434 118.665 42.3858C117.818 43.0636 116.992 43.6567 116.187 44.1651C115.467 44.6311 114.704 45.0548 113.899 45.436C113.094 45.8173 112.332 46.008 111.612 46.008C110.383 46.008 109.769 45.5843 109.769 44.737C109.769 44.271 109.938 43.6991 110.277 43.0213C110.658 42.3434 111.103 41.6444 111.612 40.9242C112.162 40.204 112.734 39.505 113.327 38.8272C113.963 38.107 114.535 37.4927 115.043 36.9843C115.552 36.4336 115.975 36.0099 116.314 35.7134C116.695 35.3744 116.865 35.2262 116.823 35.2685C117.034 35.0567 117.267 34.9508 117.522 34.9508C117.86 34.9508 118.03 35.0991 118.03 35.3956C118.03 35.6498 117.882 35.9252 117.585 36.2217C117.077 36.7725 116.484 37.4291 115.806 38.1917C115.128 38.9543 114.471 39.7168 113.836 40.4794C113.2 41.1996 112.671 41.8986 112.247 42.5764C111.824 43.2119 111.612 43.7203 111.612 44.1016C111.612 44.5676 111.951 44.8006 112.628 44.8006C113.222 44.8006 113.942 44.5464 114.789 44.038C115.636 43.4873 116.441 42.9153 117.204 42.3222C118.093 41.602 119.025 40.7971 120 39.9075C120.847 39.1873 121.589 38.4882 122.224 37.8104C122.859 37.1326 123.326 36.5818 123.622 36.1582C124.003 35.6922 124.406 35.4592 124.829 35.4592C125.168 35.4592 125.338 35.6075 125.338 35.904C125.338 36.1158 125.232 36.3276 125.02 36.5395C124.851 36.7089 124.639 36.9419 124.385 37.2385C124.258 37.4079 123.961 37.7257 123.495 38.1917C123.071 38.6577 122.605 39.1661 122.097 39.7168C121.631 40.2252 121.207 40.7124 120.826 41.1784C120.445 41.6444 120.212 41.941 120.127 42.0681C120.042 42.2799 119.915 42.5764 119.746 42.9577C119.576 43.339 119.492 43.6991 119.492 44.038C119.492 44.7158 119.915 45.0548 120.762 45.0548C121.228 45.0548 121.885 44.8429 122.732 44.4193C123.58 43.9956 124.66 43.1907 125.973 42.0045C126.1 41.835 126.227 41.7503 126.355 41.7503C126.524 41.7503 126.609 41.8562 126.609 42.0681ZM129.278 28.9774C129.405 28.4266 129.574 28.1513 129.786 28.1513C130.04 28.1089 130.189 28.2572 130.231 28.5961C130.273 28.8927 130.189 29.2316 129.977 29.6129C129.765 29.9518 129.468 30.2695 129.087 30.5661C128.706 30.8626 128.282 31.1592 127.816 31.4557C127.35 31.7099 126.948 31.9217 126.609 32.0912C125.761 32.3877 124.978 32.536 124.258 32.536C123.537 32.536 122.881 32.4301 122.288 32.2183C121.737 31.9641 121.292 31.6464 120.953 31.2651C120.614 30.8838 120.402 30.4602 120.318 29.9941C120.148 29.3587 120.254 28.7232 120.635 28.0877C121.059 27.4523 121.779 26.9227 122.796 26.4991C123.262 26.3296 123.622 26.2661 123.876 26.3084C124.173 26.3508 124.406 26.3931 124.575 26.4355C124.66 26.4355 124.745 26.4991 124.829 26.6262C124.829 26.7956 124.724 26.9227 124.512 27.0074C124.342 27.0922 124.152 27.1133 123.94 27.071C123.728 26.9863 123.474 27.0074 123.177 27.1345C122.372 27.4311 121.822 27.8124 121.525 28.2784C121.271 28.7444 121.207 29.2316 121.334 29.74C121.461 30.4602 121.949 31.0321 122.796 31.4557C123.643 31.8794 124.702 31.8582 125.973 31.3922C126.227 31.2651 126.545 31.1168 126.926 30.9473C127.308 30.7779 127.668 30.5872 128.007 30.3754C128.388 30.1636 128.685 29.9306 128.896 29.6764C129.151 29.4222 129.278 29.1892 129.278 28.9774Z" fill="#342619"></path><path d="M156.119 53.6389C156.119 54.698 155.78 55.8843 155.103 57.1976C154.425 58.5109 153.514 59.8242 152.37 61.1375C151.226 62.4508 149.871 63.7217 148.303 64.9503C146.778 66.1788 145.147 67.2803 143.41 68.2547C141.673 69.2291 139.894 70.0128 138.072 70.6059C136.25 71.1567 134.471 71.4321 132.734 71.4321C131.548 71.4321 130.616 71.2414 129.938 70.8601C129.26 70.4365 128.773 69.9281 128.476 69.335C126.528 70.0976 124.494 70.7119 122.376 71.1779C120.258 71.6439 118.267 71.8769 116.403 71.8769H115.386C113.606 74.5035 112.208 77.0877 111.192 79.6296C110.175 82.1291 109.667 84.3956 109.667 86.4291C109.667 88.6745 110.366 90.4961 111.764 91.8942C113.162 93.2498 115.449 93.9277 118.627 93.9277C121.253 93.9277 123.605 93.6099 125.68 92.9745C127.799 92.2966 129.599 91.5552 131.082 90.7503C132.819 89.8183 134.365 88.7804 135.721 87.6365C135.848 87.5518 136.017 87.5094 136.229 87.5094C136.526 87.5094 136.674 87.6365 136.674 87.8907C136.674 88.1873 136.483 88.4626 136.102 88.7168C135.509 89.1828 134.662 89.7759 133.56 90.4961C132.459 91.2163 131.124 91.9153 129.557 92.5932C128.032 93.271 126.252 93.8641 124.219 94.3725C122.228 94.8385 120.004 95.0715 117.546 95.0715C114.03 95.0715 111.488 94.3089 109.921 92.7838C108.396 91.2587 107.633 89.2887 107.633 86.874C107.633 84.7134 108.163 82.3198 109.222 79.6932C110.281 77.0665 111.764 74.3976 113.67 71.6862C112.441 71.4744 111.446 71.1143 110.683 70.6059C109.921 70.0552 109.349 69.4409 108.968 68.7631C108.374 69.0596 107.718 69.3562 106.998 69.6527C106.32 69.9493 105.621 70.2247 104.901 70.4789C105.324 71.7922 105.621 73.0419 105.79 74.2281C105.96 75.4143 106.044 76.4734 106.044 77.4055C106.044 77.6173 106.023 77.8079 105.981 77.9774C105.938 78.1045 105.854 78.168 105.727 78.168C105.472 78.168 105.282 77.9986 105.155 77.6597C105.07 77.3207 105.006 76.8971 104.964 76.3887C104.625 74.4399 104.18 72.6183 103.63 70.9237C101.13 71.771 98.2917 72.47 95.1143 73.0207C91.937 73.5291 88.3572 73.7833 84.3749 73.7833C82.0025 73.7833 79.9266 73.5291 78.1473 73.0207C76.368 72.5124 74.8852 71.8557 73.699 71.0508C72.5128 70.2035 71.6231 69.2503 71.03 68.1912C70.4793 67.0897 70.2039 65.9882 70.2039 64.8867C70.2039 63.7429 70.5005 62.6414 71.0936 61.5823C71.6867 60.4808 72.5552 59.5064 73.699 58.6591C74.8429 57.8118 76.2833 57.134 78.0202 56.6256C79.7572 56.1173 81.7695 55.8631 84.0572 55.8631C87.1074 55.8631 89.7764 56.2655 92.0641 57.0705C94.3518 57.833 96.3005 58.8498 97.9104 60.1207C99.5626 61.3916 100.918 62.832 101.977 64.4419C103.037 66.0518 103.884 67.6828 104.519 69.335C105.239 69.0808 105.938 68.8055 106.616 68.5089C107.294 68.2124 107.93 67.9158 108.523 67.6192C108.438 67.4074 108.396 67.2168 108.396 67.0473C108.396 66.8355 108.396 66.6237 108.396 66.4118C108.396 65.4375 108.671 64.5478 109.222 63.7429C109.815 62.8956 110.514 62.1754 111.319 61.5823C112.124 60.9468 112.971 60.4596 113.861 60.1207C114.75 59.7394 115.513 59.5488 116.148 59.5488C117.038 59.5488 117.483 59.8877 117.483 60.5655C117.483 61.4128 116.89 62.5355 115.704 63.9335C114.517 65.2892 112.696 66.666 110.238 68.0641C110.577 68.6572 111.065 69.1867 111.7 69.6527C112.378 70.1188 113.268 70.4577 114.369 70.6695C116.36 67.9158 118.648 65.268 121.232 62.7261C123.859 60.1419 126.676 57.8542 129.684 55.8631C132.692 53.8719 135.827 52.2833 139.089 51.097C142.351 49.8685 145.592 49.2542 148.811 49.2542C151.438 49.2542 153.302 49.6567 154.404 50.4616C155.547 51.2665 156.119 52.3256 156.119 53.6389ZM154.467 54.7192C154.467 53.4906 153.853 52.4951 152.624 51.7325C151.438 50.97 149.447 50.5887 146.651 50.5887C143.94 50.5887 141.143 51.1606 138.263 52.3044C135.424 53.4483 132.671 54.9734 130.002 56.8798C127.333 58.7439 124.791 60.9045 122.376 63.3616C120.004 65.7764 117.906 68.2759 116.085 70.8601H116.657C118.69 70.8601 120.703 70.6271 122.694 70.1611C124.685 69.6951 126.528 69.102 128.222 68.3818V67.8734C128.222 67.1109 128.519 66.3271 129.112 65.5222C129.705 64.7173 130.425 63.9971 131.273 63.3616C132.12 62.7261 133.009 62.1966 133.941 61.7729C134.874 61.3493 135.657 61.1375 136.293 61.1375C137.225 61.1375 137.691 61.5611 137.691 62.4084C137.691 62.9168 137.479 63.4463 137.055 63.9971C136.674 64.5054 136.123 65.035 135.403 65.5857C134.725 66.1365 133.92 66.6872 132.988 67.238C132.056 67.7887 131.04 68.2971 129.938 68.7631C130.15 69.2291 130.531 69.6104 131.082 69.9069C131.675 70.1611 132.459 70.2882 133.433 70.2882C134.831 70.2882 136.314 70.034 137.881 69.5257C139.491 69.0173 141.08 68.3606 142.647 67.5557C144.215 66.7084 145.698 65.7552 147.096 64.6961C148.536 63.5946 149.786 62.4719 150.845 61.3281C151.946 60.1843 152.815 59.0404 153.45 57.8966C154.128 56.7527 154.467 55.6936 154.467 54.7192ZM135.53 62.9803C135.53 62.599 135.318 62.4084 134.895 62.4084C134.513 62.4084 134.026 62.5567 133.433 62.8532C132.84 63.1498 132.268 63.5522 131.717 64.0606C131.209 64.569 130.743 65.1409 130.319 65.7764C129.938 66.4119 129.747 67.0473 129.747 67.6828V67.7463C131.484 66.899 132.882 66.0518 133.941 65.2045C135.001 64.3148 135.53 63.5734 135.53 62.9803ZM115.576 61.6458C115.576 61.1798 115.28 60.9468 114.687 60.9468C114.305 60.9468 113.839 61.0739 113.289 61.3281C112.738 61.5823 112.208 61.9424 111.7 62.4084C111.192 62.8744 110.747 63.4251 110.366 64.0606C110.027 64.6961 109.857 65.4163 109.857 66.2212V66.8567C111.764 65.7976 113.183 64.802 114.115 63.87C115.089 62.8956 115.576 62.1542 115.576 61.6458ZM103.185 69.8434C101.575 65.9035 99.0754 62.8109 95.6862 60.5655C92.2971 58.2779 88.0818 57.134 83.0404 57.134C81.1764 57.134 79.5665 57.3246 78.2108 57.7059C76.8975 58.0872 75.7961 58.5956 74.9064 59.2311C74.0168 59.8665 73.3601 60.6079 72.9365 61.4552C72.5128 62.2601 72.301 63.1074 72.301 63.9971C72.301 65.0138 72.5764 66.0518 73.1271 67.1109C73.7202 68.1276 74.5463 69.0385 75.6054 69.8434C76.7069 70.6483 78.0414 71.305 79.6089 71.8133C81.2187 72.3217 83.0616 72.5759 85.1375 72.5759C88.7808 72.5759 92.1064 72.3217 95.1143 71.8133C98.1222 71.305 100.812 70.6483 103.185 69.8434Z" fill="#342619"></path><path d="M157.311 85.8572C157.311 85.9419 157.269 86.0267 157.184 86.1114C156.93 86.3232 156.528 86.5774 155.977 86.874C155.426 87.1281 154.812 87.3823 154.134 87.6365C153.499 87.8907 152.8 88.1025 152.037 88.272C151.317 88.4414 150.597 88.5474 149.876 88.5897C149.537 89.437 149.071 90.2631 148.478 91.0681C147.885 91.873 147.186 92.5932 146.381 93.2286C145.619 93.8217 144.771 94.3089 143.839 94.6902C142.95 95.0715 142.018 95.2621 141.043 95.2621C139.688 95.2621 138.713 95.008 138.12 94.4996C137.569 93.9488 137.294 93.271 137.294 92.4661C137.294 91.6188 137.527 90.7291 137.993 89.7971C138.501 88.8227 139.158 87.9331 139.963 87.1281C140.768 86.2809 141.658 85.5818 142.632 85.0311C143.606 84.438 144.56 84.1414 145.492 84.1414C145.915 83.3365 146.657 82.9341 147.716 82.9341C148.351 82.9341 148.944 83.1882 149.495 83.6966C150.088 84.1626 150.385 84.9464 150.385 86.0478C150.385 86.6833 150.3 87.2552 150.131 87.7636C150.851 87.7636 151.592 87.6577 152.355 87.4459C153.117 87.2341 153.837 87.0011 154.515 86.7469C155.193 86.4927 155.744 86.2597 156.168 86.0478C156.634 85.7937 156.909 85.6242 156.994 85.5395C157.078 85.5395 157.163 85.5818 157.248 85.6666C157.29 85.7089 157.311 85.7725 157.311 85.8572ZM148.987 86.6198C148.987 85.6877 148.796 85.0311 148.415 84.6498C148.076 84.2262 147.737 84.0143 147.398 84.0143C147.017 84.0143 146.826 84.1838 146.826 84.5227C146.826 85.4971 147.017 86.2173 147.398 86.6833C147.779 87.1493 148.288 87.4671 148.923 87.6365C148.966 87.4247 148.987 87.0858 148.987 86.6198ZM148.669 88.5897C147.779 88.505 147.017 88.2084 146.381 87.7001C145.788 87.1493 145.449 86.302 145.365 85.1582C144.602 85.2006 143.861 85.4547 143.14 85.9208C142.42 86.3868 141.785 86.9587 141.234 87.6365C140.726 88.272 140.302 88.9922 139.963 89.7971C139.624 90.5597 139.455 91.2799 139.455 91.9577C139.455 92.6355 139.645 93.2075 140.027 93.6735C140.408 94.0971 141.043 94.3089 141.933 94.3089C142.441 94.3089 143.013 94.1607 143.649 93.8641C144.327 93.5676 144.983 93.1651 145.619 92.6567C146.297 92.1483 146.911 91.5552 147.462 90.8774C148.012 90.1572 148.415 89.3946 148.669 88.5897Z" fill="#342619"></path><path d="M191.874 66.4118C191.874 66.7084 191.81 66.9626 191.683 67.1744C191.556 67.3862 191.408 67.5557 191.238 67.6828C191.069 67.8523 190.836 67.9793 190.539 68.0641C190.158 68.0641 189.862 68.0429 189.65 68.0005C189.48 67.9582 189.311 67.8946 189.141 67.8099C188.972 67.6828 188.887 67.5345 188.887 67.3651C188.887 66.9838 189.057 66.7084 189.396 66.5389C189.777 66.3271 189.968 66.0729 189.968 65.7764C189.968 65.6069 189.798 65.501 189.459 65.4586C189.12 65.4163 188.845 65.3951 188.633 65.3951C187.193 65.3951 185.646 65.9247 183.994 66.9838C182.342 68.0429 180.584 69.4621 178.72 71.2414C176.898 73.0207 174.992 75.0754 173 77.4055C171.009 79.6932 168.997 82.1079 166.964 84.6498C167.26 84.4804 167.557 84.3321 167.853 84.205C168.658 83.8237 169.442 83.6542 170.204 83.6966C171.348 83.739 172.09 84.0567 172.429 84.6498C172.767 85.2006 172.873 85.8996 172.746 86.7469C172.577 87.5942 172.174 88.505 171.539 89.4794C170.946 90.4538 170.247 91.3646 169.442 92.2119C168.637 93.0168 167.768 93.6947 166.836 94.2454C165.947 94.7538 165.121 94.9868 164.358 94.9444C163.934 95.0291 163.468 95.0291 162.96 94.9444C162.494 94.8173 162.092 94.5631 161.753 94.1818C161.456 93.8006 161.266 93.2922 161.181 92.6567C161.181 92.3602 161.202 92.0213 161.244 91.64L159.274 94.1183C157.071 96.9144 154.826 99.5198 152.538 101.935C153.089 102.358 153.492 102.824 153.746 103.333C154 103.883 154.169 104.434 154.254 104.985C154.974 104.688 155.695 104.455 156.415 104.286C157.135 104.116 157.792 104.032 158.385 104.032C158.808 104.032 159.274 104.074 159.783 104.159C160.291 104.286 160.757 104.434 161.181 104.604C161.604 104.815 161.943 105.048 162.198 105.303C162.494 105.599 162.642 105.917 162.642 106.256C162.642 106.51 162.579 106.658 162.452 106.701H162.325C162.198 106.701 162.07 106.595 161.943 106.383C161.859 106.213 161.668 106.002 161.371 105.747C161.075 105.536 160.672 105.324 160.164 105.112C159.656 104.942 158.935 104.858 158.003 104.858C157.537 104.858 156.965 104.921 156.288 105.048C155.652 105.175 154.974 105.387 154.254 105.684C154.212 107.167 153.767 108.395 152.92 109.37C152.072 110.386 151.119 110.895 150.06 110.895C149.721 110.895 149.446 110.789 149.234 110.577C149.022 110.365 148.916 110.09 148.916 109.751C148.916 108.988 149.361 108.205 150.251 107.4C151.098 106.637 152.136 105.959 153.365 105.366C153.28 104.858 153.131 104.349 152.92 103.841C152.75 103.375 152.432 102.951 151.966 102.57C149.043 105.62 146.247 108.12 143.578 110.069C140.867 112.06 138.304 113.055 135.889 113.055C134.661 113.055 133.792 112.843 133.284 112.42C132.733 111.996 132.458 111.424 132.458 110.704C132.458 109.814 132.86 108.776 133.665 107.59C134.47 106.404 135.55 105.281 136.906 104.222C138.262 103.206 139.85 102.337 141.672 101.617C143.451 100.897 145.336 100.537 147.328 100.537C149.064 100.537 150.484 100.812 151.585 101.363C153.703 99.0326 155.822 96.5331 157.94 93.8641L158.003 93.8006C157.368 94.1395 156.754 94.4149 156.161 94.6267C155.356 94.8809 154.593 94.9656 153.873 94.8809C152.729 94.669 152.009 94.2666 151.712 93.6735C151.458 93.0804 151.458 92.3602 151.712 91.5129C151.966 90.708 152.454 89.8395 153.174 88.9075C153.894 87.9754 154.699 87.1281 155.589 86.3656C156.521 85.603 157.453 84.9887 158.385 84.5227C159.359 84.0567 160.206 83.8872 160.927 84.0143C161.35 83.972 161.795 84.0355 162.261 84.205C162.727 84.3321 163.087 84.6075 163.341 85.0311C163.638 85.4124 163.765 85.9419 163.723 86.6198C163.934 86.3232 164.167 86.0267 164.422 85.7301L165.184 84.7769C167.345 82.1079 169.484 79.5449 171.602 77.0877C173.721 74.6306 175.797 72.47 177.83 70.6059C179.864 68.6995 181.812 67.1956 183.676 66.0941C185.583 64.9503 187.383 64.3783 189.078 64.3783C190.095 64.3783 190.815 64.569 191.238 64.9503C191.662 65.3316 191.874 65.8187 191.874 66.4118ZM151.013 101.998C149.954 101.532 148.514 101.299 146.692 101.299C145.082 101.299 143.536 101.638 142.053 102.316C140.57 102.994 139.257 103.82 138.113 104.794C136.969 105.769 136.059 106.785 135.381 107.844C134.703 108.904 134.364 109.814 134.364 110.577C134.364 111.043 134.512 111.424 134.809 111.721C135.105 112.06 135.614 112.229 136.334 112.229C138.452 112.229 140.761 111.276 143.261 109.37C145.718 107.463 148.302 105.006 151.013 101.998ZM164.358 94.1818C164.951 94.1818 165.587 93.9488 166.265 93.4828C166.985 93.0168 167.663 92.4449 168.298 91.7671C168.933 91.0469 169.484 90.2843 169.95 89.4794C170.416 88.6321 170.713 87.8483 170.84 87.1281C171.009 86.4503 170.967 85.8784 170.713 85.4124C170.459 84.904 169.993 84.6286 169.315 84.5863C168.933 84.5863 168.446 84.7134 167.853 84.9676C167.26 85.2217 166.646 85.603 166.01 86.1114C165.629 86.4503 165.248 86.8104 164.866 87.1917L163.532 88.8439C163.235 89.3099 162.981 89.7971 162.769 90.3055C162.388 90.941 162.176 91.5341 162.134 92.0848C162.134 92.6355 162.24 93.1016 162.452 93.4828C162.664 93.8641 162.939 94.1183 163.278 94.2454C163.617 94.3725 163.977 94.3513 164.358 94.1818ZM160.863 84.7769C160.228 84.7345 159.529 84.9252 158.766 85.3488C158.046 85.7301 157.326 86.2597 156.605 86.9375C155.928 87.573 155.313 88.2932 154.763 89.0981C154.212 89.8607 153.831 90.602 153.619 91.3222C153.407 92.0001 153.386 92.5932 153.555 93.1016C153.725 93.5676 154.127 93.8641 154.763 93.9912C155.144 94.0336 155.631 93.9488 156.224 93.737C156.86 93.5252 157.516 93.2075 158.194 92.7838C158.83 92.3602 159.444 91.8518 160.037 91.2587C160.545 90.6232 161.032 89.9878 161.499 89.3523C161.626 89.1828 161.753 88.9922 161.88 88.7804C162.346 88.1449 162.621 87.573 162.706 87.0646C162.833 86.5139 162.812 86.0478 162.642 85.6666C162.515 85.2853 162.282 85.0099 161.943 84.8405C161.604 84.671 161.244 84.6498 160.863 84.7769ZM153.365 106.065C152.517 106.446 151.797 106.912 151.204 107.463C150.611 108.014 150.314 108.628 150.314 109.306C150.314 109.475 150.378 109.56 150.505 109.56C151.352 109.518 152.03 109.115 152.538 108.353C153.089 107.633 153.365 106.912 153.365 106.192V106.065Z" fill="#342619"></path><path d="M187.694 91.0681C187.694 91.2799 187.461 91.6188 186.995 92.0848C186.529 92.5508 185.936 93.0168 185.215 93.4828C184.495 93.9065 183.711 94.2878 182.864 94.6267C182.059 94.9656 181.275 95.1351 180.513 95.1351C179.581 95.1351 179.115 94.6479 179.115 93.6735C179.115 93.4193 179.157 93.1651 179.242 92.9109C179.327 92.6567 179.411 92.4237 179.496 92.2119C179.623 91.9577 179.729 91.7247 179.814 91.5129C179.814 91.3858 179.793 91.3434 179.75 91.3858C178.903 92.0636 178.077 92.6567 177.272 93.1651C176.552 93.6311 175.789 94.0548 174.984 94.436C174.179 94.8173 173.417 95.008 172.697 95.008C171.468 95.008 170.854 94.5843 170.854 93.737C170.854 93.271 171.023 92.6991 171.362 92.0213C171.743 91.3434 172.188 90.6444 172.697 89.9242C173.247 89.204 173.819 88.505 174.412 87.8272C175.048 87.107 175.62 86.4927 176.128 85.9843C176.637 85.4336 177.06 85.0099 177.399 84.7134C177.78 84.3744 177.95 84.2262 177.908 84.2685C178.119 84.0567 178.352 83.9508 178.607 83.9508C178.945 83.9508 179.115 84.0991 179.115 84.3956C179.115 84.6498 178.967 84.9252 178.67 85.2217C178.162 85.7725 177.569 86.4291 176.891 87.1917C176.213 87.9543 175.556 88.7168 174.921 89.4794C174.285 90.1996 173.756 90.8986 173.332 91.5764C172.908 92.2119 172.697 92.7203 172.697 93.1016C172.697 93.5676 173.036 93.8006 173.713 93.8006C174.307 93.8006 175.027 93.5464 175.874 93.038C176.721 92.4873 177.526 91.9153 178.289 91.3222C179.178 90.602 180.11 89.7971 181.085 88.9075C181.932 88.1873 182.674 87.4882 183.309 86.8104C183.944 86.1326 184.41 85.5818 184.707 85.1582C185.088 84.6922 185.491 84.4592 185.914 84.4592C186.253 84.4592 186.423 84.6074 186.423 84.904C186.423 85.1158 186.317 85.3277 186.105 85.5395C185.936 85.7089 185.724 85.9419 185.47 86.2385C185.342 86.4079 185.046 86.7257 184.58 87.1917C184.156 87.6577 183.69 88.1661 183.182 88.7168C182.716 89.2252 182.292 89.7124 181.911 90.1784C181.53 90.6444 181.297 90.941 181.212 91.0681C181.127 91.2799 181 91.5764 180.831 91.9577C180.661 92.339 180.576 92.6991 180.576 93.038C180.576 93.7158 181 94.0548 181.847 94.0548C182.313 94.0548 182.97 93.8429 183.817 93.4193C184.665 92.9956 185.745 92.1907 187.058 91.0045C187.185 90.835 187.312 90.7503 187.44 90.7503C187.609 90.7503 187.694 90.8562 187.694 91.0681Z" fill="#342619"></path><path d="M198.531 89.4158H197.959C197.79 89.5853 197.578 89.7759 197.324 89.9878C196.519 90.7503 195.608 91.5129 194.591 92.2754C193.574 92.9956 192.494 93.6311 191.35 94.1818C190.249 94.7326 189.211 95.008 188.236 95.008C187.982 95.008 187.686 94.9656 187.347 94.8809C187.05 94.7961 186.754 94.6479 186.457 94.436C186.16 94.2242 185.906 93.9277 185.694 93.5464C185.525 93.1651 185.44 92.6779 185.44 92.0848C185.44 91.4917 185.61 91.0892 185.949 90.8774C186.33 90.6656 186.626 90.5597 186.838 90.5597C187.474 90.5597 187.792 90.941 187.792 91.7035C187.792 92.0001 187.77 92.2119 187.728 92.339C187.77 92.8897 187.94 93.271 188.236 93.4828C188.575 93.6947 188.914 93.8006 189.253 93.8006C189.761 93.8006 190.439 93.5887 191.287 93.1651C192.176 92.6991 193.087 92.1272 194.019 91.4493C194.866 90.8139 195.714 90.1149 196.561 89.3523C195.375 89.2252 194.422 88.9922 193.701 88.6533C192.685 88.1449 192.24 87.2129 192.367 85.8572C192.452 84.9252 192.833 84.1626 193.511 83.5695C194.189 82.9764 194.951 82.5528 195.798 82.2986C196.688 82.0444 197.557 81.9808 198.404 82.1079C199.294 82.1927 199.971 82.4892 200.437 82.9976C200.903 83.4636 201.073 84.1203 200.946 84.9676C200.861 85.8148 200.268 86.874 199.166 88.1449C198.997 88.3567 198.764 88.6109 198.467 88.9075C198.637 88.9075 198.827 88.9075 199.039 88.9075C199.421 88.4414 199.844 88.2084 200.31 88.2084C200.48 88.2084 200.649 88.2296 200.819 88.272C200.988 88.272 201.073 88.3567 201.073 88.5262C201.073 88.738 200.903 88.9922 200.564 89.2887C200.226 89.5429 199.865 89.8395 199.484 90.1784C199.103 90.5173 198.743 90.9198 198.404 91.3858C198.065 91.8518 197.895 92.4025 197.895 93.038C197.895 93.7158 198.319 94.0548 199.166 94.0548C199.632 94.0548 200.289 93.8429 201.136 93.4193C201.984 92.9956 203.064 92.1907 204.377 91.0045C204.504 90.835 204.631 90.7503 204.759 90.7503C204.928 90.7503 205.013 90.8562 205.013 91.0681C205.013 91.2799 204.78 91.6188 204.314 92.0848C203.848 92.5508 203.255 93.0168 202.534 93.4828C201.814 93.9065 201.03 94.2878 200.183 94.6267C199.378 94.9656 198.595 95.1351 197.832 95.1351C196.942 95.1351 196.497 94.6479 196.497 93.6735C196.497 93.038 196.625 92.4237 196.879 91.8306C197.175 91.1951 197.726 90.3902 198.531 89.4158ZM199.103 86.4291C199.357 86.0478 199.569 85.6666 199.738 85.2853C199.865 84.9464 199.929 84.5863 199.929 84.205C199.971 83.8237 199.844 83.4636 199.548 83.1247C199.209 82.7434 198.722 82.6163 198.086 82.7434C197.493 82.8705 196.879 83.1459 196.243 83.5695C195.65 83.9508 195.121 84.438 194.655 85.0311C194.231 85.5818 194.04 86.1538 194.083 86.7469C194.167 87.2976 194.57 87.7848 195.29 88.2084C195.756 88.4203 196.37 88.6109 197.133 88.7804C197.895 88.0178 198.552 87.2341 199.103 86.4291Z" fill="#342619"></path></svg> 