<?xml version="1.0" encoding="UTF-8"?> <svg xmlns="http://www.w3.org/2000/svg" width="7" height="10" viewBox="0 0 7 10" fill="none"><path opacity="0.5" d="M1.848 2.832C2.072 1.952 2.428 1.26 2.916 0.756C3.404 0.252 3.972 0 4.62 0C5.156 0 5.6 0.168 5.952 0.504C6.304 0.832 6.48 1.264 6.48 1.8C6.48 2.272 6.32 2.764 6 3.276C5.688 3.788 5.22 4.348 4.596 4.956C3.972 5.564 3.144 6.288 2.112 7.128L1.092 7.956V7.98H4.824L5.4 7.248H5.46L4.368 9.324H4.308L4.428 8.688H0V8.676L0.948 7.896C2.14 6.912 3.048 6.128 3.672 5.544C4.304 4.96 4.792 4.396 5.136 3.852C5.488 3.308 5.664 2.76 5.664 2.208C5.664 1.688 5.52 1.292 5.232 1.02C4.952 0.74 4.576 0.6 4.104 0.6C3.552 0.6 3.1 0.792 2.748 1.176C2.404 1.552 2.132 2.104 1.932 2.832H1.848Z" fill="#E6E2D6"></path></svg> 