<?xml version="1.0" encoding="UTF-8"?> <svg xmlns="http://www.w3.org/2000/svg" width="6" height="9" viewBox="0 0 6 9" fill="none"><path opacity="0.5" d="M0 7.62C0 7.476 0.044 7.352 0.132 7.248C0.212 7.144 0.32 7.068 0.456 7.02C0.576 7.556 0.78 7.972 1.068 8.268C1.356 8.556 1.756 8.7 2.268 8.7C2.676 8.7 3.04 8.608 3.36 8.424C3.688 8.232 3.944 7.968 4.128 7.632C4.312 7.296 4.404 6.916 4.404 6.492C4.404 6.06 4.312 5.692 4.128 5.388C3.952 5.076 3.716 4.844 3.42 4.692C3.124 4.532 2.796 4.452 2.436 4.452H2.34V4.392C4.204 3.824 5.136 3 5.136 1.92C5.136 1.512 5.008 1.192 4.752 0.96C4.504 0.72 4.168 0.6 3.744 0.6C3.312 0.6 2.932 0.748 2.604 1.044C2.276 1.34 1.988 1.856 1.74 2.592H1.668C1.9 1.76 2.248 1.12 2.712 0.672C3.176 0.224 3.704 0 4.296 0C4.784 0 5.18 0.144 5.484 0.432C5.796 0.712 5.952 1.092 5.952 1.572C5.952 2.148 5.728 2.636 5.28 3.036C4.832 3.436 4.192 3.808 3.36 4.152V4.176C3.672 4.208 3.972 4.3 4.26 4.452C4.548 4.596 4.784 4.808 4.968 5.088C5.16 5.36 5.256 5.696 5.256 6.096C5.256 6.568 5.12 7.016 4.848 7.44C4.584 7.856 4.212 8.192 3.732 8.448C3.26 8.704 2.728 8.832 2.136 8.832C1.736 8.832 1.372 8.776 1.044 8.664C0.716 8.544 0.46 8.392 0.276 8.208C0.092 8.024 0 7.828 0 7.62Z" fill="#E6E2D6"></path></svg> 