<?xml version="1.0" encoding="UTF-8"?> <svg xmlns="http://www.w3.org/2000/svg" width="7" height="10" viewBox="0 0 7 10" fill="none"><path opacity="0.5" d="M0 8.172C0 8.028 0.04 7.908 0.12 7.812C0.2 7.708 0.304 7.628 0.432 7.572C0.712 8.684 1.308 9.24 2.22 9.24C2.644 9.24 3.032 9.132 3.384 8.916C3.736 8.7 4.016 8.396 4.224 8.004C4.432 7.612 4.536 7.168 4.536 6.672C4.536 5.888 4.292 5.288 3.804 4.872C3.316 4.448 2.66 4.224 1.836 4.2L3.084 0.696H6.396L6.936 0H6.996L6.336 1.404H3.024L2.136 3.744C3.12 3.776 3.904 4 4.488 4.416C5.08 4.832 5.376 5.44 5.376 6.24C5.376 6.808 5.224 7.336 4.92 7.824C4.624 8.304 4.216 8.684 3.696 8.964C3.184 9.244 2.624 9.384 2.016 9.384C1.624 9.384 1.276 9.328 0.972 9.216C0.668 9.096 0.432 8.944 0.264 8.76C0.088 8.576 0 8.38 0 8.172Z" fill="#E6E2D6"></path></svg> 