<?xml version="1.0" encoding="UTF-8"?> <svg xmlns="http://www.w3.org/2000/svg" width="248" height="94" viewBox="0 0 248 94" fill="none"><path d="M57.841 7.80452C58.179 10.5392 57.8433 13.7822 56.8338 17.5334C55.8242 21.2847 54.2914 25.1573 52.2353 29.1512C50.1791 33.1451 47.6941 37.1071 44.7801 41.0371C41.8592 44.9113 38.6668 48.4224 35.2028 51.5704L36.2911 51.4359C37.2957 51.3117 38.5586 50.9856 40.0799 50.4576C41.5943 49.8737 43.2172 49.0215 44.9486 47.9009C46.6799 46.7802 48.4361 45.4015 50.217 43.7648C51.9909 42.0723 53.6677 40.0518 55.2473 37.7033C55.394 37.5152 55.5408 37.3271 55.6875 37.1389C55.8832 36.8881 56.0647 36.7523 56.2321 36.7316C56.3437 36.7178 56.4309 36.7354 56.4936 36.7843L56.598 36.9414C56.6256 37.1646 56.5485 37.4575 56.3667 37.8199C56.2337 38.1197 56.045 38.4263 55.8004 38.7399C55.416 39.2974 54.6334 40.3007 53.4527 41.7499C52.3208 43.1364 50.861 44.6202 49.0732 46.2011C47.2785 47.7262 45.1631 49.1776 42.7269 50.5553C40.3396 51.8704 37.6949 52.7073 34.7927 53.066C34.5137 53.1005 34.2625 53.1316 34.0393 53.1592C33.816 53.1868 33.5894 53.1865 33.3592 53.1582C30.4333 55.6165 27.3964 57.6351 24.2484 59.2142C21.1074 60.849 17.9463 61.8631 14.7651 62.2563C10.0212 62.8427 6.48914 62.2311 4.16889 60.4214C1.89755 58.5489 0.558366 55.9663 0.151326 52.6735C-0.166027 50.1062 0.0157725 47.2223 0.696726 44.0216C1.43349 40.8141 2.50167 37.5372 3.90125 34.1911C5.35665 30.838 7.13281 27.5586 9.22972 24.3529C11.3197 21.0914 13.5872 18.1196 16.0322 15.4376C18.526 12.6928 21.103 10.391 23.763 8.53227C26.472 6.61083 29.1766 5.34156 31.8768 4.72446C31.9884 4.71066 32.1035 4.72477 32.222 4.76678C32.3964 4.80189 32.4973 4.93107 32.5249 5.15431C32.5594 5.43336 32.3011 5.63529 31.7498 5.76009C29.4403 6.3289 27.0671 7.52887 24.6303 9.36C22.2424 11.1284 19.9062 13.3154 17.6218 15.921C15.3863 18.4639 13.3004 21.2999 11.364 24.4291C9.42073 27.5025 7.74239 30.6564 6.32901 33.891C4.96453 37.0628 3.93492 40.1932 3.24017 43.2822C2.59433 46.3085 2.42318 49.0495 2.72674 51.5052C2.91991 53.0679 3.31908 54.4635 3.92424 55.6919C4.58521 56.9135 5.47663 57.9365 6.5985 58.7611C7.71347 59.5299 9.08334 60.0689 10.7081 60.378C12.3956 60.736 14.3835 60.7736 16.6717 60.4907C19.1832 60.1803 21.6639 59.392 24.1139 58.1259C26.6128 56.797 29.0703 55.1333 31.4864 53.1348C29.4641 52.8181 27.9446 51.986 26.9281 50.6384C25.9047 49.235 25.2722 47.5566 25.0308 45.6033C24.7893 43.6499 24.8862 41.6831 25.3213 39.7027C24.2396 40.1198 23.2244 40.3869 22.2756 40.5042C20.4896 40.725 19.1298 40.4964 18.1961 39.8186C17.2554 39.0849 16.6989 38.0204 16.5264 36.6252C16.3263 35.0067 16.5906 33.0191 17.3192 30.6625C18.0479 28.3059 19.1289 25.8208 20.5624 23.207C21.9958 20.5933 23.7152 18.0009 25.7206 15.4298C27.7191 12.8029 29.8602 10.4134 32.144 8.26121C34.4836 6.10211 36.896 4.30233 39.3811 2.86187C41.9151 1.3587 44.41 0.455341 46.8656 0.151785C50.3817 -0.282851 52.9932 0.215945 54.7001 1.64817C56.4629 3.0735 57.5098 5.12562 57.841 7.80452ZM55.5383 8.42914C55.2486 6.0851 54.3478 4.29824 52.8358 3.06855C51.3728 1.77616 49.1344 1.31624 46.1207 1.68879C44.0557 1.94405 41.8888 2.75021 39.62 4.10726C37.4071 5.45741 35.2321 7.11452 33.095 9.07859C31.0138 11.0358 29.0194 13.2372 27.1118 15.6828C25.2601 18.1216 23.6316 20.5328 22.2263 22.9164C20.8769 25.293 19.8275 27.576 19.0782 29.7651C18.3847 31.9474 18.131 33.792 18.3173 35.2988C18.476 36.5825 18.9943 37.5667 19.8722 38.2514C20.7991 38.8735 22.1555 39.0741 23.9414 38.8534C24.4437 38.7913 25.0193 38.6351 25.6684 38.3849C26.012 37.0392 26.4776 35.7634 27.0651 34.5575C27.6527 33.3516 28.3133 32.2783 29.047 31.3377C29.7737 30.3412 30.5526 29.5366 31.3834 28.924C32.2701 28.3044 33.1879 27.936 34.1366 27.8187C35.0296 27.7083 35.5209 28.0159 35.6106 28.7414C35.6727 29.2437 35.5044 29.9445 35.1055 30.8437C34.6998 31.6872 34.1301 32.5792 33.3965 33.5198C32.6628 34.4605 31.7617 35.4218 30.6932 36.4038C29.6735 37.3232 28.553 38.1133 27.3314 38.7743C26.7984 40.88 26.6492 42.8817 26.8838 44.7793C27.1046 46.5652 27.6884 48.0796 28.6353 49.3224C29.6381 50.5584 31.1751 51.3034 33.2463 51.5573C36.5077 48.6043 39.571 45.1941 42.436 41.3269C45.3011 37.4596 47.7617 33.529 49.8179 29.535C51.874 25.5411 53.4103 21.6964 54.4267 18.001C55.499 14.2986 55.8695 11.108 55.5383 8.42914ZM33.6306 30.6011C33.5892 30.2662 33.3174 30.1298 32.8151 30.1919C31.8663 30.3092 30.9097 31.0507 29.9453 32.4165C29.0367 33.7755 28.2742 35.3996 27.6578 37.289C28.4466 36.7949 29.1973 36.2205 29.9096 35.5658C30.6778 34.9042 31.3343 34.2564 31.8792 33.6224C32.4242 32.9884 32.8609 32.3961 33.1895 31.8455C33.5181 31.2949 33.6651 30.8801 33.6306 30.6011Z" fill="#E6E2D6"></path><path d="M67.307 48.1118C67.3415 48.3909 67.0898 48.8753 66.5518 49.5651C66.0137 50.2549 65.3083 50.9654 64.4354 51.6966C63.5556 52.372 62.5852 53.0019 61.5242 53.5864C60.519 54.164 59.5141 54.5148 58.5095 54.639C57.2817 54.7908 56.5884 54.2249 56.4297 52.9412C56.3331 52.1599 56.6238 51.3023 57.3016 50.3686C57.9726 49.379 58.6994 48.3826 59.482 47.3792C60.3203 46.369 61.0785 45.397 61.7563 44.4633C62.4342 43.5295 62.7317 42.7278 62.6489 42.0581C62.5386 41.1651 61.8695 40.7945 60.6416 40.9463C59.965 40.9732 59.3056 41.1397 58.6635 41.4458C58.0703 41.6891 57.5119 41.9848 56.9883 42.3328C56.4088 42.6878 55.8608 43.0672 55.3441 43.471C54.722 44.3979 53.9357 45.6 52.985 47.0774C52.0902 48.5479 51.0521 50.2345 49.8707 52.1371C48.7382 53.977 47.5079 55.9423 46.1798 58.033C44.8028 60.1865 43.3665 62.3189 41.8709 64.4303C43.2305 64.8856 44.2479 65.5531 44.9233 66.4328C45.5429 67.3195 45.9217 68.321 46.0596 69.4372L46.0803 69.6046C46.7294 69.3544 47.4097 69.1286 48.1215 68.9273C48.8332 68.726 49.5798 68.5771 50.3611 68.4805C52.0354 68.2735 53.4686 68.408 54.6607 68.8839C55.8597 69.4157 56.5178 70.1559 56.6351 71.1047C56.6558 71.2722 56.6242 71.4744 56.5401 71.7114C56.4141 72.067 56.2116 72.262 55.9325 72.2965C55.5418 72.3448 55.169 72.0792 54.8141 71.4998C54.6611 71.1788 54.177 70.7003 53.3617 70.0644C52.5534 69.4844 51.3679 69.291 49.8052 69.4841C48.4099 69.6566 47.2028 69.9758 46.1838 70.4418C46.1826 71.3485 46.0105 72.2481 45.6675 73.1404C45.3314 74.0886 44.8698 74.9389 44.2829 75.6914C43.6402 76.4509 42.8964 77.0811 42.0518 77.5822C41.1513 78.0901 40.1988 78.4062 39.1942 78.5304C38.357 78.6338 37.897 78.3507 37.8143 77.681C37.766 77.2903 37.8992 76.7639 38.214 76.1017C38.4799 75.5022 38.9063 74.8262 39.4932 74.0737C40.087 73.377 40.8238 72.6909 41.7036 72.0155C42.5834 71.3401 43.5817 70.7068 44.6986 70.1154C44.5813 69.1666 44.2407 68.2454 43.677 67.3519C43.1201 66.5141 42.277 65.8817 41.1476 65.4547C39.5542 67.6915 37.8947 69.8515 36.169 71.9347C34.4502 74.0738 32.7562 75.9547 31.0869 77.5777C29.3687 79.2633 27.6963 80.6316 26.0697 81.6826C24.3941 82.7964 22.8029 83.4464 21.296 83.6327C20.2356 83.7637 19.3847 83.7556 18.7432 83.6082C18.0458 83.4678 17.5091 83.2508 17.1328 82.9574C16.7634 82.7197 16.4988 82.4124 16.3389 82.0356C16.1859 81.7145 16.0887 81.3865 16.0473 81.0517C15.8127 79.1541 16.3419 77.2471 17.6349 75.3307C18.8721 73.4213 20.5242 71.6588 22.591 70.0434C24.6089 68.4907 26.8532 67.165 29.3239 66.0663C31.7388 64.9745 33.9788 64.301 36.0437 64.0457C37.6064 63.8525 38.9945 63.8509 40.2079 64.0409C42.0809 61.3162 43.9926 58.4451 45.9427 55.4275C47.8371 52.4168 49.7315 49.4062 51.6258 46.3955C53.5133 43.329 55.3518 40.3252 57.1415 37.3842C58.9242 34.3873 60.6161 31.5717 62.2169 28.9373C62.4966 28.4494 62.8876 28.1744 63.3899 28.1123C63.8922 28.0502 64.1744 28.2703 64.2365 28.7726C64.271 29.0517 64.1728 29.4038 63.9421 29.8289C63.7464 30.0798 63.2677 30.7906 62.5058 31.9614C61.7439 33.1322 60.9365 34.3935 60.0837 35.7456C59.224 37.0418 58.4377 38.2439 57.7247 39.352C57.0675 40.4531 56.7493 41.0874 56.77 41.2549C57.4052 40.893 57.9637 40.5973 58.4453 40.3678C58.9268 40.1383 59.4677 39.9298 60.0678 39.7423C60.661 39.499 61.2367 39.3428 61.7948 39.2738C62.5203 39.1841 63.1549 39.2757 63.6986 39.5484C64.2423 39.8212 64.5659 40.3762 64.6694 41.2133C64.7867 42.1621 64.5167 43.1871 63.8596 44.2883C63.2513 45.3267 62.5559 46.3476 61.7733 47.351C61.0466 48.3474 60.3408 49.2846 59.656 50.1625C59.0271 51.0336 58.7436 51.7202 58.8057 52.2225C58.8816 52.8365 59.3102 53.0951 60.0916 52.9985C60.7055 52.9226 61.5361 52.5367 62.5833 51.8406C63.6305 51.1445 64.9226 49.9082 66.4595 48.1316C66.5994 47.8877 66.753 47.7554 66.9204 47.7347C67.1437 47.7071 67.2726 47.8328 67.307 48.1118ZM44.8124 71.0363C43.2209 71.913 42.0373 72.8809 41.2616 73.9401C40.437 75.0619 40.0592 75.9019 40.1282 76.46C40.1696 76.7949 40.3577 76.9416 40.6926 76.9002C41.9204 76.7484 42.9152 76.0872 43.6771 74.9164C44.439 73.7456 44.8174 72.4522 44.8124 71.0363ZM39.4742 64.9816C38.6095 64.8618 37.5353 64.8813 36.2516 65.0399C34.0192 65.3159 31.8037 65.9581 29.6052 66.9665C27.3509 67.9818 25.3473 69.1927 23.5947 70.5993C21.842 72.0059 20.4728 73.535 19.487 75.1868C18.4455 76.8455 18.0247 78.484 18.2248 80.1025C18.3145 80.8281 18.6136 81.4144 19.1222 81.8615C19.5819 82.3713 20.3977 82.5538 21.5697 82.4089C22.7417 82.264 24.0329 81.7078 25.4432 80.7402C26.8046 79.8352 28.2396 78.6096 29.7484 77.0632C31.2571 75.5167 32.8464 73.7054 34.5163 71.6291C36.1373 69.6155 37.7899 67.3996 39.4742 64.9816Z" fill="#E6E2D6"></path><path d="M66.2444 47.6482C66.5316 46.7628 67.0806 45.7033 67.8914 44.4698C68.7022 43.2363 69.6036 42.0483 70.5956 40.9057C71.5807 39.7074 72.5621 38.7078 73.5397 37.907C74.5104 37.0503 75.3062 36.612 75.927 36.5919C76.6594 36.558 77.2348 36.6286 77.6531 36.8035C78.1271 36.9716 78.493 37.1813 78.7508 37.4328C79.0154 37.7401 79.2311 38.11 79.3979 38.5427C79.5083 39.4357 79.2349 40.4328 78.5778 41.5339C77.9695 42.5724 77.281 43.6491 76.5122 44.7641C75.7365 45.8232 75.0132 46.8476 74.3423 47.8371C73.7271 48.8198 73.4644 49.6739 73.5541 50.3994C73.63 51.0133 74.0586 51.272 74.8399 51.1754C75.4538 51.0995 76.2844 50.7135 77.3316 50.0175C78.3788 49.3214 79.6709 48.0851 81.2079 46.3085C81.3477 46.0646 81.5013 45.9322 81.6688 45.9115C81.892 45.8839 82.0209 46.0097 82.0554 46.2887C82.0899 46.5678 81.8381 47.0522 81.3001 47.742C80.762 48.4318 80.0566 49.1423 79.1837 49.8735C78.3039 50.5489 77.3335 51.1788 76.2725 51.7633C75.2673 52.3408 74.2624 52.6917 73.2578 52.8159C72.03 52.9677 71.3367 52.4017 71.1781 51.1181C71.0746 50.281 71.327 49.3431 71.9352 48.3047C72.5435 47.2662 73.2354 46.2174 74.0111 45.1582C74.7799 44.0433 75.4753 43.0224 76.0974 42.0955C76.7125 41.1129 76.9787 40.2867 76.8959 39.617C76.8407 39.1705 76.5516 38.8946 76.0286 38.7892C75.5056 38.6839 75.0767 38.6519 74.7419 38.6933C74.0721 38.7761 73.3566 39.1762 72.5954 39.8936C71.8899 40.6041 71.2017 41.4541 70.5307 42.4437C69.8529 43.3774 69.2098 44.3635 68.6016 45.402C67.9933 46.4404 67.4829 47.3535 67.0703 48.1411C67.007 48.5456 66.8079 48.7685 66.473 48.8099C66.187 48.7886 66.1108 48.4014 66.2444 47.6482Z" fill="#E6E2D6"></path><path d="M105.031 43.4486C105.066 43.7276 104.814 44.212 104.276 44.9018C103.738 45.5916 103.033 46.3021 102.16 47.0333C101.28 47.7087 100.31 48.3386 99.2485 48.9231C98.2433 49.5007 97.2384 49.8515 96.2338 49.9757C95.006 50.1275 94.3127 49.5616 94.1541 48.2779C94.0989 47.8315 93.9876 47.6186 93.8201 47.6393C93.7085 47.6531 93.6282 47.6913 93.5793 47.754C92.8601 48.3529 92.0781 48.9029 91.2334 49.4039C90.4935 49.8354 89.6943 50.2458 88.8358 50.6353C88.04 51.0736 87.1957 51.348 86.3027 51.4583C84.9074 51.6308 83.837 51.4515 83.0914 50.9204C82.3947 50.3265 81.9877 49.5552 81.8704 48.6064C81.7393 47.5461 81.9293 46.3326 82.4404 44.9662C83.0072 43.5929 83.8356 42.2722 84.9254 41.0042C86.0642 39.6736 87.4259 38.542 89.0105 37.6094C90.644 36.6142 92.4375 35.9959 94.3909 35.7544C95.2838 35.644 96.0232 35.666 96.6089 35.8202C97.2435 35.9118 97.7734 36.0729 98.1985 36.3037C98.6795 36.5275 99.115 36.842 99.5051 37.2471C99.5609 37.2402 99.6377 37.174 99.7355 37.0486C99.8333 36.9232 100.151 36.5156 100.689 35.8258C100.787 35.7004 100.934 35.5123 101.129 35.2614C101.374 34.9479 101.636 34.7738 101.915 34.7393C102.138 34.7118 102.316 34.7748 102.448 34.9284C102.636 35.0751 102.741 35.2322 102.761 35.3997C102.775 35.5113 102.74 35.6856 102.656 35.9226C102.614 36.0412 102.569 36.1318 102.52 36.1945C102.331 36.5011 101.954 37.1144 101.387 38.0344C100.814 38.8985 100.223 39.8498 99.6152 40.8883C99 41.8709 98.4059 42.7943 97.8328 43.6585C97.3154 44.5157 97.0113 45.0349 96.9204 45.2161C96.8295 45.3974 96.7313 45.7495 96.626 46.2725C96.5137 46.7397 96.4818 47.1686 96.5301 47.5593C96.606 48.1732 97.0346 48.4318 97.8159 48.3352C98.4298 48.2594 99.2604 47.8734 100.308 47.1773C101.355 46.4812 102.647 45.2449 104.184 43.4683C104.324 43.2244 104.477 43.0921 104.645 43.0714C104.868 43.0438 104.997 43.1695 105.031 43.4486ZM98.2052 39.1077C98.1224 38.438 97.6069 37.9351 96.6587 37.599C95.7595 37.2001 94.8076 37.0628 93.803 37.187C92.4077 37.3595 91.1376 37.8565 89.9925 38.678C88.8475 39.4995 87.8592 40.4433 87.0277 41.5093C86.1962 42.5754 85.5704 43.701 85.1503 44.8862C84.7233 46.0156 84.5615 46.9989 84.665 47.836C84.7478 48.5057 84.9842 49.0432 85.3743 49.4482C85.8132 49.7906 86.4792 49.9066 87.3722 49.7962C88.5442 49.6514 89.7585 49.1613 91.0152 48.326C92.2649 47.4349 93.3893 46.4459 94.3882 45.3592C95.4361 44.2097 96.313 43.053 97.0191 41.8891C97.7252 40.7253 98.1205 39.7981 98.2052 39.1077Z" fill="#E6E2D6"></path><path d="M121.522 32.6556C121.55 32.8788 121.417 33.1786 121.123 33.5548C121.026 33.6802 120.715 34.1437 120.19 34.9451C119.666 35.7465 119.065 36.6141 118.387 37.5478C117.765 38.4747 117.192 39.3388 116.668 40.1402C116.137 40.8859 115.822 41.3214 115.724 41.4468C115.242 42.1297 114.816 42.8057 114.445 43.4748C114.075 44.1439 113.927 44.7854 114.003 45.3993C114.079 46.0132 114.508 46.2719 115.289 46.1753C115.903 46.0994 116.733 45.7135 117.781 45.0174C118.828 44.3213 120.12 43.085 121.657 41.3084C121.797 41.0645 121.95 40.9321 122.118 40.9114C122.341 40.8839 122.47 41.0096 122.504 41.2886C122.539 41.5677 122.287 42.0521 121.749 42.7419C121.211 43.4317 120.506 44.1422 119.633 44.8734C118.753 45.5488 117.783 46.1787 116.722 46.7632C115.716 47.3408 114.711 47.6916 113.707 47.8158C112.479 47.9676 111.786 47.4017 111.627 46.118C111.517 45.225 111.773 44.3151 112.395 43.3883C113.01 42.4056 113.579 41.5136 114.104 40.7122C114.628 39.9108 115.173 39.0501 115.739 38.1301C116.306 37.2102 116.851 36.3495 117.375 35.5481C117.899 34.7467 118.354 34.0672 118.738 33.5097C119.122 32.9522 119.367 32.6387 119.472 32.5691C119.765 32.1928 120.107 31.9805 120.498 31.9323C120.721 31.9047 120.927 31.9642 121.115 32.111C121.359 32.2508 121.495 32.4323 121.522 32.6556ZM104.706 42.3839L108.953 35.4843C109.197 35.1707 109.389 34.892 109.529 34.6481C109.725 34.3972 109.921 34.1464 110.116 33.8955C110.403 33.4635 110.696 33.0872 110.997 32.7668C111.297 32.4463 111.503 32.2792 111.615 32.2654C112.284 32.1826 112.654 32.4203 112.723 32.9784C112.639 33.2154 112.499 33.4594 112.303 33.7102C112.156 33.8983 111.985 34.1178 111.79 34.3686C111.545 34.6822 111.234 35.1456 110.856 35.7589C110.472 36.3164 110 37.083 109.441 38.0588C108.504 39.6478 107.816 40.7245 107.375 41.2889C106.928 41.7975 106.575 42.3794 106.316 43.0347C106.03 43.4668 105.719 43.9302 105.383 44.425C105.097 44.8571 104.908 45.1637 104.817 45.345C104.67 45.5331 104.454 45.8432 104.167 46.2752C103.88 46.7073 103.594 47.1394 103.307 47.5714C103.021 48.0035 102.759 48.4042 102.521 48.7736C102.221 49.094 102.042 49.2577 101.987 49.2646C101.373 49.3405 101.031 49.0994 100.962 48.5413C100.948 48.4297 101.06 48.1892 101.298 47.8198C101.48 47.4573 101.714 47.0601 102.001 46.628C102.231 46.2028 102.469 45.8335 102.714 45.5199C102.951 45.1506 103.119 44.9032 103.217 44.7778L104.706 42.3839ZM108.343 37.4295C108.405 37.9318 108.555 38.4517 108.791 38.9891C109.076 39.4638 109.491 39.8375 110.034 40.1103C110.153 40.1523 110.502 40.2225 111.08 40.3209C111.715 40.4125 112.172 40.441 112.451 40.4065C113.79 40.2409 114.767 39.8935 115.382 39.3642C116.052 38.8281 116.52 38.2602 116.786 37.6607C117.108 37.0543 117.297 36.521 117.353 36.0607C117.466 35.5935 117.605 35.3496 117.773 35.3289C117.885 35.3151 118.028 35.3258 118.202 35.3609C118.369 35.3402 118.46 35.3857 118.474 35.4973C118.494 35.6647 118.428 36.0413 118.273 36.627C118.175 37.2058 117.912 37.8332 117.486 38.5092C117.06 39.1852 116.403 39.833 115.516 40.4525C114.679 41.0094 113.534 41.3775 112.083 41.5569C111.246 41.6604 110.796 41.6877 110.733 41.6388L109.447 41.5429C108.568 41.3115 107.927 40.9374 107.523 40.4207C107.112 39.8482 106.865 39.2271 106.783 38.5574L108.343 37.4295Z" fill="#E6E2D6"></path><path d="M143.134 38.7385C143.168 39.0176 142.916 39.502 142.378 40.1918C141.84 40.8816 141.135 41.5921 140.262 42.3233C139.382 42.9987 138.412 43.6286 137.351 44.2131C136.346 44.7907 135.341 45.1415 134.336 45.2657C133.108 45.4175 132.415 44.8516 132.256 43.5679C132.215 43.2331 132.229 42.8913 132.3 42.5426C132.37 42.194 132.444 41.8732 132.521 41.5804C132.647 41.2248 132.748 40.9006 132.825 40.6078C132.805 40.4403 132.77 40.388 132.721 40.4507C131.715 41.4816 130.723 42.3975 129.746 43.1983C128.873 43.9295 127.937 44.6118 126.939 45.2452C125.941 45.8785 124.967 46.2539 124.018 46.3711C122.4 46.5712 121.522 46.1131 121.384 44.9969C121.308 44.383 121.438 43.602 121.774 42.6538C122.166 41.6988 122.638 40.7055 123.191 39.6739C123.799 38.6354 124.438 37.6214 125.109 36.6319C125.829 35.5796 126.483 34.6772 127.07 33.9247C127.65 33.1164 128.139 32.4893 128.537 32.0434C128.984 31.5349 129.183 31.3119 129.134 31.3746C129.379 31.0611 129.669 30.8836 130.003 30.8422C130.45 30.787 130.697 30.9548 130.746 31.3454C130.787 31.6803 130.636 32.0672 130.294 32.5062C129.714 33.3145 129.04 34.2762 128.271 35.3911C127.502 36.5061 126.761 37.6176 126.048 38.7257C125.328 39.778 124.745 40.7851 124.297 41.747C123.842 42.6532 123.646 43.3574 123.708 43.8597C123.784 44.4736 124.268 44.7254 125.161 44.615C125.943 44.5184 126.85 44.0662 127.883 43.2585C128.91 42.395 129.877 41.5105 130.785 40.605C131.84 39.5113 132.937 38.2991 134.075 36.9685C135.074 35.8817 135.937 34.8401 136.664 33.8436C137.391 32.8472 137.915 32.0458 138.237 31.4394C138.663 30.7634 139.155 30.3909 139.713 30.3219C140.16 30.2667 140.407 30.4344 140.456 30.8251C140.49 31.1042 140.385 31.4005 140.141 31.714C139.945 31.9648 139.704 32.3063 139.417 32.7384C139.277 32.9823 138.938 33.4492 138.4 34.139C137.918 34.8219 137.387 35.5675 136.807 36.3758C136.276 37.1214 135.797 37.8322 135.371 38.5082C134.944 39.1842 134.686 39.6129 134.595 39.7941C134.518 40.0869 134.398 40.4983 134.237 41.0282C134.076 41.5581 134.023 42.0463 134.078 42.4928C134.189 43.3857 134.802 43.7632 135.918 43.6252C136.532 43.5493 137.363 43.1634 138.41 42.4673C139.457 41.7712 140.749 40.5349 142.286 38.7583C142.426 38.5144 142.58 38.3821 142.747 38.3614C142.97 38.3338 143.099 38.4595 143.134 38.7385Z" fill="#E6E2D6"></path><path d="M154.61 49.3891C155.212 48.2948 155.663 47.1341 155.965 45.9069C156.267 44.6797 156.355 43.5638 156.231 42.5592C156.128 41.722 155.877 41.073 155.48 40.6121C155.132 40.0885 154.512 39.6552 153.62 39.3122C153.187 39.479 152.688 39.7957 152.122 40.2623C151.606 40.6661 151.124 40.8956 150.678 40.9508C150.454 40.9784 150.221 40.9223 149.977 40.7825C149.733 40.6426 149.583 40.3495 149.528 39.903C149.466 39.4007 149.756 38.9965 150.398 38.6905C151.033 38.3287 151.686 38.1063 152.356 38.0236C152.97 37.9477 153.419 37.9204 153.705 37.9417C154.41 37.6846 155.129 37.3124 155.862 36.8251C156.644 36.2752 157.363 35.6763 158.02 35.0285C158.67 34.3249 159.201 33.5793 159.613 32.7917C160.075 31.9413 160.338 31.0872 160.402 30.2294C160.55 29.1345 160.087 28.3701 159.013 27.9362C157.94 27.5022 156.733 27.3681 155.394 27.5336C154.445 27.6509 153.405 28.1761 152.274 29.1092C151.142 30.0424 150.004 31.1464 148.858 32.4212C147.761 33.6334 146.7 34.898 145.672 36.2149C144.701 37.5249 143.849 38.6502 143.115 39.5908C143.066 39.6535 142.92 39.615 142.676 39.4751C142.481 39.2726 142.38 39.1434 142.373 39.0876C142.345 38.8644 142.548 38.4426 142.981 37.8224C143.408 37.1464 143.914 36.4322 144.501 35.6797C145.137 34.8644 145.801 34.0458 146.493 33.2237C147.184 32.4015 147.754 31.7362 148.201 31.2276C149.766 29.2209 151.344 27.7792 152.936 26.9025C154.583 26.0189 155.965 25.5081 157.081 25.3702C158.811 25.1563 160.119 25.4196 161.003 26.1602C161.881 26.845 162.323 28.122 162.327 29.9914C162.333 30.9539 162.129 31.829 161.717 32.6167C161.353 33.3416 160.874 34.0524 160.28 34.7491C159.68 35.39 159.02 36.0099 158.3 36.6087C157.574 37.1518 156.907 37.7159 156.3 38.301C157.548 38.77 158.297 39.329 158.547 39.9781C158.797 40.6271 158.97 41.3423 159.067 42.1236C159.191 43.1282 159.05 44.2789 158.644 45.5757C158.293 46.8656 157.751 48.2076 157.017 49.6016C159.2 49.8418 160.879 50.5974 162.057 51.8685C163.289 53.1326 163.999 54.5182 164.185 56.025C164.385 57.6435 163.975 59.1392 162.955 60.5119C161.935 61.8846 160.253 62.7158 157.909 63.0056C157.35 63.0745 156.785 63.0877 156.214 63.0451C155.697 62.9956 155.422 62.8313 155.388 62.5522C155.36 62.329 155.458 62.2036 155.681 62.176C155.793 62.1622 155.992 62.1659 156.278 62.1872C156.57 62.2644 156.996 62.2684 157.554 62.1994C159.507 61.958 160.896 61.2763 161.721 60.1544C162.552 59.0884 162.889 57.9135 162.73 56.6299C162.565 55.2904 161.956 54.0341 160.904 52.8608C159.86 51.7434 158.326 51.0264 156.304 50.7097C155.136 52.7239 153.686 54.7447 151.953 56.7721C150.228 58.8553 148.419 60.7222 146.526 62.3727C144.696 64.0722 142.856 65.4612 141.007 66.5398C139.108 67.6811 137.433 68.3415 135.982 68.5209C134.419 68.714 133.272 68.6009 132.54 68.1814C131.752 67.7688 131.31 67.1718 131.214 66.3904C131.069 65.2184 131.594 63.7369 132.789 61.9459C133.991 60.2108 135.675 58.4728 137.839 56.732C140.004 54.9911 142.531 53.4321 145.421 52.055C148.31 50.6779 151.373 49.7892 154.61 49.3891ZM153.835 50.675C150.877 51.0406 148.141 51.832 145.629 53.0493C143.179 54.3154 141.056 55.711 139.261 57.2361C137.474 58.817 136.108 60.3741 135.164 61.9073C134.172 63.5033 133.737 64.8035 133.862 65.8081C134.02 67.0918 134.909 67.6336 136.527 67.4335C138.871 67.1437 141.559 65.5082 144.59 62.527C147.684 59.5947 150.794 55.6406 153.918 50.6646L153.835 50.675Z" fill="#E6E2D6"></path><path d="M187.439 33.2618C187.473 33.5408 187.222 34.0253 186.684 34.7151C186.146 35.4049 185.44 36.1154 184.567 36.8466C183.687 37.5219 182.717 38.1519 181.656 38.7363C180.651 39.3139 179.646 39.6648 178.641 39.7889C177.413 39.9407 176.72 39.3748 176.562 38.0912C176.506 37.6447 176.395 37.4318 176.228 37.4525C176.116 37.4663 176.036 37.5045 175.987 37.5672C175.268 38.1661 174.486 38.7161 173.641 39.2171C172.901 39.6486 172.102 40.059 171.243 40.4485C170.448 40.8868 169.603 41.1612 168.71 41.2716C167.315 41.444 166.245 41.2647 165.499 40.7336C164.802 40.1397 164.395 39.3684 164.278 38.4197C164.147 37.3593 164.337 36.1459 164.848 34.7794C165.415 33.4061 166.243 32.0854 167.333 30.8175C168.472 29.4868 169.833 28.3552 171.418 27.4227C173.052 26.4275 174.845 25.8091 176.798 25.5676C177.691 25.4573 178.431 25.4792 179.016 25.6334C179.651 25.725 180.181 25.8861 180.606 26.1169C181.087 26.3408 181.523 26.6552 181.913 27.0603C181.968 27.0534 182.045 26.9873 182.143 26.8618C182.241 26.7364 182.559 26.3288 183.097 25.639C183.195 25.5136 183.341 25.3255 183.537 25.0746C183.782 24.7611 184.043 24.5871 184.322 24.5526C184.546 24.525 184.723 24.588 184.856 24.7416C185.044 24.8884 185.148 25.0454 185.169 25.2129C185.183 25.3245 185.148 25.4988 185.064 25.7359C185.022 25.8544 184.976 25.945 184.927 26.0077C184.739 26.3144 184.361 26.9276 183.795 27.8476C183.222 28.7117 182.631 29.663 182.023 30.7015C181.408 31.6841 180.813 32.6075 180.24 33.4717C179.723 34.3289 179.419 34.8481 179.328 35.0294C179.237 35.2106 179.139 35.5627 179.033 36.0857C178.921 36.5529 178.889 36.9818 178.938 37.3725C179.013 37.9864 179.442 38.2451 180.223 38.1485C180.837 38.0726 181.668 37.6866 182.715 36.9905C183.762 36.2944 185.054 35.0581 186.591 33.2815C186.731 33.0376 186.885 32.9053 187.052 32.8846C187.276 32.857 187.404 32.9827 187.439 33.2618ZM180.613 28.9209C180.53 28.2512 180.014 27.7483 179.066 27.4122C178.167 27.0134 177.215 26.8761 176.211 27.0002C174.815 27.1727 173.545 27.6697 172.4 28.4912C171.255 29.3127 170.267 30.2565 169.435 31.3225C168.604 32.3886 167.978 33.5142 167.558 34.6994C167.131 35.8288 166.969 36.8121 167.073 37.6492C167.155 38.319 167.392 38.8564 167.782 39.2615C168.221 39.6038 168.887 39.7198 169.78 39.6095C170.952 39.4646 172.166 38.9745 173.423 38.1392C174.672 37.2481 175.797 36.2591 176.796 35.1724C177.844 34.0229 178.721 32.8662 179.427 31.7024C180.133 30.5385 180.528 29.6113 180.613 28.9209Z" fill="#E6E2D6"></path><path d="M201.727 34.2154C201.803 34.8293 201.572 35.4812 201.034 36.171C200.489 36.805 199.24 37.2427 197.286 37.4841C196.059 37.6359 195.365 37.07 195.207 35.7864C195.165 35.4515 195.18 35.1097 195.25 34.7611C195.32 34.4124 195.394 34.0917 195.471 33.7988C195.639 33.3247 195.741 33.0005 195.776 32.8262C195.755 32.6588 195.72 32.6064 195.671 32.6691C195.168 33.1846 194.662 33.6722 194.152 34.1318C193.698 34.5846 193.213 35.0129 192.696 35.4167C191.823 36.1479 190.888 36.8302 189.889 37.4636C188.891 38.097 187.917 38.4723 186.969 38.5896C185.35 38.7896 184.472 38.3316 184.334 37.2154C184.21 36.2108 184.564 34.9488 185.396 33.4293C186.221 31.8541 187.137 30.3243 188.143 28.84C189.15 27.3556 190.072 26.1083 190.911 25.0981C191.742 24.032 192.133 23.5304 192.084 23.5931C192.329 23.2795 192.619 23.1021 192.954 23.0607C193.4 23.0055 193.647 23.1732 193.696 23.5639C193.737 23.8987 193.587 24.2857 193.244 24.7246C192.664 25.5329 191.99 26.4946 191.221 27.6096C190.452 28.7245 189.711 29.8361 188.998 30.9441C188.279 31.9964 187.695 33.0035 187.247 33.9655C186.792 34.8716 186.596 35.5758 186.658 36.0781C186.734 36.692 187.219 36.9438 188.111 36.8334C188.893 36.7368 189.8 36.2847 190.834 35.477C191.86 34.6135 192.827 33.7289 193.735 32.8234C194.797 31.7856 195.894 30.5734 197.026 29.1869C198.025 28.1001 198.887 27.0585 199.614 26.0621C200.341 25.0656 200.865 24.2642 201.187 23.6578C201.613 22.9818 202.106 22.6093 202.664 22.5403C203.11 22.4851 203.358 22.6529 203.406 23.0435C203.44 23.3226 203.335 23.6189 203.091 23.9324C202.895 24.1833 202.654 24.5247 202.367 24.9568C202.228 25.2007 201.92 25.692 201.445 26.4308C200.962 27.1137 200.431 27.8593 199.851 28.6676C199.32 29.4132 198.813 30.1275 198.331 30.8104C197.898 31.4306 197.636 31.8313 197.545 32.0125C197.468 32.3054 197.349 32.7167 197.188 33.2466C197.026 33.7765 196.973 34.2647 197.029 34.7112C197.139 35.6041 197.752 35.9816 198.868 35.8437C199.482 35.7678 199.915 35.601 200.167 35.3432C200.418 35.0855 200.656 34.7161 200.88 34.2352C201.019 33.9912 201.173 33.8589 201.34 33.8382C201.564 33.8106 201.693 33.9363 201.727 34.2154ZM200.689 36.1286C200.896 37.3496 200.637 38.4583 199.91 39.4547C199.19 40.507 198.498 41.3291 197.835 41.9211C197.116 42.5199 196.431 42.9445 195.782 43.1947C195.203 43.5497 194.631 43.7337 194.066 43.7469C193.508 43.8159 193.002 43.6234 192.549 43.1694C192.292 42.9179 192.09 42.6596 191.944 42.3943C191.804 42.1849 191.864 41.9792 192.122 41.7773C192.178 41.7704 192.231 41.7356 192.279 41.6729C192.391 41.6591 192.534 41.6697 192.708 41.7048L193.054 41.7471C193.869 41.9296 194.623 41.8365 195.314 41.4677C196.068 41.1479 196.724 40.7268 197.283 40.2044C197.695 39.8702 198.023 39.5463 198.267 39.2328C198.568 38.9123 198.812 38.5988 199.001 38.2921C199.295 37.9159 199.511 37.6058 199.651 37.3618C199.763 36.8946 199.819 36.661 199.819 36.661C199.806 36.5494 199.743 36.5005 199.631 36.5143L200.689 36.1286Z" fill="#E6E2D6"></path><path d="M225.051 28.6124C225.085 28.8914 224.833 29.3759 224.295 30.0657C223.757 30.7555 223.052 31.466 222.179 32.1972C221.299 32.8726 220.329 33.5025 219.268 34.0869C218.263 34.6645 217.258 35.0154 216.253 35.1396C215.025 35.2913 214.332 34.7254 214.173 33.4418C214.132 33.1069 214.146 32.7652 214.217 32.4165C214.287 32.0678 214.361 31.7471 214.438 31.4542C214.564 31.0987 214.665 30.7745 214.742 30.4816C214.722 30.3142 214.687 30.2618 214.638 30.3245C213.632 31.3555 212.64 32.2714 211.663 33.0722C210.79 33.8034 209.854 34.4856 208.856 35.119C207.858 35.7524 206.884 36.1277 205.935 36.245C204.317 36.4451 203.439 35.987 203.301 34.8708C203.225 34.2569 203.355 33.4758 203.691 32.5277C204.083 31.5726 204.555 30.5793 205.108 29.5478C205.716 28.5093 206.355 27.4953 207.026 26.5057C207.746 25.4535 208.4 24.5511 208.987 23.7986C209.567 22.9902 210.056 22.3632 210.454 21.9173C210.901 21.4087 211.1 21.1858 211.051 21.2485C211.296 20.9349 211.586 20.7575 211.92 20.7161C212.367 20.6609 212.614 20.8286 212.663 21.2193C212.704 21.5542 212.553 21.9411 212.211 22.38C211.631 23.1884 210.957 24.15 210.188 25.265C209.419 26.38 208.678 27.4915 207.965 28.5995C207.245 29.6518 206.662 30.6589 206.214 31.6209C205.759 32.527 205.563 33.2312 205.625 33.7335C205.701 34.3474 206.185 34.5992 207.078 34.4888C207.86 34.3922 208.767 33.9401 209.8 33.1324C210.827 32.2689 211.794 31.3844 212.702 30.4788C213.757 29.3852 214.854 28.173 215.992 26.8423C216.991 25.7555 217.854 24.7139 218.581 23.7175C219.308 22.721 219.832 21.9196 220.154 21.3132C220.58 20.6372 221.072 20.2647 221.63 20.1957C222.077 20.1405 222.324 20.3083 222.373 20.699C222.407 20.978 222.302 21.2743 222.058 21.5879C221.862 21.8387 221.621 22.1801 221.334 22.6122C221.194 22.8561 220.855 23.323 220.317 24.0128C219.835 24.6957 219.304 25.4413 218.724 26.2497C218.193 26.9953 217.714 27.7061 217.288 28.3821C216.861 29.0581 216.603 29.4867 216.512 29.6679C216.435 29.9608 216.315 30.3722 216.154 30.902C215.993 31.4319 215.94 31.9201 215.995 32.3666C216.106 33.2596 216.719 33.6371 217.835 33.4991C218.449 33.4232 219.28 33.0372 220.327 32.3411C221.374 31.645 222.666 30.4087 224.203 28.6322C224.343 28.3882 224.497 28.2559 224.664 28.2352C224.887 28.2076 225.016 28.3333 225.051 28.6124Z" fill="#E6E2D6"></path><path d="M239.058 24.671L238.305 24.7641C238.109 25.0149 237.861 25.3006 237.561 25.621C236.625 26.7567 235.549 27.9096 234.334 29.0798C233.112 30.1941 231.792 31.2072 230.375 32.119C229.013 33.0239 227.691 33.5557 226.407 33.7144C226.072 33.7558 225.675 33.7483 225.214 33.6918C224.81 33.6285 224.395 33.4815 223.97 33.2507C223.545 33.02 223.162 32.6707 222.821 32.2029C222.535 31.7282 222.344 31.1002 222.248 30.3188C222.151 29.5375 222.309 28.9797 222.721 28.6454C223.189 28.3043 223.562 28.1165 223.841 28.082C224.678 27.9785 225.159 28.429 225.283 29.4336C225.331 29.8243 225.338 30.1068 225.303 30.2811C225.448 30.9998 225.734 31.4745 226.159 31.7052C226.64 31.9291 227.104 32.0134 227.55 31.9582C228.22 31.8754 229.078 31.486 230.125 30.7899C231.222 30.0311 232.328 29.1294 233.446 28.0846C234.459 27.1095 235.461 26.0506 236.453 24.9081C234.87 24.9338 233.576 24.7821 232.572 24.4529C231.15 23.9487 230.412 22.7933 230.359 20.9867C230.318 19.7451 230.696 18.6784 231.493 17.7867C232.289 16.8949 233.225 16.2127 234.3 15.7398C235.43 15.2601 236.564 15.0349 237.701 15.0644C238.887 15.0311 239.828 15.3114 240.525 15.9052C241.215 16.4433 241.545 17.2807 241.515 18.4176C241.542 19.5476 240.933 21.0395 239.689 22.8932C239.5 23.1998 239.234 23.5726 238.892 24.0116C239.115 23.984 239.366 23.953 239.645 23.9185C240.072 23.2425 240.592 22.8665 241.206 22.7906C241.429 22.763 241.656 22.7633 241.886 22.7915C242.109 22.7639 242.235 22.8618 242.262 23.085C242.297 23.3641 242.115 23.7265 241.717 24.1724C241.312 24.5624 240.885 25.0118 240.438 25.5203C239.991 26.0289 239.582 26.6177 239.212 27.2868C238.841 27.956 238.708 28.7091 238.811 29.5462C238.922 30.4392 239.535 30.8167 240.651 30.6787C241.265 30.6028 242.096 30.2168 243.143 29.5208C244.19 28.8247 245.482 27.5884 247.019 25.8118C247.159 25.5679 247.312 25.4355 247.48 25.4148C247.703 25.3872 247.832 25.513 247.866 25.792C247.901 26.0711 247.649 26.5555 247.111 27.2453C246.573 27.9351 245.868 28.6456 244.995 29.3768C244.115 30.0522 243.145 30.6821 242.084 31.2666C241.078 31.8442 240.074 32.195 239.069 32.3192C237.897 32.4641 237.232 31.8947 237.073 30.6111C236.969 29.7739 237.037 28.944 237.275 28.1212C237.562 27.2358 238.157 26.0857 239.058 24.671ZM239.326 20.6432C239.598 20.0995 239.815 19.5627 239.976 19.0328C240.089 18.5657 240.114 18.0809 240.052 17.5786C240.045 17.0694 239.819 16.6157 239.373 16.2176C238.865 15.7704 238.202 15.6824 237.386 15.9533C236.625 16.2173 235.861 16.6801 235.093 17.3417C234.373 17.9406 233.755 18.6686 233.238 19.5259C232.769 20.3204 232.611 21.1049 232.764 21.8793C232.965 22.591 233.575 23.1673 234.592 23.6081C235.241 23.8113 236.081 23.9624 237.113 24.0615C237.994 22.9327 238.731 21.7933 239.326 20.6432Z" fill="#E6E2D6"></path><path d="M109.024 85.8308C109.045 85.9982 108.817 86.4513 108.342 87.19C107.916 87.866 107.189 88.6358 106.163 89.4993C105.129 90.307 103.782 91.0968 102.121 91.8688C100.467 92.6966 98.4676 93.2554 96.1235 93.5451C93.8911 93.8211 92.2522 93.627 91.2069 92.963C90.1615 92.2989 89.5698 91.4088 89.4319 90.2926C89.2939 89.1764 89.5362 87.9282 90.1589 86.5479C90.7747 85.1119 91.6554 83.7564 92.801 82.4815C93.9467 81.2067 95.2839 80.1064 96.8127 79.1808C98.3347 78.1994 99.9607 77.6018 101.691 77.3879C102.974 77.2292 104.066 77.3493 104.965 77.7481C105.92 78.14 106.463 78.8661 106.594 79.9265C106.677 80.5963 106.561 81.2622 106.246 81.9244C105.925 82.5308 105.516 83.1197 105.02 83.691C104.517 84.2064 103.948 84.6451 103.313 85.0069C102.67 85.313 102.07 85.5005 101.512 85.5695C100.563 85.6867 99.8382 85.5497 99.3366 85.1584C98.8838 84.7044 98.6402 84.3379 98.6057 84.0589C98.5574 83.6682 98.701 83.2255 99.0365 82.7307C99.4277 82.229 99.7595 81.933 100.032 81.8427C100.199 81.822 100.377 81.885 100.565 82.0318C100.746 82.1227 100.847 82.2519 100.868 82.4193C100.882 82.5309 100.864 82.6181 100.815 82.6808C100.717 82.8062 100.658 83.0119 100.636 83.2979C100.664 83.5211 100.692 83.7443 100.719 83.9676C100.774 84.4141 101.137 84.5959 101.807 84.5131C102.365 84.4441 102.972 84.0857 103.629 83.438C104.278 82.7344 104.541 81.8803 104.417 80.8757C104.293 79.8711 103.924 79.1801 103.311 78.8026C102.697 78.4251 101.944 78.2915 101.051 78.4019C99.8792 78.5468 98.7206 79.03 97.5756 79.8515C96.4795 80.6103 95.4912 81.554 94.6108 82.6828C93.7793 83.7489 93.1011 84.9093 92.5763 86.1641C92.1004 87.3562 91.9245 88.4545 92.0487 89.4591C92.166 90.4079 92.6287 91.1723 93.4371 91.7523C94.2385 92.2766 95.5043 92.4318 97.2344 92.2179C99.9133 91.8867 102.091 91.1643 103.766 90.0506C105.491 88.8741 106.961 87.4741 108.177 85.8506C108.316 85.6066 108.47 85.4743 108.637 85.4536C108.861 85.426 108.99 85.5518 109.024 85.8308Z" fill="#E6E2D6"></path><path d="M125.175 79.0747C125.064 78.1817 124.58 77.4765 123.723 76.9592C122.922 76.435 121.628 76.2833 119.842 76.504C118.893 76.6213 117.944 76.9653 116.995 77.5359C116.101 78.0997 115.211 78.6914 114.324 79.311C113.563 80.4817 112.78 81.7118 111.976 83.0011C111.172 84.2904 110.295 85.6737 109.344 87.1512C109.762 87.7795 110.246 88.258 110.796 88.5865C111.396 88.8524 111.985 89.0346 112.564 89.133C113.198 89.2246 113.798 89.2637 114.363 89.2506C114.984 89.2305 115.546 89.1894 116.048 89.1273C117.22 88.9824 118.385 88.5551 119.544 87.8452C120.696 87.0795 121.695 86.2194 122.54 85.265C123.434 84.2478 124.126 83.199 124.616 82.1185C125.099 80.9823 125.285 79.9676 125.175 79.0747ZM117.957 70.1925C115.598 71.2774 113.525 71.9302 111.74 72.151C109.228 72.4614 107.401 72.3473 106.258 71.8087C105.163 71.2073 104.554 70.4044 104.43 69.3998C104.306 68.3952 104.618 67.2517 105.366 65.9693C106.163 64.6242 107.28 63.3527 108.719 62.155C110.151 60.9014 111.83 59.8156 113.756 58.8975C115.675 57.9236 117.723 57.3021 119.9 57.0331C121.016 56.8951 121.605 57.0772 121.668 57.5795C121.702 57.8586 121.524 58.0222 121.133 58.0705C118.957 58.3396 116.926 58.8739 115.042 59.6735C113.213 60.4662 111.625 61.3708 110.278 62.3873C108.986 63.3969 107.983 64.4558 107.27 65.5638C106.606 66.6092 106.326 67.5505 106.43 68.3876C106.526 69.169 107.028 69.7869 107.934 70.2416C108.896 70.6893 110.353 70.7924 112.307 70.5509C114.539 70.275 116.929 69.4412 119.477 68.0497C121.413 65.3739 123.38 62.7225 125.378 60.0956C127.433 57.4618 129.382 55.1243 131.226 53.0831C133.063 50.9861 134.722 49.2795 136.203 47.9632C137.739 46.64 138.982 45.9198 139.931 45.8025C140.265 45.7611 140.618 45.8593 140.987 46.0969C141.349 46.2788 141.558 46.5929 141.613 47.0394C141.717 47.8766 141.223 49.1558 140.133 50.8772C139.042 52.5986 137.547 54.4833 135.647 56.5314C133.803 58.5726 131.652 60.6517 129.194 62.7688C126.784 64.8232 124.288 66.6333 121.705 68.1992C120.601 69.8089 119.584 71.2096 118.655 72.401C117.851 73.6903 116.928 75.1643 115.887 76.823C117.542 75.5418 119.513 74.7598 121.801 74.4769C123.197 74.3045 124.435 74.4631 125.515 74.9528C126.589 75.3867 127.215 76.3292 127.394 77.7803C127.532 78.8965 127.294 80.1726 126.678 81.6087C126.111 82.982 125.258 84.334 124.119 85.6647C123.029 86.9327 121.724 88.0574 120.202 89.0388C118.673 89.9644 117.071 90.5307 115.397 90.7377C114.281 90.8757 113.081 90.7973 111.798 90.5026C110.515 90.2079 109.432 89.4636 108.547 88.2696C108.359 88.5762 108.124 88.9735 107.845 89.4614C107.558 89.8935 107.39 90.1408 107.341 90.2036C106.775 91.1235 106.297 91.6076 105.906 91.6559C105.739 91.6766 105.564 91.6415 105.383 91.5506C105.146 91.4665 105.017 91.3408 104.997 91.1734C104.962 90.8943 105.207 90.3541 105.731 89.5527C106.884 87.8802 108.027 86.124 109.16 84.2842C110.348 82.4374 111.487 80.6533 112.578 78.9319C113.661 77.1547 114.65 75.5309 115.545 74.0604C116.489 72.5271 117.293 71.2378 117.957 70.1925ZM139.132 48.2811C139.084 47.8904 138.836 47.7227 138.39 47.7779C137.832 47.8469 137.05 48.3968 136.044 49.4278C135.031 50.4029 133.861 51.7092 132.534 53.3465C131.199 54.928 129.756 56.778 128.205 58.8963C126.654 61.0146 125.085 63.2201 123.498 65.5127C125.586 64.0648 127.597 62.4562 129.531 60.6872C131.466 58.9182 133.153 57.2081 134.592 55.5569C136.031 53.9058 137.152 52.4356 137.956 51.1463C138.809 49.7943 139.201 48.8392 139.132 48.2811Z" fill="#E6E2D6"></path><path d="M151.457 80.5855C151.491 80.8646 151.24 81.349 150.701 82.0388C150.163 82.7286 149.458 83.4391 148.585 84.1703C147.705 84.8457 146.735 85.4756 145.674 86.0601C144.669 86.6376 143.664 86.9885 142.659 87.1127C141.431 87.2645 140.738 86.6985 140.579 85.4149C140.524 84.9684 140.413 84.7555 140.246 84.7762C140.134 84.79 140.054 84.8283 140.005 84.891C139.285 85.4898 138.504 86.0398 137.659 86.5409C136.919 86.9723 136.12 87.3828 135.261 87.7722C134.465 88.2105 133.621 88.4849 132.728 88.5953C131.333 88.7678 130.262 88.5884 129.517 88.0573C128.82 87.4635 128.413 86.6922 128.296 85.7434C128.165 84.683 128.355 83.4696 128.866 82.1032C129.433 80.7298 130.261 79.4092 131.351 78.1412C132.49 76.8105 133.851 75.6789 135.436 74.7464C137.069 73.7512 138.863 73.1328 140.816 72.8914C141.709 72.781 142.449 72.8029 143.034 72.9572C143.669 73.0487 144.199 73.2099 144.624 73.4406C145.105 73.6645 145.54 73.979 145.93 74.3841C145.986 74.3772 146.063 74.311 146.161 74.1856C146.259 74.0602 146.577 73.6526 147.115 72.9628C147.213 72.8373 147.359 72.6492 147.555 72.3984C147.799 72.0848 148.061 71.9108 148.34 71.8763C148.564 71.8487 148.741 71.9117 148.874 72.0654C149.062 72.2121 149.166 72.3692 149.187 72.5366C149.201 72.6482 149.166 72.8226 149.082 73.0596C149.04 73.1781 148.994 73.2687 148.945 73.3314C148.756 73.6381 148.379 74.2514 147.813 75.1713C147.24 76.0355 146.649 76.9868 146.041 78.0252C145.425 79.0079 144.831 79.9313 144.258 80.7954C143.741 81.6526 143.437 82.1719 143.346 82.3531C143.255 82.5343 143.157 82.8864 143.051 83.4094C142.939 83.8766 142.907 84.3055 142.955 84.6962C143.031 85.3101 143.46 85.5688 144.241 85.4722C144.855 85.3963 145.686 85.0103 146.733 84.3142C147.78 83.6182 149.072 82.3818 150.609 80.6053C150.749 80.3613 150.903 80.229 151.07 80.2083C151.293 80.1807 151.422 80.3065 151.457 80.5855ZM144.631 76.2446C144.548 75.5749 144.032 75.072 143.084 74.7359C142.185 74.3371 141.233 74.1998 140.228 74.324C138.833 74.4964 137.563 74.9934 136.418 75.8149C135.273 76.6364 134.285 77.5802 133.453 78.6463C132.622 79.7123 131.996 80.838 131.576 82.0232C131.149 83.1526 130.987 84.1358 131.09 84.973C131.173 85.6427 131.41 86.1801 131.8 86.5852C132.239 86.9276 132.905 87.0436 133.798 86.9332C134.97 86.7883 136.184 86.2982 137.441 85.4629C138.69 84.5718 139.815 83.5829 140.814 82.4961C141.861 81.3467 142.738 80.19 143.444 79.0261C144.151 77.8622 144.546 76.9351 144.631 76.2446Z" fill="#E6E2D6"></path><path d="M186.234 56.1428C186.282 56.5334 186.111 56.9796 185.72 57.4813C184.357 59.2929 182.67 60.7763 180.66 61.9315C178.705 63.0797 176.5 63.8056 174.045 64.1091C173.821 64.1367 173.598 64.1643 173.375 64.1919C173.152 64.2195 172.925 64.2192 172.695 64.191C171.994 66.7708 171.091 69.319 169.985 71.8355C168.873 74.2962 167.537 76.5578 165.979 78.6204C164.47 80.6202 162.751 82.3058 160.824 83.6773C158.946 84.986 156.863 85.7818 154.575 86.0647C153.291 86.2234 152.298 85.9779 151.594 85.3282C150.939 84.6159 150.543 83.7016 150.405 82.5854C150.267 81.4692 150.398 80.2348 150.797 78.8821C151.197 77.5295 151.858 76.2295 152.78 74.9823C153.758 73.7281 154.984 72.6416 156.457 71.7229C157.923 70.7484 159.661 70.137 161.67 69.8886C162.563 69.7782 163.306 69.828 163.898 70.0381C164.54 70.1855 165.073 70.3745 165.498 70.6053C165.986 70.8849 166.429 71.2552 166.825 71.7161C166.908 72.3859 166.671 72.7552 166.112 72.8242C165.778 72.8656 165.499 72.6734 165.276 72.2476C164.475 71.7234 163.729 71.419 163.038 71.3343C162.348 71.2497 161.696 71.2453 161.082 71.3212C159.687 71.4937 158.417 71.9906 157.272 72.8121C156.175 73.5709 155.24 74.4799 154.464 75.5391C153.744 76.5913 153.202 77.7066 152.838 78.8849C152.466 80.0074 152.336 81.0151 152.446 81.9081C152.55 82.7453 152.859 83.4153 153.375 83.9182C153.939 84.3584 154.696 84.5199 155.644 84.4026C157.43 84.1818 159.098 83.4656 160.649 82.2541C162.199 81.0425 163.596 79.5099 164.84 77.6562C166.133 75.7398 167.287 73.614 168.301 71.2787C169.309 68.8876 170.114 66.4649 170.718 64.0104C169.33 63.7853 167.998 63.3267 166.723 62.6344C165.503 61.9352 164.409 61.1072 163.441 60.1503C162.466 59.1375 161.651 58.0483 160.997 56.8826C160.336 55.661 159.93 54.4363 159.778 53.2085C159.647 52.1481 159.666 50.9275 159.835 49.5466C159.998 48.11 160.341 46.7643 160.866 45.5094C161.384 44.1988 162.094 43.0629 162.995 42.1015C163.952 41.1333 165.128 40.5629 166.523 40.3904C167.472 40.2732 168.368 40.4174 169.211 40.8231C170.055 41.2288 170.807 41.8157 171.469 42.5839C172.186 43.3452 172.785 44.2911 173.264 45.4217C173.737 46.4965 174.053 47.6758 174.212 48.9594C174.453 50.9128 174.468 53.0925 174.255 55.4986C174.036 57.849 173.631 60.3071 173.042 62.8732C173.391 62.9434 173.704 62.9613 173.983 62.9268C174.318 62.8854 174.681 62.8405 175.072 62.7923C176.355 62.6336 177.507 62.3213 178.526 61.8553C179.545 61.3894 180.445 60.8814 181.227 60.3315C182.002 59.7257 182.666 59.1337 183.218 58.5555C183.762 57.9215 184.178 57.3885 184.465 56.9564C184.563 56.831 184.734 56.6115 184.978 56.298C185.272 55.9217 185.558 55.7163 185.837 55.6819C186.06 55.6543 186.193 55.8079 186.234 56.1428ZM172.14 49.3856C171.85 47.0415 171.197 45.1957 170.18 43.8481C169.213 42.4378 167.836 41.8431 166.05 42.0638C164.878 42.2087 163.949 42.7201 163.265 43.598C162.629 44.4133 162.15 45.3508 161.827 46.4105C161.554 47.4076 161.392 48.3909 161.342 49.3604C161.292 50.3298 161.295 51.0378 161.35 51.4843C161.495 52.6563 161.838 53.8321 162.381 55.0116C162.923 56.1912 163.598 57.2976 164.406 58.3311C165.269 59.3576 166.259 60.2552 167.374 61.024C168.538 61.7301 169.792 62.2549 171.138 62.5986C171.63 60.1579 171.964 57.8217 172.142 55.5899C172.375 53.3512 172.374 51.2831 172.14 49.3856Z" fill="#E6E2D6"></path><path d="M185.403 77.4942C185.493 77.313 185.615 77.3829 185.768 77.704C185.977 78.0182 185.977 78.2448 185.768 78.3841C184.148 79.4909 182.752 80.1168 181.58 80.2616C180.408 80.4065 179.432 80.3006 178.651 79.9438C177.919 79.5243 177.337 78.9445 176.906 78.2046C176.523 77.4019 176.287 76.6378 176.198 75.9123C176.06 74.7961 176.368 73.8514 177.122 73.0781C177.877 72.3049 178.616 71.8735 179.342 71.7838C180.402 71.6527 181.156 71.7863 181.601 72.1845C182.103 72.5758 182.385 73.0226 182.447 73.5248C182.551 74.362 182.274 75.3312 181.617 76.4323C181.008 77.4708 180.201 78.5055 179.195 79.5365C178.183 80.5116 177.041 81.361 175.771 82.0847C174.5 82.8084 173.251 83.2461 172.023 83.3979C170.628 83.5703 169.841 82.931 169.661 81.48C169.537 80.4754 169.807 79.4504 170.471 78.405C171.184 77.297 171.855 76.3074 172.484 75.4364C173.539 73.8893 174.396 72.5652 175.053 71.4641C175.71 70.3629 176.252 69.4743 176.678 68.7983C177.105 68.1223 177.44 67.6275 177.685 67.314C177.985 66.9935 178.275 66.8161 178.554 66.7816C178.833 66.7471 179.147 66.7649 179.495 66.8352C179.9 66.8985 180.119 67.0697 180.154 67.3487C180.161 67.4046 179.975 67.7391 179.598 68.3524C179.22 68.9657 178.745 69.7044 178.172 70.5685C177.648 71.37 177.074 72.2341 176.452 73.1609C175.879 74.0251 175.404 74.7638 175.026 75.3771C174.223 76.6664 173.565 77.7676 173.055 78.6806C172.545 79.5936 172.317 80.2734 172.372 80.7199C172.455 81.3896 172.915 81.6727 173.752 81.5693C174.087 81.5279 174.656 81.3159 175.458 80.9334C176.31 80.4881 177.148 79.9312 177.972 79.2628C178.789 78.5385 179.484 77.7442 180.057 76.8801C180.623 75.9602 180.848 75.0258 180.73 74.077C180.675 73.6305 180.554 73.3339 180.365 73.1872C180.226 72.9778 179.902 72.8762 179.393 72.8825C178.946 72.9376 178.419 73.2578 177.812 73.8429C177.26 74.421 177.043 75.1845 177.16 76.1333C177.194 76.4124 177.295 76.7682 177.462 77.2009C177.629 77.6336 177.879 78.0559 178.213 78.4679C178.541 78.8241 179.001 79.1072 179.593 79.3173C180.186 79.5273 180.901 79.5806 181.738 79.4771C182.631 79.3668 183.44 79.04 184.167 78.497C184.886 77.8981 185.298 77.5638 185.403 77.4942Z" fill="#E6E2D6"></path><path d="M220.622 43.7324C221.313 43.817 221.63 44.0895 221.573 44.5498C221.51 44.9542 221.133 45.1141 220.443 45.0295C219.731 44.7774 218.508 44.5037 216.771 44.2084C215.084 43.8504 213.246 43.6526 211.258 43.615C209.319 43.5147 207.439 43.6621 205.618 44.0572C203.79 44.3965 202.384 45.1653 201.399 46.3637C200.602 47.2554 200.214 48.2384 200.233 49.3126C200.309 50.3798 200.562 51.5102 200.992 52.7035C201.472 53.8341 202.049 55.066 202.724 56.3992C203.392 57.6765 203.983 59.0201 204.497 60.4297C205.012 61.8394 205.334 63.3011 205.464 64.8149C205.651 66.3218 205.446 67.877 204.851 69.4804C203.661 72.6874 201.816 75.4086 199.316 77.6442C196.816 79.8798 193.947 81.1977 190.71 81.5979C189.426 81.7565 188.433 81.5111 187.729 80.8614C187.075 80.149 186.678 79.2348 186.54 78.1186C186.409 77.0582 186.543 75.8517 186.943 74.499C187.335 73.0906 187.993 71.7627 188.915 70.5154C189.893 69.2612 191.119 68.1748 192.592 67.2561C194.058 66.2816 195.796 65.6701 197.805 65.4218C198.698 65.3114 199.441 65.3612 200.033 65.5713C200.675 65.7186 201.208 65.9077 201.633 66.1385C202.184 66.467 202.626 66.8373 202.961 67.2493C203.043 67.919 202.806 68.2884 202.248 68.3574C201.913 68.3988 201.634 68.2066 201.411 67.7808C200.61 67.2566 199.864 66.9521 199.174 66.8675C198.483 66.7828 197.831 66.7785 197.217 66.8544C195.822 67.0268 194.552 67.5238 193.407 68.3453C192.31 69.1041 191.375 70.0131 190.599 71.0723C189.879 72.1245 189.337 73.2398 188.973 74.4181C188.601 75.5406 188.471 76.5483 188.581 77.4413C188.685 78.2784 188.998 78.9764 189.52 79.5351C190.036 80.038 190.789 80.1716 191.78 79.9358C193.538 79.4917 195.073 78.8486 196.386 78.0064C197.754 77.1573 198.885 76.2242 199.779 75.2071C200.723 74.1272 201.491 73.0122 202.086 71.8622C202.736 70.7052 203.222 69.5968 203.545 68.537C204.126 66.8219 204.268 65.2178 203.97 63.7248C203.721 62.169 203.283 60.6931 202.657 59.2973C202.032 57.9014 201.329 56.5717 200.549 55.3081C199.77 54.0445 199.14 52.8474 198.661 51.7168C198.174 50.5304 197.952 49.4245 197.996 48.3992C198.039 47.374 198.539 46.3772 199.496 45.409C200.711 44.2388 202.344 43.4703 204.395 43.1034C206.44 42.6807 208.54 42.4778 210.695 42.4947C212.843 42.4558 214.845 42.605 216.7 42.9423C218.548 43.2238 219.855 43.4872 220.622 43.7324Z" fill="#E6E2D6"></path><path d="M228.791 62.2715C228.818 62.4947 228.685 62.7944 228.392 63.1707C228.294 63.2961 227.983 63.7595 227.459 64.561C226.927 65.3066 226.323 66.1463 225.645 67.08C225.023 68.0068 224.45 68.871 223.926 69.6724C223.401 70.4738 223.09 70.9372 222.993 71.0627C222.51 71.7456 222.084 72.4216 221.713 73.0907C221.343 73.7598 221.195 74.4013 221.271 75.0152C221.347 75.6291 221.776 75.8878 222.557 75.7912C223.171 75.7153 224.002 75.3293 225.049 74.6332C226.096 73.9372 227.388 72.7008 228.925 70.9243C229.065 70.6803 229.219 70.548 229.386 70.5273C229.609 70.4997 229.738 70.6255 229.773 70.9045C229.807 71.1836 229.555 71.668 229.017 72.3578C228.479 73.0476 227.774 73.7581 226.901 74.4893C226.021 75.1647 225.051 75.7946 223.99 76.3791C222.985 76.9566 221.98 77.3075 220.975 77.4317C219.747 77.5835 219.054 77.0175 218.895 75.7339C218.785 74.8409 219.041 73.931 219.663 73.0042C220.278 72.0215 220.848 71.1295 221.372 70.3281C221.749 69.7148 222.151 69.0701 222.578 68.3941C221.712 69.1811 220.87 69.9368 220.053 70.6611C219.229 71.3296 218.447 71.8795 217.707 72.311C216.757 73.7884 215.374 75.2059 213.558 76.5636C211.799 77.9144 210.026 78.7002 208.24 78.9209C206.845 79.0934 206.057 78.4541 205.878 77.003C205.754 75.9984 206.024 74.9735 206.688 73.9281C207.401 72.82 208.072 71.8305 208.701 70.9595C209.756 69.4124 210.612 68.0883 211.27 66.9871C211.927 65.886 212.468 64.9974 212.895 64.3214C213.321 63.6454 213.657 63.1506 213.901 62.8371C214.202 62.5166 214.491 62.3391 214.77 62.3046C215.05 62.2701 215.363 62.288 215.712 62.3582C216.117 62.4216 216.336 62.5928 216.37 62.8718C216.377 62.9276 216.192 63.2622 215.815 63.8755C215.437 64.4888 214.962 65.2275 214.389 66.0916C213.864 66.893 213.291 67.7572 212.669 68.684C212.096 69.5481 211.621 70.2869 211.243 70.9002C210.439 72.1895 209.782 73.2906 209.272 74.2037C208.761 75.1167 208.534 75.7965 208.589 76.243C208.672 76.9127 209.132 77.1958 209.969 77.0923C210.192 77.0647 210.548 76.9641 211.036 76.7904C211.518 76.5608 212.021 76.2721 212.544 75.924C213.124 75.5691 213.696 75.1583 214.262 74.6918C214.827 74.2252 215.33 73.7097 215.771 73.1453C214.947 73.3604 214.239 73.363 213.647 73.1529C213.054 72.9428 212.643 72.3703 212.414 71.4353C212.276 70.3191 212.585 69.3744 213.339 68.6012C214.093 67.828 214.833 67.3966 215.559 67.3069C216.619 67.1758 217.372 67.3094 217.818 67.7075C218.32 68.0988 218.602 68.5456 218.664 69.0479C218.726 69.5502 218.652 70.0977 218.442 70.6903C219.482 69.9384 220.561 69.04 221.679 67.9953C222.789 66.8947 223.851 65.8569 224.863 64.8818C225.29 64.2058 225.671 63.6204 226.006 63.1256C226.391 62.5681 226.635 62.2546 226.74 62.185C227.033 61.8087 227.375 61.5964 227.766 61.5481C227.989 61.5205 228.195 61.5801 228.383 61.7268C228.627 61.8667 228.763 62.0482 228.791 62.2715ZM213.377 71.6564C214.094 72.4176 215.151 72.4853 216.547 71.8595C216.903 71.0788 217.037 70.3256 216.947 69.6001C216.892 69.1536 216.77 68.857 216.582 68.7103C216.443 68.5008 216.119 68.3992 215.61 68.4055C215.163 68.4607 214.636 68.7809 214.028 69.3659C213.477 69.9441 213.259 70.7076 213.377 71.6564Z" fill="#E6E2D6"></path></svg> 