<?xml version="1.0" encoding="UTF-8"?> <svg xmlns="http://www.w3.org/2000/svg" width="44" height="16" viewBox="0 0 44 16" fill="none"><path d="M9.34 7.36C10.28 7.6 12.08 8.48 12.08 10.72C12.08 13.16 9.9 15.3 6.88 15.3H0L0.02 15.2L1.38 14.8L5.18 1.56L4.04 1.16V1.06H8.88C11.48 1.06 12.84 2.2 12.84 3.92C12.84 5.86 11.1 7 9.34 7.32V7.36ZM3.2 15.08H6.54C8.54 15.08 10.06 13.72 10.06 11.2C10.06 8.72 8.62 7.7 6.86 7.7H5.32L3.2 15.08ZM5.38 7.48H7.74C9.84 7.48 11.1 5.96 11.1 3.98C11.1 2.16 10.08 1.28 8.62 1.28H7.16L5.38 7.48Z" fill="#E6E2D6"></path><path d="M13.1169 7.9C14.0969 6.52 15.2369 4.9 16.2769 4.9C16.9969 4.9 17.5769 5.66 16.9169 7.8L15.4569 12.62H15.4769L22.1369 5.14H23.1369L21.0769 12.16C20.5969 13.82 20.8969 14.14 21.2169 14.14C21.6169 14.14 22.0169 13.56 22.7369 12.54H22.9169C21.9369 13.96 20.8369 15.54 19.8369 15.54C19.1369 15.54 18.4969 14.74 19.2369 12.22L20.6969 7.3H20.6569L12.8169 15.8H12.7169L15.1569 7.64C15.4969 6.48 15.2569 6.18 14.9569 6.18C14.5169 6.18 14.0369 6.86 13.2969 7.9H13.1169Z" fill="#E6E2D6"></path><path d="M22.9703 15.3L26.9303 1.5L25.7503 1.16V1.06L29.1703 0H29.1903L25.3303 13.26H25.4903L26.6903 10.84C28.5503 7.1 29.9303 4.9 31.4103 4.9C32.3103 4.9 33.0703 5.72 33.0703 6.82C33.0703 8.2 31.6503 9.3 29.4303 10.2V10.24L29.4903 10.54C30.1703 13.44 30.8503 14.14 31.4703 14.14C31.9503 14.14 32.3103 13.8 33.1503 12.54H33.3303C32.3303 14 31.3303 15.54 30.2103 15.54C29.1703 15.54 28.5503 14.24 27.8903 10.94L27.8103 10.56C30.4103 9.86 31.3703 8.92 31.3703 7.52C31.3703 6.62 30.9303 6.2 30.4103 6.2C29.4903 6.2 28.4903 7.78 26.8103 11.18L24.7903 15.3H22.9703Z" fill="#E6E2D6"></path><path d="M36.4033 14.02C37.1433 14.02 37.8633 12.76 39.5433 9.64L41.3433 6.32C40.7233 5.76 40.1833 5.26 39.5233 5.26C37.7433 5.26 35.4233 8.96 35.4233 12.24C35.4233 13.56 35.9433 14.02 36.4033 14.02ZM33.5633 12.72C33.5633 9.12 37.5633 4.9 40.1833 4.9C41.0433 4.9 41.7233 5.3 42.8033 5.9L43.4633 4.94H43.5633L41.5033 12.16C41.0233 13.8 41.3033 14.14 41.6233 14.14C42.0033 14.14 42.4233 13.56 43.1633 12.54H43.3433C42.3633 13.96 41.2233 15.54 40.2633 15.54C39.5633 15.54 38.9233 14.74 39.6633 12.18L40.9233 7.88H40.7433L39.7433 9.74C37.8633 13.26 36.8433 15.54 35.4833 15.54C34.5433 15.54 33.5633 14.5 33.5633 12.72Z" fill="#E6E2D6"></path></svg> 