<?xml version="1.0" encoding="UTF-8"?> <svg xmlns="http://www.w3.org/2000/svg" width="182" height="75" viewBox="0 0 182 75" fill="none"><path d="M90.9418 0.886502C90.9763 1.16555 90.9305 1.48286 90.8045 1.83842C90.7274 2.13127 90.5386 2.43791 90.2382 2.75836C89.9379 3.07881 89.3331 4.14517 88.4238 5.95747C87.5146 7.76976 86.3849 10.0909 85.0349 12.921C83.7406 15.7442 82.268 18.9577 80.6169 22.5616C78.959 26.1096 77.259 29.7762 75.5171 33.5613C73.7751 37.3465 72.0297 41.1037 70.2808 44.833C68.5319 48.5623 66.8637 52.0266 65.2759 55.2261C66.7621 54.8723 68.1508 54.4174 69.4419 53.8611C70.782 53.2422 71.9581 52.6718 72.9702 52.1501C73.9754 51.5725 74.7956 51.1028 75.4309 50.741C76.115 50.3164 76.5687 50.0903 76.7919 50.0627C77.1268 50.0213 77.3115 50.1402 77.346 50.4192C77.3736 50.6425 77.293 50.9074 77.1042 51.2141C76.9644 51.458 76.6502 51.6668 76.1617 51.8405C75.2123 52.4112 74.12 52.9712 72.8846 53.5205C71.8098 53.9934 70.571 54.5148 69.1682 55.0849C67.8144 55.5922 66.3106 56.0331 64.657 56.4075C63.8387 58.0386 63.0624 59.5511 62.3281 60.9451C61.6496 62.3322 60.9818 63.5764 60.3247 64.6776C59.5766 65.96 59.0069 66.852 58.6156 67.3537C58.2801 67.8485 57.9728 68.1131 57.6938 68.1476C57.1357 68.2166 56.8221 67.972 56.7531 67.4139C56.7049 67.0232 56.8381 66.4968 57.1529 65.8346C57.4677 65.1724 57.7649 64.5973 58.0446 64.1095C58.1424 63.984 58.3242 63.6216 58.5901 63.0221C58.9049 62.3599 59.3175 61.5723 59.8279 60.6592C59.9333 60.1362 60.0352 59.5853 60.1336 59.0065C60.2251 58.3719 60.3411 57.7059 60.4816 57.0086C57.9563 57.2075 55.7208 57.2288 53.7749 57.0727C51.8222 56.8608 50.1033 56.4783 48.6184 55.9253C45.9778 58.8582 43.4319 61.4111 40.9806 63.584C38.5852 65.75 36.1763 67.5777 33.7539 69.067C31.3942 70.6053 28.9897 71.7808 26.5403 72.5936C24.0978 73.4621 21.4813 74.0689 18.6908 74.4138C15.6771 74.7864 13.0439 74.8002 10.7914 74.4554C8.54585 74.1663 6.66333 73.6057 5.14389 72.7736C3.62444 71.9415 2.44707 70.8971 1.61177 69.6405C0.776473 68.3838 0.265687 67.002 0.0794139 65.4952C-0.16895 63.486 0.165246 61.3765 1.082 59.1666C1.99186 56.9009 3.4316 54.7964 5.40124 52.853C7.37088 50.9097 9.82494 49.2181 12.7634 47.7782C15.695 46.2826 19.0863 45.2967 22.9372 44.8207C25.951 44.4482 28.3295 44.4374 30.0728 44.7886C31.865 45.077 33.228 45.5601 34.1617 46.238C35.0886 46.8601 35.6874 47.5793 35.9584 48.3958C36.2224 49.1564 36.3889 49.8158 36.4579 50.3739C36.7131 52.4389 36.1805 54.318 34.8598 56.0111C33.5881 57.6416 32.0029 59.0274 30.1041 60.1688C28.2053 61.3101 26.2231 62.2351 24.1575 62.9437C22.1408 63.5897 20.4907 63.992 19.207 64.1507C18.5373 64.2334 17.8083 64.2952 17.0201 64.336C16.2807 64.3141 15.5624 64.2329 14.8651 64.0924C14.1609 63.8962 13.5579 63.6024 13.0563 63.2111C12.6035 62.7571 12.3323 62.1673 12.2426 61.4418C12.146 60.6604 12.3178 59.9876 12.758 59.4232C13.1913 58.803 13.6908 58.2596 14.2564 57.793C14.8709 57.2638 15.604 56.7765 16.4555 56.3313C16.7346 56.2968 17.024 56.346 17.3238 56.4789C17.6166 56.5561 17.7803 56.7341 17.8148 57.0132C17.8631 57.4039 17.7301 57.7036 17.416 57.9124C17.0949 58.0655 16.7215 58.2533 16.2957 58.4759C15.9188 58.6358 15.5523 58.8794 15.1961 59.2068C14.8957 59.5272 14.7869 60.0223 14.8697 60.692C14.9387 61.2502 15.1334 61.6794 15.4539 61.9798C15.7743 62.2801 16.1402 62.4899 16.5516 62.609C16.963 62.7282 17.3954 62.788 17.8487 62.7886C18.351 62.7266 18.7696 62.6748 19.1045 62.6334C21.7276 62.3092 23.9847 61.7752 25.876 61.0314C27.7604 60.2318 29.2892 59.3062 30.4625 58.2546C31.6357 57.2029 32.4882 56.0776 33.02 54.8786C33.5517 53.6796 33.7451 52.4941 33.6003 51.3221C33.5106 50.5966 33.2535 49.8917 32.8289 49.2076C32.4044 48.5235 31.7669 47.9506 30.9166 47.4891C30.0662 47.0276 28.9786 46.7087 27.6535 46.5326C26.3285 46.3564 24.7172 46.3856 22.8196 46.6201C19.3036 47.0548 16.181 47.9224 13.452 49.223C10.716 50.4678 8.43318 51.9399 6.60338 53.6394C4.82939 55.3319 3.49467 57.1401 2.59923 59.0641C1.7596 60.9811 1.45017 62.8325 1.67094 64.6185C1.83651 65.9579 2.30215 67.2036 3.06784 68.3556C3.88244 69.4448 5.04602 70.3776 6.55856 71.1539C8.0642 71.8743 9.90847 72.3547 12.0914 72.5948C14.2811 72.8907 16.855 72.8559 19.813 72.4902C24.6685 71.89 29.2499 70.2188 33.5573 67.4764C37.9136 64.6714 42.4878 60.6495 47.2799 55.4108C45.2374 54.4733 43.6732 53.2784 42.587 51.8261C41.5567 50.3669 40.9415 48.8281 40.7414 47.2096C40.5965 46.0375 40.6504 44.8693 40.9031 43.7048C41.2047 42.4776 41.6876 41.3413 42.3516 40.2959C40.2666 39.9304 38.3389 39.2337 36.5686 38.206C34.7914 37.1224 33.2168 35.8438 31.8447 34.3702C30.5284 32.8896 29.4251 31.2978 28.5346 29.5947C27.6999 27.8846 27.1756 26.1645 26.9617 24.4344C26.7824 22.9834 26.84 21.6163 27.1347 20.3333C27.4784 18.9876 28.0938 17.7782 28.9811 16.7053C29.8615 15.5765 31.0486 14.6365 32.5423 13.8852C34.0918 13.127 35.9549 12.6134 38.1315 12.3443C40.8104 12.0132 43.5128 12.3307 46.2387 13.297C48.9647 14.2633 51.4771 15.7943 53.7761 17.89C56.0681 19.9298 58.0281 22.4924 59.6561 25.5776C61.333 28.6001 62.4373 32.0334 62.9692 35.8774C65.3031 32.7557 67.7314 29.4807 70.2541 26.0524C72.7699 22.5683 75.4779 18.8054 78.3781 14.7638C81.2363 10.8407 84.2133 6.73294 87.3091 2.44049C87.7004 1.93881 88.0917 1.43713 88.483 0.935459C88.9232 0.371075 89.3665 0.0612868 89.813 0.00609476C90.0921 -0.0284001 90.3326 0.0835297 90.5345 0.341884C90.7853 0.537531 90.9211 0.71907 90.9418 0.886502ZM84.9567 8.8509C84.9429 8.73928 84.8802 8.69037 84.7686 8.70417L84.6012 8.72486C80.3315 14.5223 76.453 19.8181 72.9659 24.6123C69.4719 29.3506 66.1911 33.7509 63.1235 37.8132C63.2194 39.0479 63.221 40.436 63.1282 41.9774C63.0913 43.5118 63.0019 45.0811 62.8602 46.6852C62.7117 48.2335 62.5386 49.8131 62.3411 51.4241C62.1925 52.9724 62.0301 54.409 61.8539 55.7341L62.44 55.6616C63.3561 53.9051 64.1779 52.302 64.9053 50.8521C65.6884 49.3954 66.192 48.4266 66.4158 47.9456C66.5068 47.7643 67.0244 46.6804 67.9688 44.6938C68.9062 42.6514 70.05 40.2151 71.4 37.3851C72.799 34.4923 74.2854 31.3904 75.8594 28.0794C77.4891 24.7614 78.9511 21.6909 80.2453 18.8677C81.5954 16.0377 82.7216 13.6886 83.6239 11.8205C84.5194 9.89657 84.9636 8.90671 84.9567 8.8509ZM61.3654 38.0305C61.1999 36.6911 60.8637 35.1177 60.357 33.3105C59.8503 31.5032 59.1692 29.6609 58.3138 27.7834C57.4516 25.8501 56.4008 23.9968 55.1617 22.2234C53.9225 20.45 52.4285 18.9065 50.6795 17.5928C48.9795 16.2164 47.0139 15.2128 44.7827 14.582C42.5446 13.8953 40.0303 13.7245 37.2398 14.0695C36.012 14.2212 34.8327 14.537 33.7021 15.0167C32.6204 15.4338 31.6848 16.1161 30.8953 17.0636C30.1547 17.9484 29.6161 19.0916 29.2794 20.4931C28.9427 21.8947 28.8985 23.6 29.1468 25.6092C29.3193 27.0045 29.7812 28.449 30.5325 29.9427C31.2837 31.4364 32.2514 32.8467 33.4353 34.1735C34.6682 35.4377 36.1071 36.5348 37.7519 37.4647C39.4457 38.3319 41.2969 38.8681 43.3054 39.0731C44.2974 37.9305 45.481 36.9626 46.8562 36.1693C48.2803 35.3133 49.9411 34.768 51.8387 34.5335C52.7875 34.4162 53.5058 34.4974 53.9937 34.777C54.4747 35.0009 54.7393 35.3082 54.7876 35.6988C54.8221 35.9779 54.6995 36.3614 54.4198 36.8492C54.196 37.3302 53.7733 37.8074 53.1519 38.2809C52.5863 38.7475 51.8463 39.1789 50.932 39.5752C50.0177 39.9716 48.8909 40.2525 47.5514 40.4181C46.2678 40.5768 44.9111 40.6028 43.4813 40.4963C42.4818 42.0364 42.1028 43.7831 42.3442 45.7365C42.5305 47.2434 43.1388 48.7264 44.1691 50.1856C45.1925 51.589 46.6731 52.7943 48.6108 53.8013C52.488 49.4123 56.7395 44.1553 61.3654 38.0305ZM52.0137 36.6367C51.9585 36.1902 51.6239 36.0049 51.01 36.0808C48.1637 36.4327 45.9965 37.4655 44.5085 39.1794C44.9619 39.18 45.3873 39.184 45.7849 39.1916C46.2314 39.1364 46.6779 39.0812 47.1244 39.026C47.3476 38.9984 47.7383 38.9501 48.2964 38.8811C48.8476 38.7563 49.3953 38.6036 49.9396 38.423C50.5329 38.1797 51.0389 37.9188 51.4578 37.6404C51.8767 37.3619 52.062 37.0274 52.0137 36.6367ZM61.5197 39.9663C59.3745 42.7814 57.3447 45.3838 55.4303 47.7737C53.5158 50.1635 51.6644 52.3756 49.876 54.4099C51.2493 54.9767 52.8321 55.4044 54.6243 55.6928C56.4096 55.9254 58.3975 55.963 60.5879 55.8056C60.912 53.3856 61.1841 50.7738 61.4042 47.9701C61.68 45.1595 61.7186 42.4916 61.5197 39.9663ZM61.6536 56.8638C61.6743 57.0312 61.6602 57.1463 61.6113 57.209C61.7091 57.0835 61.779 56.9616 61.821 56.8431L61.6536 56.8638Z" fill="#342619"></path><path d="M92.675 47.1644C92.7026 47.3877 92.5696 47.6874 92.2762 48.0637C92.1783 48.1891 91.8673 48.6525 91.3431 49.4539C90.8189 50.2553 90.2178 51.1229 89.5399 52.0567C88.9179 52.9835 88.3448 53.8476 87.8205 54.6491C87.2894 55.3947 86.9749 55.8302 86.8771 55.9556C86.3949 56.6385 85.9685 57.3145 85.5979 57.9836C85.2273 58.6527 85.0799 59.2943 85.1558 59.9082C85.2317 60.5221 85.6603 60.7807 86.4417 60.6842C87.0556 60.6083 87.8862 60.2223 88.9334 59.5262C89.9806 58.8301 91.2727 57.5938 92.8096 55.8172C92.9495 55.5733 93.1031 55.441 93.2705 55.4203C93.4938 55.3927 93.6226 55.5184 93.6571 55.7975C93.6916 56.0765 93.4399 56.5609 92.9018 57.2507C92.3638 57.9406 91.6584 58.6511 90.7855 59.3822C89.9057 60.0576 88.9353 60.6876 87.8743 61.272C86.8691 61.8496 85.8642 62.2005 84.8596 62.3246C83.6318 62.4764 82.9385 61.9105 82.7798 60.6269C82.6694 59.7339 82.9253 58.824 83.5473 57.8971C84.1625 56.9145 84.7322 56.0224 85.2564 55.221C85.7806 54.4196 86.3259 53.5589 86.8921 52.639C87.4583 51.719 88.0036 50.8583 88.5278 50.0569C89.052 49.2555 89.5063 48.576 89.8907 48.0186C90.2751 47.4611 90.5197 47.1475 90.6244 47.0779C90.9179 46.7017 91.2599 46.4894 91.6506 46.4411C91.8738 46.4135 92.0795 46.4731 92.2677 46.6198C92.5116 46.7596 92.6474 46.9412 92.675 47.1644ZM75.8586 56.8927L80.1054 49.9931C80.35 49.6796 80.5422 49.4008 80.682 49.1569C80.8777 48.906 81.0733 48.6552 81.2689 48.4044C81.5555 47.9723 81.849 47.5961 82.1494 47.2756C82.4497 46.9552 82.6557 46.788 82.7673 46.7742C83.4371 46.6915 83.8064 46.9291 83.8754 47.4872C83.7914 47.7243 83.6515 47.9682 83.4559 48.219C83.3092 48.4072 83.138 48.6266 82.9423 48.8775C82.6978 49.191 82.3867 49.6544 82.0093 50.2677C81.6249 50.8252 81.153 51.5918 80.5937 52.5676C79.6568 54.1566 78.9683 55.2334 78.5281 55.7978C78.081 56.3063 77.728 56.8883 77.469 57.5436C77.1824 57.9756 76.8714 58.4391 76.5359 58.9338C76.2493 59.3659 76.0606 59.6726 75.9697 59.8538C75.8229 60.0419 75.6063 60.352 75.3197 60.7841C75.0331 61.2161 74.7466 61.6482 74.46 62.0803C74.1734 62.5123 73.9113 62.9131 73.6737 63.2824C73.3733 63.6029 73.1952 63.7665 73.1394 63.7734C72.5255 63.8493 72.184 63.6082 72.115 63.0501C72.1012 62.9385 72.2132 62.698 72.4508 62.3286C72.6327 61.9662 72.8669 61.5689 73.1535 61.1369C73.3842 60.7117 73.6219 60.3423 73.8664 60.0288C74.1041 59.6594 74.2718 59.412 74.3697 59.2866L75.8586 56.8927ZM79.4959 51.9383C79.558 52.4406 79.7073 52.9605 79.9437 53.4979C80.229 53.9726 80.6435 54.3463 81.1872 54.6191C81.3057 54.6611 81.6544 54.7313 82.2332 54.8298C82.8678 54.9213 83.3247 54.9498 83.6037 54.9153C84.9432 54.7498 85.9201 54.4023 86.5347 53.8731C87.205 53.3369 87.6731 52.7691 87.939 52.1696C88.2607 51.5632 88.4497 51.0298 88.5062 50.5696C88.6184 50.1024 88.7582 49.8584 88.9257 49.8377C89.0373 49.8239 89.1803 49.8346 89.3546 49.8697C89.522 49.849 89.6126 49.8945 89.6264 50.0061C89.6471 50.1735 89.5804 50.5501 89.4261 51.1358C89.3277 51.7146 89.0652 52.342 88.6388 53.018C88.2124 53.694 87.5559 54.3418 86.6692 54.9614C85.8314 55.5182 84.687 55.8864 83.2359 56.0657C82.3988 56.1692 81.9489 56.1965 81.8861 56.1476L80.5994 56.0517C79.7208 55.8203 79.0796 55.4463 78.6758 54.9296C78.265 54.357 78.0182 53.7359 77.9355 53.0662L79.4959 51.9383Z" fill="#342619"></path><path d="M121.546 16.3972C121.566 16.5647 121.535 16.7669 121.451 17.004C121.409 17.1225 121.335 17.2165 121.23 17.2861C119.937 19.2025 118.77 20.9901 117.729 22.6487C116.68 24.2516 115.436 26.1053 113.996 28.2098C112.612 30.3074 111.159 32.527 109.635 34.8686C108.167 37.2032 106.671 39.5413 105.147 41.8829C103.623 44.2245 102.201 46.4685 100.88 48.615C102.032 47.8494 103.431 47.0247 105.079 46.1411C106.719 45.2017 108.209 44.6492 109.548 44.4836C110.441 44.3733 111.167 44.5103 111.724 44.8947C112.33 45.2163 112.696 45.8795 112.82 46.8841C112.965 48.0561 112.566 48.9553 111.624 49.5818C110.73 50.1456 109.721 50.6952 108.598 51.2308C107.523 51.7036 106.518 52.2812 105.582 52.9635C104.702 53.6389 104.345 54.6463 104.511 55.9857C104.655 57.1577 104.996 57.8522 105.533 58.0692C106.126 58.2793 106.645 58.3567 107.092 58.3015C108.543 58.1221 110.04 57.6254 111.582 56.8115C113.181 55.9906 114.748 54.6919 116.285 52.9153C116.425 52.6714 116.579 52.539 116.746 52.5183C116.969 52.4907 117.098 52.6165 117.133 52.8955C117.167 53.1746 116.916 53.659 116.378 54.3488C115.839 55.0386 115.078 55.756 114.094 56.501C113.165 57.2391 112.034 57.9455 110.701 58.6203C109.417 59.2324 108.049 59.6281 106.598 59.8074C106.43 59.8281 106.117 59.8103 105.656 59.7539C105.203 59.7532 104.739 59.6689 104.265 59.5009C103.84 59.2701 103.432 58.9522 103.042 58.5471C102.645 58.0862 102.399 57.4651 102.302 56.6837C102.102 55.0652 102.407 53.8659 103.217 53.0858C104.027 52.3057 104.942 51.6827 105.961 51.2167C107.029 50.6881 107.989 50.2011 108.84 49.7559C109.692 49.3106 110.059 48.6136 109.942 47.6648C109.866 47.0509 109.622 46.6844 109.211 46.5653C108.848 46.3834 108.36 46.3304 107.746 46.4063C107.132 46.4822 106.473 46.6487 105.768 46.9058C105.119 47.156 104.505 47.4586 103.925 47.8136C103.29 48.1754 102.603 48.5721 101.863 49.0035C101.178 49.4281 100.498 49.8805 99.8205 50.3609C98.737 52.138 97.7722 53.7305 96.9263 55.1384C96.1362 56.5393 95.4825 57.6684 94.9652 58.5256C94.5877 59.1389 94.2033 59.6964 93.812 60.1981C93.4765 60.6928 93.0855 60.9678 92.639 61.023C92.0182 61.0431 91.6802 60.8299 91.625 60.3834C91.5836 60.0485 91.7097 59.693 92.0032 59.3167C94.2543 55.5253 96.3515 52.0929 98.2948 49.0196C100.294 45.9393 102.195 42.9844 103.999 40.155C105.858 37.3186 107.689 34.4858 109.493 31.6563C111.296 28.8269 113.19 25.8162 115.176 22.6243C115.616 22.0599 115.815 21.6103 115.774 21.2754C115.76 21.1638 115.697 21.1149 115.586 21.1287C115.474 21.1425 115.366 21.1842 115.261 21.2538C115.108 21.3861 114.794 21.595 114.319 21.8803C113.893 22.1029 113.359 22.3672 112.717 22.6733C112.075 22.9793 111.373 23.2643 110.613 23.5283C109.901 23.7297 109.21 23.8717 108.541 23.9545C107.424 24.0925 106.685 24.0705 106.323 23.8887C105.953 23.651 105.758 23.4485 105.738 23.2811C105.717 23.1136 105.755 22.9672 105.853 22.8418C106 22.6536 106.129 22.5527 106.241 22.5389C106.464 22.5113 106.816 22.6094 107.297 22.8333C107.771 23.0013 108.315 23.0474 108.929 22.9715C109.264 22.9301 109.787 22.8088 110.499 22.6075C111.204 22.3504 112.034 21.9644 112.991 21.4495C113.947 20.9347 114.973 20.2978 116.069 19.539C117.221 18.7734 118.349 17.8123 119.453 16.656C119.956 16.1405 120.347 15.8655 120.626 15.831C120.793 15.8103 120.971 15.8733 121.159 16.0201C121.396 16.1041 121.525 16.2298 121.546 16.3972Z" fill="#342619"></path><path d="M132.612 50.982C132.647 51.2611 132.395 51.7455 131.857 52.4353C131.319 53.1251 130.558 53.8425 129.573 54.5875C128.645 55.3256 127.514 56.032 126.18 56.7068C124.896 57.3189 123.529 57.7146 122.077 57.894C120.012 58.1492 118.485 57.9414 117.496 57.2704C116.555 56.5367 116.012 55.5839 115.867 54.4119C115.729 53.2957 115.895 52.1136 116.364 50.8657C116.826 49.562 117.494 48.3178 118.367 47.1333C119.297 45.9418 120.362 44.9318 121.563 44.1034C122.819 43.2681 124.145 42.7642 125.541 42.5918C126.378 42.4883 127.099 42.5974 127.706 42.9191C128.312 43.2408 128.674 43.876 128.791 44.8248C128.922 45.8852 128.68 46.9067 128.065 47.8893C127.45 48.872 126.629 49.7951 125.603 50.6586C124.576 51.5221 123.428 52.3157 122.157 53.0394C120.943 53.7562 119.773 54.3823 118.65 54.9179C119.255 56.1463 120.562 56.6364 122.571 56.388C124.022 56.2086 125.519 55.7119 127.062 54.898C128.66 54.0771 130.228 52.7784 131.765 51.0018C131.905 50.7579 132.058 50.6255 132.226 50.6048C132.449 50.5772 132.578 50.703 132.612 50.982ZM126.781 45.7532C126.705 45.1393 126.455 44.7169 126.03 44.4862C125.653 44.1927 125.186 44.0805 124.628 44.1495C123.735 44.2599 122.877 44.6493 122.053 45.3178C121.229 45.9863 120.506 46.7839 119.884 47.7108C119.262 48.6376 118.79 49.6309 118.467 50.6907C118.194 51.6878 118.112 52.6328 118.223 53.5258L118.295 54.1118C119.412 53.5204 120.497 52.9046 121.552 52.2643C122.599 51.5682 123.503 50.8615 124.264 50.1441C125.081 49.4198 125.728 48.6883 126.203 47.9496C126.678 47.2109 126.871 46.4787 126.781 45.7532Z" fill="#342619"></path><path d="M159.78 47.6237C159.815 47.9028 159.538 48.4185 158.951 49.1711C158.358 49.8678 157.6 50.6131 156.678 51.407C155.756 52.2009 154.74 52.9214 153.63 53.5686C152.576 54.2089 151.547 54.5911 150.542 54.7153C149.314 54.867 148.621 54.3011 148.462 53.0175C148.359 52.1803 148.587 51.2739 149.146 50.2981C149.706 49.3224 150.321 48.3397 150.992 47.3501C151.663 46.3606 152.285 45.4338 152.858 44.5696C153.424 43.6497 153.666 42.8548 153.583 42.1851C153.528 41.7386 153.239 41.4627 152.716 41.3574C152.193 41.252 151.764 41.2201 151.429 41.2615C150.32 41.4553 149.06 42.036 147.65 43.0036C146.288 43.9085 145.066 44.7961 143.984 45.6666C142.397 48.4126 141.121 50.6952 140.156 52.5144C139.191 54.3336 138.485 55.2708 138.039 55.326C137.592 55.3812 137.334 55.1297 137.265 54.5716C137.238 54.3484 137.294 54.1148 137.434 53.8708C137.574 53.6269 137.717 53.4109 137.864 53.2227C139.164 50.9088 140.164 49.1419 140.863 47.9222C141.618 46.6956 142.156 45.7792 142.478 45.1728C142.856 44.5595 143.062 44.1657 143.097 43.9913C143.181 43.7543 143.202 43.4683 143.161 43.1335C143.085 42.5196 142.684 42.2574 141.959 42.3471C140.508 42.5265 139.217 43.0827 138.085 44.0159C136.954 44.949 135.906 46.0985 134.942 47.4643C134.026 48.7674 133.131 50.2379 132.257 51.8759C131.432 53.4511 130.572 54.974 129.677 56.4445C129.286 56.9462 128.951 57.2143 128.672 57.2488C128.225 57.304 127.971 57.0804 127.909 56.5781C127.874 56.2991 128.133 55.6438 128.686 54.6122C129.238 53.5806 130.339 51.7163 131.989 49.0192C133.024 47.3047 133.817 45.9317 134.37 44.9001C134.978 43.8617 135.443 43.0392 135.765 42.4328C136.142 41.8195 136.432 41.4154 136.635 41.2204C136.886 40.9626 137.152 40.8165 137.431 40.782C137.933 40.7199 138.219 40.9679 138.288 41.526C138.357 42.0841 138.22 42.5827 137.877 43.0216L137.971 43.095C138.328 42.7677 139.012 42.3431 140.024 41.8214C141.029 41.2438 142.006 40.8964 142.955 40.7791C143.569 40.7032 144.088 40.7806 144.514 41.0114C144.932 41.1863 145.182 41.6087 145.265 42.2784C145.334 42.8365 145.274 43.2689 145.085 43.5755C146.95 42.1551 148.496 41.1424 149.725 40.5372C151.002 39.8693 152.059 39.4837 152.896 39.3802C153.957 39.2491 154.706 39.3548 155.145 39.6971C155.584 40.0395 155.898 40.5108 156.085 41.1109C156.195 42.0038 155.974 42.9661 155.422 43.9977C154.863 44.9734 154.22 45.9595 153.493 46.956C152.766 47.9524 152.12 48.9106 151.553 49.8306C150.987 50.7505 150.749 51.5733 150.839 52.2988C150.914 52.9127 151.343 53.1714 152.124 53.0748C152.738 52.9989 153.642 52.5188 154.836 51.6346C156.03 50.7504 157.396 49.42 158.933 47.6435C159.072 47.3995 159.226 47.2672 159.393 47.2465C159.617 47.2189 159.746 47.3447 159.78 47.6237ZM147.038 31.1799C147.617 31.2784 148.464 31.4853 149.58 31.8007C150.695 32.1161 151.873 32.4804 153.114 32.8936C154.404 33.2441 155.694 33.5946 156.984 33.9452C158.274 34.2957 159.411 34.5518 160.394 34.7136C161.838 34.9318 163.125 34.801 164.255 34.3213C165.442 33.8346 166.437 33.1734 167.24 32.3374C168.099 31.4946 168.749 30.5643 169.19 29.5466C169.624 28.473 169.866 27.4515 169.916 26.482C170.064 25.3871 169.891 24.4452 169.397 23.6564C168.951 22.8048 168.153 22.3085 167.003 22.1674C166.082 22.0545 165.245 22.158 164.491 22.4778C163.737 22.7977 163.088 23.2746 162.543 23.9086C161.991 24.4868 161.565 25.1628 161.264 25.9366C160.956 26.6546 160.784 27.3275 160.748 27.9552C160.692 28.4155 160.751 28.8899 160.924 29.3783C161.154 29.8599 161.499 30.129 161.959 30.1854C162.308 30.2556 162.636 30.1584 162.943 29.8938C163.306 29.6222 163.603 29.5006 163.833 29.5288C163.951 29.5708 163.997 29.7069 163.968 29.937C163.989 30.1045 164.006 30.244 164.02 30.3556C164.034 30.4672 163.779 30.6971 163.255 31.0451C162.788 31.3862 162.174 31.4621 161.414 31.2728C160.786 31.237 160.326 30.9539 160.034 30.4234C159.797 29.886 159.711 29.1884 159.775 28.3305C159.846 27.5285 160.053 26.6813 160.396 25.7889C160.732 24.8408 161.221 23.987 161.864 23.2276C162.507 22.4682 163.282 21.8624 164.189 21.4102C165.097 20.9581 166.129 20.8305 167.287 21.0273C168.73 21.2455 169.776 21.9096 170.423 23.0195C171.07 24.1295 171.333 25.3435 171.213 26.6616C171.135 27.8612 170.802 29.064 170.214 30.2699C169.682 31.4689 168.907 32.528 167.887 33.4474C166.867 34.3667 165.625 35.0869 164.159 35.6081C162.743 36.0665 161.083 36.1584 159.179 35.8838C157.505 35.6373 156.079 35.332 154.901 34.9677C153.716 34.5475 152.565 34.1798 151.45 33.8644C151.094 33.7383 150.564 33.5772 149.86 33.3809C149.156 33.1847 148.371 33.0266 147.506 32.9069C146.635 32.7313 145.746 32.6429 144.839 32.6417C143.925 32.5846 143.088 32.6881 142.327 32.9521C141.658 33.0349 141.012 33.3131 140.391 33.7865C139.818 34.1973 139.28 34.6604 138.777 35.1758C138.275 35.6913 137.827 36.1999 137.436 36.7016C137.038 37.1474 136.738 37.4679 136.535 37.6629C136.361 37.6278 136.27 37.5823 136.263 37.5265L136.117 37.0346C136.104 36.923 136.394 36.5188 136.987 35.8221C137.63 35.0627 138.444 34.3105 139.428 33.5655C140.462 32.7578 141.627 32.1037 142.926 31.6033C144.273 31.0401 145.643 30.899 147.038 31.1799Z" fill="#342619"></path><path d="M181.564 44.9308C181.599 45.2099 181.347 45.6943 180.809 46.3841C180.271 47.0739 179.566 47.7844 178.693 48.5156C177.813 49.191 176.843 49.8209 175.782 50.4054C174.776 50.983 173.771 51.3338 172.767 51.458C171.539 51.6098 170.846 51.0439 170.687 49.7602C170.632 49.3137 170.521 49.1008 170.353 49.1215C170.242 49.1353 170.161 49.1736 170.112 49.2363C169.393 49.8352 168.611 50.3851 167.766 50.8862C167.026 51.3177 166.227 51.7281 165.369 52.1175C164.573 52.5559 163.729 52.8302 162.836 52.9406C161.44 53.1131 160.37 52.9338 159.624 52.4026C158.928 51.8088 158.521 51.0375 158.403 50.0887C158.272 49.0283 158.462 47.8149 158.973 46.4485C159.54 45.0752 160.369 43.7545 161.458 42.4865C162.597 41.1558 163.959 40.0242 165.544 39.0917C167.177 38.0965 168.971 37.4782 170.924 37.2367C171.817 37.1263 172.556 37.1483 173.142 37.3025C173.776 37.3941 174.306 37.5552 174.732 37.786C175.213 38.0098 175.648 38.3243 176.038 38.7294C176.094 38.7225 176.171 38.6563 176.269 38.5309C176.366 38.4055 176.684 37.9979 177.222 37.3081C177.32 37.1827 177.467 36.9945 177.663 36.7437C177.907 36.4301 178.169 36.2561 178.448 36.2216C178.671 36.194 178.849 36.2571 178.981 36.4107C179.169 36.5574 179.274 36.7145 179.294 36.8819C179.308 36.9936 179.273 37.1679 179.189 37.4049C179.147 37.5234 179.102 37.6141 179.053 37.6768C178.864 37.9834 178.487 38.5967 177.92 39.5167C177.347 40.3808 176.756 41.3321 176.148 42.3706C175.533 43.3532 174.939 44.2766 174.366 45.1407C173.848 45.998 173.544 46.5172 173.453 46.6984C173.362 46.8797 173.264 47.2318 173.159 47.7548C173.047 48.2219 173.015 48.6509 173.063 49.0415C173.139 49.6554 173.568 49.9141 174.349 49.8175C174.963 49.7416 175.793 49.3557 176.841 48.6596C177.888 47.9635 179.18 46.7272 180.717 44.9506C180.857 44.7067 181.01 44.5744 181.178 44.5537C181.401 44.5261 181.53 44.6518 181.564 44.9308ZM174.738 40.59C174.655 39.9202 174.14 39.4173 173.192 39.0812C172.293 38.6824 171.341 38.5451 170.336 38.6693C168.941 38.8418 167.671 39.3388 166.526 40.1603C165.381 40.9818 164.392 41.9255 163.561 42.9916C162.729 44.0577 162.103 45.1833 161.683 46.3685C161.256 47.4979 161.095 48.4812 161.198 49.3183C161.281 49.988 161.517 50.5254 161.907 50.9305C162.346 51.2729 163.012 51.3889 163.905 51.2785C165.077 51.1336 166.292 50.6436 167.548 49.8083C168.798 48.9171 169.922 47.9282 170.921 46.8414C171.969 45.692 172.846 44.5353 173.552 43.3714C174.258 42.2075 174.654 41.2804 174.738 40.59Z" fill="#342619"></path></svg> 