<?xml version="1.0" encoding="UTF-8"?> <svg xmlns="http://www.w3.org/2000/svg" width="238" height="123" viewBox="0 0 238 123" fill="none"><path d="M41.0804 45.9871C42.6926 45.2778 44.7337 44.6005 47.2038 43.9552C49.5692 43.3795 52.0496 42.8179 54.6451 42.2704L54.7288 42.26C56.2256 39.2418 57.5584 36.2723 58.7272 33.3513C59.8892 30.3745 60.7858 27.5438 61.4173 24.8593C62.0487 22.1747 62.2437 19.8557 62.0022 17.9024C61.609 14.7212 60.3773 12.5502 58.3073 11.3895C56.2931 10.2219 53.8628 9.81407 51.0165 10.1659C48.0027 10.5385 44.7961 11.6431 41.3967 13.4799C41.689 14.0104 41.8975 14.5513 42.0223 15.1025C42.1402 15.5979 42.2371 16.1525 42.313 16.7665C42.3958 17.4362 42.4158 18.057 42.3732 18.6289C43.0153 18.3229 43.8387 18.1078 44.8433 17.9836C46.7967 17.7421 48.2437 17.9882 49.1843 18.7219C50.118 19.3998 50.6573 20.3247 50.8022 21.4967C50.9471 22.6687 50.7744 24.0217 50.284 25.5555C49.7868 27.0336 49.0453 28.5985 48.0595 30.2502C47.0738 31.902 45.8892 33.55 44.5059 35.1942C43.1715 36.7758 41.6803 38.235 40.0324 39.572C38.3844 40.909 36.6531 42.0296 34.8383 42.9339C33.0794 43.8313 31.3069 44.3904 29.521 44.6111C27.7909 44.825 26.2877 44.8125 25.0116 44.5736C23.7355 44.3347 22.6654 43.9287 21.8012 43.3555C20.9371 42.7824 20.258 42.1014 19.7638 41.3125C19.3255 40.5168 19.0511 39.6724 18.9407 38.7795C18.6854 36.7145 19.093 34.5109 20.1634 32.1687C21.2269 29.7707 22.7227 27.4326 24.651 25.1544C26.635 22.8692 28.9154 20.6891 31.492 18.6141C34.1245 16.5321 36.8194 14.7257 39.5766 13.195C38.6297 11.9521 37.2918 10.9842 35.5629 10.2913C33.8898 9.59152 31.5743 9.42445 28.6164 9.79009C25.8259 10.135 22.9476 10.9158 19.9815 12.1324C17.0643 13.2863 14.3422 14.6427 11.815 16.2017C9.34372 17.7538 7.19316 19.3796 5.36336 21.079C3.58247 22.7157 2.4017 24.1649 1.82105 25.4266C1.33193 26.0537 0.947849 26.3845 0.668797 26.419C0.271225 26.4115 0.0482927 26.2124 0 25.8217C0.280908 24.4271 1.35727 22.8208 3.22908 21.0028C5.1567 19.178 7.5167 17.413 10.3091 15.7079C13.1015 14.0028 16.1168 12.4968 19.355 11.1899C22.5932 9.88302 25.6913 9.04674 28.6493 8.68109C31.9979 8.26715 34.6273 8.45209 36.5374 9.23591C38.4964 9.95703 39.9318 11.0262 40.8436 12.4434C42.812 11.4068 44.693 10.5793 46.4864 9.96095C48.3357 9.33571 50.1533 8.91271 51.9392 8.69194C55.1204 8.2987 57.8435 8.7837 60.1086 10.1469C62.3736 11.5102 63.7373 14.0614 64.1995 17.8007C64.4065 19.475 64.2955 21.557 63.8666 24.0465C63.4867 26.4733 62.7994 29.1648 61.8049 32.1209C60.8104 35.077 59.4704 38.2174 57.7849 41.5423C57.7918 41.5981 57.7708 41.6573 57.7219 41.7201C59.6125 41.4297 61.4753 41.1428 63.3101 40.8593C64.0914 40.7627 64.8449 40.6696 65.5704 40.5799C66.4383 38.4327 67.2992 36.2297 68.1533 33.971C69.1051 31.5868 70.0325 29.2339 70.9355 26.9125C71.4748 25.3159 72.1815 23.6986 73.0556 22.0607C73.9297 20.4227 74.9013 18.886 75.9705 17.4506C77.0396 16.0152 78.1609 14.7717 79.3341 13.72C80.5563 12.6057 81.7361 11.8365 82.8736 11.4126C83.6343 11.1486 84.1921 11.3063 84.547 11.8857C84.5401 11.8299 84.3971 11.8192 84.1181 11.8537C83.1969 12.1942 82.2231 12.7963 81.1965 13.6598C80.2189 14.4606 79.2376 15.4602 78.2524 16.6586C77.3231 17.85 76.4111 19.181 75.5162 20.6516C74.6703 22.0594 73.9498 23.565 73.3548 25.1685C72.4167 27.6643 71.4959 30.2996 70.5923 33.0745C69.8285 35.6054 68.9918 38.0037 68.0819 40.2694C69.0307 40.1521 69.8957 40.0452 70.6771 39.9486C72.1281 39.7692 73.5513 39.5933 74.9466 39.4208C76.8623 36.1242 79.0918 32.8455 81.6352 29.5846C84.9543 25.2645 88.6182 21.2135 92.6271 17.4315C96.6918 13.6426 100.976 10.2515 105.479 7.25835C110.031 4.20248 114.634 1.79188 119.289 0.026555L119.456 0.00585708C119.68 -0.0217385 119.801 0.0481782 119.822 0.215607C119.836 0.32723 119.745 0.50846 119.549 0.759298C119.403 0.947424 119.274 1.04839 119.162 1.06218C117.076 1.6034 114.399 2.86922 111.132 4.85964C107.921 6.84317 104.513 9.30423 100.91 12.2428C97.3001 15.1256 93.7104 18.4025 90.1411 22.0735C86.5649 25.6887 83.4036 29.451 80.657 33.3603C79.3013 35.2278 78.092 37.1338 77.0291 39.0784C77.8036 38.926 78.5501 38.7771 79.2687 38.6316C81.9269 38.133 84.3167 37.5259 86.4382 36.8104C88.5527 36.039 90.3082 35.1137 91.7047 34.0345C93.157 32.9484 94.2051 31.5722 94.8491 29.906C94.9262 29.6132 94.9965 29.2645 95.0598 28.86C95.1789 28.4487 95.1689 28.1383 95.0297 27.9288C94.8974 27.7752 94.7788 27.7332 94.6741 27.8028C94.5625 27.8166 94.4264 27.8617 94.2659 27.9382C94.1612 28.0079 94.0251 28.053 93.8577 28.0737C93.746 28.0875 93.5962 28.021 93.408 27.8743C93.2619 27.609 93.1961 27.3055 93.2105 26.9638C93.2807 26.6151 93.386 26.0921 93.5265 25.3948C93.7221 25.144 93.9316 25.0047 94.1548 24.9772C94.3085 24.8448 94.4759 24.8241 94.6571 24.9151C94.8873 24.9433 95.0964 25.0307 95.2845 25.1775C96.3293 26.2949 96.5083 27.9727 95.8217 30.2108C95.1006 32.1698 93.9405 33.7864 92.3415 35.0607C90.7356 36.2792 88.823 37.3089 86.6037 38.1498C84.3845 38.9908 81.9179 39.664 79.2039 40.1695C78.2062 40.3495 77.1806 40.5329 76.1271 40.7198C75.3928 42.1138 74.7422 43.4975 74.1754 44.8708C72.6077 48.6911 72.0309 52.2755 72.4448 55.6241C72.5552 56.5171 72.812 57.4486 73.2152 58.4187C73.6116 59.333 74.1684 60.1708 74.8858 60.932C75.5963 61.6375 76.4849 62.1793 77.5516 62.5574C78.6252 62.9913 79.8875 63.1186 81.3386 62.9392C83.2361 62.7046 84.9841 62.1769 86.5825 61.356C88.1741 60.4793 89.5844 59.5117 90.8134 58.4532C92.0983 57.3877 93.1878 56.3464 94.082 55.3293C95.0321 54.3052 95.8109 53.5007 96.4185 52.9156C96.6211 52.7206 96.8339 52.6093 97.0572 52.5817C97.3362 52.5472 97.4896 52.6415 97.5172 52.8648L96.2803 54.5476C95.5115 55.6626 94.3624 56.9095 92.8329 58.2885C91.3593 59.6606 89.5649 60.959 87.4498 62.1838C85.3416 63.4643 83.0038 64.2633 80.4365 64.5806C77.5902 64.9325 75.132 64.528 73.062 63.3673C71.0478 62.1998 69.8613 60.1649 69.5026 57.2627C69.3853 56.314 69.4392 55.1457 69.6643 53.758C69.8825 52.3144 70.1878 50.8884 70.5804 49.48C70.966 48.0157 71.3933 46.6597 71.8624 45.4117C72.3872 44.1569 72.8628 43.1915 73.2892 42.5155L74.1179 40.9682L69.8484 41.496C69.1229 41.5856 68.3136 41.6857 67.4207 41.7961L65.8151 45.3093C64.5415 48.2999 63.1705 51.1892 61.7019 53.9773C60.2822 56.7026 58.7164 59.1627 57.0045 61.3575C55.3415 63.4897 53.5465 65.2414 51.6195 66.6129C49.6994 68.0402 47.6232 68.8918 45.3908 69.1678C44.4978 69.2782 43.982 69.0019 43.8434 68.3391C43.8572 68.4507 43.9478 68.4962 44.1153 68.4755C46.1244 68.2271 48.3474 67.1874 50.7842 65.3563C53.2142 63.4693 55.418 61.1287 57.3958 58.3344C58.4793 56.5572 59.5143 54.616 60.5007 52.5109C61.4801 50.3499 62.4668 48.0181 63.4607 45.5154L63.6178 45.411C63.9188 44.6371 64.2232 43.8912 64.5311 43.1732C64.6571 42.8176 64.8111 42.4586 64.9929 42.0962C64.3232 42.179 63.5976 42.2686 62.8163 42.3652C60.8698 42.6625 58.8989 42.9911 56.9035 43.3511C55.4281 46.0834 53.7573 48.8397 51.8911 51.6203C50.3886 53.6759 48.7188 55.7522 46.8814 57.8492C45.093 59.8835 43.1933 61.7049 41.1823 63.3134C39.1713 64.9219 37.0978 66.2548 34.962 67.3121C32.8193 68.3136 30.6424 68.8094 28.4313 68.7994C27.5803 68.7912 26.6597 68.6784 25.6696 68.4608C24.7352 68.2363 23.8708 67.8899 23.0762 67.4215C22.2748 66.8972 21.6549 66.2372 21.2166 65.4415C20.834 64.6388 20.797 63.6518 21.1055 62.4804C21.4071 61.2532 22.1693 59.8557 23.3921 58.288C24.6149 56.7202 26.4588 54.9057 28.9238 52.8445C30.3134 51.7094 32.0448 50.5888 34.1179 49.4826C36.1841 48.3205 38.505 47.1554 41.0804 45.9871ZM48.7498 22.7704L48.6981 22.3518C48.5601 21.2356 48.0869 20.3875 47.2786 19.8074C46.4634 19.1716 45.1907 18.9606 43.4606 19.1744C43.1815 19.2089 42.8257 19.3096 42.393 19.4764C42.2519 20.6271 41.9923 21.7358 41.6142 22.8025C41.2919 23.8623 40.8721 24.8208 40.3548 25.678C39.8305 26.4794 39.2333 27.1482 38.5629 27.6844C37.9484 28.2137 37.3062 28.5197 36.6365 28.6025C35.9668 28.6853 35.5031 28.6009 35.2453 28.3495C34.9807 28.0422 34.8173 27.6374 34.7552 27.1351C34.7289 26.0051 35.2713 24.6632 36.3824 23.1092C37.5494 21.5484 39.1137 20.2218 41.0752 19.1293L41.0657 18.3656C41.045 18.1981 41.0243 18.0307 41.0036 17.8633C41.0319 17.6331 41.0356 17.4343 41.0149 17.2669C40.9459 16.7088 40.8246 16.1855 40.6509 15.697C40.4703 15.1527 40.2583 14.5839 40.015 13.9907C37.5788 15.3685 35.1736 16.9974 32.7995 18.8774C30.4812 20.7506 28.4348 22.7601 26.6602 24.906C24.8787 26.9961 23.5016 29.1495 22.5291 31.3663C21.5496 33.5273 21.184 35.6123 21.4324 37.6215C21.6394 39.2958 22.464 40.6954 23.9063 41.8204C25.4045 42.9385 27.6604 43.3112 30.6742 42.9387C32.8508 42.6696 35.0073 41.7797 37.1437 40.2691C39.3291 38.6957 41.2881 36.8953 43.0207 34.8679C44.7464 32.7847 46.1269 30.6591 47.1621 28.4913C48.2463 26.2607 48.7755 24.3537 48.7498 22.7704ZM47.6412 45.431C45.2828 46.0625 43.3464 46.6702 41.832 47.2541C38.3078 48.5397 35.3169 50.0143 32.8594 51.678C30.4019 53.3417 28.457 55.027 27.0248 56.734C25.5926 58.4409 24.6347 60.0892 24.1513 61.6789C23.7167 63.2059 23.7393 64.5347 24.2191 65.6653C24.6292 66.6912 25.6677 67.2994 27.3345 67.49C29.0502 67.6179 31.1258 67.2197 33.5614 66.2953C35.4037 65.6143 37.1279 64.6645 38.7338 63.4461C40.3956 62.2207 41.9319 60.8975 43.3428 59.4765C44.7468 57.9997 46.0044 56.4844 47.1156 54.9304C48.2826 53.3696 49.3204 51.9097 50.229 50.5508C51.4455 48.4739 52.6482 46.2853 53.8371 43.9852C51.6812 44.4217 49.6159 44.9036 47.6412 45.431ZM41.0216 20.0709C39.4369 21.0034 38.274 22.1388 37.5328 23.477C36.7917 24.8152 36.4659 25.8471 36.5556 26.5726C36.6108 27.0191 36.8616 27.2147 37.3081 27.1595C38.1453 27.0561 38.9065 26.3387 39.5919 25.0073C40.3262 23.6133 40.8027 21.9678 41.0216 20.0709Z" fill="#E6E2D6"></path><path d="M134.631 30.1731C134.679 30.5637 134.508 31.0099 134.117 31.5116C132.754 33.3233 131.067 34.8067 129.057 35.9618C127.102 37.11 124.897 37.8359 122.442 38.1395C122.218 38.1671 121.995 38.1947 121.772 38.2222C121.549 38.2498 121.322 38.2495 121.092 38.2213C120.391 40.8012 119.488 43.3493 118.382 45.8658C117.27 48.3265 115.934 50.5882 114.376 52.6507C112.867 54.6505 111.149 56.3361 109.222 57.7076C107.343 59.0163 105.26 59.8121 102.972 60.095C101.688 60.2537 100.695 60.0082 99.9912 59.3585C99.3365 58.6462 98.9402 57.7319 98.8022 56.6157C98.6642 55.4995 98.795 54.2651 99.1944 52.9124C99.5938 51.5598 100.255 50.2599 101.177 49.0126C102.155 47.7584 103.381 46.6719 104.854 45.7532C106.32 44.7787 108.058 44.1673 110.067 43.9189C110.96 43.8085 111.703 43.8584 112.295 44.0684C112.937 44.2158 113.47 44.4048 113.895 44.6356C114.383 44.9153 114.826 45.2855 115.223 45.7464C115.305 46.4162 115.068 46.7855 114.51 46.8545C114.175 46.8959 113.896 46.7037 113.673 46.2779C112.872 45.7537 112.126 45.4493 111.436 45.3646C110.745 45.28 110.093 45.2756 109.479 45.3515C108.084 45.524 106.814 46.021 105.669 46.8425C104.572 47.6013 103.637 48.5102 102.861 49.5694C102.141 50.6216 101.599 51.7369 101.235 52.9152C100.863 54.0377 100.733 55.0454 100.843 55.9384C100.947 56.7756 101.256 57.4456 101.772 57.9485C102.336 58.3887 103.093 58.5502 104.042 58.4329C105.827 58.2121 107.496 57.496 109.046 56.2844C110.596 55.0728 111.993 53.5402 113.237 51.6865C114.53 49.7701 115.684 47.6443 116.698 45.309C117.706 42.9179 118.511 40.4952 119.115 38.0408C117.727 37.8157 116.395 37.357 115.12 36.6647C113.9 35.9655 112.806 35.1375 111.838 34.1806C110.863 33.1678 110.048 32.0786 109.394 30.9129C108.733 29.6913 108.327 28.4666 108.175 27.2388C108.044 26.1784 108.063 24.9578 108.232 23.5769C108.395 22.1403 108.738 20.7946 109.263 19.5398C109.781 18.2291 110.491 17.0932 111.392 16.1318C112.349 15.1636 113.525 14.5932 114.92 14.4208C115.869 14.3035 116.765 14.4477 117.608 14.8534C118.452 15.2591 119.204 15.846 119.866 16.6142C120.583 17.3755 121.182 18.3214 121.662 19.452C122.134 20.5269 122.45 21.7061 122.609 22.9897C122.85 24.9431 122.865 27.1228 122.652 29.529C122.433 31.8793 122.028 34.3375 121.439 36.9035C121.788 36.9737 122.101 36.9916 122.381 36.9571C122.715 36.9157 123.078 36.8709 123.469 36.8226C124.752 36.6639 125.904 36.3516 126.923 35.8856C127.942 35.4197 128.842 34.9117 129.624 34.3618C130.399 33.756 131.063 33.164 131.615 32.5858C132.16 31.9518 132.575 31.4188 132.862 30.9867C132.96 30.8613 133.131 30.6418 133.375 30.3283C133.669 29.952 133.955 29.7467 134.234 29.7122C134.457 29.6846 134.59 29.8382 134.631 30.1731ZM120.537 23.4159C120.247 21.0718 119.594 19.226 118.577 17.8784C117.61 16.4681 116.233 15.8734 114.447 16.0941C113.275 16.239 112.346 16.7504 111.662 17.6284C111.026 18.4436 110.547 19.3811 110.225 20.4409C109.951 21.4379 109.789 22.4212 109.739 23.3907C109.689 24.3601 109.692 25.0681 109.747 25.5146C109.892 26.6866 110.235 27.8624 110.778 29.0419C111.32 30.2215 111.995 31.328 112.803 32.3614C113.667 33.3879 114.656 34.2855 115.771 35.0543C116.935 35.7604 118.189 36.2853 119.535 36.6289C120.027 34.1882 120.361 31.852 120.539 29.6202C120.772 27.3815 120.771 25.3134 120.537 23.4159Z" fill="#E6E2D6"></path><path d="M135.925 50.1568C135.96 50.4359 135.708 50.9203 135.17 51.6101C134.632 52.2999 133.871 53.0173 132.886 53.7623C131.958 54.5004 130.827 55.2068 129.494 55.8816C128.209 56.4937 126.842 56.8894 125.391 57.0688C123.326 57.324 121.798 57.1162 120.809 56.4452C119.868 55.7115 119.325 54.7587 119.18 53.5867C119.042 52.4705 119.208 51.2884 119.677 50.0405C120.139 48.7368 120.807 47.4926 121.681 46.3081C122.61 45.1166 123.675 44.1066 124.876 43.2782C126.132 42.4429 127.458 41.9391 128.854 41.7666C129.691 41.6631 130.413 41.7722 131.019 42.0939C131.625 42.4156 131.987 43.0508 132.104 43.9996C132.236 45.06 131.994 46.0815 131.378 47.0641C130.763 48.0468 129.942 48.9699 128.916 49.8334C127.889 50.6969 126.741 51.4905 125.47 52.2142C124.256 52.931 123.087 53.5571 121.963 54.0927C122.568 55.3211 123.875 55.8112 125.884 55.5628C127.335 55.3834 128.832 54.8868 130.375 54.0728C131.973 53.2519 133.541 51.9532 135.078 50.1766C135.218 49.9327 135.371 49.8003 135.539 49.7797C135.762 49.7521 135.891 49.8778 135.925 50.1568ZM130.094 44.928C130.019 44.3141 129.768 43.8918 129.343 43.661C128.967 43.3675 128.499 43.2553 127.941 43.3243C127.048 43.4347 126.19 43.8241 125.366 44.4926C124.542 45.1611 123.819 45.9587 123.197 46.8856C122.575 47.8124 122.103 48.8057 121.78 49.8655C121.507 50.8626 121.425 51.8076 121.536 52.7006L121.608 53.2866C122.725 52.6952 123.811 52.0794 124.865 51.4391C125.912 50.743 126.816 50.0363 127.577 49.3189C128.394 48.5946 129.041 47.8631 129.516 47.1244C129.991 46.3857 130.184 45.6535 130.094 44.928Z" fill="#E6E2D6"></path><path d="M152.085 40.2548C152.329 39.9412 152.413 39.7042 152.337 39.5437C152.316 39.3762 152.445 39.2753 152.724 39.2408C152.948 39.2132 153.262 39.231 153.666 39.2944C154.119 39.295 154.36 39.4069 154.387 39.6302C154.443 40.0766 154.097 40.7144 153.349 41.5434C152.958 42.0451 152.423 42.7628 151.745 43.6965C151.123 44.6234 150.508 45.606 149.9 46.6445C149.285 47.6271 148.781 48.596 148.389 49.5511C147.99 50.4503 147.878 51.1442 148.052 51.6327C148.421 51.8703 148.899 51.8396 149.485 51.5405C150.065 51.1855 150.683 50.6842 151.339 50.0364C151.996 49.3886 152.617 48.6884 153.204 47.9359C153.847 47.1765 154.41 46.4553 154.892 45.7724C156.017 44.3301 156.943 43.1107 157.669 42.1143C158.396 41.1178 158.92 40.3164 159.242 39.71C159.668 39.034 160.161 38.6615 160.719 38.5925C160.942 38.5649 161.172 38.5931 161.409 38.6772C161.695 38.6985 161.852 38.8208 161.88 39.044C161.914 39.3231 161.809 39.6194 161.564 39.9329C161.369 40.1837 161.128 40.5252 160.841 40.9573C160.617 41.4382 160.114 42.1804 159.331 43.1838C158.598 44.1244 157.787 45.5846 156.898 47.5643C156.765 47.864 156.562 48.2858 156.29 48.8295C156.017 49.3731 155.908 49.8682 155.963 50.3147C156.074 51.2077 156.687 51.5852 157.803 51.4472C158.417 51.3713 159.248 50.9853 160.295 50.2892C161.342 49.5931 162.634 48.3568 164.171 46.5803C164.311 46.3363 164.465 46.204 164.632 46.1833C164.855 46.1557 164.984 46.2814 165.019 46.5605C165.053 46.8395 164.801 47.324 164.263 48.0138C163.725 48.7036 163.02 49.4141 162.147 50.1453C161.267 50.8207 160.297 51.4506 159.236 52.0351C158.23 52.6126 157.226 52.9635 156.221 53.0877C154.993 53.2395 154.3 52.6735 154.141 51.3899C154.1 51.055 154.114 50.7133 154.184 50.3646C154.255 50.0159 154.328 49.6952 154.406 49.4023C154.454 49.3396 154.545 49.1584 154.678 48.8586C154.811 48.5589 154.944 48.2591 155.077 47.9594C155.259 47.5969 155.416 47.2658 155.549 46.9661C155.682 46.6663 155.745 46.4886 155.738 46.4327C154.942 47.3245 154.121 48.2476 153.276 49.202C152.424 50.1006 151.592 50.94 150.782 51.7201C150.028 52.4933 149.284 53.1235 148.551 53.6108C147.811 54.0423 147.148 54.1809 146.563 54.0266C145.921 53.8792 145.517 53.5892 145.35 53.1565C145.239 52.717 145.261 52.2043 145.415 51.6186C145.618 50.9702 145.933 50.308 146.359 49.632C146.786 48.956 147.24 48.2765 147.722 47.5936C147.715 47.5378 147.831 47.3252 148.068 46.9559C148.362 46.5796 148.655 46.2034 148.949 45.8271C149.291 45.3881 149.585 45.0119 149.829 44.6983C150.067 44.329 150.186 44.1443 150.186 44.1443C149.676 44.604 148.925 45.4051 147.933 46.5476C146.997 47.6833 145.928 48.892 144.726 50.1738C143.518 51.3998 142.24 52.5211 140.893 53.5376C139.545 54.5541 138.229 55.1417 136.946 55.3004C136.611 55.3418 136.185 55.3377 135.669 55.2882C135.202 55.1759 134.752 54.9765 134.32 54.69C133.888 54.4034 133.523 53.967 133.224 53.3806C132.924 52.7943 132.772 52.0199 132.766 51.0573C133.039 50.5136 133.361 50.1339 133.731 49.9182C134.094 49.6467 134.449 49.546 134.798 49.6162C135.147 49.6864 135.429 49.9066 135.645 50.2765C135.86 50.6465 135.926 51.1767 135.841 51.8671C135.987 52.5858 136.272 53.0605 136.697 53.2912C137.178 53.5151 137.642 53.5994 138.089 53.5442C138.87 53.4476 139.777 52.9955 140.811 52.1878C141.837 51.3243 142.804 50.4397 143.712 49.5342C144.215 49.0187 144.896 48.3396 145.755 47.4968C146.608 46.5982 147.46 45.6995 148.312 44.8009C149.164 43.9023 149.936 43.0419 150.628 42.2198C151.375 41.3908 151.861 40.7358 152.085 40.2548Z" fill="#E6E2D6"></path><path d="M193.259 38.3099C193.148 37.4169 192.665 36.7118 191.807 36.1944C191.006 35.6702 189.712 35.5185 187.926 35.7393C186.978 35.8565 186.028 36.2005 185.079 36.7712C184.185 37.3349 183.295 37.9266 182.409 38.5462C181.647 39.717 180.864 40.947 180.06 42.2363C179.256 43.5256 178.379 44.909 177.428 46.3864C177.846 47.0147 178.33 47.4932 178.881 47.8218C179.48 48.0876 180.069 48.2698 180.648 48.3682C181.283 48.4598 181.882 48.499 182.447 48.4858C183.068 48.4657 183.63 48.4246 184.132 48.3625C185.304 48.2177 186.47 47.7903 187.628 47.0804C188.78 46.3147 189.779 45.4546 190.624 44.5002C191.518 43.483 192.21 42.4342 192.7 41.3538C193.183 40.2175 193.369 39.2028 193.259 38.3099ZM186.041 29.4277C183.682 30.5126 181.61 31.1654 179.824 31.3862C177.312 31.6966 175.485 31.5825 174.342 31.0439C173.247 30.4425 172.638 29.6396 172.514 28.635C172.39 27.6304 172.702 26.4869 173.45 25.2045C174.247 23.8594 175.365 22.588 176.803 21.3902C178.235 20.1366 179.914 19.0508 181.84 18.1327C183.76 17.1588 185.808 16.5373 187.984 16.2683C189.1 16.1303 189.69 16.3125 189.752 16.8147C189.786 17.0938 189.608 17.2575 189.217 17.3058C187.041 17.5748 185.01 18.1091 183.126 18.9087C181.297 19.7014 179.709 20.606 178.362 21.6225C177.07 22.6321 176.068 23.691 175.355 24.7991C174.691 25.8444 174.41 26.7857 174.514 27.6228C174.61 28.4042 175.112 29.0222 176.018 29.4768C176.98 29.9245 178.437 30.0276 180.391 29.7862C182.623 29.5102 185.013 28.6764 187.561 27.2849C189.497 24.6091 191.464 21.9577 193.463 19.3309C195.517 16.6971 197.466 14.3596 199.31 12.3184C201.148 10.2214 202.807 8.51472 204.287 7.19844C205.823 5.87527 207.066 5.15504 208.015 5.03775C208.35 4.99636 208.702 5.09449 209.071 5.33215C209.433 5.514 209.642 5.82816 209.698 6.27464C209.801 7.1118 209.307 8.39106 208.217 10.1124C207.127 11.8338 205.631 13.7185 203.731 15.7666C201.887 17.8078 199.736 19.887 197.278 22.004C194.869 24.0584 192.372 25.8685 189.79 27.4344C188.685 29.0442 187.668 30.4448 186.739 31.6363C185.935 32.9256 185.013 34.3995 183.971 36.0582C185.626 34.777 187.597 33.995 189.886 33.7122C191.281 33.5397 192.519 33.6983 193.599 34.188C194.673 34.622 195.299 35.5645 195.479 37.0155C195.617 38.1317 195.378 39.4079 194.762 40.8439C194.195 42.2172 193.342 43.5692 192.204 44.8999C191.114 46.1679 189.808 47.2926 188.286 48.274C186.757 49.1996 185.155 49.7659 183.481 49.9729C182.365 50.1109 181.165 50.0325 179.882 49.7378C178.599 49.4431 177.516 48.6988 176.632 47.5048C176.443 47.8115 176.209 48.2087 175.929 48.6966C175.642 49.1287 175.475 49.3761 175.426 49.4388C174.859 50.3587 174.381 50.8428 173.99 50.8911C173.823 50.9118 173.649 50.8767 173.467 50.7858C173.23 50.7018 173.101 50.576 173.081 50.4086C173.046 50.1296 173.291 49.5893 173.815 48.7879C174.968 47.1154 176.111 45.3593 177.244 43.5194C178.432 41.6726 179.571 39.8885 180.662 38.1671C181.745 36.39 182.735 34.7661 183.629 33.2956C184.573 31.7623 185.377 30.473 186.041 29.4277ZM207.216 7.51632C207.168 7.12565 206.92 6.95791 206.474 7.0131C205.916 7.08209 205.134 7.63206 204.128 8.663C203.115 9.63814 201.945 10.9444 200.618 12.5817C199.283 14.1633 197.84 16.0132 196.289 18.1315C194.738 20.2498 193.169 22.4553 191.582 24.748C193.67 23.3 195.681 21.6915 197.615 19.9224C199.55 18.1534 201.237 16.4433 202.676 14.7922C204.115 13.141 205.237 11.6708 206.04 10.3815C206.893 9.02948 207.285 8.07442 207.216 7.51632Z" fill="#E6E2D6"></path><path d="M219.541 39.8207C219.575 40.0998 219.324 40.5842 218.786 41.274C218.248 41.9638 217.542 42.6743 216.669 43.4055C215.789 44.0809 214.819 44.7108 213.758 45.2953C212.753 45.8728 211.748 46.2237 210.743 46.3479C209.516 46.4997 208.822 45.9337 208.664 44.6501C208.608 44.2036 208.497 43.9907 208.33 44.0114C208.218 44.0252 208.138 44.0635 208.089 44.1262C207.37 44.7251 206.588 45.275 205.743 45.7761C205.003 46.2075 204.204 46.618 203.345 47.0074C202.55 47.4458 201.705 47.7201 200.812 47.8305C199.417 48.003 198.347 47.8237 197.601 47.2925C196.904 46.6987 196.497 45.9274 196.38 44.9786C196.249 43.9182 196.439 42.7048 196.95 41.3384C197.517 39.9651 198.345 38.6444 199.435 37.3764C200.574 36.0457 201.935 34.9141 203.52 33.9816C205.154 32.9864 206.947 32.3681 208.9 32.1266C209.793 32.0162 210.533 32.0381 211.118 32.1924C211.753 32.2839 212.283 32.4451 212.708 32.6759C213.189 32.8997 213.625 33.2142 214.015 33.6193C214.07 33.6124 214.147 33.5462 214.245 33.4208C214.343 33.2954 214.661 32.8878 215.199 32.198C215.297 32.0725 215.443 31.8844 215.639 31.6336C215.884 31.32 216.145 31.146 216.424 31.1115C216.648 31.0839 216.826 31.1469 216.958 31.3006C217.146 31.4473 217.25 31.6044 217.271 31.7718C217.285 31.8834 217.25 32.0578 217.166 32.2948C217.124 32.4133 217.078 32.504 217.029 32.5667C216.841 32.8733 216.463 33.4866 215.897 34.4065C215.324 35.2707 214.733 36.222 214.125 37.2604C213.51 38.2431 212.915 39.1665 212.342 40.0306C211.825 40.8879 211.521 41.4071 211.43 41.5883C211.339 41.7695 211.241 42.1217 211.136 42.6446C211.023 43.1118 210.991 43.5408 211.04 43.9314C211.116 44.5453 211.544 44.804 212.326 44.7074C212.939 44.6315 213.77 44.2455 214.817 43.5495C215.864 42.8534 217.157 41.6171 218.693 39.8405C218.833 39.5966 218.987 39.4642 219.154 39.4435C219.378 39.4159 219.506 39.5417 219.541 39.8207ZM212.715 35.4799C212.632 34.8101 212.116 34.3072 211.168 33.9711C210.269 33.5723 209.317 33.435 208.313 33.5592C206.917 33.7317 205.647 34.2286 204.502 35.0502C203.357 35.8717 202.369 36.8154 201.537 37.8815C200.706 38.9476 200.08 40.0732 199.66 41.2584C199.233 42.3878 199.071 43.371 199.175 44.2082C199.257 44.8779 199.494 45.4153 199.884 45.8204C200.323 46.1628 200.989 46.2788 201.882 46.1684C203.054 46.0235 204.268 45.5334 205.525 44.6981C206.775 43.807 207.899 42.8181 208.898 41.7313C209.946 40.5819 210.823 39.4252 211.529 38.2613C212.235 37.0974 212.63 36.1703 212.715 35.4799Z" fill="#E6E2D6"></path><path d="M237.851 37.5573C237.872 37.7248 237.644 38.1778 237.169 38.9165C236.743 39.5925 236.016 40.3623 234.99 41.2258C233.956 42.0335 232.609 42.8234 230.948 43.5953C229.294 44.4231 227.295 44.9819 224.951 45.2716C222.718 45.5476 221.079 45.3536 220.034 44.6895C218.989 44.0254 218.397 43.1353 218.259 42.0191C218.121 40.9029 218.363 39.6547 218.986 38.2744C219.602 36.8384 220.482 35.4829 221.628 34.2081C222.774 32.9332 224.111 31.8329 225.64 30.9073C227.162 29.9259 228.788 29.3283 230.518 29.1144C231.801 28.9557 232.893 29.0758 233.792 29.4746C234.747 29.8665 235.29 30.5927 235.421 31.6531C235.504 32.3228 235.388 32.9887 235.073 33.651C234.752 34.2573 234.343 34.8462 233.847 35.4175C233.344 35.9329 232.775 36.3716 232.14 36.7334C231.497 37.0395 230.897 37.227 230.339 37.296C229.39 37.4132 228.665 37.2762 228.164 36.885C227.711 36.431 227.467 36.0644 227.433 35.7854C227.384 35.3947 227.528 34.952 227.863 34.4572C228.255 33.9555 228.586 33.6595 228.859 33.5692C229.026 33.5485 229.204 33.6116 229.392 33.7583C229.573 33.8492 229.674 33.9784 229.695 34.1458C229.709 34.2574 229.691 34.3446 229.642 34.4073C229.544 34.5327 229.485 34.7384 229.464 35.0244C229.491 35.2476 229.519 35.4709 229.546 35.6941C229.601 36.1406 229.964 36.3224 230.634 36.2396C231.192 36.1706 231.799 35.8123 232.456 35.1645C233.105 34.4609 233.368 33.6068 233.244 32.6022C233.12 31.5976 232.751 30.9066 232.138 30.5291C231.524 30.1516 230.771 30.018 229.878 30.1284C228.706 30.2733 227.548 30.7565 226.403 31.578C225.307 32.3368 224.318 33.2805 223.438 34.4093C222.606 35.4754 221.928 36.6358 221.403 37.8906C220.927 39.0827 220.752 40.1811 220.876 41.1856C220.993 42.1344 221.456 42.8988 222.264 43.4789C223.066 44.0031 224.331 44.1583 226.061 43.9444C228.74 43.6132 230.918 42.8908 232.593 41.7771C234.318 40.6006 235.788 39.2006 237.004 37.5771C237.143 37.3331 237.297 37.2008 237.465 37.1801C237.688 37.1525 237.817 37.2783 237.851 37.5573Z" fill="#E6E2D6"></path><path d="M87.5185 82.6526C87.5461 82.8758 87.4132 83.1756 87.1197 83.5518C87.0219 83.6772 86.7109 84.1407 86.1866 84.9421C85.6624 85.7435 85.0614 86.6111 84.3835 87.5448C83.7615 88.4717 83.1883 89.3358 82.6641 90.1372C82.133 90.8828 81.8185 91.3184 81.7207 91.4438C81.2385 92.1267 80.812 92.8027 80.4415 93.4718C80.0709 94.1409 79.9235 94.7824 79.9994 95.3963C80.0753 96.0102 80.5039 96.2689 81.2852 96.1723C81.8992 96.0964 82.7297 95.7104 83.7769 95.0144C84.8242 94.3183 86.1162 93.082 87.6532 91.3054C87.793 91.0615 87.9467 90.9291 88.1141 90.9084C88.3373 90.8809 88.4662 91.0066 88.5007 91.2856C88.5352 91.5647 88.2834 92.0491 87.7454 92.7389C87.2074 93.4287 86.5019 94.1392 85.629 94.8704C84.7492 95.5458 83.7789 96.1757 82.7178 96.7602C81.7126 97.3377 80.7077 97.6886 79.7031 97.8128C78.4753 97.9646 77.7821 97.3987 77.6234 96.115C77.513 95.222 77.7688 94.3121 78.3909 93.3853C79.006 92.4026 79.5757 91.5106 80.1 90.7092C80.6242 89.9078 81.1694 89.0471 81.7357 88.1271C82.3019 87.2072 82.8471 86.3465 83.3714 85.5451C83.8956 84.7437 84.3499 84.0642 84.7343 83.5067C85.1187 82.9492 85.3632 82.6357 85.468 82.5661C85.7614 82.1898 86.1035 81.9775 86.4942 81.9293C86.7174 81.9017 86.9231 81.9612 87.1112 82.108C87.3552 82.2478 87.4909 82.4293 87.5185 82.6526ZM70.2507 93.5416C70.3767 93.186 70.674 92.611 71.1424 91.8165C71.6666 91.015 72.2887 90.0882 73.0085 89.0359C73.7284 87.9837 74.5286 86.8932 75.409 85.7644C76.3383 84.5729 77.25 83.4686 78.1442 82.4515C78.2421 82.326 78.4305 82.2461 78.7095 82.2116C78.9748 82.0655 79.1212 82.104 79.1488 82.3273C79.2811 82.4809 79.3228 82.5891 79.2739 82.6518C79.1968 82.9446 79.0708 83.3002 78.8958 83.7185C78.7698 84.074 78.6472 84.4575 78.5281 84.8689C78.4089 85.2802 78.3177 85.6882 78.2544 86.0926C78.2399 86.4344 78.3092 86.7658 78.4623 87.0869C78.6918 87.5685 79.0436 87.8933 79.5177 88.0613C79.9917 88.2294 80.5009 88.2231 81.0452 88.0425C81.5337 87.8688 81.9003 87.6251 82.1448 87.3116C82.2426 87.1862 82.2881 87.0956 82.2812 87.0398C82.3301 86.977 82.4069 86.9109 82.5117 86.8413C82.728 86.7579 82.9371 86.8454 83.1391 87.1037L83.1701 87.3549C83.0861 87.5919 82.7089 87.9785 82.0385 88.5147C81.3613 88.995 80.7226 89.329 80.1225 89.5165C79.5224 89.704 78.8806 89.7833 78.1971 89.7545C77.5066 89.6698 76.9839 89.3378 76.629 88.7584C76.3299 88.1721 76.2991 87.6942 76.5368 87.3249C76.7676 86.8997 76.803 86.4987 76.6431 86.1218C76.5804 86.0729 76.4932 86.0553 76.3816 86.0691C76.3258 86.076 76.0533 86.393 75.5642 87.0201C75.1309 87.6403 74.6277 88.3825 74.0545 89.2466C73.4745 90.0549 72.8979 90.8912 72.3248 91.7553C71.7447 92.5636 71.3393 93.1804 71.1086 93.6055L70.6166 93.7514L70.2507 93.5416Z" fill="#E6E2D6"></path><path d="M106.619 89.046C106.653 89.325 106.401 89.8095 105.863 90.4993C105.325 91.1891 104.564 91.9065 103.579 92.6515C102.651 93.3896 101.52 94.096 100.187 94.7708C98.9024 95.3828 97.5348 95.7785 96.0837 95.9579C94.0187 96.2132 92.4914 96.0053 91.5019 95.3344C90.5613 94.6007 90.0185 93.6478 89.8736 92.4758C89.7356 91.3596 89.9012 90.1776 90.3702 88.9297C90.8323 87.6259 91.5002 86.3818 92.3737 85.1972C93.303 84.0057 94.3681 82.9958 95.5689 82.1674C96.8256 81.3321 98.1515 80.8282 99.5468 80.6557C100.384 80.5523 101.106 80.6613 101.712 80.983C102.319 81.3047 102.68 81.9399 102.798 82.8887C102.929 83.9491 102.687 84.9706 102.072 85.9533C101.456 86.9359 100.636 87.859 99.609 88.7225C98.5825 89.5861 97.434 90.3797 96.1636 91.1033C94.9489 91.8201 93.7797 92.4463 92.656 92.9818C93.2612 94.2103 94.5683 94.7003 96.5775 94.452C98.0286 94.2726 99.5254 93.7759 101.068 92.9619C102.666 92.141 104.234 90.8423 105.771 89.0658C105.911 88.8218 106.065 88.6895 106.232 88.6688C106.455 88.6412 106.584 88.7669 106.619 89.046ZM100.788 83.8172C100.712 83.2032 100.461 82.7809 100.036 82.5501C99.6597 82.2567 99.1925 82.1444 98.6344 82.2134C97.7414 82.3238 96.883 82.7132 96.059 83.3817C95.235 84.0502 94.512 84.8479 93.89 85.7747C93.2679 86.7016 92.7957 87.6949 92.4734 88.7547C92.2 89.7517 92.1185 90.6968 92.2289 91.5897L92.3014 92.1757C93.4182 91.5844 94.5037 90.9686 95.5578 90.3283C96.605 89.6322 97.5092 88.9255 98.2705 88.2081C99.0876 87.4838 99.7338 86.7522 100.209 86.0135C100.684 85.2748 100.877 84.5427 100.788 83.8172Z" fill="#E6E2D6"></path><path d="M123.406 86.9709C123.44 87.2499 123.188 87.7344 122.65 88.4242C122.112 89.114 121.407 89.8245 120.534 90.5557C119.654 91.2311 118.684 91.861 117.623 92.4454C116.617 93.023 115.613 93.3739 114.608 93.4981C113.38 93.6498 112.687 93.0839 112.528 91.8003C112.432 91.0189 112.722 90.1614 113.4 89.2276C114.071 88.2381 114.798 87.2416 115.58 86.2383C116.419 85.228 117.177 84.256 117.855 83.3223C118.533 82.3885 118.83 81.5868 118.747 80.9171C118.637 80.0241 117.968 79.6535 116.74 79.8053C116.063 79.8323 115.404 79.9988 114.762 80.3048C114.169 80.5481 113.61 80.8438 113.087 81.1919C112.507 81.5468 111.959 81.9262 111.443 82.3301C110.821 83.2569 110.034 84.459 109.084 85.9365C108.189 87.407 107.151 89.0936 105.969 90.9961C104.837 92.836 103.606 94.8013 102.278 96.8921C100.901 99.0455 99.465 101.178 97.9694 103.289C99.3289 103.745 100.346 104.412 101.022 105.292C101.641 106.179 102.02 107.18 102.158 108.296L102.179 108.464C102.828 108.213 103.508 107.988 104.22 107.786C104.932 107.585 105.678 107.436 106.46 107.34C108.134 107.133 109.567 107.267 110.759 107.743C111.958 108.275 112.616 109.015 112.734 109.964C112.754 110.131 112.723 110.333 112.639 110.57C112.513 110.926 112.31 111.121 112.031 111.156C111.64 111.204 111.268 110.938 110.913 110.359C110.76 110.038 110.275 109.559 109.46 108.923C108.652 108.343 107.466 108.15 105.904 108.343C104.508 108.516 103.301 108.835 102.282 109.301C102.281 110.208 102.109 111.107 101.766 111.999C101.43 112.948 100.968 113.798 100.381 114.55C99.7386 115.31 98.9949 115.94 98.1503 116.441C97.2498 116.949 96.2972 117.265 95.2926 117.389C94.4555 117.493 93.9955 117.21 93.9127 116.54C93.8644 116.149 93.9977 115.623 94.3125 114.961C94.5783 114.361 95.0048 113.685 95.5917 112.933C96.1855 112.236 96.9223 111.55 97.8021 110.875C98.6819 110.199 99.6802 109.566 100.797 108.974C100.68 108.026 100.339 107.104 99.7755 106.211C99.2186 105.373 98.3755 104.741 97.2461 104.314C95.6527 106.551 93.9932 108.711 92.2675 110.794C90.5487 112.933 88.8546 114.814 87.1854 116.437C85.4672 118.122 83.7948 119.491 82.1681 120.542C80.4926 121.655 78.9014 122.305 77.3945 122.492C76.3341 122.623 75.4832 122.615 74.8416 122.467C74.1443 122.327 73.6075 122.11 73.2313 121.816C72.8619 121.579 72.5973 121.271 72.4374 120.895C72.2844 120.574 72.1872 120.246 72.1458 119.911C71.9112 118.013 72.4404 116.106 73.7334 114.19C74.9706 112.28 76.6227 110.518 78.6895 108.902C80.7074 107.35 82.9517 106.024 85.4224 104.925C87.8373 103.834 90.0772 103.16 92.1422 102.905C93.7049 102.712 95.093 102.71 96.3064 102.9C98.1794 100.175 100.091 97.3041 102.041 94.2865C103.936 91.2759 105.83 88.2652 107.724 85.2545C109.612 82.1881 111.45 79.1843 113.24 76.2432C115.023 73.2464 116.715 70.4307 118.315 67.7963C118.595 67.3084 118.986 67.0334 119.488 66.9713C119.991 66.9093 120.273 67.1294 120.335 67.6317C120.369 67.9107 120.271 68.2628 120.041 68.688C119.845 68.9388 119.366 69.6496 118.604 70.8204C117.842 71.9912 117.035 73.2526 116.182 74.6046C115.323 75.9008 114.536 77.1029 113.823 78.211C113.166 79.3122 112.848 79.9465 112.868 80.1139C113.504 79.7521 114.062 79.4564 114.544 79.2269C115.025 78.9973 115.566 78.7888 116.166 78.6013C116.76 78.358 117.335 78.2018 117.893 78.1329C118.619 78.0432 119.253 78.1347 119.797 78.4075C120.341 78.6802 120.664 79.2352 120.768 80.0724C120.885 81.0211 120.615 82.0461 119.958 83.1473C119.35 84.1858 118.654 85.2067 117.872 86.21C117.145 87.2065 116.439 88.1437 115.755 89.0216C115.126 89.8926 114.842 90.5793 114.904 91.0816C114.98 91.6955 115.409 91.9542 116.19 91.8576C116.804 91.7817 117.635 91.3957 118.682 90.6996C119.729 90.0035 121.021 88.7672 122.558 86.9906C122.698 86.7467 122.851 86.6144 123.019 86.5937C123.242 86.5661 123.371 86.6918 123.406 86.9709ZM100.911 109.895C99.3193 110.772 98.1357 111.74 97.3601 112.799C96.5355 113.921 96.1577 114.761 96.2267 115.319C96.268 115.654 96.4562 115.801 96.791 115.759C98.0189 115.607 99.0137 114.946 99.7756 113.775C100.537 112.605 100.916 111.311 100.911 109.895ZM95.5727 103.841C94.7079 103.721 93.6338 103.74 92.3501 103.899C90.1177 104.175 87.9022 104.817 85.7037 105.826C83.4493 106.841 81.4458 108.052 79.6931 109.458C77.9405 110.865 76.5713 112.394 75.5855 114.046C74.544 115.704 74.1232 117.343 74.3233 118.962C74.413 119.687 74.7121 120.273 75.2207 120.721C75.6803 121.23 76.4962 121.413 77.6682 121.268C78.8402 121.123 80.1314 120.567 81.5417 119.599C82.9031 118.694 84.3381 117.469 85.8468 115.922C87.3556 114.376 88.9449 112.564 90.6148 110.488C92.2358 108.475 93.8884 106.259 95.5727 103.841Z" fill="#E6E2D6"></path><path d="M139.075 85.0339C139.109 85.313 138.857 85.7974 138.319 86.4872C137.781 87.177 137.02 87.8944 136.036 88.6394C135.107 89.3775 133.976 90.0839 132.643 90.7587C131.359 91.3708 129.991 91.7665 128.54 91.9459C126.475 92.2011 124.948 91.9933 123.958 91.3223C123.017 90.5886 122.475 89.6358 122.33 88.4638C122.192 87.3476 122.357 86.1655 122.826 84.9176C123.288 83.6139 123.956 82.3697 124.83 81.1852C125.759 79.9937 126.824 78.9837 128.025 78.1553C129.282 77.32 130.608 76.8162 132.003 76.6437C132.84 76.5402 133.562 76.6493 134.168 76.971C134.775 77.2927 135.136 77.9279 135.254 78.8767C135.385 79.9371 135.143 80.9586 134.528 81.9412C133.913 82.9239 133.092 83.847 132.065 84.7105C131.039 85.574 129.89 86.3676 128.62 87.0913C127.405 87.8081 126.236 88.4342 125.112 88.9698C125.717 90.1982 127.024 90.6883 129.034 90.4399C130.485 90.2605 131.982 89.7639 133.524 88.9499C135.123 88.129 136.69 86.8303 138.227 85.0537C138.367 84.8098 138.521 84.6775 138.688 84.6568C138.911 84.6292 139.04 84.7549 139.075 85.0339ZM133.244 79.8051C133.168 79.1912 132.917 78.7689 132.492 78.5381C132.116 78.2446 131.649 78.1324 131.091 78.2014C130.198 78.3118 129.339 78.7012 128.515 79.3697C127.691 80.0382 126.968 80.8358 126.346 81.7627C125.724 82.6895 125.252 83.6828 124.93 84.7426C124.656 85.7397 124.575 86.6847 124.685 87.5777L124.757 88.1637C125.874 87.5723 126.96 86.9565 128.014 86.3162C129.061 85.6201 129.965 84.9134 130.727 84.196C131.544 83.4717 132.19 82.7402 132.665 82.0015C133.141 81.2628 133.333 80.5306 133.244 79.8051Z" fill="#E6E2D6"></path><path d="M150.048 95.7467C150.649 94.6525 151.101 93.4917 151.402 92.2645C151.704 91.0373 151.793 89.9214 151.668 88.9168C151.565 88.0797 151.315 87.4306 150.918 86.9697C150.57 86.4461 149.95 86.0128 149.057 85.6698C148.625 85.8367 148.125 86.1533 147.56 86.6199C147.043 87.0237 146.561 87.2533 146.115 87.3085C145.892 87.3361 145.658 87.2799 145.414 87.1401C145.17 87.0003 145.021 86.7071 144.965 86.2606C144.903 85.7583 145.193 85.3542 145.836 85.0481C146.471 84.6863 147.123 84.464 147.793 84.3812C148.407 84.3053 148.857 84.278 149.143 84.2993C149.848 84.0422 150.567 83.67 151.3 83.1828C152.082 82.6328 152.801 82.0339 153.457 81.3861C154.107 80.6825 154.638 79.9369 155.051 79.1493C155.512 78.299 155.775 77.4449 155.839 76.587C155.987 75.4921 155.524 74.7277 154.451 74.2938C153.377 73.8599 152.17 73.7257 150.831 73.8913C149.882 74.0086 148.842 74.5338 147.711 75.4669C146.58 76.4 145.441 77.504 144.296 78.7789C143.199 79.9911 142.137 81.2556 141.11 82.5725C140.138 83.8825 139.286 85.0078 138.552 85.9485C138.503 86.0112 138.357 85.9726 138.113 85.8328C137.918 85.6302 137.817 85.5011 137.81 85.4452C137.783 85.222 137.985 84.8003 138.419 84.1801C138.845 83.5041 139.352 82.7898 139.939 82.0373C140.575 81.2221 141.238 80.4034 141.93 79.5813C142.622 78.7592 143.191 78.0938 143.638 77.5853C145.203 75.5786 146.782 74.1369 148.373 73.2602C150.02 72.3766 151.402 71.8658 152.518 71.7278C154.249 71.5139 155.556 71.7773 156.441 72.5179C157.319 73.2026 157.76 74.4797 157.764 76.349C157.77 77.3116 157.567 78.1867 157.154 78.9743C156.79 79.6992 156.312 80.41 155.718 81.1067C155.117 81.7476 154.457 82.3675 153.738 82.9664C153.012 83.5095 152.345 84.0735 151.737 84.6586C152.985 85.1277 153.734 85.6867 153.984 86.3357C154.234 86.9847 154.408 87.6999 154.504 88.4813C154.629 89.4859 154.488 90.6366 154.081 91.9334C153.731 93.2233 153.188 94.5653 152.454 95.9593C154.637 96.1994 156.317 96.955 157.494 98.2261C158.727 99.4903 159.436 100.876 159.623 102.383C159.823 104.001 159.413 105.497 158.392 106.87C157.372 108.242 155.69 109.073 153.346 109.363C152.788 109.432 152.223 109.445 151.651 109.403C151.135 109.353 150.86 109.189 150.825 108.91C150.797 108.687 150.895 108.561 151.119 108.534C151.23 108.52 151.429 108.524 151.715 108.545C152.008 108.622 152.433 108.626 152.991 108.557C154.945 108.316 156.334 107.634 157.158 106.512C157.99 105.446 158.326 104.271 158.168 102.988C158.002 101.648 157.393 100.392 156.342 99.2185C155.297 98.101 153.763 97.384 151.741 97.0674C150.573 99.0816 149.123 101.102 147.391 103.13C145.665 105.213 143.856 107.08 141.963 108.73C140.134 110.43 138.294 111.819 136.444 112.897C134.545 114.039 132.87 114.699 131.419 114.879C129.856 115.072 128.709 114.959 127.977 114.539C127.19 114.126 126.748 113.529 126.651 112.748C126.506 111.576 127.031 110.095 128.227 108.304C129.429 106.568 131.112 104.83 133.277 103.09C135.441 101.349 137.968 99.7898 140.858 98.4127C143.748 97.0355 146.811 96.1469 150.048 95.7467ZM149.272 97.0326C146.314 97.3983 143.579 98.1897 141.066 99.4069C138.616 100.673 136.494 102.069 134.699 103.594C132.911 105.175 131.545 106.732 130.602 108.265C129.609 109.861 129.175 111.161 129.299 112.166C129.458 113.449 130.346 113.991 131.965 113.791C134.309 113.501 136.996 111.866 140.028 108.885C143.122 105.952 146.231 101.998 149.356 97.0223L149.272 97.0326Z" fill="#E6E2D6"></path><path d="M167.353 84.6831C167.402 85.0738 167.31 85.4817 167.08 85.9069C166.849 86.332 166.632 86.6421 166.43 86.8372C166.073 87.1645 165.7 87.3523 165.309 87.4006C165.03 87.4351 164.741 87.3859 164.441 87.253C164.204 87.1689 164.058 86.9037 164.003 86.4572C163.948 86.0107 164.105 85.4529 164.476 84.7838C164.902 84.1078 165.422 83.7318 166.036 83.656C166.315 83.6215 166.584 83.73 166.842 83.9814C167.148 84.1702 167.319 84.4041 167.353 84.6831Z" fill="#E6E2D6"></path><path d="M179.371 83.1975C179.419 83.5882 179.328 83.9961 179.097 84.4213C178.867 84.8465 178.65 85.1566 178.447 85.3516C178.091 85.6789 177.718 85.8667 177.327 85.915C177.048 85.9495 176.759 85.9003 176.459 85.7674C176.222 85.6834 176.076 85.4181 176.02 84.9716C175.965 84.5251 176.123 83.9673 176.494 83.2982C176.92 82.6222 177.44 82.2463 178.054 82.1704C178.333 82.1359 178.602 82.2444 178.859 82.4958C179.166 82.6846 179.336 82.9185 179.371 83.1975Z" fill="#E6E2D6"></path><path d="M191.389 81.712C191.437 82.1026 191.346 82.5106 191.115 82.9357C190.884 83.3609 190.668 83.671 190.465 83.866C190.109 84.1934 189.735 84.3812 189.345 84.4295C189.066 84.464 188.776 84.4147 188.477 84.2818C188.24 84.1978 188.093 83.9325 188.038 83.486C187.983 83.0396 188.141 82.4818 188.511 81.8127C188.938 81.1367 189.458 80.7607 190.072 80.6848C190.351 80.6503 190.619 80.7588 190.877 81.0103C191.184 81.199 191.354 81.4329 191.389 81.712Z" fill="#E6E2D6"></path></svg> 