<?xml version="1.0" encoding="UTF-8"?> <svg xmlns="http://www.w3.org/2000/svg" width="167" height="83" viewBox="0 0 167 83" fill="none"><path d="M58.7762 0.531911C58.7762 0.744677 58.6521 0.86879 58.4038 0.90425C56.8436 1.2234 55.3719 1.70212 53.989 2.34041C52.606 2.94324 51.2762 3.67019 49.9996 4.52125C52.0209 5.54961 53.4748 6.84392 54.3613 8.4042C55.2833 9.96447 55.7443 11.6666 55.7443 13.5105C55.7443 15.319 55.3365 17.2162 54.5209 19.202C53.7408 21.1523 52.6237 23.0672 51.1699 24.9466C49.7514 26.8261 48.0493 28.6346 46.0635 30.3721C44.0777 32.0742 41.8969 33.5636 39.521 34.8402C37.1451 36.1168 34.6097 37.1451 31.9147 37.9253C29.2551 38.6699 26.5246 39.0423 23.7232 39.0423C22.2693 39.0423 20.7623 38.8827 19.202 38.5636C17.6417 38.2799 16.0814 37.943 14.5212 37.5529C13.1737 38.0139 11.7552 38.3685 10.2659 38.6167C8.81199 38.865 7.28718 38.9891 5.69145 38.9891C5.15954 38.9891 4.55671 38.9536 3.88295 38.8827C3.24466 38.8472 2.6241 38.7409 2.02126 38.5636C1.45389 38.3863 0.97517 38.138 0.585102 37.8189C0.195034 37.4643 0 37.0033 0 36.4359C0 36.0104 0.141843 35.6735 0.425529 35.4253C0.744676 35.1771 1.15247 34.982 1.64892 34.8402C2.18084 34.6983 2.76594 34.6097 3.40423 34.5742C4.07799 34.5033 4.76947 34.4678 5.47868 34.4678C7.0035 34.4678 8.5815 34.6806 10.2127 35.1061C11.8793 35.4962 13.5815 35.9395 15.319 36.4359C17.4467 35.4785 19.4502 34.2373 21.3296 32.7125C23.2091 31.1523 25.0176 29.4501 26.7551 27.6062C28.5282 25.7622 30.248 23.8119 31.9147 21.7552C33.5813 19.6984 35.2657 17.6595 36.9678 15.6382C38.7054 13.6169 40.4784 11.6843 42.2869 9.84036C44.0954 7.9964 46.0103 6.34747 48.0316 4.89358C46.6841 4.25529 45.1061 3.75884 43.2976 3.40423C41.4891 3.04962 39.3792 2.87232 36.9678 2.87232C35.5139 2.87232 34.1132 3.01416 32.7657 3.29785C31.4182 3.54607 30.0884 3.91841 28.7764 4.41486C29.2019 5.3723 29.4147 6.4184 29.4147 7.55314C29.4147 7.73044 29.4147 7.89002 29.4147 8.03186C29.4147 8.1737 29.397 8.33328 29.3615 8.51058C29.5743 8.47512 29.787 8.45739 29.9998 8.45739C30.248 8.42193 30.4962 8.4042 30.7445 8.4042C31.8083 8.4042 32.5707 8.63469 33.0317 9.09568C33.5281 9.55667 33.7764 10.1772 33.7764 10.9574C33.7764 11.8084 33.5104 12.7836 32.9785 13.8829C32.482 14.9822 31.7906 16.1169 30.904 17.2871C30.0175 18.4573 28.9714 19.6098 27.7658 20.7445C26.5601 21.8793 25.2658 22.8899 23.8828 23.7764C22.5353 24.6629 21.1169 25.3899 19.6275 25.9573C18.1736 26.4892 16.7197 26.7551 15.2659 26.7551C13.4928 26.7551 12.1985 26.3651 11.3829 25.5849C10.5673 24.7693 10.1595 23.741 10.1595 22.4998C10.1595 21.1523 10.585 19.6275 11.4361 17.9254C12.2871 16.2233 13.4574 14.5212 14.9467 12.8191C16.4715 11.1169 18.28 9.50348 20.3722 7.97867C22.4998 6.4184 24.8225 5.14181 27.3402 4.14891C26.7729 3.12055 25.9395 2.26949 24.8403 1.59574C23.741 0.921981 22.3048 0.585104 20.5318 0.585104C19.2906 0.585104 18.0495 0.762408 16.8084 1.11701C15.5673 1.43616 14.3439 1.87942 13.1382 2.44679C11.968 3.01416 10.8333 3.67019 9.73397 4.41486C8.67015 5.12408 7.69498 5.86875 6.80846 6.64889C5.9574 7.39357 5.21273 8.13824 4.57444 8.88292C3.93614 9.59213 3.47515 10.2304 3.19147 10.7978C2.94324 11.2233 2.69502 11.4361 2.44679 11.4361C2.19857 11.4361 2.07445 11.2942 2.07445 11.0106C2.07445 10.8333 2.14538 10.6205 2.28722 10.3723C2.96097 9.41483 3.93614 8.33328 5.21273 7.12761C6.48932 5.92194 7.96094 4.80493 9.62759 3.77657C11.2942 2.71275 13.1027 1.82623 15.0531 1.11701C17.0034 0.372338 19.007 0 21.0637 0C23.014 0 24.5743 0.354608 25.7445 1.06382C26.9502 1.77304 27.8544 2.65956 28.4572 3.72338C29.9111 3.22693 31.3828 2.83686 32.8721 2.55318C34.3969 2.26949 35.9572 2.12765 37.5529 2.12765C40.0352 2.12765 42.2337 2.30495 44.1486 2.65956C46.0635 3.01416 47.7302 3.51061 49.1486 4.14891C50.567 3.22693 52.0209 2.42906 53.5103 1.75531C55.0351 1.08155 56.6485 0.567372 58.3507 0.212765C58.6343 0.212765 58.7762 0.319147 58.7762 0.531911ZM28.1913 9.41483C27.4821 9.62759 26.8438 9.92901 26.2764 10.3191C25.709 10.6737 25.2126 11.0815 24.7871 11.5425C24.397 11.968 24.0956 12.3935 23.8828 12.8191C23.67 13.2091 23.5637 13.546 23.5637 13.8297C23.5637 14.1488 23.7055 14.3084 23.9892 14.3084C25.1239 14.3084 26.0459 13.8297 26.7551 12.8722C27.4998 11.9148 27.9785 10.7623 28.1913 9.41483ZM53.9358 13.7765C53.9358 12.0744 53.528 10.4964 52.7124 9.04249C51.9323 7.5886 50.6557 6.3652 48.8826 5.3723C47.0387 6.75527 45.2656 8.35101 43.5635 10.1595C41.8614 11.968 40.1948 13.8652 38.5636 15.851C36.9324 17.8368 35.2834 19.858 33.6168 21.9147C31.9856 23.936 30.2835 25.8863 28.5104 27.7658C26.7374 29.6097 24.858 31.3118 22.8722 32.8721C20.9218 34.4324 18.7942 35.7267 16.4892 36.7551C17.8368 37.1451 19.1843 37.482 20.5318 37.7657C21.9147 38.0139 23.2445 38.138 24.5211 38.138C27.0743 38.138 29.5743 37.7834 32.0211 37.0742C34.5033 36.3295 36.826 35.3544 38.9891 34.1487C41.1877 32.9076 43.1912 31.4714 44.9997 29.8402C46.8436 28.209 48.4216 26.5069 49.7337 24.7339C51.0457 22.9254 52.0741 21.0814 52.8188 19.202C53.5635 17.3226 53.9358 15.5141 53.9358 13.7765ZM32.0742 11.2233C32.0742 10.585 31.8969 10.0886 31.5423 9.73398C31.2232 9.34391 30.6735 9.14887 29.8934 9.14887C29.6097 9.14887 29.397 9.1666 29.2551 9.20206C29.1133 9.9822 28.865 10.7446 28.5104 11.4893C28.1913 12.1985 27.7835 12.8368 27.287 13.4042C26.7906 13.9715 26.2232 14.4148 25.5849 14.7339C24.9466 15.0531 24.2551 15.2127 23.5105 15.2127C22.553 15.2127 22.0743 14.8758 22.0743 14.202C22.0743 13.812 22.2339 13.3687 22.553 12.8722C22.8722 12.3403 23.3154 11.8262 23.8828 11.3297C24.4502 10.7978 25.1062 10.3013 25.8509 9.84036C26.5956 9.37937 27.3934 9.02476 28.2445 8.77654C28.2799 8.63469 28.2977 8.38647 28.2977 8.03186C28.2977 6.89712 28.0849 5.83329 27.6594 4.84039C25.3899 5.79783 23.28 7.0035 21.3296 8.45739C19.4148 9.91128 17.7481 11.4538 16.3297 13.085C14.9467 14.6807 13.8652 16.2765 13.085 17.8722C12.3049 19.4325 11.9148 20.8332 11.9148 22.0743C11.9148 23.1736 12.2517 24.0601 12.9254 24.7339C13.5992 25.3722 14.6807 25.6913 16.1701 25.6913C17.4821 25.6913 18.7765 25.4431 20.0531 24.9466C21.3651 24.4147 22.6062 23.741 23.7764 22.9254C24.9821 22.1098 26.0814 21.1878 27.0743 20.1594C28.0672 19.0956 28.936 18.0318 29.6806 16.968C30.4253 15.9041 31.0104 14.8758 31.4359 13.8829C31.8615 12.8545 32.0742 11.968 32.0742 11.2233ZM13.2446 37.1806C11.4716 36.6841 9.8049 36.2409 8.24462 35.8508C6.68435 35.4607 5.3723 35.2657 4.30848 35.2657C4.09572 35.2657 3.82976 35.2834 3.51061 35.3189C3.22693 35.3189 2.94324 35.3544 2.65956 35.4253C2.41133 35.4607 2.18084 35.5494 1.96807 35.6912C1.79077 35.8331 1.70212 36.0281 1.70212 36.2763C1.70212 36.7373 1.86169 37.1097 2.18084 37.3934C2.49998 37.6416 2.87232 37.8543 3.29785 38.0316C3.75884 38.1735 4.23756 38.2799 4.73401 38.3508C5.26592 38.3863 5.72691 38.404 6.11698 38.404C8.59923 38.404 10.9751 37.9962 13.2446 37.1806Z" fill="#342619"></path><path d="M63.2143 30.8508C63.2143 30.9218 63.1789 30.9927 63.1079 31.0636C62.8952 31.2409 62.5583 31.4537 62.0973 31.7019C61.6363 31.9147 61.1221 32.1274 60.5548 32.3402C60.0228 32.553 59.4377 32.7303 58.7995 32.8721C58.1966 33.014 57.5938 33.1026 56.991 33.1381C56.7073 33.8473 56.3172 34.5388 55.8207 35.2125C55.3243 35.8863 54.7392 36.4891 54.0654 37.021C53.4271 37.5175 52.7179 37.9253 51.9378 38.2444C51.1931 38.5636 50.413 38.7231 49.5974 38.7231C48.4626 38.7231 47.647 38.5104 47.1506 38.0848C46.6896 37.6238 46.4591 37.0565 46.4591 36.3827C46.4591 35.6735 46.6541 34.9288 47.0442 34.1487C47.4697 33.3331 48.0194 32.5884 48.6931 31.9147C49.3669 31.2055 50.1116 30.6204 50.9272 30.1594C51.7428 29.6629 52.5406 29.4147 53.3208 29.4147C53.6754 28.7409 54.2959 28.4041 55.1825 28.4041C55.7144 28.4041 56.2108 28.6168 56.6718 29.0424C57.1683 29.4324 57.4165 30.0884 57.4165 31.0104C57.4165 31.5423 57.3456 32.0211 57.2037 32.4466C57.8066 32.4466 58.4271 32.3579 59.0654 32.1806C59.7037 32.0033 60.3065 31.8083 60.8739 31.5955C61.4413 31.3828 61.9023 31.1877 62.2569 31.0104C62.6469 30.7977 62.8774 30.6558 62.9484 30.5849C63.0193 30.5849 63.0902 30.6204 63.1611 30.6913C63.1966 30.7267 63.2143 30.7799 63.2143 30.8508ZM56.2463 31.4891C56.2463 30.709 56.0867 30.1594 55.7676 29.8402C55.4839 29.4856 55.2002 29.3083 54.9165 29.3083C54.5974 29.3083 54.4378 29.4501 54.4378 29.7338C54.4378 30.5494 54.5974 31.1523 54.9165 31.5423C55.2356 31.9324 55.6612 32.1984 56.1931 32.3402C56.2285 32.1629 56.2463 31.8792 56.2463 31.4891ZM55.9803 33.1381C55.2356 33.0671 54.5974 32.8189 54.0654 32.3934C53.569 31.9324 53.2853 31.2232 53.2144 30.2657C52.5761 30.3012 51.9555 30.514 51.3527 30.904C50.7499 31.2941 50.218 31.7728 49.757 32.3402C49.3314 32.8721 48.9768 33.4749 48.6931 34.1487C48.4095 34.787 48.2676 35.3898 48.2676 35.9572C48.2676 36.5246 48.4272 37.0033 48.7463 37.3934C49.0655 37.748 49.5974 37.9253 50.3421 37.9253C50.7676 37.9253 51.2463 37.8012 51.7782 37.5529C52.3456 37.3047 52.8952 36.9678 53.4272 36.5423C53.9945 36.1168 54.5087 35.6203 54.9697 35.0529C55.4307 34.4501 55.7676 33.8118 55.9803 33.1381Z" fill="#342619"></path><path d="M64.2765 61.2338C64.2765 60.6664 64.0283 60.1877 63.5318 59.7977C63.0709 59.4076 62.273 59.2126 61.1382 59.2126C60.5354 59.2126 59.9148 59.3544 59.2766 59.6381C58.6737 59.9218 58.0709 60.2232 57.4681 60.5423C56.9007 61.2161 56.3156 61.9253 55.7127 62.67C55.1099 63.4147 54.4539 64.2125 53.7447 65.0636C53.9574 65.4891 54.2234 65.826 54.5425 66.0742C54.8971 66.287 55.2518 66.4465 55.6064 66.5529C55.9964 66.6593 56.3688 66.7302 56.7234 66.7657C57.1134 66.8012 57.4681 66.8189 57.7872 66.8189C58.5319 66.8189 59.2943 66.6416 60.0744 66.287C60.8546 65.8969 61.546 65.4359 62.1489 64.904C62.7872 64.3366 63.3013 63.7338 63.6914 63.0955C64.0815 62.4218 64.2765 61.8012 64.2765 61.2338ZM60.4468 55.1168C58.8865 55.6133 57.539 55.8615 56.4042 55.8615C54.8085 55.8615 53.6738 55.6487 53 55.2232C52.3617 54.7622 52.0426 54.2126 52.0426 53.5743C52.0426 52.936 52.3262 52.2445 52.8936 51.4998C53.4965 50.7197 54.2943 50.0105 55.2872 49.3722C56.2801 48.6984 57.4149 48.1488 58.6914 47.7233C59.968 47.2623 61.2978 47.0318 62.6808 47.0318C63.39 47.0318 63.7446 47.1914 63.7446 47.5105C63.7446 47.6878 63.6205 47.7765 63.3723 47.7765C61.9893 47.7765 60.6773 47.9538 59.4361 48.3084C58.2305 48.663 57.1666 49.1062 56.2447 49.6382C55.3581 50.1701 54.6489 50.7552 54.117 51.3935C53.6206 51.9963 53.3723 52.5637 53.3723 53.0956C53.3723 53.592 53.6383 54.0176 54.1702 54.3722C54.7376 54.7268 55.6418 54.9041 56.8829 54.9041C58.3014 54.9041 59.8617 54.5672 61.5638 53.8934C62.9822 52.3686 64.4184 50.8616 65.8723 49.3722C67.3616 47.8828 68.7623 46.5708 70.0743 45.4361C71.3864 44.2659 72.5566 43.3261 73.585 42.6169C74.6488 41.9077 75.4821 41.5531 76.0849 41.5531C76.2977 41.5531 76.5105 41.6418 76.7232 41.8191C76.936 41.9609 77.0424 42.1737 77.0424 42.4574C77.0424 42.9893 76.6346 43.7517 75.819 44.7446C75.0034 45.7375 73.9218 46.8013 72.5743 47.936C71.2623 49.0708 69.7552 50.2055 68.0531 51.3403C66.3864 52.4396 64.6843 53.3793 62.9467 54.1594C62.1311 55.0814 61.3865 55.8792 60.7127 56.553C60.1099 57.2977 59.4184 58.1487 58.6383 59.1062C59.773 58.4324 61.0673 58.0955 62.5212 58.0955C63.4077 58.0955 64.1701 58.2906 64.8084 58.6806C65.4467 59.0352 65.7659 59.6735 65.7659 60.5955C65.7659 61.3047 65.5176 62.0849 65.0212 62.9359C64.5602 63.7515 63.9219 64.5317 63.1063 65.2763C62.3262 65.9856 61.4219 66.5884 60.3936 67.0848C59.3652 67.5458 58.3191 67.7763 57.2553 67.7763C56.5461 67.7763 55.8014 67.6345 55.0213 67.3508C54.2411 67.0671 53.6206 66.5175 53.1596 65.7019C53.0177 65.8792 52.8404 66.1097 52.6277 66.3934C52.4149 66.6416 52.2908 66.7834 52.2553 66.8189C51.8298 67.3508 51.4929 67.6168 51.2447 67.6168C51.1383 67.6168 51.0319 67.5813 50.9255 67.5104C50.7837 67.4394 50.7128 67.3508 50.7128 67.2444C50.7128 67.0671 50.9078 66.748 51.2979 66.287C52.1489 65.3295 53 64.3189 53.8511 63.2551C54.7376 62.1913 55.5886 61.1629 56.4042 60.17C57.2198 59.1416 57.9645 58.2019 58.6383 57.3509C59.3475 56.4643 59.9503 55.7197 60.4468 55.1168ZM75.3935 43.0425C75.3935 42.7942 75.2516 42.6701 74.9679 42.6701C74.6133 42.6701 74.0814 42.9538 73.3722 43.5212C72.663 44.0531 71.8297 44.78 70.8722 45.702C69.9148 46.5885 68.8687 47.6346 67.7339 48.8403C66.5992 50.046 65.4467 51.3048 64.2765 52.6169C65.6949 51.8722 67.0779 51.0211 68.4254 50.0637C69.7729 49.1062 70.9609 48.1665 71.9892 47.2446C73.0176 46.3226 73.8332 45.4892 74.436 44.7446C75.0743 43.9644 75.3935 43.3971 75.3935 43.0425Z" fill="#342619"></path><path d="M78.3202 64.2125C78.3202 64.3189 78.1429 64.5849 77.7883 65.0104C77.4692 65.4005 76.955 65.826 76.2458 66.287C75.5366 66.7125 74.6323 67.1026 73.533 67.4572C72.4337 67.8472 71.1394 68.0423 69.6501 68.0423C68.2316 68.0423 67.221 67.7941 66.6182 67.2976C66.0153 66.8012 65.7139 66.1983 65.7139 65.4891C65.7139 64.7799 65.9621 64.0175 66.4586 63.2019C66.955 62.3508 67.6111 61.5707 68.4267 60.8615C69.2423 60.1523 70.1642 59.5672 71.1926 59.1062C72.221 58.6097 73.2848 58.3615 74.3841 58.3615C75.1997 58.3615 75.8734 58.5211 76.4053 58.8402C76.9727 59.1594 77.2564 59.6558 77.2564 60.3296C77.2564 60.7551 77.1323 61.1629 76.8841 61.553C76.6358 61.9076 76.3344 62.2444 75.9798 62.5636C75.6252 62.8473 75.2351 63.0778 74.8096 63.2551C74.3841 63.3969 73.994 63.4678 73.6394 63.4678C73.0366 63.4678 72.5933 63.326 72.3096 63.0423C72.0614 62.7232 71.9373 62.4749 71.9373 62.2976C71.9373 62.0494 72.0614 61.7835 72.3096 61.4998C72.5933 61.2161 72.8238 61.0565 73.0011 61.0211C73.1075 61.0211 73.2139 61.0742 73.3203 61.1806C73.4266 61.2515 73.4798 61.3402 73.4798 61.4466C73.4798 61.5175 73.4621 61.5707 73.4266 61.6062C73.3557 61.6771 73.3025 61.8012 73.2671 61.9785C73.2671 62.1203 73.2671 62.2622 73.2671 62.404C73.2671 62.6877 73.4798 62.8296 73.9054 62.8296C74.26 62.8296 74.6678 62.6522 75.1287 62.2976C75.5897 61.9076 75.8202 61.3934 75.8202 60.7551C75.8202 60.1168 75.6429 59.6558 75.2883 59.3721C74.9337 59.0884 74.4727 58.9466 73.9054 58.9466C73.1607 58.9466 72.3983 59.1594 71.6181 59.5849C70.8735 59.975 70.182 60.4891 69.5437 61.1274C68.9409 61.7303 68.4267 62.404 68.0011 63.1487C67.6111 63.8579 67.416 64.5317 67.416 65.17C67.416 65.7728 67.6465 66.287 68.1075 66.7125C68.5685 67.1026 69.3486 67.2976 70.4479 67.2976C72.15 67.2976 73.5685 67.0139 74.7032 66.4465C75.8734 65.8437 76.9018 65.0813 77.7883 64.1593C77.8947 64.0175 78.0011 63.9466 78.1075 63.9466C78.2493 63.9466 78.3202 64.0352 78.3202 64.2125Z" fill="#342619"></path><path d="M95.4394 64.2125C95.4394 64.3898 95.2267 64.6912 94.8011 65.1168C94.3756 65.5068 93.8437 65.9146 93.2054 66.3402C92.5671 66.7657 91.8756 67.138 91.131 67.4572C90.4218 67.7763 89.748 67.9359 89.1097 67.9359C88.3296 67.9359 87.9395 67.5281 87.9395 66.7125C87.9395 66.1806 88.1523 65.6309 88.5778 65.0636C89.0033 64.4962 89.4643 63.9288 89.9608 63.3615C90.4572 62.7941 90.9182 62.2622 91.3437 61.7657C91.7693 61.2338 91.982 60.7551 91.982 60.3296C91.982 60.0459 91.8225 59.8508 91.5033 59.7445C91.1842 59.6381 90.9182 59.5849 90.7054 59.5849C89.9962 59.6204 89.1629 59.8863 88.2055 60.3828C87.2835 60.8437 86.4501 61.3047 85.7055 61.7657C84.4998 63.3615 83.5246 64.6912 82.78 65.7551C82.0353 66.8189 81.5211 67.3508 81.2374 67.3508C80.9537 67.3508 80.8119 67.1735 80.8119 66.8189C80.8119 66.677 80.8651 66.5352 80.9715 66.3934C81.0778 66.2515 81.1842 66.1274 81.2906 66.021C82.2835 64.6735 83.0459 63.6451 83.5778 62.9359C84.1452 62.2267 84.553 61.6948 84.8012 61.3402C85.0849 60.9856 85.2445 60.7551 85.2799 60.6487C85.3509 60.5069 85.3863 60.3296 85.3863 60.1168C85.3863 59.7267 85.1558 59.5317 84.6948 59.5317C83.7729 59.5317 82.9218 59.7799 82.1417 60.2764C81.3615 60.7728 80.6169 61.4111 79.9076 62.1913C79.2339 62.9359 78.5601 63.787 77.8864 64.7444C77.2481 65.6664 76.5921 66.5529 75.9183 67.404C75.6346 67.6877 75.4041 67.8295 75.2268 67.8295C74.9431 67.8295 74.8013 67.6699 74.8013 67.3508C74.8013 67.1735 75.0141 66.7834 75.4396 66.1806C75.8651 65.5778 76.6984 64.4962 77.9396 62.9359C78.7197 61.943 79.3225 61.1452 79.7481 60.5423C80.2091 59.9395 80.5637 59.4608 80.8119 59.1062C81.0956 58.7516 81.3083 58.5211 81.4502 58.4147C81.6275 58.2728 81.8048 58.2019 81.9821 58.2019C82.3012 58.2019 82.4608 58.3792 82.4608 58.7338C82.4608 59.0884 82.3367 59.3899 82.0885 59.6381L82.1417 59.6913C82.3899 59.514 82.8509 59.3012 83.5246 59.053C84.1984 58.7693 84.8367 58.6275 85.4395 58.6275C85.8296 58.6275 86.1487 58.7161 86.3969 58.8934C86.6452 59.0352 86.7693 59.3189 86.7693 59.7445C86.7693 60.0991 86.6984 60.365 86.5565 60.5423C87.8331 59.7977 88.8792 59.2835 89.6948 58.9998C90.5459 58.6806 91.2373 58.5211 91.7693 58.5211C92.443 58.5211 92.904 58.6452 93.1522 58.8934C93.4005 59.1416 93.56 59.4608 93.6309 59.8508C93.6309 60.4182 93.4182 61.0033 92.9927 61.6062C92.5671 62.1735 92.0884 62.7409 91.5565 63.3083C91.0246 63.8756 90.5459 64.4253 90.1203 64.9572C89.6948 65.4891 89.482 65.9856 89.482 66.4465C89.482 66.8366 89.7303 67.0316 90.2267 67.0316C90.6168 67.0316 91.2196 66.8012 92.0352 66.3402C92.8508 65.8792 93.8082 65.1522 94.9075 64.1593C95.0139 64.0175 95.1203 63.9466 95.2267 63.9466C95.3685 63.9466 95.4394 64.0352 95.4394 64.2125ZM88.7374 52.936C89.092 53.0424 89.6062 53.2374 90.2799 53.5211C90.9537 53.8048 91.6629 54.1239 92.4075 54.4785C93.1877 54.7977 93.9678 55.1168 94.748 55.436C95.5281 55.7551 96.2196 56.0034 96.8224 56.1807C97.7089 56.4289 98.5245 56.4466 99.2692 56.2339C100.049 56.0211 100.723 55.6842 101.29 55.2232C101.893 54.7622 102.372 54.2303 102.727 53.6275C103.081 52.9892 103.312 52.3686 103.418 51.7658C103.595 51.092 103.56 50.4892 103.312 49.9573C103.099 49.3899 102.638 49.0176 101.929 48.8403C101.361 48.6984 100.829 48.6984 100.333 48.8403C99.8366 48.9821 99.3933 49.2304 99.0033 49.585C98.6132 49.9041 98.294 50.2942 98.0458 50.7552C97.7976 51.1807 97.638 51.5885 97.5671 51.9786C97.4962 52.2622 97.4962 52.5637 97.5671 52.8828C97.6735 53.202 97.8685 53.397 98.1522 53.4679C98.365 53.5388 98.5777 53.5034 98.7905 53.3615C99.0387 53.2197 99.2337 53.1665 99.3756 53.202C99.4465 53.2374 99.4642 53.3261 99.4288 53.4679C99.4288 53.5743 99.4288 53.6629 99.4288 53.7339C99.4288 53.8048 99.2515 53.9289 98.8969 54.1062C98.5777 54.2835 98.1877 54.2835 97.7267 54.1062C97.3366 54.0353 97.0706 53.8225 96.9288 53.4679C96.8224 53.1133 96.8224 52.67 96.9288 52.1381C97.0352 51.6417 97.2302 51.1275 97.5139 50.5956C97.7976 50.0282 98.1699 49.5318 98.6309 49.1062C99.0919 48.6807 99.6238 48.3616 100.227 48.1488C100.829 47.936 101.486 47.936 102.195 48.1488C103.081 48.397 103.684 48.8935 104.003 49.6382C104.322 50.3828 104.393 51.163 104.216 51.9786C104.074 52.7232 103.773 53.4502 103.312 54.1594C102.886 54.8686 102.319 55.4714 101.61 55.9679C100.9 56.4643 100.067 56.819 99.1096 57.0317C98.1876 57.209 97.1416 57.1381 95.9714 56.819C94.943 56.5353 94.0742 56.2339 93.365 55.9147C92.6558 55.5601 91.9643 55.2409 91.2905 54.9573C91.0778 54.8509 90.7586 54.709 90.3331 54.5317C89.9076 54.3544 89.4288 54.1949 88.8969 54.053C88.365 53.8757 87.8154 53.7516 87.248 53.6807C86.6806 53.5743 86.1487 53.5743 85.6523 53.6807C85.2267 53.6807 84.8012 53.8048 84.3757 54.053C83.9856 54.2658 83.6133 54.514 83.2587 54.7977C82.9041 55.0814 82.5849 55.3651 82.3012 55.6488C82.0176 55.897 81.8048 56.0743 81.6629 56.1807C81.5566 56.1452 81.5034 56.1097 81.5034 56.0743L81.4502 55.7551C81.4502 55.6842 81.6629 55.4537 82.0885 55.0636C82.5495 54.6381 83.1168 54.2303 83.7906 53.8403C84.4998 53.4147 85.2799 53.0956 86.131 52.8828C87.0175 52.6346 87.8863 52.6523 88.7374 52.936Z" fill="#342619"></path><path d="M106.089 64.2125C106.089 64.3898 105.894 64.6735 105.504 65.0636C105.114 65.4536 104.618 65.8437 104.015 66.2338C103.412 66.5884 102.756 66.9075 102.047 67.1912C101.373 67.4749 100.717 67.6168 100.079 67.6168C99.2986 67.6168 98.9085 67.209 98.9085 66.3934C98.9085 65.8969 99.1567 65.3827 99.6532 64.8508C100.15 64.2834 100.682 63.7161 101.249 63.1487C101.852 62.5813 102.401 62.0317 102.898 61.4998C103.394 60.9679 103.643 60.4891 103.643 60.0636C103.643 59.4962 103.252 59.2126 102.472 59.2126C102.047 59.1771 101.621 59.2303 101.196 59.3721C100.806 59.4785 100.433 59.6204 100.079 59.7977C99.6886 59.975 99.3163 60.17 98.9617 60.3828C98.5007 60.9147 97.9156 61.6062 97.2064 62.4572C96.5326 63.3083 95.7525 64.2834 94.866 65.3827C94.0149 66.4465 93.0929 67.5813 92.1 68.787C91.0717 70.0281 90.0079 71.2515 88.9086 72.4571C89.7242 72.8472 90.3093 73.3437 90.6639 73.9465C90.983 74.5493 91.1426 75.2054 91.1426 75.9146V76.021C91.5681 75.9146 92.0114 75.8259 92.4724 75.755C92.9334 75.6841 93.4121 75.6486 93.9085 75.6486C94.9724 75.6486 95.8589 75.8436 96.5681 76.2337C97.2773 76.6592 97.6319 77.1734 97.6319 77.7763C97.6319 77.8826 97.5964 78.0067 97.5255 78.1486C97.4191 78.3614 97.2773 78.4677 97.1 78.4677C96.8518 78.4677 96.639 78.2727 96.4617 77.8826C96.3908 77.6699 96.1248 77.333 95.6638 76.872C95.2029 76.4465 94.4759 76.2337 93.483 76.2337C92.5965 76.2337 91.8164 76.3401 91.1426 76.5529C91.0717 77.1202 90.8944 77.6699 90.6107 78.2018C90.327 78.7692 89.9724 79.2656 89.5469 79.6911C89.0859 80.1167 88.5717 80.4535 88.0043 80.7018C87.4015 80.95 86.7809 81.0741 86.1426 81.0741C85.6107 81.0741 85.3448 80.8613 85.3448 80.4358C85.3448 80.1876 85.4689 79.8684 85.7171 79.4784C85.9299 79.1238 86.249 78.7337 86.6745 78.3082C87.1001 77.9181 87.6143 77.5458 88.2171 77.1912C88.8199 76.8365 89.4937 76.5174 90.2383 76.2337C90.2383 75.6309 90.0965 75.028 89.8128 74.4252C89.5291 73.8578 89.0504 73.3969 88.3767 73.0422C87.2065 74.3188 86.0008 75.5422 84.7597 76.7124C83.5185 77.9181 82.3129 78.9642 81.1427 79.8507C79.937 80.7727 78.7845 81.4996 77.6852 82.0315C76.5505 82.5989 75.5044 82.8826 74.547 82.8826C73.8732 82.8826 73.3413 82.8117 72.9512 82.6698C72.5257 82.528 72.2066 82.3507 71.9938 82.1379C71.781 81.9606 71.6392 81.7479 71.5683 81.4996C71.4973 81.2869 71.4619 81.0741 71.4619 80.8613C71.4619 79.6557 71.9406 78.5032 72.898 77.4039C73.82 76.3046 74.9902 75.3295 76.4087 74.4784C77.7916 73.6628 79.2987 73.0068 80.9299 72.5103C82.5256 72.0139 83.9795 71.7657 85.2916 71.7657C86.2845 71.7657 87.1533 71.872 87.8979 72.0848C89.2809 70.5245 90.6993 68.8756 92.1532 67.138C93.5717 65.4005 94.9901 63.6629 96.4085 61.9253C97.8269 60.1523 99.2099 58.4147 100.557 56.7126C101.905 54.975 103.182 53.3438 104.387 51.819C104.6 51.5353 104.866 51.3935 105.185 51.3935C105.504 51.3935 105.664 51.553 105.664 51.8722C105.664 52.0495 105.575 52.2622 105.398 52.5105C105.256 52.6523 104.901 53.0601 104.334 53.7339C103.767 54.4076 103.164 55.1346 102.525 55.9147C101.887 56.6594 101.302 57.3509 100.77 57.9892C100.274 58.6275 100.026 58.9998 100.026 59.1062C100.451 58.9289 100.823 58.787 101.143 58.6806C101.462 58.5743 101.816 58.4856 102.206 58.4147C102.596 58.3083 102.969 58.2551 103.323 58.2551C103.784 58.2551 104.174 58.3615 104.494 58.5743C104.813 58.787 104.972 59.1594 104.972 59.6913C104.972 60.2941 104.724 60.9147 104.228 61.553C103.767 62.1558 103.252 62.7409 102.685 63.3083C102.153 63.8756 101.639 64.4076 101.143 64.904C100.682 65.4005 100.451 65.8082 100.451 66.1274C100.451 66.5175 100.699 66.7125 101.196 66.7125C101.586 66.7125 102.135 66.5352 102.845 66.1806C103.554 65.826 104.458 65.1522 105.557 64.1593C105.664 64.0175 105.77 63.9466 105.877 63.9466C106.018 63.9466 106.089 64.0352 106.089 64.2125ZM90.2383 76.8188C89.1745 77.2443 88.3589 77.7585 87.7916 78.3614C87.1887 78.9997 86.8873 79.4961 86.8873 79.8507C86.8873 80.0635 86.9937 80.1699 87.2065 80.1699C87.9866 80.1699 88.6603 79.833 89.2277 79.1592C89.7951 78.4855 90.132 77.7053 90.2383 76.8188ZM87.366 72.6167C86.8341 72.4749 86.1604 72.404 85.3448 72.404C83.9263 72.404 82.4902 72.6344 81.0363 73.0954C79.5469 73.5564 78.1994 74.1593 76.9938 74.9039C75.7881 75.6486 74.8129 76.4997 74.0683 77.4571C73.2881 78.4145 72.898 79.4074 72.898 80.4358C72.898 80.8968 73.0399 81.2869 73.3236 81.606C73.5718 81.9606 74.0683 82.1379 74.8129 82.1379C75.5576 82.1379 76.4087 81.8897 77.3661 81.3932C78.2881 80.9323 79.281 80.2762 80.3448 79.4252C81.4086 78.5741 82.5434 77.5635 83.749 76.3933C84.9192 75.2585 86.1249 73.9997 87.366 72.6167Z" fill="#342619"></path><path d="M116.045 64.2125C116.045 64.3898 115.85 64.6735 115.46 65.0636C115.07 65.4536 114.538 65.8437 113.864 66.2338C113.226 66.6238 112.464 66.9785 111.577 67.2976C110.726 67.5813 109.84 67.7231 108.918 67.7231C107.606 67.7231 106.666 67.4749 106.098 66.9785C105.567 66.4465 105.301 65.8083 105.301 65.0636C105.301 64.3544 105.496 63.6274 105.886 62.8827C106.276 62.1026 106.79 61.3757 107.428 60.7019C108.102 60.0281 108.847 59.4785 109.662 59.053C110.513 58.6275 111.382 58.4147 112.269 58.4147C112.801 58.4147 113.244 58.5388 113.598 58.787C113.953 59.0353 114.13 59.4608 114.13 60.0636C114.13 60.7374 113.9 61.3579 113.439 61.9253C112.978 62.4927 112.393 63.0069 111.684 63.4678C110.974 63.9288 110.194 64.3366 109.343 64.6912C108.528 65.0458 107.747 65.3473 107.003 65.5955C107.286 66.4111 108.067 66.8189 109.343 66.8189C110.265 66.8189 111.24 66.6238 112.269 66.2338C113.332 65.8437 114.414 65.1522 115.513 64.1593C115.62 64.0175 115.726 63.9466 115.832 63.9466C115.974 63.9466 116.045 64.0352 116.045 64.2125ZM112.801 60.4891C112.801 60.0991 112.676 59.8154 112.428 59.6381C112.215 59.4253 111.932 59.3189 111.577 59.3189C111.01 59.3189 110.442 59.4962 109.875 59.8508C109.308 60.2055 108.793 60.6487 108.332 61.1806C107.871 61.7125 107.499 62.2976 107.215 62.9359C106.967 63.5388 106.843 64.1239 106.843 64.6912V65.0636C107.588 64.7799 108.315 64.4785 109.024 64.1593C109.733 63.8047 110.354 63.4324 110.886 63.0423C111.453 62.6522 111.914 62.2444 112.269 61.8189C112.623 61.3934 112.801 60.9501 112.801 60.4891Z" fill="#342619"></path><path d="M126.871 58.7338C126.871 58.8757 126.764 59.053 126.552 59.2657C126.481 59.3367 126.25 59.6026 125.86 60.0636C125.47 60.5246 125.027 61.0211 124.53 61.553C124.069 62.0849 123.644 62.5813 123.254 63.0423C122.864 63.4678 122.633 63.7161 122.562 63.787C122.208 64.1771 121.889 64.5671 121.605 64.9572C121.321 65.3473 121.179 65.7373 121.179 66.1274C121.179 66.5175 121.428 66.7125 121.924 66.7125C122.314 66.7125 122.864 66.5352 123.573 66.1806C124.282 65.826 125.186 65.1522 126.286 64.1593C126.392 64.0175 126.498 63.9466 126.605 63.9466C126.747 63.9466 126.818 64.0352 126.818 64.2125C126.818 64.3898 126.623 64.6735 126.233 65.0636C125.842 65.4536 125.346 65.8437 124.743 66.2338C124.14 66.5884 123.484 66.9075 122.775 67.1912C122.101 67.4749 121.445 67.6168 120.807 67.6168C120.027 67.6168 119.637 67.209 119.637 66.3934C119.637 65.826 119.867 65.2763 120.328 64.7444C120.789 64.1771 121.215 63.6629 121.605 63.2019C121.995 62.7409 122.403 62.2444 122.828 61.7125C123.254 61.1806 123.662 60.6842 124.052 60.2232C124.442 59.7622 124.779 59.3721 125.062 59.053C125.346 58.7338 125.523 58.5565 125.594 58.5211C125.807 58.3083 126.037 58.2019 126.286 58.2019C126.428 58.2019 126.552 58.2551 126.658 58.3615C126.8 58.4679 126.871 58.592 126.871 58.7338ZM115.222 64.2125C115.328 63.9998 115.559 63.6629 115.913 63.2019C116.304 62.7409 116.765 62.209 117.296 61.6062C117.828 61.0033 118.413 60.3828 119.052 59.7445C119.725 59.0707 120.382 58.4502 121.02 57.8828C121.091 57.8119 121.215 57.7764 121.392 57.7764C121.569 57.7055 121.658 57.7409 121.658 57.8828C121.729 57.9892 121.747 58.0601 121.711 58.0955C121.64 58.2728 121.534 58.4856 121.392 58.7338C121.286 58.9466 121.179 59.1771 121.073 59.4253C120.967 59.6735 120.878 59.9218 120.807 60.17C120.772 60.3828 120.789 60.5955 120.86 60.8083C120.967 61.1274 121.162 61.3579 121.445 61.4998C121.729 61.6416 122.048 61.6771 122.403 61.6062C122.722 61.5352 122.97 61.4111 123.147 61.2338C123.218 61.1629 123.254 61.1097 123.254 61.0742C123.289 61.0388 123.342 61.0033 123.413 60.9679C123.555 60.9324 123.679 61.0033 123.786 61.1806V61.3402C123.715 61.482 123.449 61.6948 122.988 61.9785C122.527 62.2267 122.101 62.3863 121.711 62.4572C121.321 62.5281 120.913 62.5281 120.488 62.4572C120.062 62.3508 119.761 62.1026 119.584 61.7125C119.442 61.3225 119.46 61.0211 119.637 60.8083C119.814 60.5601 119.867 60.3118 119.796 60.0636C119.761 60.0281 119.708 60.0104 119.637 60.0104C119.601 60.0104 119.406 60.1877 119.052 60.5423C118.733 60.8969 118.36 61.3225 117.935 61.8189C117.509 62.2799 117.084 62.7586 116.658 63.2551C116.233 63.7161 115.931 64.0707 115.754 64.3189L115.435 64.3721L115.222 64.2125Z" fill="#342619"></path><path d="M140.191 64.2125C140.191 64.3898 139.996 64.6735 139.606 65.0636C139.216 65.4536 138.719 65.8437 138.117 66.2338C137.514 66.5884 136.858 66.9075 136.149 67.1912C135.475 67.4749 134.819 67.6168 134.18 67.6168C133.4 67.6168 133.01 67.209 133.01 66.3934C133.01 66.1806 133.046 65.9678 133.117 65.7551C133.188 65.5423 133.258 65.3473 133.329 65.17C133.436 64.9572 133.524 64.7622 133.595 64.5849C133.595 64.4785 133.578 64.443 133.542 64.4785C132.833 65.0458 132.141 65.5423 131.468 65.9678C130.865 66.3579 130.227 66.7125 129.553 67.0316C128.879 67.3508 128.241 67.5104 127.638 67.5104C126.61 67.5104 126.095 67.1558 126.095 66.4465C126.095 66.0565 126.237 65.5778 126.521 65.0104C126.84 64.443 127.212 63.8579 127.638 63.2551C128.099 62.6522 128.578 62.0671 129.074 61.4998C129.606 60.8969 130.085 60.3828 130.51 59.9572C130.936 59.4962 131.29 59.1416 131.574 58.8934C131.893 58.6097 132.035 58.4856 132 58.5211C132.177 58.3438 132.372 58.2551 132.585 58.2551C132.868 58.2551 133.01 58.3792 133.01 58.6275C133.01 58.8402 132.886 59.0707 132.638 59.3189C132.212 59.7799 131.716 60.3296 131.149 60.9679C130.581 61.6062 130.032 62.2444 129.5 62.8827C128.968 63.4856 128.524 64.0707 128.17 64.638C127.815 65.17 127.638 65.5955 127.638 65.9146C127.638 66.3047 127.922 66.4997 128.489 66.4997C128.985 66.4997 129.588 66.287 130.297 65.8614C131.007 65.4005 131.68 64.9217 132.319 64.4253C133.063 63.8225 133.844 63.1487 134.659 62.404C135.368 61.8012 135.989 61.2161 136.521 60.6487C137.053 60.0813 137.443 59.6204 137.691 59.2657C138.01 58.8757 138.347 58.6806 138.702 58.6806C138.985 58.6806 139.127 58.8048 139.127 59.053C139.127 59.2303 139.039 59.4076 138.861 59.5849C138.719 59.7267 138.542 59.9218 138.329 60.17C138.223 60.3118 137.975 60.5778 137.585 60.9679C137.23 61.3579 136.84 61.7835 136.414 62.2444C136.024 62.67 135.67 63.0778 135.351 63.4678C135.032 63.8579 134.836 64.1061 134.766 64.2125C134.695 64.3898 134.588 64.638 134.446 64.9572C134.305 65.2763 134.234 65.5778 134.234 65.8614C134.234 66.4288 134.588 66.7125 135.297 66.7125C135.688 66.7125 136.237 66.5352 136.946 66.1806C137.656 65.826 138.56 65.1522 139.659 64.1593C139.766 64.0175 139.872 63.9466 139.978 63.9466C140.12 63.9466 140.191 64.0352 140.191 64.2125Z" fill="#342619"></path><path d="M166.603 35.6489C165.574 36.2163 164.28 37.2978 162.72 38.8936C161.407 40.2411 159.723 42.2269 157.666 44.851C155.61 47.4396 153.163 50.9502 150.326 55.3828L149.369 56.819C149.085 57.209 148.819 57.6168 148.571 58.0424C148.322 58.4324 148.145 58.7338 148.039 58.9466C147.861 59.3367 147.702 59.709 147.56 60.0636C147.454 60.4182 147.312 60.5955 147.135 60.5955C146.886 60.5955 146.727 60.5601 146.656 60.4891C146.62 60.3828 146.603 60.2409 146.603 60.0636C146.603 59.9218 146.62 59.7977 146.656 59.6913C147.223 58.6629 147.879 57.5636 148.624 56.3934C149.369 55.2232 150.166 54.0353 151.018 52.8296C151.869 51.5885 152.737 50.3651 153.624 49.1594C154.51 47.9183 155.379 46.7304 156.23 45.5956C158.216 42.9361 160.273 40.2765 162.4 37.617C162.861 37.085 163.287 36.6241 163.677 36.234C164.032 35.8794 164.386 35.5602 164.741 35.2766C165.095 34.9929 165.379 34.851 165.592 34.851C165.876 34.8865 166.106 34.9574 166.283 35.0638C166.496 35.1347 166.603 35.3297 166.603 35.6489ZM145.379 66.0742C145.379 66.3224 145.291 66.5707 145.113 66.8189C144.936 67.0671 144.776 67.2444 144.635 67.3508C144.386 67.5281 144.138 67.6168 143.89 67.6168C143.713 67.6168 143.535 67.5636 143.358 67.4572C143.216 67.3863 143.145 67.2089 143.145 66.9253C143.145 66.6416 143.287 66.3047 143.571 65.9146C143.89 65.5246 144.244 65.3295 144.635 65.3295C144.812 65.3295 144.971 65.4182 145.113 65.5955C145.291 65.7373 145.379 65.8969 145.379 66.0742Z" fill="#342619"></path></svg> 