<?xml version="1.0" encoding="UTF-8"?> <svg xmlns="http://www.w3.org/2000/svg" width="78" height="78" viewBox="0 0 78 78" fill="none"><circle cx="39" cy="39" r="38.5979" stroke="#342619" stroke-width="0.804124"></circle><path d="M31.3479 64.7371L29.844 68.8962L28.0896 68.2618C27.6964 68.1197 27.4193 67.9083 27.2585 67.6279C27.0927 67.3456 27.0699 67.0381 27.1902 66.7053C27.2941 66.418 27.4738 66.2207 27.7291 66.1135C27.9845 66.0063 28.2685 66.0093 28.5811 66.1223L28.5619 66.1752C28.2241 66.0531 27.9847 65.8639 27.8436 65.6077C27.7026 65.3514 27.6867 65.0721 27.7961 64.7696C27.9237 64.4167 28.1493 64.1791 28.4729 64.0566C28.7965 63.9342 29.1675 63.9487 29.5859 64.1L31.3479 64.7371ZM30.695 65.0055L29.4246 64.5461C29.1675 64.4532 28.9346 64.443 28.7258 64.5158C28.5153 64.5936 28.3708 64.7409 28.2925 64.9576C28.2123 65.1795 28.2282 65.3876 28.3403 65.582C28.4524 65.7765 28.637 65.9202 28.8941 66.0132L30.1646 66.4725L30.695 65.0055ZM30.006 66.9111L28.7431 66.4545C28.5112 66.3706 28.3003 66.3628 28.1103 66.4309C27.9135 66.5023 27.7786 66.6388 27.7057 66.8404C27.631 67.0471 27.6439 67.2399 27.7446 67.4188C27.8452 67.5977 28.014 67.73 28.2509 67.8157L29.5138 68.2723L30.006 66.9111Z" fill="#342619"></path><path d="M26.8658 62.9537L24.6462 66.7791L24.1872 66.5127L25.1355 64.8782L24.3287 64.4101L22.2119 65.3666L21.6763 65.0559L24.0163 63.9871L23.8751 61.2184L24.4176 61.5332L24.5599 63.9957L25.3736 64.4679L26.4068 62.6873L26.8658 62.9537Z" fill="#342619"></path><path d="M23.2941 60.7662L22.9611 61.1586L22.8262 61.0442C22.6586 60.902 22.4692 60.8643 22.2578 60.931C22.0465 60.9978 21.8174 61.1725 21.5705 61.4552L19.6911 63.5831L17.5451 61.7622L20.4066 58.3899L20.8112 58.7333L18.2619 61.7377L19.5986 62.8719L21.1824 61.1047C21.4154 60.8384 21.6447 60.6428 21.8703 60.5178C22.0958 60.3928 22.316 60.3405 22.5306 60.361C22.7412 60.378 22.9466 60.4714 23.1469 60.6414L23.2941 60.7662Z" fill="#342619"></path><path d="M17.8677 55.4071C18.106 55.697 18.1997 56.0051 18.1489 56.3315C18.098 56.6579 17.9111 56.9539 17.5881 57.2195L17.0105 57.6944L17.5314 58.328L19.1028 57.0358L19.4194 57.4209L16.0034 60.2299L15.6867 59.8448L17.2084 58.5935L16.6875 57.96L16.1595 58.3941C15.8324 58.6631 15.5059 58.7893 15.18 58.7728C14.8499 58.7596 14.5657 58.6081 14.3274 58.3183C14.0822 58.0202 13.9834 57.7058 14.0308 57.3753C14.0708 57.044 14.2543 56.7439 14.5814 56.4749L16.0099 55.3002C16.3329 55.0347 16.6628 54.9126 16.9997 54.934C17.3332 54.9513 17.6225 55.109 17.8677 55.4071ZM17.5261 55.688C17.3762 55.5059 17.1967 55.4141 16.9873 55.4127C16.7704 55.4106 16.5502 55.5015 16.3266 55.6853L14.898 56.86C14.6744 57.0439 14.5448 57.2407 14.5091 57.4505C14.4659 57.6596 14.5192 57.8552 14.669 58.0374C14.8188 58.2196 15.0004 58.3097 15.2139 58.3076C15.4233 58.309 15.6397 58.2178 15.8633 58.0339L17.2919 56.8592C17.5155 56.6754 17.6489 56.4789 17.6921 56.2698C17.7312 56.0642 17.6759 55.8702 17.5261 55.688Z" fill="#342619"></path><path d="M15.061 51.1376L13.6112 51.9389C13.6642 52.0015 13.748 52.1144 13.8627 52.2777C13.9728 52.4435 14.09 52.639 14.2145 52.8642C14.4707 53.3167 14.5513 53.7285 14.4563 54.0996C14.3565 54.4732 14.0955 54.7767 13.6733 55.0101L12.505 55.6558L12.2483 55.1913L13.4165 54.5456C13.7074 54.3848 13.8849 54.1795 13.949 53.9298C14.013 53.68 13.9582 53.3979 13.7845 53.0835C13.6522 52.8442 13.5336 52.6464 13.4288 52.49C13.3193 52.3361 13.2393 52.2302 13.1889 52.1723L11.1902 53.2771L10.9335 52.8126L14.8043 50.6731L15.061 51.1376Z" fill="#342619"></path><path d="M14.1212 49.1291L9.931 50.5441L9.76634 50.0565L12.2805 49.2075C12.4176 49.1612 12.5632 49.1148 12.7173 49.0685C12.8714 49.0221 13.0212 48.98 13.1669 48.9421C13.3057 48.9009 13.4251 48.869 13.5251 48.8466L9.14373 48.2128L8.92247 47.5576L13.1127 46.1426L13.2773 46.6302L10.7632 47.4792C10.6261 47.5255 10.4805 47.5719 10.3264 47.6182C10.1723 47.6646 10.0233 47.7093 9.87936 47.7522C9.73371 47.7901 9.61346 47.8194 9.51861 47.8401L13.8999 48.4739L14.1212 49.1291Z" fill="#342619"></path><path d="M12.5339 43.2382L8.65226 43.8142L8.88834 45.4051L8.39519 45.4782L7.84511 41.7716L8.33826 41.6984L8.57435 43.2893L12.456 42.7132L12.5339 43.2382Z" fill="#342619"></path><path d="M12.1659 39.735L7.74481 39.6173L7.75894 39.0867L9.38269 39.13L9.41907 37.7634C9.43205 37.2758 9.56826 36.8933 9.82769 36.616C10.0871 36.3387 10.4312 36.2057 10.8599 36.2171C11.2833 36.2284 11.6197 36.3821 11.8692 36.6784C12.1135 36.9691 12.2293 37.3556 12.2164 37.8379L12.1659 39.735ZM11.6977 39.1916L11.7341 37.8251C11.743 37.4928 11.6694 37.2335 11.5135 37.047C11.3576 36.8605 11.1349 36.7634 10.8456 36.7557C10.5562 36.748 10.3287 36.8331 10.1631 37.011C9.99745 37.1889 9.91022 37.444 9.90137 37.7763L9.86499 39.1428L11.6977 39.1916Z" fill="#342619"></path><path d="M13.5099 30.4372L9.42177 28.7499L9.70709 28.0586L11.7671 28.1259C11.9164 28.1296 12.0721 28.1387 12.2342 28.1535C12.3914 28.1661 12.5172 28.1775 12.6117 28.1875C12.5356 28.1329 12.4374 28.0546 12.3171 27.9528C12.1918 27.8489 12.0739 27.748 11.9635 27.6502L10.4495 26.2598L10.7349 25.5686L14.823 27.2559L14.6266 27.7316L13.2144 27.1487C13.0112 27.0649 12.8016 26.9755 12.5856 26.8805C12.3697 26.7856 12.1561 26.6916 11.9451 26.5987C11.7341 26.5058 11.5379 26.4191 11.3566 26.3384C11.1753 26.2578 11.0188 26.1874 10.887 26.1272L13.0505 28.0728L12.8357 28.5931L9.93113 28.4643C10.1037 28.5239 10.3223 28.6054 10.587 28.7089C10.8467 28.8103 11.1263 28.9198 11.4256 29.0376C11.7221 29.1484 12.0115 29.262 12.294 29.3786L13.7063 29.9615L13.5099 30.4372Z" fill="#342619"></path><path d="M17.1307 26.1121L16.0125 24.6225L11.654 23.7791L11.9706 23.2848L14.8904 23.8847C15.0247 23.9135 15.1636 23.9451 15.307 23.9796C15.4504 24.0142 15.5632 24.0419 15.6454 24.0627C15.5921 23.9967 15.5183 23.9081 15.4241 23.7968C15.3282 23.6781 15.2377 23.566 15.1525 23.4605L13.3584 21.1179L13.6663 20.6371L17.4299 25.6448L17.1307 26.1121Z" fill="#342619"></path><path d="M19.23 21.0043C18.9204 21.3385 18.6036 21.5384 18.2799 21.6038C17.9522 21.6656 17.6445 21.6034 17.3567 21.4171L17.7283 21.016C17.8984 21.1006 18.0851 21.12 18.2882 21.0743C18.491 21.0211 18.6889 20.8902 18.882 20.6818L19.1662 20.3751C19.3557 20.1706 19.4517 19.9526 19.4542 19.7211C19.4604 19.4857 19.3809 19.2915 19.2158 19.1384C19.0388 18.9745 18.8368 18.9006 18.6098 18.9169C18.3865 18.9292 18.1783 19.0396 17.9852 19.248L17.302 19.9853L16.954 19.6629L17.6317 18.9314C17.8102 18.7387 17.8995 18.5438 17.8996 18.3465C17.8994 18.1417 17.8186 17.9646 17.6574 17.8152C17.5512 17.7168 17.4294 17.6551 17.2918 17.63C17.1543 17.6049 17.0164 17.6196 16.8782 17.6742C16.7359 17.7251 16.6084 17.8116 16.4954 17.9335L16.2003 18.252C16.0145 18.4526 15.912 18.6499 15.8929 18.8441C15.8737 19.0383 15.9166 19.2169 16.0214 19.3798L15.6498 19.7809C15.4421 19.5081 15.3512 19.2119 15.3769 18.8923C15.3987 18.569 15.5572 18.2481 15.8523 17.9296L16.1474 17.611C16.3405 17.4026 16.5474 17.2582 16.7682 17.1777C16.9886 17.0896 17.2058 17.0642 17.4196 17.1016C17.6332 17.1314 17.8285 17.2283 18.0054 17.3922C18.206 17.578 18.3203 17.7899 18.3483 18.0278C18.3764 18.2657 18.3053 18.4922 18.1353 18.7074L18.1589 18.7292C18.3932 18.5079 18.6358 18.4038 18.8867 18.417C19.1375 18.4301 19.375 18.5406 19.5992 18.7483C19.8745 19.0033 20.0057 19.3112 19.9929 19.6721C19.9798 20.0254 19.8203 20.3672 19.5142 20.6975L19.23 21.0043Z" fill="#342619"></path><path d="M21.4253 18.6831L18.763 15.1514L19.174 14.8416L20.176 16.1708L20.5227 15.9094C20.8951 15.6287 21.2647 15.5045 21.6315 15.5368C22.0025 15.5659 22.3155 15.7496 22.5704 16.0878C22.8286 16.4302 22.9227 16.7822 22.8529 17.1437C22.783 17.5052 22.5597 17.8279 22.183 18.1119L21.4253 18.6831ZM21.5652 18.0137L21.9119 17.7523C22.173 17.5555 22.3258 17.3396 22.3703 17.1047C22.4158 16.8623 22.3498 16.6233 22.1723 16.3879C21.9981 16.1567 21.7898 16.0318 21.5474 16.0131C21.3061 15.9869 21.0549 16.0722 20.7938 16.269L20.447 16.5304L21.5652 18.0137ZM23.9167 16.805L21.2544 13.2733L21.6654 12.9635L24.3276 16.4952L23.9167 16.805Z" fill="#342619"></path><path d="M25.5603 15.7571L23.5668 11.8092L24.0405 11.57L24.8923 13.2568L25.725 12.8363L26.0791 10.5406L26.6318 10.2615L26.2499 12.8055L28.6469 14.1985L28.087 14.4812L25.946 13.2562L25.1062 13.6803L26.0341 15.5179L25.5603 15.7571Z" fill="#342619"></path><path d="M30.9716 14.9262L31.099 13.068L28.3515 9.58096L28.9142 9.41376L30.7319 11.7762C30.8148 11.8857 30.8992 12.0005 30.9852 12.1203C31.0711 12.2402 31.1384 12.3349 31.187 12.4043C31.1898 12.3196 31.1919 12.2043 31.1933 12.0585C31.1983 11.906 31.203 11.762 31.2075 11.6265L31.3809 8.68084L31.9281 8.51822L31.5035 14.7682L30.9716 14.9262Z" fill="#342619"></path><path d="M44.0964 12.6401L45.1829 8.35294L46.9913 8.81122C47.3966 8.91394 47.6931 9.09692 47.8808 9.36017C48.0737 9.62473 48.1266 9.92849 48.0397 10.2715C47.9647 10.5677 47.8053 10.7817 47.5618 10.9135C47.3182 11.0454 47.0354 11.0705 46.7132 10.9888L46.727 10.9342C47.0752 11.0225 47.3321 11.1871 47.4977 11.4282C47.6634 11.6693 47.7067 11.9457 47.6277 12.2575C47.5355 12.6213 47.3344 12.88 47.0245 13.0337C46.7145 13.1874 46.3439 13.2097 45.9126 13.1004L44.0964 12.6401ZM44.7196 12.3086L46.0291 12.6405C46.2942 12.7076 46.5269 12.6947 46.7275 12.6018C46.9293 12.5036 47.0586 12.3428 47.1152 12.1193C47.1731 11.8907 47.1367 11.6851 47.006 11.5027C46.8753 11.3202 46.6774 11.1954 46.4124 11.1283L45.1028 10.7964L44.7196 12.3086ZM45.2174 10.3443L46.5191 10.6742C46.7582 10.7348 46.9689 10.7218 47.1512 10.6353C47.34 10.5449 47.4607 10.3957 47.5134 10.1879C47.5674 9.9748 47.5355 9.78422 47.4177 9.61612C47.3 9.44801 47.119 9.33301 46.8747 9.27112L45.573 8.94123L45.2174 10.3443Z" fill="#342619"></path><path d="M48.7323 13.9729L50.5645 9.94762L51.0476 10.1675L50.2647 11.8874L51.1137 12.2738L53.1261 11.1136L53.6897 11.3701L51.4662 12.664L51.8794 15.4054L51.3085 15.1455L50.9245 12.709L50.0682 12.3192L49.2154 14.1928L48.7323 13.9729Z" fill="#342619"></path><path d="M52.502 15.7983L52.795 15.3752L52.9404 15.4759C53.1211 15.601 53.3133 15.6201 53.5171 15.533C53.7209 15.4459 53.9318 15.2496 54.1499 14.9442L55.8123 12.6426L58.126 14.2451L55.6079 17.8809L55.1716 17.5787L57.415 14.3395L55.9739 13.3415L54.5704 15.255C54.3646 15.5428 54.1555 15.7599 53.9432 15.9063C53.731 16.0528 53.517 16.1263 53.3014 16.1269C53.0901 16.1306 52.8766 16.0577 52.6606 15.9081L52.502 15.7983Z" fill="#342619"></path><path d="M58.4236 20.6042C58.1584 20.3387 58.0354 20.041 58.0545 19.7113C58.0737 19.3815 58.2312 19.0688 58.527 18.7734L59.0562 18.2449L58.4766 17.6645L57.0371 19.1022L56.6848 18.7495L59.814 15.6241L60.1663 15.9768L58.7724 17.3691L59.352 17.9494L59.8356 17.4664C60.1353 17.1671 60.4481 17.01 60.7741 16.995C61.1039 16.9763 61.4014 17.0996 61.6666 17.3651C61.9393 17.6382 62.068 17.9416 62.0527 18.2751C62.0449 18.6087 61.8912 18.9251 61.5915 19.2244L60.2829 20.5314C59.9871 20.8269 59.6705 20.9802 59.3331 20.9914C58.9995 21.0064 58.6963 20.8773 58.4236 20.6042ZM58.7365 20.2916C58.9032 20.4585 59.0908 20.5326 59.2993 20.5137C59.5154 20.4949 59.7258 20.3832 59.9306 20.1787L61.2392 18.8717C61.444 18.6671 61.5541 18.4587 61.5694 18.2464C61.5923 18.0342 61.5204 17.8446 61.3537 17.6777C61.187 17.5108 60.9975 17.4387 60.7852 17.4613C60.5767 17.4801 60.37 17.5918 60.1652 17.7964L58.8566 19.1033C58.6518 19.3079 58.538 19.5163 58.5151 19.7286C58.496 19.9371 58.5698 20.1248 58.7365 20.2916Z" fill="#342619"></path><path d="M61.6339 24.5797L62.998 23.6399C62.9391 23.5829 62.8446 23.4787 62.7144 23.3275C62.5886 23.1733 62.4527 22.9903 62.3068 22.7784C62.0073 22.3532 61.8867 21.9513 61.9449 21.5727C62.0074 21.1911 62.2374 20.8634 62.6347 20.5897L63.7339 19.8324L64.035 20.2695L62.9358 21.0268C62.6621 21.2153 62.5056 21.437 62.4664 21.6919C62.4271 21.9468 62.5094 22.2221 62.7132 22.5179C62.8683 22.743 63.0057 22.9283 63.1254 23.0737C63.2495 23.216 63.3395 23.3135 63.3953 23.3662L65.2759 22.0706L65.577 22.5076L61.935 25.0168L61.6339 24.5797Z" fill="#342619"></path><path d="M62.7666 26.4859L66.7965 24.6638L67.0086 25.1327L64.5906 26.226C64.4587 26.2856 64.3184 26.3461 64.1697 26.4075C64.0209 26.4688 63.876 26.5256 63.7348 26.5776C63.6007 26.6324 63.485 26.6759 63.3878 26.7081L67.8103 26.9058L68.0952 27.536L64.0653 29.3581L63.8533 28.8892L66.2712 27.7959C66.4031 27.7363 66.5434 27.6757 66.6922 27.6144C66.8409 27.553 66.9848 27.4938 67.1238 27.4369C67.265 27.3848 67.3817 27.3438 67.4741 27.3138L63.0516 27.116L62.7666 26.4859Z" fill="#342619"></path><path d="M64.9269 32.1915L68.7332 31.2372L68.3421 29.6773L68.8257 29.556L69.737 33.1908L69.2534 33.312L68.8623 31.752L65.0559 32.7063L64.9269 32.1915Z" fill="#342619"></path><path d="M65.635 35.6418L70.047 35.3345L70.0839 35.8639L68.4635 35.9768L68.5585 37.3405C68.5924 37.8272 68.4935 38.221 68.2619 38.5219C68.0303 38.8229 67.7006 38.9882 67.2728 39.018C66.8503 39.0475 66.5007 38.9267 66.2238 38.6558C65.9528 38.3899 65.8004 38.0163 65.7669 37.535L65.635 35.6418ZM66.1532 36.1378L66.2482 37.5015C66.2713 37.833 66.3694 38.0841 66.5425 38.2548C66.7156 38.4254 66.9466 38.5007 67.2354 38.4806C67.5241 38.4605 67.7424 38.3539 67.8902 38.1609C68.038 37.9679 68.1003 37.7056 68.0772 37.3741L67.9822 36.0103L66.1532 36.1378Z" fill="#342619"></path><path d="M65.2008 45.0264L69.4345 46.3052L69.2183 47.0211L67.1616 47.1559C67.0127 47.1669 66.8568 47.173 66.694 47.1743C66.5364 47.1771 66.4101 47.1781 66.3151 47.1774C66.3961 47.2243 66.5015 47.2925 66.6313 47.3821C66.7661 47.4733 66.8933 47.5621 67.0128 47.6486L68.6557 48.884L68.4394 49.5999L64.2057 48.3211L64.3545 47.8284L65.817 48.2702C66.0274 48.3337 66.2448 48.4022 66.469 48.4755C66.6933 48.5488 66.915 48.6214 67.1341 48.6932C67.3532 48.765 67.5569 48.8321 67.7452 48.8946C67.9336 48.9571 68.0962 49.0118 68.2333 49.0588L65.8896 47.3345L66.0524 46.7957L68.9556 46.6394C68.778 46.5969 68.5525 46.5372 68.2789 46.4602C68.0105 46.3847 67.7216 46.303 67.4121 46.2152C67.1063 46.134 66.8071 46.0492 66.5145 45.9609L65.052 45.5191L65.2008 45.0264Z" fill="#342619"></path><path d="M62.0215 49.6851L63.2804 51.0578L67.7007 51.4693L67.4342 51.9923L64.4696 51.6818C64.3331 51.6664 64.1918 51.6485 64.0457 51.6283C63.8996 51.608 63.7846 51.5915 63.7008 51.5789C63.7603 51.6393 63.8424 51.7202 63.9471 51.8217C64.0541 51.9304 64.1553 52.0331 64.2504 52.1297L66.2658 54.2849L66.0065 54.7936L61.7696 50.1795L62.0215 49.6851Z" fill="#342619"></path><path d="M60.4339 54.973C60.7093 54.6101 61.0049 54.3801 61.3207 54.2833C61.6407 54.1896 61.9531 54.2214 62.2578 54.3786L61.9272 54.8142C61.7496 54.7467 61.562 54.7457 61.3644 54.811C61.1677 54.8839 60.9835 55.0335 60.8118 55.2598L60.559 55.5929C60.3905 55.815 60.3163 56.0414 60.3365 56.272C60.3534 56.5069 60.4515 56.6924 60.6309 56.8285C60.8231 56.9743 61.0313 57.028 61.2556 56.9896C61.4767 56.9555 61.6731 56.8252 61.8448 56.5989L62.4524 55.7982L62.8304 56.085L62.2276 56.8793C62.0688 57.0886 61.9991 57.2913 62.0183 57.4877C62.0386 57.6915 62.1363 57.8598 62.3114 57.9927C62.4267 58.0802 62.554 58.1297 62.6933 58.1412C62.8327 58.1527 62.9684 58.1245 63.1007 58.0566C63.2372 57.992 63.3557 57.8935 63.4562 57.7611L63.7187 57.4152C63.884 57.1974 63.9666 56.9909 63.9666 56.7958C63.9667 56.6007 63.9065 56.4272 63.7862 56.2753L64.1168 55.8397C64.3501 56.0909 64.4697 56.3767 64.4754 56.6974C64.4854 57.0212 64.3591 57.3561 64.0966 57.702L63.8341 58.0479C63.6624 58.2742 63.4706 58.4383 63.2588 58.54C63.0481 58.6493 62.8344 58.6958 62.6179 58.6795C62.4025 58.6708 62.1987 58.5936 62.0065 58.4477C61.7887 58.2825 61.6542 58.0828 61.603 57.8488C61.5517 57.6148 61.6002 57.3824 61.7484 57.1516L61.7228 57.1322C61.5113 57.3754 61.28 57.5028 61.0291 57.5143C60.7781 57.5257 60.5309 57.4391 60.2875 57.2544C59.9886 57.0275 59.8278 56.7339 59.8052 56.3735C59.7836 56.0207 59.9089 55.6649 60.1811 55.3061L60.4339 54.973Z" fill="#342619"></path><path d="M58.4772 57.4977L61.4737 60.7505L61.0952 61.0992L59.9674 59.875L59.6481 60.1692C59.305 60.4851 58.9494 60.6451 58.5813 60.6489C58.2092 60.6564 57.8796 60.5044 57.5927 60.193C57.3021 59.8775 57.1739 59.5365 57.2079 59.1699C57.2419 58.8033 57.4324 58.4602 57.7793 58.1405L58.4772 57.4977ZM58.4038 58.1775L58.0844 58.4718C57.8439 58.6933 57.7131 58.9232 57.6919 59.1613C57.6705 59.407 57.7596 59.6383 57.9594 59.8552C58.1555 60.0681 58.3751 60.1719 58.6181 60.1667C58.8608 60.1691 59.1024 60.0595 59.343 59.838L59.6623 59.5438L58.4038 58.1775ZM56.1825 59.6116L59.179 62.8644L58.8005 63.2131L55.804 59.9602L56.1825 59.6116Z" fill="#342619"></path><path d="M54.6502 60.8166L57.0256 64.5472L56.5779 64.8323L55.563 63.2383L54.7762 63.7392L54.6516 66.0588L54.1293 66.3914L54.2569 63.822L51.7336 62.6737L52.2626 62.3368L54.5146 63.3434L55.3082 62.8381L54.2026 61.1016L54.6502 60.8166Z" fill="#342619"></path><path d="M49.3466 62.1824L49.4058 64.044L52.4883 67.2387L51.9451 67.4613L49.9002 65.2926C49.8068 65.1919 49.7113 65.0862 49.6138 64.9755C49.5163 64.8649 49.4399 64.7774 49.3846 64.7132C49.3903 64.7978 49.3997 64.9127 49.4129 65.0579C49.4232 65.2101 49.4329 65.3539 49.442 65.4892L49.5642 68.4374L49.036 68.6539L48.8332 62.3929L49.3466 62.1824Z" fill="#342619"></path></svg> 