<?xml version="1.0" encoding="UTF-8"?> <svg xmlns="http://www.w3.org/2000/svg" width="22" height="22" viewBox="0 0 22 22" fill="none"><path d="M11 21C16.523 21 21 16.523 21 11C21 5.477 16.523 1 11 1C5.477 1 1 5.477 1 11C1 16.523 5.477 21 11 21Z" fill="#342619"></path><path d="M20 11C20 6.02928 15.9707 2 11 2C6.02928 2 2 6.02928 2 11C2 15.9707 6.02928 20 11 20C15.9707 20 20 15.9707 20 11ZM22 11C22 17.0753 17.0753 22 11 22C4.92472 22 0 17.0753 0 11C0 4.92472 4.92472 0 11 0C17.0753 0 22 4.92472 22 11Z" fill="#342619"></path><path d="M9 11V7.53601L12 9.26801L15 11L12 12.732L9 14.464V11Z" fill="#E6E2D6"></path><path d="M8.5 6.66982C8.80936 6.49125 9.19064 6.49125 9.5 6.66982L15.5 10.1337C15.8094 10.3123 16 10.6427 16 10.9999C16 11.3572 15.8094 11.6875 15.5 11.8661L9.5 15.33C9.1906 15.5086 8.8094 15.5086 8.5 15.33C8.19062 15.1513 8 14.821 8 14.4638V7.53603C8 7.17876 8.1906 6.84845 8.5 6.66982ZM10 12.7313L13 10.9999L10 9.26747V12.7313Z" fill="#E6E2D6"></path></svg> 