<?xml version="1.0" encoding="UTF-8"?> <svg xmlns="http://www.w3.org/2000/svg" width="197" height="74" viewBox="0 0 197 74" fill="none"><path d="M131.876 1.38895C131.881 2.8049 131.349 4.23059 130.28 5.66601C129.26 7.03871 127.898 8.39701 126.194 9.74088C124.49 11.0848 122.556 12.4004 120.392 13.6879C118.221 14.9195 116.015 16.0988 113.775 17.2257C111.406 20.5217 108.876 24.1209 106.185 28.0233C103.488 31.8699 100.738 35.7513 97.9352 39.6674C95.1886 43.5767 92.4004 47.3779 89.5704 51.0708C86.7336 54.708 83.9635 57.9685 81.2602 60.8526C78.5569 63.7366 75.9589 66.0976 73.4663 67.9356C71.0295 69.7668 68.7786 70.81 66.7136 71.0652C64.9277 71.286 63.5888 70.9982 62.6971 70.2018C61.8123 69.4612 61.2802 68.3654 61.1008 66.9143C60.9007 65.2958 61.0988 63.2315 61.6951 60.7212C59.9281 62.4696 58.1472 64.1063 56.3525 65.6314C54.5578 67.1565 52.8017 68.5352 51.0841 69.7675C49.4155 70.937 47.8308 71.8695 46.3302 72.565C44.8365 73.3162 43.4758 73.7678 42.2479 73.9195C41.0201 74.0713 39.8973 73.9268 38.8795 73.486C37.9176 73.0383 37.3538 72.1447 37.1882 70.8052C36.9813 69.1309 37.4443 67.1471 38.5774 64.8539C39.7663 62.5537 41.245 60.0761 43.0133 57.4209C44.8374 54.7589 46.8152 51.9646 48.9466 49.038C51.1338 46.1044 53.0943 43.1706 54.8282 40.2364C56.6178 37.2953 58.0481 34.427 59.1192 31.6315C60.246 28.829 60.6611 26.2279 60.3644 23.828C60.0746 21.484 59.1252 19.5331 57.5161 17.9755C55.9559 16.3551 53.7526 15.7209 50.9062 16.0727C49.0087 16.3073 47.1911 16.7303 45.4535 17.3417C43.7158 17.9532 41.9989 18.732 40.3026 19.6783C40.9987 20.7256 41.433 21.9468 41.6055 23.3421C41.7021 24.1234 41.7149 24.9151 41.6441 25.7171C42.0768 25.5503 42.5374 25.3801 43.0258 25.2064C43.5143 25.0326 43.9818 24.9182 44.4283 24.863C46.0468 24.6629 47.2323 24.8564 47.9848 25.4433C48.7863 25.9675 49.256 26.7877 49.3939 27.904C49.5457 29.1318 49.331 30.6032 48.7497 32.3183C48.1684 34.0334 47.315 35.8388 46.1894 37.7345C45.0569 39.5744 43.7012 41.4419 42.1223 43.337C40.5991 45.2251 38.9157 46.9631 37.0721 48.5509C35.2774 50.076 33.3993 51.3848 31.4378 52.4772C29.4694 53.5138 27.5086 54.1529 25.5552 54.3943C23.267 54.6772 21.5585 54.3784 20.4297 53.498C19.3009 52.6176 18.6331 51.3403 18.4261 49.6659C18.1915 47.7684 18.5085 45.5193 19.3769 42.9188C20.2943 40.2556 21.6303 37.5406 23.3848 34.7738C25.1882 31.9444 27.3717 29.2096 29.9352 26.5696C32.5545 23.9226 35.4174 21.6422 38.5239 19.7282C37.6046 18.7086 36.3222 17.9605 34.6767 17.484C33.087 17.0005 30.9528 16.9244 28.2739 17.2555C26.0414 17.5315 23.54 18.1523 20.7696 19.1181C17.9922 20.0281 15.5005 21.186 13.2945 22.592C12.0309 23.3715 10.7846 24.2905 9.55553 25.349C8.32647 26.4076 7.18802 27.5116 6.14018 28.661C5.03654 29.8174 4.07586 30.9844 3.25817 32.1621C2.37776 33.2909 1.73816 34.3049 1.33935 35.2041C1.1644 35.6224 0.909493 35.8522 0.574631 35.8936C0.239768 35.935 0.0516403 35.7883 0.0102463 35.4534C-0.0104505 35.286 0.000207253 35.143 0.0422198 35.0245C0.126244 34.7875 0.475832 34.1776 1.09098 33.195C1.70613 32.2123 2.55863 31.087 3.64848 29.819C4.73143 28.4952 6.03417 27.1159 7.55671 25.6811C9.07924 24.2463 10.8144 22.9269 12.7621 21.7228C15.2403 20.2266 17.7774 18.978 20.3735 17.9771C23.0255 16.9694 25.6072 16.3102 28.1186 15.9998C31.1882 15.6203 33.6677 15.7388 35.5571 16.3552C37.4396 16.9158 38.8509 17.7896 39.7909 18.9767C41.6477 17.9538 43.5252 17.0985 45.4233 16.4105C47.3704 15.6599 49.4044 15.1534 51.5252 14.8913C52.6414 14.7533 53.8027 14.7514 55.0092 14.8856C56.2716 15.0128 57.4464 15.3493 58.5338 15.8948C59.6212 16.4403 60.5408 17.2333 61.2927 18.2736C62.0935 19.2512 62.5939 20.5493 62.794 22.1678C63.139 24.9583 62.7863 27.835 61.736 30.798C60.6857 33.761 59.2936 36.7096 57.5597 39.6438C55.8259 42.5779 53.8898 45.4804 51.7515 48.3512C49.6132 51.2221 47.6565 53.9572 45.8812 56.5564C44.0991 59.0999 42.6346 61.4625 41.4877 63.6442C40.3408 65.8258 39.8709 67.7538 40.0778 69.4281C40.2089 70.4885 40.6683 71.225 41.4559 71.6376C42.2993 72.0433 43.1954 72.1875 44.1442 72.0702C45.093 71.953 46.255 71.4977 47.6301 70.7044C49.0053 69.9111 50.4959 68.9052 52.1018 67.6868C53.7009 66.4125 55.3629 64.9605 57.088 63.3306C58.8689 61.6939 60.6394 59.9735 62.3996 58.1693C63.3521 55.3317 64.6047 52.4004 66.1573 49.3753C67.703 46.2944 69.339 43.4857 71.0653 40.9491C72.7847 38.3567 74.4721 36.1932 76.1276 34.4587C77.8389 32.7172 79.2526 31.7775 80.3689 31.6395C81.4292 31.5085 82.0112 31.8615 82.1147 32.6987C82.2251 33.5916 81.7977 34.9477 80.8327 36.7669C79.9234 38.5792 78.6511 40.663 77.0157 43.0184C75.3734 45.3179 73.4414 47.7949 71.2197 50.4494C69.0469 53.0412 66.7277 55.5944 64.2621 58.1091C63.8275 59.636 63.4977 61.0934 63.2726 62.4811C63.0406 63.8131 62.9867 64.9813 63.1109 65.9859C63.2696 67.2695 63.7007 68.2362 64.4043 68.8858C65.1568 69.4728 66.2586 69.6766 67.7097 69.4972C69.384 69.2902 71.2267 68.3825 73.2377 66.774C75.2976 65.1027 77.4698 62.9643 79.7542 60.3588C82.0386 57.7532 84.4212 54.7955 86.9019 51.4857C89.3757 48.1201 91.888 44.6081 94.4389 40.9496C96.9898 37.2911 99.5652 33.6013 102.165 29.8801C104.758 26.1032 107.291 22.5319 109.765 19.1663C108.907 19.5557 108.048 19.9451 107.19 20.3346C106.38 20.6613 105.602 21.0125 104.855 21.3881C104.75 21.4577 104.586 21.5063 104.363 21.5339C103.972 21.5822 103.76 21.4668 103.725 21.1878C103.698 20.9645 103.9 20.7695 104.333 20.6027C104.926 20.3594 105.788 19.9979 106.919 19.5181C108.098 18.9757 109.41 18.3602 110.855 17.6716C112.707 15.2328 114.496 12.9718 116.221 10.8886C117.947 8.80543 119.62 6.98371 121.24 5.4235C122.861 3.86328 124.408 2.62382 125.881 1.70511C127.347 0.730596 128.694 0.167449 129.921 0.0156706C130.312 -0.0326221 130.717 0.0307045 131.135 0.20565C131.546 0.32479 131.793 0.719223 131.876 1.38895ZM128.997 2.84979C128.962 2.57074 128.848 2.32994 128.653 2.1274C128.513 1.91796 128.22 1.84083 127.774 1.89602C126.49 2.0547 124.731 3.40547 122.495 5.94834C120.316 8.48431 117.797 11.7138 114.938 15.6369C116.697 14.7395 118.446 13.7584 120.184 12.6936C121.923 11.6288 123.459 10.5323 124.792 9.40416C126.126 8.27601 127.177 7.15445 127.946 6.03948C128.771 4.91761 129.121 3.85438 128.997 2.84979ZM79.7161 34.61C79.6471 34.0519 79.2499 33.8177 78.5243 33.9074C77.9104 33.9833 77.0341 34.6866 75.8953 36.0173C74.8055 37.2853 73.6209 38.9333 72.3417 40.9613C71.0625 42.9893 69.783 45.244 68.5032 47.7254C67.2791 50.1999 66.2225 52.6537 65.3334 55.0868C67.3312 52.9133 69.2175 50.7536 70.9921 48.6077C72.7667 46.4618 74.3039 44.4585 75.6038 42.5979C76.9596 40.7304 78.0046 39.0997 78.7389 37.7057C79.4731 36.3116 79.7989 35.2798 79.7161 34.61ZM40.1664 27.5147C39.6008 27.9813 39.07 28.5002 38.5739 29.0715C38.0779 29.6428 37.6656 30.2037 37.337 30.7543C37.0085 31.3049 36.7601 31.8172 36.5921 32.2913C36.424 32.7654 36.3607 33.1698 36.4021 33.5047C36.4504 33.8954 36.6699 34.0666 37.0606 34.0183C37.2838 33.9907 37.5456 33.8166 37.846 33.4962C38.1394 33.1199 38.4191 32.6321 38.685 32.0326C39.0067 31.4262 39.2901 30.7395 39.5353 29.9726C39.8363 29.1988 40.0466 28.3795 40.1664 27.5147ZM47.3424 28.4975C47.2321 27.6046 46.8668 26.9414 46.2466 26.5081C45.6195 26.019 44.692 25.8503 43.4642 26.0021C43.1293 26.0435 42.7979 26.1128 42.47 26.21C42.142 26.3072 41.8454 26.4289 41.5801 26.575C41.4391 27.7257 41.1829 28.8623 40.8117 29.9848C40.4336 31.0515 39.9893 32.0413 39.4789 32.9544C39.0174 33.8047 38.5107 34.519 37.9589 35.0971C37.456 35.6126 36.9813 35.8979 36.5348 35.9531C35.2512 36.1118 34.5507 35.7168 34.4334 34.768C34.3713 34.2657 34.4663 33.659 34.7184 32.9479C35.0263 32.2299 35.4458 31.498 35.9769 30.7524C36.5011 29.951 37.1439 29.1916 37.9051 28.4742C38.6595 27.701 39.4556 27.0359 40.2934 26.4791C40.4269 25.7259 40.4316 24.8471 40.3074 23.8425C40.1487 22.5589 39.7248 21.4213 39.0356 20.4299C36.1385 22.2046 33.4816 24.318 31.0649 26.7699C28.697 29.1591 26.6813 31.6465 25.0177 34.232C23.4099 36.8106 22.1928 39.3409 21.3664 41.8229C20.533 44.2491 20.2267 46.3552 20.4475 48.1411C20.6476 49.7596 21.2806 50.9846 22.3467 51.8161C23.4127 52.6476 25.0062 52.9323 27.127 52.6701C28.6338 52.4839 30.1796 51.9245 31.7642 50.992C33.3978 49.9968 34.9758 48.7817 36.4983 47.347C38.0767 45.9053 39.554 44.3344 40.9305 42.6343C42.3 40.8785 43.4742 39.1467 44.453 37.4392C45.4808 35.6689 46.2398 34.0168 46.7302 32.483C47.2694 30.8864 47.4735 29.5579 47.3424 28.4975Z" fill="#E6E2D6"></path><path d="M108.309 58.4438C108.344 58.7229 108.092 59.2073 107.554 59.8971C107.016 60.5869 106.255 61.3043 105.27 62.0493C104.342 62.7874 103.211 63.4938 101.878 64.1686C100.593 64.7806 99.2257 65.1764 97.7746 65.3557C95.7096 65.611 94.1824 65.4031 93.1928 64.7322C92.2522 63.9985 91.7094 63.0457 91.5645 61.8737C91.4265 60.7574 91.5921 59.5754 92.0611 58.3275C92.5232 57.0238 93.1911 55.7796 94.0646 54.595C94.9939 53.4036 96.059 52.3936 97.2598 51.5652C98.5165 50.7299 99.8424 50.226 101.238 50.0536C102.075 49.9501 102.797 50.0592 103.403 50.3809C104.009 50.7025 104.371 51.3378 104.489 52.2865C104.62 53.3469 104.378 54.3685 103.762 55.3511C103.147 56.3338 102.326 57.2569 101.3 58.1204C100.273 58.9839 99.1249 59.7775 97.8545 60.5012C96.6398 61.2179 95.4706 61.8441 94.3469 62.3797C94.9521 63.6081 96.2592 64.0981 98.2684 63.8498C99.7195 63.6704 101.216 63.1737 102.759 62.3597C104.357 61.5389 105.925 60.2401 107.462 58.4636C107.602 58.2196 107.755 58.0873 107.923 58.0666C108.146 58.039 108.275 58.1648 108.309 58.4438ZM102.478 53.215C102.403 52.6011 102.152 52.1787 101.727 51.948C101.351 51.6545 100.883 51.5423 100.325 51.6112C99.4324 51.7216 98.5739 52.1111 97.7499 52.7796C96.9259 53.448 96.2029 54.2457 95.5809 55.1726C94.9588 56.0994 94.4866 57.0927 94.1643 58.1525C93.891 59.1496 93.8094 60.0946 93.9198 60.9875L93.9923 61.5735C95.1091 60.9822 96.1946 60.3664 97.2487 59.7261C98.2959 59.03 99.2002 58.3233 99.9614 57.6059C100.778 56.8816 101.425 56.1501 101.9 55.4114C102.375 54.6726 102.568 53.9405 102.478 53.215Z" fill="#E6E2D6"></path><path d="M131.401 21.4215C131.442 21.7563 131.334 22.0247 131.075 22.2267C130.586 22.8538 129.671 24.1568 128.329 26.136C126.98 28.0592 125.449 30.345 123.737 32.9932C122.024 35.6414 120.245 38.4395 118.4 41.3875C116.547 44.2796 114.877 47.036 113.387 49.6566C111.898 52.2772 110.678 54.5529 109.727 56.4837C108.768 58.3587 108.324 59.5753 108.393 60.1334C108.448 60.5799 108.639 60.9812 108.967 61.3374C109.294 61.6936 109.848 61.8234 110.63 61.7268C111.076 61.6716 111.784 61.4424 112.755 61.0391C113.495 60.6077 114.252 60.0891 115.027 59.4833C115.802 58.8775 116.56 58.1322 117.301 57.2474C117.44 57.0035 117.594 56.8711 117.761 56.8504C117.985 56.8228 118.114 56.9486 118.148 57.2276C118.196 57.6183 117.798 58.2909 116.953 59.2453C116.107 60.1997 114.973 61.1049 113.548 61.9609C112.655 62.5247 111.856 62.9352 111.151 63.1923C110.495 63.3867 109.916 63.5149 109.413 63.577C108.297 63.715 107.509 63.5291 107.05 63.0193C106.639 62.4468 106.399 61.8814 106.33 61.3233C106.24 60.5978 106.685 59.1546 107.665 56.9936C108.7 54.8258 110.008 52.3409 111.588 49.5391C113.224 46.7303 114.986 43.7927 116.873 40.7262C118.81 37.597 120.631 34.6804 122.336 31.9764C124.098 29.2655 125.597 26.9553 126.834 25.0458C128.071 23.1363 128.805 21.969 129.036 21.5438C129.378 21.1048 129.801 20.8543 130.303 20.7922C130.805 20.7301 131.126 20.8038 131.265 21.0132C131.335 21.118 131.38 21.254 131.401 21.4215Z" fill="#E6E2D6"></path><path d="M136.248 54.9902C136.269 55.1576 136.042 55.6107 135.566 56.3494C135.14 57.0254 134.413 57.7952 133.387 58.6587C132.354 59.4664 131.006 60.2562 129.345 61.0282C127.691 61.856 125.692 62.4147 123.348 62.7045C121.115 62.9805 119.476 62.7864 118.431 62.1223C117.386 61.4583 116.794 60.5681 116.656 59.4519C116.518 58.3357 116.76 57.0875 117.383 55.7073C117.999 54.2712 118.88 52.9158 120.025 51.6409C121.171 50.366 122.508 49.2658 124.037 48.3402C125.559 47.3588 127.185 46.7611 128.915 46.5472C130.199 46.3886 131.29 46.5086 132.189 46.9074C133.144 47.2993 133.687 48.0255 133.819 49.0859C133.901 49.7556 133.785 50.4216 133.471 51.0838C133.149 51.6902 132.74 52.279 132.244 52.8503C131.741 53.3658 131.172 53.8044 130.537 54.1663C129.895 54.4723 129.295 54.6598 128.736 54.7288C127.788 54.8461 127.062 54.7091 126.561 54.3178C126.108 53.8638 125.864 53.4973 125.83 53.2182C125.782 52.8276 125.925 52.3848 126.261 51.8901C126.652 51.3884 126.984 51.0924 127.256 51.0021C127.423 50.9814 127.601 51.0444 127.789 51.1911C127.97 51.2821 128.071 51.4112 128.092 51.5787C128.106 51.6903 128.088 51.7775 128.039 51.8402C127.942 51.9656 127.882 52.1713 127.861 52.4572C127.888 52.6805 127.916 52.9037 127.943 53.1269C127.999 53.5734 128.361 53.7553 129.031 53.6725C129.589 53.6035 130.196 53.2451 130.853 52.5973C131.502 51.8937 131.765 51.0396 131.641 50.035C131.517 49.0304 131.148 48.3394 130.535 47.9619C129.921 47.5844 129.168 47.4509 128.275 47.5612C127.103 47.7061 125.945 48.1893 124.8 49.0108C123.704 49.7696 122.715 50.7134 121.835 51.8422C121.003 52.9082 120.325 54.0687 119.8 55.3235C119.325 56.5156 119.149 57.6139 119.273 58.6185C119.39 59.5673 119.853 60.3317 120.661 60.9117C121.463 61.4359 122.728 61.5911 124.459 61.3772C127.137 61.0461 129.315 60.3237 130.99 59.2099C132.715 58.0335 134.185 56.6335 135.401 55.0099C135.541 54.766 135.694 54.6337 135.862 54.613C136.085 54.5854 136.214 54.7111 136.248 54.9902Z" fill="#E6E2D6"></path><path d="M158.66 45.2502C158.673 45.3619 158.631 45.4804 158.533 45.6058C158.233 45.9262 157.744 46.3266 157.067 46.807C156.383 47.2315 155.615 47.6664 154.764 48.1117C153.968 48.55 153.081 48.9429 152.104 49.2903C151.183 49.6309 150.252 49.8877 149.31 50.0608C149.001 51.2322 148.522 52.3964 147.872 53.5533C147.221 54.7103 146.418 55.7729 145.461 56.7412C144.553 57.6467 143.516 58.4265 142.35 59.0806C141.24 59.7277 140.044 60.1307 138.76 60.2893C136.974 60.5101 135.649 60.3339 134.785 59.7608C133.97 59.1249 133.496 58.2768 133.365 57.2164C133.227 56.1002 133.389 54.8902 133.852 53.5865C134.363 52.2201 135.083 50.9412 136.012 49.7497C136.935 48.5024 137.993 47.4366 139.187 46.5524C140.374 45.6124 141.581 45.0665 142.809 44.9147C143.236 43.7853 144.147 43.1344 145.542 42.9619C146.38 42.8584 147.202 43.0967 148.011 43.6768C148.868 44.1941 149.386 45.1783 149.566 46.6294C149.669 47.4665 149.651 48.2338 149.51 48.9311C150.459 48.8138 151.418 48.5535 152.388 48.1503C153.359 47.7471 154.269 47.3228 155.121 46.8776C155.972 46.4323 156.66 46.0357 157.184 45.6876C157.756 45.2769 158.091 45.0088 158.189 44.8834C158.301 44.8696 158.419 44.9116 158.545 45.0094C158.607 45.0583 158.646 45.1386 158.66 45.2502ZM147.817 47.6105C147.665 46.3826 147.307 45.5486 146.743 45.1084C146.227 44.6055 145.746 44.3816 145.3 44.4368C144.797 44.4989 144.574 44.7532 144.629 45.1997C144.788 46.4833 145.156 47.4011 145.734 47.9529C146.313 48.5047 147.034 48.8405 147.899 48.9603C147.92 48.6743 147.893 48.2244 147.817 47.6105ZM147.719 50.2574C146.533 50.2907 145.481 50.0242 144.561 49.4579C143.69 48.829 143.105 47.768 142.807 46.2749C141.809 46.4549 140.874 46.9105 140.001 47.6417C139.128 48.3729 138.384 49.2298 137.769 50.2124C137.203 51.1324 136.762 52.1501 136.447 53.2657C136.124 54.3255 136.019 55.3019 136.129 56.1948C136.239 57.0878 136.584 57.8102 137.162 58.362C137.733 58.858 138.605 59.0336 139.777 58.8887C140.446 58.8059 141.176 58.5175 141.965 58.0233C142.809 57.5223 143.609 56.8851 144.363 56.1119C145.173 55.3318 145.886 54.4504 146.501 53.4678C147.109 52.4293 147.515 51.3592 147.719 50.2574Z" fill="#E6E2D6"></path><path d="M181.014 49.4565C181.048 49.7355 180.772 50.2513 180.185 51.0038C179.591 51.7005 178.834 52.4458 177.912 53.2397C176.99 54.0336 175.974 54.7542 174.864 55.4014C173.81 56.0416 172.781 56.4239 171.776 56.548C170.548 56.6998 169.855 56.1339 169.696 54.8503C169.593 54.0131 169.821 53.1066 170.38 52.1309C170.939 51.1551 171.555 50.1725 172.226 49.1829C172.897 48.1934 173.519 47.2665 174.092 46.4024C174.658 45.4825 174.9 44.6876 174.817 44.0179C174.762 43.5714 174.473 43.2955 173.95 43.1902C173.427 43.0848 172.998 43.0528 172.663 43.0942C171.554 43.288 170.294 43.8687 168.883 44.8364C167.522 45.7413 166.3 46.6289 165.218 47.4993C164.798 48.2312 164.309 49.0849 163.75 50.0607C163.246 51.0295 162.739 51.9705 162.229 52.8835C161.774 53.7897 161.361 54.5773 160.991 55.2464C160.62 55.9155 160.386 56.3128 160.288 56.4382C160.19 56.5636 160.04 56.7238 159.838 56.9189C159.684 57.0512 159.496 57.1311 159.272 57.1587C158.826 57.2139 158.568 56.9625 158.499 56.4044C158.472 56.1811 158.528 55.9475 158.667 55.7036C158.807 55.4597 158.951 55.2436 159.097 55.0555C160.398 52.7415 161.398 50.9747 162.097 49.755C162.852 48.5284 163.39 47.6119 163.712 47.0055C164.089 46.3922 164.296 45.9984 164.331 45.8241C164.415 45.5871 164.436 45.3011 164.395 44.9662C164.319 44.3523 163.918 44.0902 163.193 44.1799C162.746 44.2351 162.23 44.4123 161.643 44.7114C161.057 45.0105 160.478 45.3655 159.905 45.7762C159.326 46.1312 158.778 46.5105 158.261 46.9144C157.793 47.2555 157.434 47.555 157.182 47.8127C156.98 48.0077 156.546 48.6279 155.882 49.6733C155.274 50.7118 154.62 51.8408 153.921 53.0605C153.215 54.2244 152.558 55.3256 151.95 56.3641C151.397 57.3956 151.051 58.0334 150.911 58.2773C150.576 58.7721 150.24 59.0402 149.906 59.0816C149.459 59.1368 149.205 58.9132 149.143 58.4109C149.094 58.0202 149.193 57.6681 149.437 57.3546C149.577 57.1106 150.021 56.3475 150.769 55.0651C151.51 53.7269 152.328 52.3225 153.223 50.852C153.74 49.9947 154.23 49.1409 154.691 48.2906C155.209 47.4334 155.653 46.6702 156.023 46.0011C156.45 45.3251 156.775 44.7466 156.999 44.2656C157.278 43.7777 157.443 43.5024 157.491 43.4397C157.771 42.9519 158.162 42.6769 158.664 42.6148C159.167 42.5527 159.452 42.8007 159.521 43.3588C159.59 43.9169 159.454 44.4154 159.111 44.8544L159.122 44.9381L159.205 44.9278C159.562 44.6004 160.246 44.1759 161.258 43.6541C162.263 43.0766 163.24 42.7291 164.189 42.6119C164.803 42.536 165.322 42.6134 165.747 42.8442C166.166 43.0191 166.416 43.4415 166.499 44.1112C166.561 44.6135 166.501 45.0458 166.319 45.4083C168.184 43.9879 169.73 42.9752 170.958 42.37C172.236 41.7021 173.293 41.3164 174.13 41.213C174.856 41.1233 175.4 41.1694 175.762 41.3512C176.174 41.4703 176.508 41.6556 176.766 41.9071C177.024 42.1585 177.208 42.5041 177.319 42.9437C177.429 43.8366 177.208 44.7989 176.656 45.8304C176.097 46.8062 175.453 47.7923 174.727 48.7888C174 49.7852 173.353 50.7434 172.787 51.6633C172.221 52.5833 171.983 53.406 172.072 54.1316C172.148 54.7455 172.577 55.0041 173.358 54.9076C173.972 54.8317 174.876 54.3516 176.07 53.4674C177.264 52.5832 178.629 51.2528 180.166 49.4762C180.306 49.2323 180.46 49.1 180.627 49.0793C180.85 49.0517 180.979 49.1774 181.014 49.4565Z" fill="#E6E2D6"></path><path d="M196.603 47.5294C196.638 47.8085 196.386 48.2929 195.848 48.9827C195.31 49.6725 194.549 50.3899 193.564 51.1349C192.635 51.873 191.505 52.5794 190.171 53.2542C188.887 53.8662 187.519 54.2619 186.068 54.4413C184.003 54.6966 182.476 54.4887 181.487 53.8178C180.546 53.0841 180.003 52.1313 179.858 50.9592C179.72 49.843 179.886 48.661 180.355 47.4131C180.817 46.1094 181.485 44.8652 182.358 43.6806C183.288 42.4891 184.353 41.4792 185.554 40.6508C186.81 39.8155 188.136 39.3116 189.531 39.1391C190.369 39.0357 191.09 39.1448 191.697 39.4664C192.303 39.7881 192.665 40.4234 192.782 41.3721C192.913 42.4325 192.671 43.4541 192.056 44.4367C191.441 45.4194 190.62 46.3424 189.594 47.206C188.567 48.0695 187.419 48.8631 186.148 49.5868C184.934 50.3035 183.764 50.9297 182.641 51.4652C183.246 52.6937 184.553 53.1837 186.562 52.9354C188.013 52.756 189.51 52.2593 191.053 51.4453C192.651 50.6245 194.219 49.3257 195.756 47.5492C195.896 47.3052 196.049 47.1729 196.217 47.1522C196.44 47.1246 196.569 47.2503 196.603 47.5294ZM190.772 42.3006C190.696 41.6867 190.446 41.2643 190.021 41.0336C189.644 40.7401 189.177 40.6278 188.619 40.6968C187.726 40.8072 186.868 41.1967 186.044 41.8651C185.22 42.5336 184.497 43.3313 183.875 44.2581C183.253 45.185 182.78 46.1783 182.458 47.2381C182.185 48.2351 182.103 49.1802 182.214 50.0731L182.286 50.6591C183.403 50.0678 184.488 49.452 185.542 48.8117C186.59 48.1156 187.494 47.4089 188.255 46.6915C189.072 45.9672 189.718 45.2357 190.194 44.4969C190.669 43.7582 190.862 43.0261 190.772 42.3006Z" fill="#E6E2D6"></path></svg> 