<?xml version="1.0" encoding="UTF-8"?> <svg xmlns="http://www.w3.org/2000/svg" width="98" height="19" viewBox="0 0 98 19" fill="none"><path d="M6.60026 3.7704L3.51235 16.5463L4.5165 16.8647L4.52025 16.9546L0.545712 17.1205L0.541959 17.0306L1.80383 16.6176L4.61682 5.0242L3.44784 5.07299L3.44409 4.98307L6.56429 3.7719L6.60026 3.7704ZM10.0308 16.9408C8.25033 17.0151 6.76129 15.8702 6.64345 13.0467C6.4708 8.91027 9.06468 3.72159 12.8594 3.5632C14.6398 3.48889 16.0202 4.62031 16.1381 7.44385C16.3039 11.4184 13.8974 16.7794 10.0308 16.9408ZM8.24189 14.223C8.32221 16.1474 9.06936 16.7828 10.0405 16.7422C12.882 16.6236 14.6575 9.52341 14.5201 6.23227C14.4443 4.41585 13.8028 3.722 12.8317 3.76253C9.95417 3.88263 8.10303 10.8959 8.24189 14.223ZM19.6856 9.65584C20.515 8.37814 21.4793 6.87863 22.4145 6.83959C23.062 6.81257 23.612 7.47421 23.0989 9.4233L21.9669 13.8123L21.9849 13.8116L27.6929 6.83547L28.5922 6.79794L27.0032 13.1878C26.6339 14.6985 26.9157 14.975 27.2034 14.963C27.5631 14.9479 27.9011 14.4114 28.5102 13.4672L28.6721 13.4604C27.8441 14.7741 26.9143 16.2361 26.0151 16.2737C25.3856 16.2999 24.7801 15.6046 25.3509 13.3108L26.4791 8.83183L26.4432 8.83333L19.7123 16.7709L19.6224 16.7747L21.5102 9.34548C21.7724 8.28963 21.5454 8.02887 21.2756 8.04013C20.8799 8.05665 20.4738 8.68613 19.8475 9.64909L19.6856 9.65584ZM30.7483 8.95991C30.9933 7.92279 30.7834 7.6433 30.5136 7.65456C30.118 7.67107 29.7119 8.30055 29.0855 9.26351L28.9236 9.27027C29.7531 7.99257 30.7174 6.49305 31.6526 6.45402C32.3 6.427 32.8313 7.0714 32.3541 9.01899L31.9541 10.6571L33.4648 10.594C34.1915 8.14962 36.2026 6.26411 38.2528 6.17854C39.7815 6.11474 40.8876 7.14951 40.9739 9.21771C41.1158 12.6168 38.5982 15.7485 35.9365 15.8596C34.3359 15.9264 33.2808 14.8174 33.1959 12.7852C33.1674 12.1018 33.2475 11.4318 33.4191 10.7941L31.9084 10.8572L30.6761 15.8629L29.0215 15.932L30.7483 8.95991ZM34.8572 12.878C34.9391 14.8383 35.6727 15.5823 36.4461 15.55C38.1006 15.481 39.444 12.2722 39.3096 9.05297C39.2278 7.09268 38.5159 6.4378 37.7965 6.46782C36.106 6.53838 34.7229 9.65877 34.8572 12.878ZM40.2358 14.8334C40.2252 14.5816 40.2694 14.3456 40.3002 14.2182L40.48 14.2107C42.5662 14.1236 44.1838 11.4438 43.9759 6.46213L43.9632 6.15639L48.9628 5.94772L47.4278 12.3353C47.057 13.81 47.3043 14.124 47.6101 14.1112C47.9518 14.097 48.3077 13.5597 48.9348 12.6147L49.0967 12.6079C48.2687 13.9216 47.3029 15.3851 46.4217 15.4219C45.7922 15.4482 45.2227 14.7513 45.774 12.4223L47.2805 6.21611L45.1044 6.30693L43.7949 10.7574C42.7078 14.496 41.7098 15.6186 40.9365 15.6509C40.5228 15.6681 40.2575 15.3549 40.2358 14.8334ZM47.6446 15.0466C48.3812 14.9978 48.6974 14.8045 49.5366 13.7606L52.9623 9.51003L52.9616 9.49205C52.0361 9.3325 51.292 8.76905 51.2537 7.85184C51.1982 6.521 52.6181 5.57897 54.4525 5.50241C55.6215 5.45361 56.4997 5.77727 57.3046 6.06796L57.7451 5.40101L57.8351 5.39726L56.2357 11.9677C55.8656 13.4604 56.1301 13.7556 56.4359 13.7429C56.7776 13.7286 57.1155 13.192 57.7426 12.2471L57.9045 12.2403C57.0765 13.554 56.1287 15.0168 55.2475 15.0536C54.618 15.0798 54.0305 14.3837 54.5998 12.054L55.0291 10.2525L53.5184 10.3155L52.2402 12.4947C51.0459 14.5263 50.4906 15.0359 49.4475 15.0795L47.6491 15.1545L47.6446 15.0466ZM52.6655 8.00911C52.6866 9.37742 53.5649 10.1335 54.7338 10.0847L55.0755 10.0704L55.9977 6.26663C55.7721 6.04184 55.3053 5.64697 54.5679 5.67774C53.4709 5.72353 52.6437 6.62281 52.6655 8.00911ZM62.941 5.83271C63.5125 3.12452 64.9714 1.38818 67.0576 1.3011C68.7301 1.23129 69.9629 2.2788 70.0297 3.87941C70.119 6.01954 68.015 8.26924 64.0871 11.712L62.6268 12.98L62.6283 13.016L68.0955 12.7878L68.8957 11.6735L68.9856 11.6697L67.3531 15.2869L67.2631 15.2907L67.4032 14.33L60.5871 14.6145L60.5864 14.5965L61.9052 13.3885C66.1057 9.57399 68.4788 7.29505 68.3722 4.74127C68.3069 3.17664 67.3754 2.44084 66.0445 2.49639C64.426 2.56394 63.5575 3.77121 63.0669 5.82746L62.941 5.83271ZM73.5907 14.288C71.8102 14.3623 70.3212 13.2174 70.2033 10.3938C70.0307 6.25743 72.6246 1.06875 76.4193 0.910368C78.1997 0.836057 79.5801 1.96748 79.698 4.79102C79.8638 8.76556 77.4573 14.1266 73.5907 14.288ZM71.8018 11.5702C71.8821 13.4945 72.6293 14.1299 73.6004 14.0894C76.4419 13.9708 78.2174 6.87057 78.08 3.57944C78.0042 1.76302 77.3627 1.06916 76.3916 1.1097C73.5141 1.2298 71.6629 8.24309 71.8018 11.5702ZM80.8199 5.08649C81.3915 2.3783 82.8504 0.64195 84.9365 0.554878C86.6091 0.48507 87.8418 1.53257 87.9087 3.13318C87.998 5.27332 85.894 7.52301 81.9661 10.9658L80.5057 12.2338L80.5072 12.2698L85.9745 12.0416L86.7747 10.9272L86.8646 10.9235L85.232 14.5407L85.1421 14.5445L85.2822 13.5838L78.4661 13.8683L78.4654 13.8503L79.7841 12.6423C83.9847 8.82777 86.3577 6.54883 86.2512 3.99505C86.1858 2.43041 85.2544 1.69462 83.9235 1.75016C82.3049 1.81772 81.4365 3.02498 80.9458 5.08123L80.8199 5.08649ZM96.9442 0.179816C92.347 0.533835 89.5643 5.51421 89.7677 10.388C89.8593 12.5821 90.6851 13.3763 91.7102 13.3335C93.2569 13.269 94.332 10.9721 94.2405 8.77805C94.1646 6.96163 93.3433 6.27528 92.498 6.31056C92.0664 6.32858 91.7315 6.5047 91.434 6.71529L91.3575 6.61038C91.9143 6.13675 92.6696 5.67285 93.5868 5.63457C94.8457 5.58203 95.9413 6.36502 96.0231 8.32531C96.138 11.0769 94.0924 13.4323 91.6106 13.5359C89.7582 13.6132 88.2317 12.4338 88.1108 9.53832C87.9127 4.79046 91.8854 0.26485 96.9382 0.0359412L96.9442 0.179816Z" fill="#342619"></path></svg> 