<?xml version="1.0" encoding="UTF-8"?> <svg xmlns="http://www.w3.org/2000/svg" width="56" height="20" viewBox="0 0 56 20" fill="none"><path d="M9.975 1.1L4.95 18.625L6.4 19.125V19.25H0V19.125L1.775 18.625L6.3 2.875H4.7V2.75L9.925 1.1H9.975Z" fill="#342619"></path><path d="M7.68301 17C7.68301 16.25 8.23301 15.6 9.13301 15.25C9.58301 17.675 10.608 19.25 12.383 19.25C14.483 19.25 16.283 17.25 16.283 14.325C16.283 11.25 14.358 9.575 11.258 9.425L14.158 1.45H21.683L22.858 0H22.983L20.908 4.375H13.508L12.133 7.75C16.383 7.875 19.558 9.4 19.558 12.95C19.558 16.55 16.208 19.55 12.058 19.55C9.45801 19.55 7.68301 18.375 7.68301 17Z" fill="#342619"></path><path d="M24.1221 11.85C23.0221 11.85 22.2221 11.075 22.2221 9.95C22.2221 8.75 23.0971 7.85 24.2721 7.85C25.3971 7.85 26.1721 8.65 26.1721 9.75C26.1721 10.95 25.2971 11.85 24.1221 11.85ZM20.0471 17.5C20.0471 16.3 20.9221 15.4 22.0971 15.4C23.2221 15.4 23.9971 16.2 23.9971 17.3C23.9971 18.5 23.1221 19.4 21.9471 19.4C20.8471 19.4 20.0471 18.625 20.0471 17.5Z" fill="#342619"></path><path d="M31.9564 19.55C29.2814 19.55 27.2064 17.7 27.2064 13.675C27.2064 8 31.2064 1.15 36.5564 1.15C39.1814 1.15 41.1564 2.975 41.1564 6.975C41.1564 12.475 37.3314 19.55 31.9564 19.55ZM30.0814 16.075C30.0814 18.45 30.8564 19.25 31.9564 19.25C35.3814 19.25 38.2814 8.925 38.2814 4.55C38.2814 2.25 37.5814 1.425 36.5314 1.425C33.0314 1.425 30.0814 11.6 30.0814 16.075Z" fill="#342619"></path><path d="M46.5316 19.55C43.8566 19.55 41.7816 17.7 41.7816 13.675C41.7816 8 45.7816 1.15 51.1316 1.15C53.7566 1.15 55.7316 2.975 55.7316 6.975C55.7316 12.475 51.9066 19.55 46.5316 19.55ZM44.6566 16.075C44.6566 18.45 45.4316 19.25 46.5316 19.25C49.9566 19.25 52.8566 8.925 52.8566 4.55C52.8566 2.25 52.1566 1.425 51.1066 1.425C47.6066 1.425 44.6566 11.6 44.6566 16.075Z" fill="#342619"></path></svg> 