<?xml version="1.0" encoding="UTF-8"?> <svg xmlns="http://www.w3.org/2000/svg" width="58" height="19" viewBox="0 0 58 19" fill="none"><path d="M9.975 0L4.95 17.525L6.4 18.025V18.15H0V18.025L1.775 17.525L6.3 1.775H4.7V1.65L9.925 0H9.975Z" fill="#342619"></path><path d="M22.708 0.199999C16.283 0.45 12.358 7.75 12.358 14.325C12.358 17.15 13.258 18.15 14.408 18.15C16.333 18.15 17.783 14.475 17.783 11.625C17.783 9.375 16.858 8.45 15.883 8.45C15.408 8.45 15.033 8.625 14.733 8.825L14.633 8.675C15.433 8 16.533 7.3 17.883 7.3C19.608 7.3 21.108 8.45 21.108 11.175C21.108 15.05 17.958 18.45 14.233 18.45C11.433 18.45 9.35801 16.55 9.35801 12.575C9.35801 5.7 15.733 0.074999 22.708 0.0249997V0.199999Z" fill="#342619"></path><path d="M25.5137 10.75C24.4137 10.75 23.6137 9.975 23.6137 8.85C23.6137 7.65 24.4887 6.75 25.6637 6.75C26.7887 6.75 27.5637 7.55 27.5637 8.65C27.5637 9.85 26.6887 10.75 25.5137 10.75ZM21.4387 16.4C21.4387 15.2 22.3137 14.3 23.4887 14.3C24.6137 14.3 25.3887 15.1 25.3887 16.2C25.3887 17.4 24.5137 18.3 23.3387 18.3C22.2387 18.3 21.4387 17.525 21.4387 16.4Z" fill="#342619"></path><path d="M33.348 18.45C30.673 18.45 28.598 16.6 28.598 12.575C28.598 6.9 32.598 0.0499994 37.948 0.0499994C40.573 0.0499994 42.548 1.875 42.548 5.875C42.548 11.375 38.723 18.45 33.348 18.45ZM31.473 14.975C31.473 17.35 32.248 18.15 33.348 18.15C36.773 18.15 39.673 7.825 39.673 3.45C39.673 1.15 38.973 0.324999 37.923 0.324999C34.423 0.324999 31.473 10.5 31.473 14.975Z" fill="#342619"></path><path d="M47.9232 18.45C45.2482 18.45 43.1732 16.6 43.1732 12.575C43.1732 6.9 47.1732 0.0499994 52.5232 0.0499994C55.1482 0.0499994 57.1232 1.875 57.1232 5.875C57.1232 11.375 53.2982 18.45 47.9232 18.45ZM46.0482 14.975C46.0482 17.35 46.8232 18.15 47.9232 18.15C51.3482 18.15 54.2482 7.825 54.2482 3.45C54.2482 1.15 53.5482 0.324999 52.4982 0.324999C48.9982 0.324999 46.0482 10.5 46.0482 14.975Z" fill="#342619"></path></svg> 