<?xml version="1.0" encoding="UTF-8"?> <svg xmlns="http://www.w3.org/2000/svg" width="55" height="20" viewBox="0 0 55 20" fill="none"><path d="M9.975 1.1L4.95 18.625L6.4 19.125V19.25H0V19.125L1.775 18.625L6.3 2.875H4.7V2.75L9.925 1.1H9.975Z" fill="#342619"></path><path d="M8.23301 19.2C10.908 13.85 16.758 9.675 20.358 4.375H11.908L10.658 5.9H10.533L13.458 0H13.558L13.308 1.45H22.708L22.683 1.5C17.958 8.05 14.508 13.75 12.083 19.25H8.23301V19.2Z" fill="#342619"></path><path d="M22.7793 11.85C21.6793 11.85 20.8793 11.075 20.8793 9.95C20.8793 8.75 21.7543 7.85 22.9293 7.85C24.0543 7.85 24.8293 8.65 24.8293 9.75C24.8293 10.95 23.9543 11.85 22.7793 11.85ZM18.7043 17.5C18.7043 16.3 19.5793 15.4 20.7543 15.4C21.8793 15.4 22.6543 16.2 22.6543 17.3C22.6543 18.5 21.7793 19.4 20.6043 19.4C19.5043 19.4 18.7043 18.625 18.7043 17.5Z" fill="#342619"></path><path d="M30.6137 19.55C27.9387 19.55 25.8637 17.7 25.8637 13.675C25.8637 8 29.8637 1.15 35.2137 1.15C37.8387 1.15 39.8137 2.975 39.8137 6.975C39.8137 12.475 35.9887 19.55 30.6137 19.55ZM28.7387 16.075C28.7387 18.45 29.5137 19.25 30.6137 19.25C34.0387 19.25 36.9387 8.925 36.9387 4.55C36.9387 2.25 36.2387 1.425 35.1887 1.425C31.6887 1.425 28.7387 11.6 28.7387 16.075Z" fill="#342619"></path><path d="M45.1889 19.55C42.5139 19.55 40.4389 17.7 40.4389 13.675C40.4389 8 44.4389 1.15 49.7889 1.15C52.4139 1.15 54.3889 2.975 54.3889 6.975C54.3889 12.475 50.5639 19.55 45.1889 19.55ZM43.3139 16.075C43.3139 18.45 44.0889 19.25 45.1889 19.25C48.6139 19.25 51.5139 8.925 51.5139 4.55C51.5139 2.25 50.8139 1.425 49.7639 1.425C46.2639 1.425 43.3139 11.6 43.3139 16.075Z" fill="#342619"></path></svg> 